%TF.GenerationSoftware,KiCad,Pcbnew,7.0.7*%
%TF.CreationDate,2023-11-02T08:16:26-05:00*%
%TF.ProjectId,PCI Blaster Mouse Bites,50434920-426c-4617-9374-6572204d6f75,rev?*%
%TF.SameCoordinates,Original*%
%TF.FileFunction,Profile,NP*%
%FSLAX46Y46*%
G04 Gerber Fmt 4.6, Leading zero omitted, Abs format (unit mm)*
G04 Created by KiCad (PCBNEW 7.0.7) date 2023-11-02 08:16:26*
%MOMM*%
%LPD*%
G01*
G04 APERTURE LIST*
%TA.AperFunction,Profile*%
%ADD10C,0.050000*%
%TD*%
%TA.AperFunction,Profile*%
%ADD11C,0.100000*%
%TD*%
G04 APERTURE END LIST*
D10*
X177000000Y-93170000D02*
X177000000Y-79450000D01*
X173000000Y-79450000D02*
X173000000Y-93170000D01*
X156000000Y-93170000D02*
X156000000Y-79490000D01*
X152000000Y-79490000D02*
X152000000Y-93170000D01*
X135000000Y-93210000D02*
X135000000Y-79490000D01*
X131000000Y-79490000D02*
X131000000Y-93210000D01*
X156000000Y-77450000D02*
X173000000Y-77410000D01*
D11*
X177000000Y-77410000D02*
G75*
G03*
X177000000Y-79450000I0J-1020000D01*
G01*
D10*
X152000000Y-77450000D02*
X135000000Y-77450000D01*
D11*
X193573000Y-76902000D02*
X193573000Y-77442000D01*
X152000000Y-79490000D02*
G75*
G03*
X152000000Y-77450000I0J1020000D01*
G01*
X193573000Y-58477000D02*
X130723000Y-58477000D01*
X128923000Y-58477000D02*
X114348000Y-58477000D01*
X131000000Y-79490000D02*
G75*
G03*
X131000000Y-77450000I0J1020000D01*
G01*
X193573000Y-66727000D02*
X193573000Y-58477000D01*
X128923000Y-66727000D02*
X128923000Y-58477000D01*
X135000000Y-77450000D02*
G75*
G03*
X135000000Y-79490000I0J-1020000D01*
G01*
X193573000Y-76902000D02*
X193573000Y-66727000D01*
X129448003Y-77467470D02*
X129348000Y-77477000D01*
X114348000Y-76922000D02*
X114348000Y-77477000D01*
X156000000Y-77450000D02*
G75*
G03*
X156000000Y-79490000I0J-1020000D01*
G01*
X178448003Y-77436546D02*
X177000000Y-77410000D01*
X130040017Y-77467096D02*
X131000000Y-77450000D01*
X173000000Y-79450000D02*
G75*
G03*
X173000000Y-77410000I0J1020000D01*
G01*
X178573000Y-77442000D02*
G75*
G03*
X193573000Y-77442000I7500000J0D01*
G01*
X130723000Y-66727000D02*
X128923000Y-66727000D01*
X129448003Y-77467470D02*
X130040017Y-77467096D01*
X130723000Y-58477000D02*
X130723000Y-66727000D01*
X178448003Y-77436546D02*
X178573000Y-77442000D01*
X114348000Y-77477000D02*
G75*
G03*
X129348000Y-77477000I7500000J0D01*
G01*
X114348000Y-58477000D02*
X114348000Y-76922000D01*
D10*
X156000000Y-95210000D02*
X173000000Y-95210000D01*
X152000000Y-95210000D02*
X135000000Y-95250000D01*
D11*
X156000000Y-93170000D02*
G75*
G03*
X156000000Y-95210000I0J-1020000D01*
G01*
X152000000Y-95210000D02*
G75*
G03*
X152000000Y-93170000I0J1020000D01*
G01*
X177959983Y-95192904D02*
X177000000Y-95210000D01*
X177000000Y-93170000D02*
G75*
G03*
X177000000Y-95210000I0J-1020000D01*
G01*
X173000000Y-95210000D02*
G75*
G03*
X173000000Y-93170000I0J1020000D01*
G01*
X129551997Y-95223454D02*
X131000000Y-95250000D01*
X131000000Y-95250000D02*
G75*
G03*
X131000000Y-93210000I0J1020000D01*
G01*
X135000000Y-93210000D02*
G75*
G03*
X135000000Y-95250000I0J-1020000D01*
G01*
X178551997Y-95192530D02*
X178652000Y-95183000D01*
X193652000Y-95738000D02*
X193652000Y-95183000D01*
X179077000Y-105933000D02*
X179077000Y-114183000D01*
X114427000Y-105933000D02*
X114427000Y-114183000D01*
X177277000Y-105933000D02*
X179077000Y-105933000D01*
X193652000Y-95183000D02*
G75*
G03*
X178652000Y-95183000I-7500000J0D01*
G01*
X129551997Y-95223454D02*
X129427000Y-95218000D01*
X129427000Y-95218000D02*
G75*
G03*
X114427000Y-95218000I-7500000J0D01*
G01*
X178551997Y-95192530D02*
X177959983Y-95192904D01*
X177277000Y-114183000D02*
X177277000Y-105933000D01*
X114427000Y-95758000D02*
X114427000Y-105933000D01*
X114427000Y-95758000D02*
X114427000Y-95218000D01*
X179077000Y-114183000D02*
X193652000Y-114183000D01*
X193652000Y-114183000D02*
X193652000Y-95738000D01*
X114427000Y-114183000D02*
X177277000Y-114183000D01*
M02*
