%TF.GenerationSoftware,KiCad,Pcbnew,7.0.7*%
%TF.CreationDate,2023-11-02T08:16:25-05:00*%
%TF.ProjectId,PCI Blaster Mouse Bites,50434920-426c-4617-9374-6572204d6f75,rev?*%
%TF.SameCoordinates,Original*%
%TF.FileFunction,Legend,Top*%
%TF.FilePolarity,Positive*%
%FSLAX46Y46*%
G04 Gerber Fmt 4.6, Leading zero omitted, Abs format (unit mm)*
G04 Created by KiCad (PCBNEW 7.0.7) date 2023-11-02 08:16:25*
%MOMM*%
%LPD*%
G01*
G04 APERTURE LIST*
%ADD10C,0.125000*%
%ADD11C,0.200000*%
%ADD12C,0.300000*%
%ADD13C,0.150000*%
%ADD14C,0.100000*%
%ADD15C,0.120000*%
G04 APERTURE END LIST*
D10*
X176557523Y-67798595D02*
X176595619Y-67760500D01*
X176595619Y-67760500D02*
X176709904Y-67722404D01*
X176709904Y-67722404D02*
X176786095Y-67722404D01*
X176786095Y-67722404D02*
X176900381Y-67760500D01*
X176900381Y-67760500D02*
X176976571Y-67836690D01*
X176976571Y-67836690D02*
X177014666Y-67912880D01*
X177014666Y-67912880D02*
X177052762Y-68065261D01*
X177052762Y-68065261D02*
X177052762Y-68179547D01*
X177052762Y-68179547D02*
X177014666Y-68331928D01*
X177014666Y-68331928D02*
X176976571Y-68408119D01*
X176976571Y-68408119D02*
X176900381Y-68484309D01*
X176900381Y-68484309D02*
X176786095Y-68522404D01*
X176786095Y-68522404D02*
X176709904Y-68522404D01*
X176709904Y-68522404D02*
X176595619Y-68484309D01*
X176595619Y-68484309D02*
X176557523Y-68446214D01*
X175795619Y-67722404D02*
X176252762Y-67722404D01*
X176024190Y-67722404D02*
X176024190Y-68522404D01*
X176024190Y-68522404D02*
X176100381Y-68408119D01*
X176100381Y-68408119D02*
X176176571Y-68331928D01*
X176176571Y-68331928D02*
X176252762Y-68293833D01*
X175414666Y-67760500D02*
X175414666Y-67722404D01*
X175414666Y-67722404D02*
X175452761Y-67646214D01*
X175452761Y-67646214D02*
X175490857Y-67608119D01*
X174005142Y-67798595D02*
X174043238Y-67760500D01*
X174043238Y-67760500D02*
X174157523Y-67722404D01*
X174157523Y-67722404D02*
X174233714Y-67722404D01*
X174233714Y-67722404D02*
X174348000Y-67760500D01*
X174348000Y-67760500D02*
X174424190Y-67836690D01*
X174424190Y-67836690D02*
X174462285Y-67912880D01*
X174462285Y-67912880D02*
X174500381Y-68065261D01*
X174500381Y-68065261D02*
X174500381Y-68179547D01*
X174500381Y-68179547D02*
X174462285Y-68331928D01*
X174462285Y-68331928D02*
X174424190Y-68408119D01*
X174424190Y-68408119D02*
X174348000Y-68484309D01*
X174348000Y-68484309D02*
X174233714Y-68522404D01*
X174233714Y-68522404D02*
X174157523Y-68522404D01*
X174157523Y-68522404D02*
X174043238Y-68484309D01*
X174043238Y-68484309D02*
X174005142Y-68446214D01*
X173700381Y-68446214D02*
X173662285Y-68484309D01*
X173662285Y-68484309D02*
X173586095Y-68522404D01*
X173586095Y-68522404D02*
X173395619Y-68522404D01*
X173395619Y-68522404D02*
X173319428Y-68484309D01*
X173319428Y-68484309D02*
X173281333Y-68446214D01*
X173281333Y-68446214D02*
X173243238Y-68370023D01*
X173243238Y-68370023D02*
X173243238Y-68293833D01*
X173243238Y-68293833D02*
X173281333Y-68179547D01*
X173281333Y-68179547D02*
X173738476Y-67722404D01*
X173738476Y-67722404D02*
X173243238Y-67722404D01*
X177605143Y-66434404D02*
X178062286Y-66434404D01*
X177833714Y-66434404D02*
X177833714Y-67234404D01*
X177833714Y-67234404D02*
X177909905Y-67120119D01*
X177909905Y-67120119D02*
X177986095Y-67043928D01*
X177986095Y-67043928D02*
X178062286Y-67005833D01*
X177109904Y-67234404D02*
X177033714Y-67234404D01*
X177033714Y-67234404D02*
X176957523Y-67196309D01*
X176957523Y-67196309D02*
X176919428Y-67158214D01*
X176919428Y-67158214D02*
X176881333Y-67082023D01*
X176881333Y-67082023D02*
X176843238Y-66929642D01*
X176843238Y-66929642D02*
X176843238Y-66739166D01*
X176843238Y-66739166D02*
X176881333Y-66586785D01*
X176881333Y-66586785D02*
X176919428Y-66510595D01*
X176919428Y-66510595D02*
X176957523Y-66472500D01*
X176957523Y-66472500D02*
X177033714Y-66434404D01*
X177033714Y-66434404D02*
X177109904Y-66434404D01*
X177109904Y-66434404D02*
X177186095Y-66472500D01*
X177186095Y-66472500D02*
X177224190Y-66510595D01*
X177224190Y-66510595D02*
X177262285Y-66586785D01*
X177262285Y-66586785D02*
X177300381Y-66739166D01*
X177300381Y-66739166D02*
X177300381Y-66929642D01*
X177300381Y-66929642D02*
X177262285Y-67082023D01*
X177262285Y-67082023D02*
X177224190Y-67158214D01*
X177224190Y-67158214D02*
X177186095Y-67196309D01*
X177186095Y-67196309D02*
X177109904Y-67234404D01*
X176157523Y-66967738D02*
X176157523Y-66434404D01*
X176500380Y-66967738D02*
X176500380Y-66548690D01*
X176500380Y-66548690D02*
X176462285Y-66472500D01*
X176462285Y-66472500D02*
X176386095Y-66434404D01*
X176386095Y-66434404D02*
X176271809Y-66434404D01*
X176271809Y-66434404D02*
X176195618Y-66472500D01*
X176195618Y-66472500D02*
X176157523Y-66510595D01*
X175509904Y-66853452D02*
X175776570Y-66853452D01*
X175776570Y-66434404D02*
X175776570Y-67234404D01*
X175776570Y-67234404D02*
X175395618Y-67234404D01*
X175052761Y-66472500D02*
X175052761Y-66434404D01*
X175052761Y-66434404D02*
X175090856Y-66358214D01*
X175090856Y-66358214D02*
X175128952Y-66320119D01*
X173681333Y-66434404D02*
X174138476Y-66434404D01*
X173909904Y-66434404D02*
X173909904Y-67234404D01*
X173909904Y-67234404D02*
X173986095Y-67120119D01*
X173986095Y-67120119D02*
X174062285Y-67043928D01*
X174062285Y-67043928D02*
X174138476Y-67005833D01*
X172995618Y-67234404D02*
X173147999Y-67234404D01*
X173147999Y-67234404D02*
X173224190Y-67196309D01*
X173224190Y-67196309D02*
X173262285Y-67158214D01*
X173262285Y-67158214D02*
X173338475Y-67043928D01*
X173338475Y-67043928D02*
X173376571Y-66891547D01*
X173376571Y-66891547D02*
X173376571Y-66586785D01*
X173376571Y-66586785D02*
X173338475Y-66510595D01*
X173338475Y-66510595D02*
X173300380Y-66472500D01*
X173300380Y-66472500D02*
X173224190Y-66434404D01*
X173224190Y-66434404D02*
X173071809Y-66434404D01*
X173071809Y-66434404D02*
X172995618Y-66472500D01*
X172995618Y-66472500D02*
X172957523Y-66510595D01*
X172957523Y-66510595D02*
X172919428Y-66586785D01*
X172919428Y-66586785D02*
X172919428Y-66777261D01*
X172919428Y-66777261D02*
X172957523Y-66853452D01*
X172957523Y-66853452D02*
X172995618Y-66891547D01*
X172995618Y-66891547D02*
X173071809Y-66929642D01*
X173071809Y-66929642D02*
X173224190Y-66929642D01*
X173224190Y-66929642D02*
X173300380Y-66891547D01*
X173300380Y-66891547D02*
X173338475Y-66853452D01*
X173338475Y-66853452D02*
X173376571Y-66777261D01*
X172690856Y-67234404D02*
X172424189Y-66434404D01*
X172424189Y-66434404D02*
X172157523Y-67234404D01*
X188694666Y-67652404D02*
X188694666Y-68452404D01*
X188694666Y-68452404D02*
X188504190Y-68452404D01*
X188504190Y-68452404D02*
X188389904Y-68414309D01*
X188389904Y-68414309D02*
X188313714Y-68338119D01*
X188313714Y-68338119D02*
X188275619Y-68261928D01*
X188275619Y-68261928D02*
X188237523Y-68109547D01*
X188237523Y-68109547D02*
X188237523Y-67995261D01*
X188237523Y-67995261D02*
X188275619Y-67842880D01*
X188275619Y-67842880D02*
X188313714Y-67766690D01*
X188313714Y-67766690D02*
X188389904Y-67690500D01*
X188389904Y-67690500D02*
X188504190Y-67652404D01*
X188504190Y-67652404D02*
X188694666Y-67652404D01*
X187475619Y-67652404D02*
X187932762Y-67652404D01*
X187704190Y-67652404D02*
X187704190Y-68452404D01*
X187704190Y-68452404D02*
X187780381Y-68338119D01*
X187780381Y-68338119D02*
X187856571Y-68261928D01*
X187856571Y-68261928D02*
X187932762Y-68223833D01*
X187094666Y-67690500D02*
X187094666Y-67652404D01*
X187094666Y-67652404D02*
X187132761Y-67576214D01*
X187132761Y-67576214D02*
X187170857Y-67538119D01*
X186142285Y-67652404D02*
X186142285Y-68452404D01*
X186142285Y-68452404D02*
X185951809Y-68452404D01*
X185951809Y-68452404D02*
X185837523Y-68414309D01*
X185837523Y-68414309D02*
X185761333Y-68338119D01*
X185761333Y-68338119D02*
X185723238Y-68261928D01*
X185723238Y-68261928D02*
X185685142Y-68109547D01*
X185685142Y-68109547D02*
X185685142Y-67995261D01*
X185685142Y-67995261D02*
X185723238Y-67842880D01*
X185723238Y-67842880D02*
X185761333Y-67766690D01*
X185761333Y-67766690D02*
X185837523Y-67690500D01*
X185837523Y-67690500D02*
X185951809Y-67652404D01*
X185951809Y-67652404D02*
X186142285Y-67652404D01*
X185380381Y-68376214D02*
X185342285Y-68414309D01*
X185342285Y-68414309D02*
X185266095Y-68452404D01*
X185266095Y-68452404D02*
X185075619Y-68452404D01*
X185075619Y-68452404D02*
X184999428Y-68414309D01*
X184999428Y-68414309D02*
X184961333Y-68376214D01*
X184961333Y-68376214D02*
X184923238Y-68300023D01*
X184923238Y-68300023D02*
X184923238Y-68223833D01*
X184923238Y-68223833D02*
X184961333Y-68109547D01*
X184961333Y-68109547D02*
X185418476Y-67652404D01*
X185418476Y-67652404D02*
X184923238Y-67652404D01*
X188542286Y-66364404D02*
X188999429Y-66364404D01*
X188770857Y-66364404D02*
X188770857Y-67164404D01*
X188770857Y-67164404D02*
X188847048Y-67050119D01*
X188847048Y-67050119D02*
X188923238Y-66973928D01*
X188923238Y-66973928D02*
X188999429Y-66935833D01*
X188199428Y-66364404D02*
X188199428Y-67164404D01*
X188199428Y-67164404D02*
X187742285Y-66364404D01*
X187742285Y-66364404D02*
X187742285Y-67164404D01*
X187018476Y-66897738D02*
X187018476Y-66364404D01*
X187208952Y-67202500D02*
X187399429Y-66631071D01*
X187399429Y-66631071D02*
X186904190Y-66631071D01*
X186447047Y-67164404D02*
X186370857Y-67164404D01*
X186370857Y-67164404D02*
X186294666Y-67126309D01*
X186294666Y-67126309D02*
X186256571Y-67088214D01*
X186256571Y-67088214D02*
X186218476Y-67012023D01*
X186218476Y-67012023D02*
X186180381Y-66859642D01*
X186180381Y-66859642D02*
X186180381Y-66669166D01*
X186180381Y-66669166D02*
X186218476Y-66516785D01*
X186218476Y-66516785D02*
X186256571Y-66440595D01*
X186256571Y-66440595D02*
X186294666Y-66402500D01*
X186294666Y-66402500D02*
X186370857Y-66364404D01*
X186370857Y-66364404D02*
X186447047Y-66364404D01*
X186447047Y-66364404D02*
X186523238Y-66402500D01*
X186523238Y-66402500D02*
X186561333Y-66440595D01*
X186561333Y-66440595D02*
X186599428Y-66516785D01*
X186599428Y-66516785D02*
X186637524Y-66669166D01*
X186637524Y-66669166D02*
X186637524Y-66859642D01*
X186637524Y-66859642D02*
X186599428Y-67012023D01*
X186599428Y-67012023D02*
X186561333Y-67088214D01*
X186561333Y-67088214D02*
X186523238Y-67126309D01*
X186523238Y-67126309D02*
X186447047Y-67164404D01*
X185685142Y-67164404D02*
X185608952Y-67164404D01*
X185608952Y-67164404D02*
X185532761Y-67126309D01*
X185532761Y-67126309D02*
X185494666Y-67088214D01*
X185494666Y-67088214D02*
X185456571Y-67012023D01*
X185456571Y-67012023D02*
X185418476Y-66859642D01*
X185418476Y-66859642D02*
X185418476Y-66669166D01*
X185418476Y-66669166D02*
X185456571Y-66516785D01*
X185456571Y-66516785D02*
X185494666Y-66440595D01*
X185494666Y-66440595D02*
X185532761Y-66402500D01*
X185532761Y-66402500D02*
X185608952Y-66364404D01*
X185608952Y-66364404D02*
X185685142Y-66364404D01*
X185685142Y-66364404D02*
X185761333Y-66402500D01*
X185761333Y-66402500D02*
X185799428Y-66440595D01*
X185799428Y-66440595D02*
X185837523Y-66516785D01*
X185837523Y-66516785D02*
X185875619Y-66669166D01*
X185875619Y-66669166D02*
X185875619Y-66859642D01*
X185875619Y-66859642D02*
X185837523Y-67012023D01*
X185837523Y-67012023D02*
X185799428Y-67088214D01*
X185799428Y-67088214D02*
X185761333Y-67126309D01*
X185761333Y-67126309D02*
X185685142Y-67164404D01*
X184694666Y-67164404D02*
X185075618Y-67164404D01*
X185075618Y-67164404D02*
X185113714Y-66783452D01*
X185113714Y-66783452D02*
X185075618Y-66821547D01*
X185075618Y-66821547D02*
X184999428Y-66859642D01*
X184999428Y-66859642D02*
X184808952Y-66859642D01*
X184808952Y-66859642D02*
X184732761Y-66821547D01*
X184732761Y-66821547D02*
X184694666Y-66783452D01*
X184694666Y-66783452D02*
X184656571Y-66707261D01*
X184656571Y-66707261D02*
X184656571Y-66516785D01*
X184656571Y-66516785D02*
X184694666Y-66440595D01*
X184694666Y-66440595D02*
X184732761Y-66402500D01*
X184732761Y-66402500D02*
X184808952Y-66364404D01*
X184808952Y-66364404D02*
X184999428Y-66364404D01*
X184999428Y-66364404D02*
X185075618Y-66402500D01*
X185075618Y-66402500D02*
X185113714Y-66440595D01*
D11*
X153492612Y-70553828D02*
X153540231Y-70601447D01*
X153540231Y-70601447D02*
X153635469Y-70744304D01*
X153635469Y-70744304D02*
X153683088Y-70839542D01*
X153683088Y-70839542D02*
X153730707Y-70982400D01*
X153730707Y-70982400D02*
X153778326Y-71220495D01*
X153778326Y-71220495D02*
X153778326Y-71410971D01*
X153778326Y-71410971D02*
X153730707Y-71649066D01*
X153730707Y-71649066D02*
X153683088Y-71791923D01*
X153683088Y-71791923D02*
X153635469Y-71887161D01*
X153635469Y-71887161D02*
X153540231Y-72030019D01*
X153540231Y-72030019D02*
X153492612Y-72077638D01*
X152540231Y-71030019D02*
X152587850Y-70982400D01*
X152587850Y-70982400D02*
X152730707Y-70934780D01*
X152730707Y-70934780D02*
X152825945Y-70934780D01*
X152825945Y-70934780D02*
X152968802Y-70982400D01*
X152968802Y-70982400D02*
X153064040Y-71077638D01*
X153064040Y-71077638D02*
X153111659Y-71172876D01*
X153111659Y-71172876D02*
X153159278Y-71363352D01*
X153159278Y-71363352D02*
X153159278Y-71506209D01*
X153159278Y-71506209D02*
X153111659Y-71696685D01*
X153111659Y-71696685D02*
X153064040Y-71791923D01*
X153064040Y-71791923D02*
X152968802Y-71887161D01*
X152968802Y-71887161D02*
X152825945Y-71934780D01*
X152825945Y-71934780D02*
X152730707Y-71934780D01*
X152730707Y-71934780D02*
X152587850Y-71887161D01*
X152587850Y-71887161D02*
X152540231Y-71839542D01*
X151968802Y-70934780D02*
X152064040Y-70982400D01*
X152064040Y-70982400D02*
X152111659Y-71030019D01*
X152111659Y-71030019D02*
X152159278Y-71125257D01*
X152159278Y-71125257D02*
X152159278Y-71410971D01*
X152159278Y-71410971D02*
X152111659Y-71506209D01*
X152111659Y-71506209D02*
X152064040Y-71553828D01*
X152064040Y-71553828D02*
X151968802Y-71601447D01*
X151968802Y-71601447D02*
X151825945Y-71601447D01*
X151825945Y-71601447D02*
X151730707Y-71553828D01*
X151730707Y-71553828D02*
X151683088Y-71506209D01*
X151683088Y-71506209D02*
X151635469Y-71410971D01*
X151635469Y-71410971D02*
X151635469Y-71125257D01*
X151635469Y-71125257D02*
X151683088Y-71030019D01*
X151683088Y-71030019D02*
X151730707Y-70982400D01*
X151730707Y-70982400D02*
X151825945Y-70934780D01*
X151825945Y-70934780D02*
X151968802Y-70934780D01*
X151206897Y-71601447D02*
X151206897Y-70601447D01*
X151206897Y-71553828D02*
X151111659Y-71601447D01*
X151111659Y-71601447D02*
X150921183Y-71601447D01*
X150921183Y-71601447D02*
X150825945Y-71553828D01*
X150825945Y-71553828D02*
X150778326Y-71506209D01*
X150778326Y-71506209D02*
X150730707Y-71410971D01*
X150730707Y-71410971D02*
X150730707Y-71125257D01*
X150730707Y-71125257D02*
X150778326Y-71030019D01*
X150778326Y-71030019D02*
X150825945Y-70982400D01*
X150825945Y-70982400D02*
X150921183Y-70934780D01*
X150921183Y-70934780D02*
X151111659Y-70934780D01*
X151111659Y-70934780D02*
X151206897Y-70982400D01*
X150302135Y-71601447D02*
X150302135Y-70601447D01*
X150302135Y-71553828D02*
X150206897Y-71601447D01*
X150206897Y-71601447D02*
X150016421Y-71601447D01*
X150016421Y-71601447D02*
X149921183Y-71553828D01*
X149921183Y-71553828D02*
X149873564Y-71506209D01*
X149873564Y-71506209D02*
X149825945Y-71410971D01*
X149825945Y-71410971D02*
X149825945Y-71125257D01*
X149825945Y-71125257D02*
X149873564Y-71030019D01*
X149873564Y-71030019D02*
X149921183Y-70982400D01*
X149921183Y-70982400D02*
X150016421Y-70934780D01*
X150016421Y-70934780D02*
X150206897Y-70934780D01*
X150206897Y-70934780D02*
X150302135Y-70982400D01*
X149016421Y-70982400D02*
X149111659Y-70934780D01*
X149111659Y-70934780D02*
X149302135Y-70934780D01*
X149302135Y-70934780D02*
X149397373Y-70982400D01*
X149397373Y-70982400D02*
X149444992Y-71077638D01*
X149444992Y-71077638D02*
X149444992Y-71458590D01*
X149444992Y-71458590D02*
X149397373Y-71553828D01*
X149397373Y-71553828D02*
X149302135Y-71601447D01*
X149302135Y-71601447D02*
X149111659Y-71601447D01*
X149111659Y-71601447D02*
X149016421Y-71553828D01*
X149016421Y-71553828D02*
X148968802Y-71458590D01*
X148968802Y-71458590D02*
X148968802Y-71363352D01*
X148968802Y-71363352D02*
X149444992Y-71268114D01*
X148540230Y-70934780D02*
X148540230Y-71601447D01*
X148540230Y-71410971D02*
X148492611Y-71506209D01*
X148492611Y-71506209D02*
X148444992Y-71553828D01*
X148444992Y-71553828D02*
X148349754Y-71601447D01*
X148349754Y-71601447D02*
X148254516Y-71601447D01*
X147159277Y-70934780D02*
X147159277Y-71934780D01*
X147159277Y-71934780D02*
X146778325Y-71934780D01*
X146778325Y-71934780D02*
X146683087Y-71887161D01*
X146683087Y-71887161D02*
X146635468Y-71839542D01*
X146635468Y-71839542D02*
X146587849Y-71744304D01*
X146587849Y-71744304D02*
X146587849Y-71601447D01*
X146587849Y-71601447D02*
X146635468Y-71506209D01*
X146635468Y-71506209D02*
X146683087Y-71458590D01*
X146683087Y-71458590D02*
X146778325Y-71410971D01*
X146778325Y-71410971D02*
X147159277Y-71410971D01*
X145730706Y-70934780D02*
X145730706Y-71458590D01*
X145730706Y-71458590D02*
X145778325Y-71553828D01*
X145778325Y-71553828D02*
X145873563Y-71601447D01*
X145873563Y-71601447D02*
X146064039Y-71601447D01*
X146064039Y-71601447D02*
X146159277Y-71553828D01*
X145730706Y-70982400D02*
X145825944Y-70934780D01*
X145825944Y-70934780D02*
X146064039Y-70934780D01*
X146064039Y-70934780D02*
X146159277Y-70982400D01*
X146159277Y-70982400D02*
X146206896Y-71077638D01*
X146206896Y-71077638D02*
X146206896Y-71172876D01*
X146206896Y-71172876D02*
X146159277Y-71268114D01*
X146159277Y-71268114D02*
X146064039Y-71315733D01*
X146064039Y-71315733D02*
X145825944Y-71315733D01*
X145825944Y-71315733D02*
X145730706Y-71363352D01*
X144825944Y-70934780D02*
X144825944Y-71934780D01*
X144825944Y-70982400D02*
X144921182Y-70934780D01*
X144921182Y-70934780D02*
X145111658Y-70934780D01*
X145111658Y-70934780D02*
X145206896Y-70982400D01*
X145206896Y-70982400D02*
X145254515Y-71030019D01*
X145254515Y-71030019D02*
X145302134Y-71125257D01*
X145302134Y-71125257D02*
X145302134Y-71410971D01*
X145302134Y-71410971D02*
X145254515Y-71506209D01*
X145254515Y-71506209D02*
X145206896Y-71553828D01*
X145206896Y-71553828D02*
X145111658Y-71601447D01*
X145111658Y-71601447D02*
X144921182Y-71601447D01*
X144921182Y-71601447D02*
X144825944Y-71553828D01*
X143587848Y-70934780D02*
X143587848Y-71934780D01*
X143587848Y-71458590D02*
X143016420Y-71458590D01*
X143016420Y-70934780D02*
X143016420Y-71934780D01*
X142159277Y-70982400D02*
X142254515Y-70934780D01*
X142254515Y-70934780D02*
X142444991Y-70934780D01*
X142444991Y-70934780D02*
X142540229Y-70982400D01*
X142540229Y-70982400D02*
X142587848Y-71077638D01*
X142587848Y-71077638D02*
X142587848Y-71458590D01*
X142587848Y-71458590D02*
X142540229Y-71553828D01*
X142540229Y-71553828D02*
X142444991Y-71601447D01*
X142444991Y-71601447D02*
X142254515Y-71601447D01*
X142254515Y-71601447D02*
X142159277Y-71553828D01*
X142159277Y-71553828D02*
X142111658Y-71458590D01*
X142111658Y-71458590D02*
X142111658Y-71363352D01*
X142111658Y-71363352D02*
X142587848Y-71268114D01*
X141254515Y-70934780D02*
X141254515Y-71458590D01*
X141254515Y-71458590D02*
X141302134Y-71553828D01*
X141302134Y-71553828D02*
X141397372Y-71601447D01*
X141397372Y-71601447D02*
X141587848Y-71601447D01*
X141587848Y-71601447D02*
X141683086Y-71553828D01*
X141254515Y-70982400D02*
X141349753Y-70934780D01*
X141349753Y-70934780D02*
X141587848Y-70934780D01*
X141587848Y-70934780D02*
X141683086Y-70982400D01*
X141683086Y-70982400D02*
X141730705Y-71077638D01*
X141730705Y-71077638D02*
X141730705Y-71172876D01*
X141730705Y-71172876D02*
X141683086Y-71268114D01*
X141683086Y-71268114D02*
X141587848Y-71315733D01*
X141587848Y-71315733D02*
X141349753Y-71315733D01*
X141349753Y-71315733D02*
X141254515Y-71363352D01*
X140921181Y-71601447D02*
X140540229Y-71601447D01*
X140778324Y-71934780D02*
X140778324Y-71077638D01*
X140778324Y-71077638D02*
X140730705Y-70982400D01*
X140730705Y-70982400D02*
X140635467Y-70934780D01*
X140635467Y-70934780D02*
X140540229Y-70934780D01*
X140254514Y-70982400D02*
X140159276Y-70934780D01*
X140159276Y-70934780D02*
X139968800Y-70934780D01*
X139968800Y-70934780D02*
X139873562Y-70982400D01*
X139873562Y-70982400D02*
X139825943Y-71077638D01*
X139825943Y-71077638D02*
X139825943Y-71125257D01*
X139825943Y-71125257D02*
X139873562Y-71220495D01*
X139873562Y-71220495D02*
X139968800Y-71268114D01*
X139968800Y-71268114D02*
X140111657Y-71268114D01*
X140111657Y-71268114D02*
X140206895Y-71315733D01*
X140206895Y-71315733D02*
X140254514Y-71410971D01*
X140254514Y-71410971D02*
X140254514Y-71458590D01*
X140254514Y-71458590D02*
X140206895Y-71553828D01*
X140206895Y-71553828D02*
X140111657Y-71601447D01*
X140111657Y-71601447D02*
X139968800Y-71601447D01*
X139968800Y-71601447D02*
X139873562Y-71553828D01*
X139397371Y-70934780D02*
X139397371Y-71601447D01*
X139397371Y-71934780D02*
X139444990Y-71887161D01*
X139444990Y-71887161D02*
X139397371Y-71839542D01*
X139397371Y-71839542D02*
X139349752Y-71887161D01*
X139349752Y-71887161D02*
X139397371Y-71934780D01*
X139397371Y-71934780D02*
X139397371Y-71839542D01*
X138921181Y-71601447D02*
X138921181Y-70934780D01*
X138921181Y-71506209D02*
X138873562Y-71553828D01*
X138873562Y-71553828D02*
X138778324Y-71601447D01*
X138778324Y-71601447D02*
X138635467Y-71601447D01*
X138635467Y-71601447D02*
X138540229Y-71553828D01*
X138540229Y-71553828D02*
X138492610Y-71458590D01*
X138492610Y-71458590D02*
X138492610Y-70934780D01*
X138016419Y-70934780D02*
X138016419Y-71934780D01*
X137921181Y-71315733D02*
X137635467Y-70934780D01*
X137635467Y-71601447D02*
X138016419Y-71220495D01*
X136492609Y-71220495D02*
X136016419Y-71220495D01*
X136587847Y-70934780D02*
X136254514Y-71934780D01*
X136254514Y-71934780D02*
X135921181Y-70934780D01*
X135587847Y-70934780D02*
X135587847Y-71601447D01*
X135587847Y-71410971D02*
X135540228Y-71506209D01*
X135540228Y-71506209D02*
X135492609Y-71553828D01*
X135492609Y-71553828D02*
X135397371Y-71601447D01*
X135397371Y-71601447D02*
X135302133Y-71601447D01*
X134587847Y-70982400D02*
X134683085Y-70934780D01*
X134683085Y-70934780D02*
X134873561Y-70934780D01*
X134873561Y-70934780D02*
X134968799Y-70982400D01*
X134968799Y-70982400D02*
X135016418Y-71077638D01*
X135016418Y-71077638D02*
X135016418Y-71458590D01*
X135016418Y-71458590D02*
X134968799Y-71553828D01*
X134968799Y-71553828D02*
X134873561Y-71601447D01*
X134873561Y-71601447D02*
X134683085Y-71601447D01*
X134683085Y-71601447D02*
X134587847Y-71553828D01*
X134587847Y-71553828D02*
X134540228Y-71458590D01*
X134540228Y-71458590D02*
X134540228Y-71363352D01*
X134540228Y-71363352D02*
X135016418Y-71268114D01*
X133683085Y-70934780D02*
X133683085Y-71458590D01*
X133683085Y-71458590D02*
X133730704Y-71553828D01*
X133730704Y-71553828D02*
X133825942Y-71601447D01*
X133825942Y-71601447D02*
X134016418Y-71601447D01*
X134016418Y-71601447D02*
X134111656Y-71553828D01*
X133683085Y-70982400D02*
X133778323Y-70934780D01*
X133778323Y-70934780D02*
X134016418Y-70934780D01*
X134016418Y-70934780D02*
X134111656Y-70982400D01*
X134111656Y-70982400D02*
X134159275Y-71077638D01*
X134159275Y-71077638D02*
X134159275Y-71172876D01*
X134159275Y-71172876D02*
X134111656Y-71268114D01*
X134111656Y-71268114D02*
X134016418Y-71315733D01*
X134016418Y-71315733D02*
X133778323Y-71315733D01*
X133778323Y-71315733D02*
X133683085Y-71363352D01*
X133302132Y-70553828D02*
X133254513Y-70601447D01*
X133254513Y-70601447D02*
X133159275Y-70744304D01*
X133159275Y-70744304D02*
X133111656Y-70839542D01*
X133111656Y-70839542D02*
X133064037Y-70982400D01*
X133064037Y-70982400D02*
X133016418Y-71220495D01*
X133016418Y-71220495D02*
X133016418Y-71410971D01*
X133016418Y-71410971D02*
X133064037Y-71649066D01*
X133064037Y-71649066D02*
X133111656Y-71791923D01*
X133111656Y-71791923D02*
X133159275Y-71887161D01*
X133159275Y-71887161D02*
X133254513Y-72030019D01*
X133254513Y-72030019D02*
X133302132Y-72077638D01*
D12*
X171799441Y-72474266D02*
X170275632Y-72474266D01*
X171037536Y-71712361D02*
X171037536Y-73236171D01*
D11*
X120417673Y-81799219D02*
X120417673Y-80799219D01*
X120417673Y-80799219D02*
X120798625Y-80799219D01*
X120798625Y-80799219D02*
X120893863Y-80846838D01*
X120893863Y-80846838D02*
X120941482Y-80894457D01*
X120941482Y-80894457D02*
X120989101Y-80989695D01*
X120989101Y-80989695D02*
X120989101Y-81132552D01*
X120989101Y-81132552D02*
X120941482Y-81227790D01*
X120941482Y-81227790D02*
X120893863Y-81275409D01*
X120893863Y-81275409D02*
X120798625Y-81323028D01*
X120798625Y-81323028D02*
X120417673Y-81323028D01*
X121417673Y-80799219D02*
X121417673Y-81608742D01*
X121417673Y-81608742D02*
X121465292Y-81703980D01*
X121465292Y-81703980D02*
X121512911Y-81751600D01*
X121512911Y-81751600D02*
X121608149Y-81799219D01*
X121608149Y-81799219D02*
X121798625Y-81799219D01*
X121798625Y-81799219D02*
X121893863Y-81751600D01*
X121893863Y-81751600D02*
X121941482Y-81703980D01*
X121941482Y-81703980D02*
X121989101Y-81608742D01*
X121989101Y-81608742D02*
X121989101Y-80799219D01*
X122941482Y-81799219D02*
X122465292Y-81799219D01*
X122465292Y-81799219D02*
X122465292Y-80799219D01*
X123751006Y-81799219D02*
X123274816Y-81799219D01*
X123274816Y-81799219D02*
X123274816Y-80799219D01*
X184417673Y-81799219D02*
X184417673Y-80799219D01*
X184417673Y-80799219D02*
X184798625Y-80799219D01*
X184798625Y-80799219D02*
X184893863Y-80846838D01*
X184893863Y-80846838D02*
X184941482Y-80894457D01*
X184941482Y-80894457D02*
X184989101Y-80989695D01*
X184989101Y-80989695D02*
X184989101Y-81132552D01*
X184989101Y-81132552D02*
X184941482Y-81227790D01*
X184941482Y-81227790D02*
X184893863Y-81275409D01*
X184893863Y-81275409D02*
X184798625Y-81323028D01*
X184798625Y-81323028D02*
X184417673Y-81323028D01*
X185417673Y-80799219D02*
X185417673Y-81608742D01*
X185417673Y-81608742D02*
X185465292Y-81703980D01*
X185465292Y-81703980D02*
X185512911Y-81751600D01*
X185512911Y-81751600D02*
X185608149Y-81799219D01*
X185608149Y-81799219D02*
X185798625Y-81799219D01*
X185798625Y-81799219D02*
X185893863Y-81751600D01*
X185893863Y-81751600D02*
X185941482Y-81703980D01*
X185941482Y-81703980D02*
X185989101Y-81608742D01*
X185989101Y-81608742D02*
X185989101Y-80799219D01*
X186941482Y-81799219D02*
X186465292Y-81799219D01*
X186465292Y-81799219D02*
X186465292Y-80799219D01*
X187751006Y-81799219D02*
X187274816Y-81799219D01*
X187274816Y-81799219D02*
X187274816Y-80799219D01*
D13*
X149327887Y-76205990D02*
X149185030Y-76158371D01*
X149185030Y-76158371D02*
X149137411Y-76110752D01*
X149137411Y-76110752D02*
X149089792Y-76015514D01*
X149089792Y-76015514D02*
X149089792Y-75872657D01*
X149089792Y-75872657D02*
X149137411Y-75777419D01*
X149137411Y-75777419D02*
X149185030Y-75729800D01*
X149185030Y-75729800D02*
X149280268Y-75682180D01*
X149280268Y-75682180D02*
X149661220Y-75682180D01*
X149661220Y-75682180D02*
X149661220Y-76682180D01*
X149661220Y-76682180D02*
X149327887Y-76682180D01*
X149327887Y-76682180D02*
X149232649Y-76634561D01*
X149232649Y-76634561D02*
X149185030Y-76586942D01*
X149185030Y-76586942D02*
X149137411Y-76491704D01*
X149137411Y-76491704D02*
X149137411Y-76396466D01*
X149137411Y-76396466D02*
X149185030Y-76301228D01*
X149185030Y-76301228D02*
X149232649Y-76253609D01*
X149232649Y-76253609D02*
X149327887Y-76205990D01*
X149327887Y-76205990D02*
X149661220Y-76205990D01*
X148518363Y-75682180D02*
X148613601Y-75729800D01*
X148613601Y-75729800D02*
X148661220Y-75777419D01*
X148661220Y-75777419D02*
X148708839Y-75872657D01*
X148708839Y-75872657D02*
X148708839Y-76158371D01*
X148708839Y-76158371D02*
X148661220Y-76253609D01*
X148661220Y-76253609D02*
X148613601Y-76301228D01*
X148613601Y-76301228D02*
X148518363Y-76348847D01*
X148518363Y-76348847D02*
X148375506Y-76348847D01*
X148375506Y-76348847D02*
X148280268Y-76301228D01*
X148280268Y-76301228D02*
X148232649Y-76253609D01*
X148232649Y-76253609D02*
X148185030Y-76158371D01*
X148185030Y-76158371D02*
X148185030Y-75872657D01*
X148185030Y-75872657D02*
X148232649Y-75777419D01*
X148232649Y-75777419D02*
X148280268Y-75729800D01*
X148280268Y-75729800D02*
X148375506Y-75682180D01*
X148375506Y-75682180D02*
X148518363Y-75682180D01*
X147899315Y-76348847D02*
X147518363Y-76348847D01*
X147756458Y-76682180D02*
X147756458Y-75825038D01*
X147756458Y-75825038D02*
X147708839Y-75729800D01*
X147708839Y-75729800D02*
X147613601Y-75682180D01*
X147613601Y-75682180D02*
X147518363Y-75682180D01*
X147327886Y-76348847D02*
X146946934Y-76348847D01*
X147185029Y-76682180D02*
X147185029Y-75825038D01*
X147185029Y-75825038D02*
X147137410Y-75729800D01*
X147137410Y-75729800D02*
X147042172Y-75682180D01*
X147042172Y-75682180D02*
X146946934Y-75682180D01*
X146470743Y-75682180D02*
X146565981Y-75729800D01*
X146565981Y-75729800D02*
X146613600Y-75777419D01*
X146613600Y-75777419D02*
X146661219Y-75872657D01*
X146661219Y-75872657D02*
X146661219Y-76158371D01*
X146661219Y-76158371D02*
X146613600Y-76253609D01*
X146613600Y-76253609D02*
X146565981Y-76301228D01*
X146565981Y-76301228D02*
X146470743Y-76348847D01*
X146470743Y-76348847D02*
X146327886Y-76348847D01*
X146327886Y-76348847D02*
X146232648Y-76301228D01*
X146232648Y-76301228D02*
X146185029Y-76253609D01*
X146185029Y-76253609D02*
X146137410Y-76158371D01*
X146137410Y-76158371D02*
X146137410Y-75872657D01*
X146137410Y-75872657D02*
X146185029Y-75777419D01*
X146185029Y-75777419D02*
X146232648Y-75729800D01*
X146232648Y-75729800D02*
X146327886Y-75682180D01*
X146327886Y-75682180D02*
X146470743Y-75682180D01*
X145708838Y-75682180D02*
X145708838Y-76348847D01*
X145708838Y-76253609D02*
X145661219Y-76301228D01*
X145661219Y-76301228D02*
X145565981Y-76348847D01*
X145565981Y-76348847D02*
X145423124Y-76348847D01*
X145423124Y-76348847D02*
X145327886Y-76301228D01*
X145327886Y-76301228D02*
X145280267Y-76205990D01*
X145280267Y-76205990D02*
X145280267Y-75682180D01*
X145280267Y-76205990D02*
X145232648Y-76301228D01*
X145232648Y-76301228D02*
X145137410Y-76348847D01*
X145137410Y-76348847D02*
X144994553Y-76348847D01*
X144994553Y-76348847D02*
X144899314Y-76301228D01*
X144899314Y-76301228D02*
X144851695Y-76205990D01*
X144851695Y-76205990D02*
X144851695Y-75682180D01*
X143327886Y-75301228D02*
X143375505Y-75348847D01*
X143375505Y-75348847D02*
X143470743Y-75491704D01*
X143470743Y-75491704D02*
X143518362Y-75586942D01*
X143518362Y-75586942D02*
X143565981Y-75729800D01*
X143565981Y-75729800D02*
X143613600Y-75967895D01*
X143613600Y-75967895D02*
X143613600Y-76158371D01*
X143613600Y-76158371D02*
X143565981Y-76396466D01*
X143565981Y-76396466D02*
X143518362Y-76539323D01*
X143518362Y-76539323D02*
X143470743Y-76634561D01*
X143470743Y-76634561D02*
X143375505Y-76777419D01*
X143375505Y-76777419D02*
X143327886Y-76825038D01*
X142375505Y-75777419D02*
X142423124Y-75729800D01*
X142423124Y-75729800D02*
X142565981Y-75682180D01*
X142565981Y-75682180D02*
X142661219Y-75682180D01*
X142661219Y-75682180D02*
X142804076Y-75729800D01*
X142804076Y-75729800D02*
X142899314Y-75825038D01*
X142899314Y-75825038D02*
X142946933Y-75920276D01*
X142946933Y-75920276D02*
X142994552Y-76110752D01*
X142994552Y-76110752D02*
X142994552Y-76253609D01*
X142994552Y-76253609D02*
X142946933Y-76444085D01*
X142946933Y-76444085D02*
X142899314Y-76539323D01*
X142899314Y-76539323D02*
X142804076Y-76634561D01*
X142804076Y-76634561D02*
X142661219Y-76682180D01*
X142661219Y-76682180D02*
X142565981Y-76682180D01*
X142565981Y-76682180D02*
X142423124Y-76634561D01*
X142423124Y-76634561D02*
X142375505Y-76586942D01*
X141804076Y-75682180D02*
X141899314Y-75729800D01*
X141899314Y-75729800D02*
X141946933Y-75777419D01*
X141946933Y-75777419D02*
X141994552Y-75872657D01*
X141994552Y-75872657D02*
X141994552Y-76158371D01*
X141994552Y-76158371D02*
X141946933Y-76253609D01*
X141946933Y-76253609D02*
X141899314Y-76301228D01*
X141899314Y-76301228D02*
X141804076Y-76348847D01*
X141804076Y-76348847D02*
X141661219Y-76348847D01*
X141661219Y-76348847D02*
X141565981Y-76301228D01*
X141565981Y-76301228D02*
X141518362Y-76253609D01*
X141518362Y-76253609D02*
X141470743Y-76158371D01*
X141470743Y-76158371D02*
X141470743Y-75872657D01*
X141470743Y-75872657D02*
X141518362Y-75777419D01*
X141518362Y-75777419D02*
X141565981Y-75729800D01*
X141565981Y-75729800D02*
X141661219Y-75682180D01*
X141661219Y-75682180D02*
X141804076Y-75682180D01*
X141042171Y-75682180D02*
X141042171Y-76348847D01*
X141042171Y-76253609D02*
X140994552Y-76301228D01*
X140994552Y-76301228D02*
X140899314Y-76348847D01*
X140899314Y-76348847D02*
X140756457Y-76348847D01*
X140756457Y-76348847D02*
X140661219Y-76301228D01*
X140661219Y-76301228D02*
X140613600Y-76205990D01*
X140613600Y-76205990D02*
X140613600Y-75682180D01*
X140613600Y-76205990D02*
X140565981Y-76301228D01*
X140565981Y-76301228D02*
X140470743Y-76348847D01*
X140470743Y-76348847D02*
X140327886Y-76348847D01*
X140327886Y-76348847D02*
X140232647Y-76301228D01*
X140232647Y-76301228D02*
X140185028Y-76205990D01*
X140185028Y-76205990D02*
X140185028Y-75682180D01*
X139708838Y-76348847D02*
X139708838Y-75348847D01*
X139708838Y-76301228D02*
X139613600Y-76348847D01*
X139613600Y-76348847D02*
X139423124Y-76348847D01*
X139423124Y-76348847D02*
X139327886Y-76301228D01*
X139327886Y-76301228D02*
X139280267Y-76253609D01*
X139280267Y-76253609D02*
X139232648Y-76158371D01*
X139232648Y-76158371D02*
X139232648Y-75872657D01*
X139232648Y-75872657D02*
X139280267Y-75777419D01*
X139280267Y-75777419D02*
X139327886Y-75729800D01*
X139327886Y-75729800D02*
X139423124Y-75682180D01*
X139423124Y-75682180D02*
X139613600Y-75682180D01*
X139613600Y-75682180D02*
X139708838Y-75729800D01*
X138661219Y-75682180D02*
X138756457Y-75729800D01*
X138756457Y-75729800D02*
X138804076Y-75777419D01*
X138804076Y-75777419D02*
X138851695Y-75872657D01*
X138851695Y-75872657D02*
X138851695Y-76158371D01*
X138851695Y-76158371D02*
X138804076Y-76253609D01*
X138804076Y-76253609D02*
X138756457Y-76301228D01*
X138756457Y-76301228D02*
X138661219Y-76348847D01*
X138661219Y-76348847D02*
X138518362Y-76348847D01*
X138518362Y-76348847D02*
X138423124Y-76301228D01*
X138423124Y-76301228D02*
X138375505Y-76253609D01*
X138375505Y-76253609D02*
X138327886Y-76158371D01*
X138327886Y-76158371D02*
X138327886Y-75872657D01*
X138327886Y-75872657D02*
X138375505Y-75777419D01*
X138375505Y-75777419D02*
X138423124Y-75729800D01*
X138423124Y-75729800D02*
X138518362Y-75682180D01*
X138518362Y-75682180D02*
X138661219Y-75682180D01*
X137899314Y-76348847D02*
X137899314Y-75682180D01*
X137899314Y-76253609D02*
X137851695Y-76301228D01*
X137851695Y-76301228D02*
X137756457Y-76348847D01*
X137756457Y-76348847D02*
X137613600Y-76348847D01*
X137613600Y-76348847D02*
X137518362Y-76301228D01*
X137518362Y-76301228D02*
X137470743Y-76205990D01*
X137470743Y-76205990D02*
X137470743Y-75682180D01*
X136613600Y-75729800D02*
X136708838Y-75682180D01*
X136708838Y-75682180D02*
X136899314Y-75682180D01*
X136899314Y-75682180D02*
X136994552Y-75729800D01*
X136994552Y-75729800D02*
X137042171Y-75825038D01*
X137042171Y-75825038D02*
X137042171Y-76205990D01*
X137042171Y-76205990D02*
X136994552Y-76301228D01*
X136994552Y-76301228D02*
X136899314Y-76348847D01*
X136899314Y-76348847D02*
X136708838Y-76348847D01*
X136708838Y-76348847D02*
X136613600Y-76301228D01*
X136613600Y-76301228D02*
X136565981Y-76205990D01*
X136565981Y-76205990D02*
X136565981Y-76110752D01*
X136565981Y-76110752D02*
X137042171Y-76015514D01*
X136137409Y-76348847D02*
X136137409Y-75682180D01*
X136137409Y-76253609D02*
X136089790Y-76301228D01*
X136089790Y-76301228D02*
X135994552Y-76348847D01*
X135994552Y-76348847D02*
X135851695Y-76348847D01*
X135851695Y-76348847D02*
X135756457Y-76301228D01*
X135756457Y-76301228D02*
X135708838Y-76205990D01*
X135708838Y-76205990D02*
X135708838Y-75682180D01*
X135375504Y-76348847D02*
X134994552Y-76348847D01*
X135232647Y-76682180D02*
X135232647Y-75825038D01*
X135232647Y-75825038D02*
X135185028Y-75729800D01*
X135185028Y-75729800D02*
X135089790Y-75682180D01*
X135089790Y-75682180D02*
X134994552Y-75682180D01*
X133946932Y-75729800D02*
X133804075Y-75682180D01*
X133804075Y-75682180D02*
X133565980Y-75682180D01*
X133565980Y-75682180D02*
X133470742Y-75729800D01*
X133470742Y-75729800D02*
X133423123Y-75777419D01*
X133423123Y-75777419D02*
X133375504Y-75872657D01*
X133375504Y-75872657D02*
X133375504Y-75967895D01*
X133375504Y-75967895D02*
X133423123Y-76063133D01*
X133423123Y-76063133D02*
X133470742Y-76110752D01*
X133470742Y-76110752D02*
X133565980Y-76158371D01*
X133565980Y-76158371D02*
X133756456Y-76205990D01*
X133756456Y-76205990D02*
X133851694Y-76253609D01*
X133851694Y-76253609D02*
X133899313Y-76301228D01*
X133899313Y-76301228D02*
X133946932Y-76396466D01*
X133946932Y-76396466D02*
X133946932Y-76491704D01*
X133946932Y-76491704D02*
X133899313Y-76586942D01*
X133899313Y-76586942D02*
X133851694Y-76634561D01*
X133851694Y-76634561D02*
X133756456Y-76682180D01*
X133756456Y-76682180D02*
X133518361Y-76682180D01*
X133518361Y-76682180D02*
X133375504Y-76634561D01*
X132946932Y-75682180D02*
X132946932Y-76348847D01*
X132946932Y-76682180D02*
X132994551Y-76634561D01*
X132994551Y-76634561D02*
X132946932Y-76586942D01*
X132946932Y-76586942D02*
X132899313Y-76634561D01*
X132899313Y-76634561D02*
X132946932Y-76682180D01*
X132946932Y-76682180D02*
X132946932Y-76586942D01*
X132042171Y-75682180D02*
X132042171Y-76682180D01*
X132042171Y-75729800D02*
X132137409Y-75682180D01*
X132137409Y-75682180D02*
X132327885Y-75682180D01*
X132327885Y-75682180D02*
X132423123Y-75729800D01*
X132423123Y-75729800D02*
X132470742Y-75777419D01*
X132470742Y-75777419D02*
X132518361Y-75872657D01*
X132518361Y-75872657D02*
X132518361Y-76158371D01*
X132518361Y-76158371D02*
X132470742Y-76253609D01*
X132470742Y-76253609D02*
X132423123Y-76301228D01*
X132423123Y-76301228D02*
X132327885Y-76348847D01*
X132327885Y-76348847D02*
X132137409Y-76348847D01*
X132137409Y-76348847D02*
X132042171Y-76301228D01*
X131185028Y-75729800D02*
X131280266Y-75682180D01*
X131280266Y-75682180D02*
X131470742Y-75682180D01*
X131470742Y-75682180D02*
X131565980Y-75729800D01*
X131565980Y-75729800D02*
X131613599Y-75825038D01*
X131613599Y-75825038D02*
X131613599Y-76205990D01*
X131613599Y-76205990D02*
X131565980Y-76301228D01*
X131565980Y-76301228D02*
X131470742Y-76348847D01*
X131470742Y-76348847D02*
X131280266Y-76348847D01*
X131280266Y-76348847D02*
X131185028Y-76301228D01*
X131185028Y-76301228D02*
X131137409Y-76205990D01*
X131137409Y-76205990D02*
X131137409Y-76110752D01*
X131137409Y-76110752D02*
X131613599Y-76015514D01*
X130804075Y-75301228D02*
X130756456Y-75348847D01*
X130756456Y-75348847D02*
X130661218Y-75491704D01*
X130661218Y-75491704D02*
X130613599Y-75586942D01*
X130613599Y-75586942D02*
X130565980Y-75729800D01*
X130565980Y-75729800D02*
X130518361Y-75967895D01*
X130518361Y-75967895D02*
X130518361Y-76158371D01*
X130518361Y-76158371D02*
X130565980Y-76396466D01*
X130565980Y-76396466D02*
X130613599Y-76539323D01*
X130613599Y-76539323D02*
X130661218Y-76634561D01*
X130661218Y-76634561D02*
X130756456Y-76777419D01*
X130756456Y-76777419D02*
X130804075Y-76825038D01*
D10*
X119305333Y-105007595D02*
X119305333Y-104207595D01*
X119305333Y-104207595D02*
X119495809Y-104207595D01*
X119495809Y-104207595D02*
X119610095Y-104245690D01*
X119610095Y-104245690D02*
X119686285Y-104321880D01*
X119686285Y-104321880D02*
X119724380Y-104398071D01*
X119724380Y-104398071D02*
X119762476Y-104550452D01*
X119762476Y-104550452D02*
X119762476Y-104664738D01*
X119762476Y-104664738D02*
X119724380Y-104817119D01*
X119724380Y-104817119D02*
X119686285Y-104893309D01*
X119686285Y-104893309D02*
X119610095Y-104969500D01*
X119610095Y-104969500D02*
X119495809Y-105007595D01*
X119495809Y-105007595D02*
X119305333Y-105007595D01*
X120524380Y-105007595D02*
X120067237Y-105007595D01*
X120295809Y-105007595D02*
X120295809Y-104207595D01*
X120295809Y-104207595D02*
X120219618Y-104321880D01*
X120219618Y-104321880D02*
X120143428Y-104398071D01*
X120143428Y-104398071D02*
X120067237Y-104436166D01*
X120905333Y-104969500D02*
X120905333Y-105007595D01*
X120905333Y-105007595D02*
X120867238Y-105083785D01*
X120867238Y-105083785D02*
X120829142Y-105121880D01*
X121857714Y-105007595D02*
X121857714Y-104207595D01*
X121857714Y-104207595D02*
X122048190Y-104207595D01*
X122048190Y-104207595D02*
X122162476Y-104245690D01*
X122162476Y-104245690D02*
X122238666Y-104321880D01*
X122238666Y-104321880D02*
X122276761Y-104398071D01*
X122276761Y-104398071D02*
X122314857Y-104550452D01*
X122314857Y-104550452D02*
X122314857Y-104664738D01*
X122314857Y-104664738D02*
X122276761Y-104817119D01*
X122276761Y-104817119D02*
X122238666Y-104893309D01*
X122238666Y-104893309D02*
X122162476Y-104969500D01*
X122162476Y-104969500D02*
X122048190Y-105007595D01*
X122048190Y-105007595D02*
X121857714Y-105007595D01*
X122619618Y-104283785D02*
X122657714Y-104245690D01*
X122657714Y-104245690D02*
X122733904Y-104207595D01*
X122733904Y-104207595D02*
X122924380Y-104207595D01*
X122924380Y-104207595D02*
X123000571Y-104245690D01*
X123000571Y-104245690D02*
X123038666Y-104283785D01*
X123038666Y-104283785D02*
X123076761Y-104359976D01*
X123076761Y-104359976D02*
X123076761Y-104436166D01*
X123076761Y-104436166D02*
X123038666Y-104550452D01*
X123038666Y-104550452D02*
X122581523Y-105007595D01*
X122581523Y-105007595D02*
X123076761Y-105007595D01*
X119457713Y-106295595D02*
X119000570Y-106295595D01*
X119229142Y-106295595D02*
X119229142Y-105495595D01*
X119229142Y-105495595D02*
X119152951Y-105609880D01*
X119152951Y-105609880D02*
X119076761Y-105686071D01*
X119076761Y-105686071D02*
X119000570Y-105724166D01*
X119800571Y-106295595D02*
X119800571Y-105495595D01*
X119800571Y-105495595D02*
X120257714Y-106295595D01*
X120257714Y-106295595D02*
X120257714Y-105495595D01*
X120981523Y-105762261D02*
X120981523Y-106295595D01*
X120791047Y-105457500D02*
X120600570Y-106028928D01*
X120600570Y-106028928D02*
X121095809Y-106028928D01*
X121552952Y-105495595D02*
X121629142Y-105495595D01*
X121629142Y-105495595D02*
X121705333Y-105533690D01*
X121705333Y-105533690D02*
X121743428Y-105571785D01*
X121743428Y-105571785D02*
X121781523Y-105647976D01*
X121781523Y-105647976D02*
X121819618Y-105800357D01*
X121819618Y-105800357D02*
X121819618Y-105990833D01*
X121819618Y-105990833D02*
X121781523Y-106143214D01*
X121781523Y-106143214D02*
X121743428Y-106219404D01*
X121743428Y-106219404D02*
X121705333Y-106257500D01*
X121705333Y-106257500D02*
X121629142Y-106295595D01*
X121629142Y-106295595D02*
X121552952Y-106295595D01*
X121552952Y-106295595D02*
X121476761Y-106257500D01*
X121476761Y-106257500D02*
X121438666Y-106219404D01*
X121438666Y-106219404D02*
X121400571Y-106143214D01*
X121400571Y-106143214D02*
X121362475Y-105990833D01*
X121362475Y-105990833D02*
X121362475Y-105800357D01*
X121362475Y-105800357D02*
X121400571Y-105647976D01*
X121400571Y-105647976D02*
X121438666Y-105571785D01*
X121438666Y-105571785D02*
X121476761Y-105533690D01*
X121476761Y-105533690D02*
X121552952Y-105495595D01*
X122314857Y-105495595D02*
X122391047Y-105495595D01*
X122391047Y-105495595D02*
X122467238Y-105533690D01*
X122467238Y-105533690D02*
X122505333Y-105571785D01*
X122505333Y-105571785D02*
X122543428Y-105647976D01*
X122543428Y-105647976D02*
X122581523Y-105800357D01*
X122581523Y-105800357D02*
X122581523Y-105990833D01*
X122581523Y-105990833D02*
X122543428Y-106143214D01*
X122543428Y-106143214D02*
X122505333Y-106219404D01*
X122505333Y-106219404D02*
X122467238Y-106257500D01*
X122467238Y-106257500D02*
X122391047Y-106295595D01*
X122391047Y-106295595D02*
X122314857Y-106295595D01*
X122314857Y-106295595D02*
X122238666Y-106257500D01*
X122238666Y-106257500D02*
X122200571Y-106219404D01*
X122200571Y-106219404D02*
X122162476Y-106143214D01*
X122162476Y-106143214D02*
X122124380Y-105990833D01*
X122124380Y-105990833D02*
X122124380Y-105800357D01*
X122124380Y-105800357D02*
X122162476Y-105647976D01*
X122162476Y-105647976D02*
X122200571Y-105571785D01*
X122200571Y-105571785D02*
X122238666Y-105533690D01*
X122238666Y-105533690D02*
X122314857Y-105495595D01*
X123305333Y-105495595D02*
X122924381Y-105495595D01*
X122924381Y-105495595D02*
X122886285Y-105876547D01*
X122886285Y-105876547D02*
X122924381Y-105838452D01*
X122924381Y-105838452D02*
X123000571Y-105800357D01*
X123000571Y-105800357D02*
X123191047Y-105800357D01*
X123191047Y-105800357D02*
X123267238Y-105838452D01*
X123267238Y-105838452D02*
X123305333Y-105876547D01*
X123305333Y-105876547D02*
X123343428Y-105952738D01*
X123343428Y-105952738D02*
X123343428Y-106143214D01*
X123343428Y-106143214D02*
X123305333Y-106219404D01*
X123305333Y-106219404D02*
X123267238Y-106257500D01*
X123267238Y-106257500D02*
X123191047Y-106295595D01*
X123191047Y-106295595D02*
X123000571Y-106295595D01*
X123000571Y-106295595D02*
X122924381Y-106257500D01*
X122924381Y-106257500D02*
X122886285Y-106219404D01*
D12*
X136200558Y-100185733D02*
X137724368Y-100185733D01*
X136962463Y-100947638D02*
X136962463Y-99423828D01*
D11*
X187582326Y-90860780D02*
X187582326Y-91860780D01*
X187582326Y-91860780D02*
X187201374Y-91860780D01*
X187201374Y-91860780D02*
X187106136Y-91813161D01*
X187106136Y-91813161D02*
X187058517Y-91765542D01*
X187058517Y-91765542D02*
X187010898Y-91670304D01*
X187010898Y-91670304D02*
X187010898Y-91527447D01*
X187010898Y-91527447D02*
X187058517Y-91432209D01*
X187058517Y-91432209D02*
X187106136Y-91384590D01*
X187106136Y-91384590D02*
X187201374Y-91336971D01*
X187201374Y-91336971D02*
X187582326Y-91336971D01*
X186582326Y-91860780D02*
X186582326Y-91051257D01*
X186582326Y-91051257D02*
X186534707Y-90956019D01*
X186534707Y-90956019D02*
X186487088Y-90908400D01*
X186487088Y-90908400D02*
X186391850Y-90860780D01*
X186391850Y-90860780D02*
X186201374Y-90860780D01*
X186201374Y-90860780D02*
X186106136Y-90908400D01*
X186106136Y-90908400D02*
X186058517Y-90956019D01*
X186058517Y-90956019D02*
X186010898Y-91051257D01*
X186010898Y-91051257D02*
X186010898Y-91860780D01*
X185058517Y-90860780D02*
X185534707Y-90860780D01*
X185534707Y-90860780D02*
X185534707Y-91860780D01*
X184248993Y-90860780D02*
X184725183Y-90860780D01*
X184725183Y-90860780D02*
X184725183Y-91860780D01*
X123582326Y-90860780D02*
X123582326Y-91860780D01*
X123582326Y-91860780D02*
X123201374Y-91860780D01*
X123201374Y-91860780D02*
X123106136Y-91813161D01*
X123106136Y-91813161D02*
X123058517Y-91765542D01*
X123058517Y-91765542D02*
X123010898Y-91670304D01*
X123010898Y-91670304D02*
X123010898Y-91527447D01*
X123010898Y-91527447D02*
X123058517Y-91432209D01*
X123058517Y-91432209D02*
X123106136Y-91384590D01*
X123106136Y-91384590D02*
X123201374Y-91336971D01*
X123201374Y-91336971D02*
X123582326Y-91336971D01*
X122582326Y-91860780D02*
X122582326Y-91051257D01*
X122582326Y-91051257D02*
X122534707Y-90956019D01*
X122534707Y-90956019D02*
X122487088Y-90908400D01*
X122487088Y-90908400D02*
X122391850Y-90860780D01*
X122391850Y-90860780D02*
X122201374Y-90860780D01*
X122201374Y-90860780D02*
X122106136Y-90908400D01*
X122106136Y-90908400D02*
X122058517Y-90956019D01*
X122058517Y-90956019D02*
X122010898Y-91051257D01*
X122010898Y-91051257D02*
X122010898Y-91860780D01*
X121058517Y-90860780D02*
X121534707Y-90860780D01*
X121534707Y-90860780D02*
X121534707Y-91860780D01*
X120248993Y-90860780D02*
X120725183Y-90860780D01*
X120725183Y-90860780D02*
X120725183Y-91860780D01*
D13*
X158672112Y-96454009D02*
X158814969Y-96501628D01*
X158814969Y-96501628D02*
X158862588Y-96549247D01*
X158862588Y-96549247D02*
X158910207Y-96644485D01*
X158910207Y-96644485D02*
X158910207Y-96787342D01*
X158910207Y-96787342D02*
X158862588Y-96882580D01*
X158862588Y-96882580D02*
X158814969Y-96930200D01*
X158814969Y-96930200D02*
X158719731Y-96977819D01*
X158719731Y-96977819D02*
X158338779Y-96977819D01*
X158338779Y-96977819D02*
X158338779Y-95977819D01*
X158338779Y-95977819D02*
X158672112Y-95977819D01*
X158672112Y-95977819D02*
X158767350Y-96025438D01*
X158767350Y-96025438D02*
X158814969Y-96073057D01*
X158814969Y-96073057D02*
X158862588Y-96168295D01*
X158862588Y-96168295D02*
X158862588Y-96263533D01*
X158862588Y-96263533D02*
X158814969Y-96358771D01*
X158814969Y-96358771D02*
X158767350Y-96406390D01*
X158767350Y-96406390D02*
X158672112Y-96454009D01*
X158672112Y-96454009D02*
X158338779Y-96454009D01*
X159481636Y-96977819D02*
X159386398Y-96930200D01*
X159386398Y-96930200D02*
X159338779Y-96882580D01*
X159338779Y-96882580D02*
X159291160Y-96787342D01*
X159291160Y-96787342D02*
X159291160Y-96501628D01*
X159291160Y-96501628D02*
X159338779Y-96406390D01*
X159338779Y-96406390D02*
X159386398Y-96358771D01*
X159386398Y-96358771D02*
X159481636Y-96311152D01*
X159481636Y-96311152D02*
X159624493Y-96311152D01*
X159624493Y-96311152D02*
X159719731Y-96358771D01*
X159719731Y-96358771D02*
X159767350Y-96406390D01*
X159767350Y-96406390D02*
X159814969Y-96501628D01*
X159814969Y-96501628D02*
X159814969Y-96787342D01*
X159814969Y-96787342D02*
X159767350Y-96882580D01*
X159767350Y-96882580D02*
X159719731Y-96930200D01*
X159719731Y-96930200D02*
X159624493Y-96977819D01*
X159624493Y-96977819D02*
X159481636Y-96977819D01*
X160100684Y-96311152D02*
X160481636Y-96311152D01*
X160243541Y-95977819D02*
X160243541Y-96834961D01*
X160243541Y-96834961D02*
X160291160Y-96930200D01*
X160291160Y-96930200D02*
X160386398Y-96977819D01*
X160386398Y-96977819D02*
X160481636Y-96977819D01*
X160672113Y-96311152D02*
X161053065Y-96311152D01*
X160814970Y-95977819D02*
X160814970Y-96834961D01*
X160814970Y-96834961D02*
X160862589Y-96930200D01*
X160862589Y-96930200D02*
X160957827Y-96977819D01*
X160957827Y-96977819D02*
X161053065Y-96977819D01*
X161529256Y-96977819D02*
X161434018Y-96930200D01*
X161434018Y-96930200D02*
X161386399Y-96882580D01*
X161386399Y-96882580D02*
X161338780Y-96787342D01*
X161338780Y-96787342D02*
X161338780Y-96501628D01*
X161338780Y-96501628D02*
X161386399Y-96406390D01*
X161386399Y-96406390D02*
X161434018Y-96358771D01*
X161434018Y-96358771D02*
X161529256Y-96311152D01*
X161529256Y-96311152D02*
X161672113Y-96311152D01*
X161672113Y-96311152D02*
X161767351Y-96358771D01*
X161767351Y-96358771D02*
X161814970Y-96406390D01*
X161814970Y-96406390D02*
X161862589Y-96501628D01*
X161862589Y-96501628D02*
X161862589Y-96787342D01*
X161862589Y-96787342D02*
X161814970Y-96882580D01*
X161814970Y-96882580D02*
X161767351Y-96930200D01*
X161767351Y-96930200D02*
X161672113Y-96977819D01*
X161672113Y-96977819D02*
X161529256Y-96977819D01*
X162291161Y-96977819D02*
X162291161Y-96311152D01*
X162291161Y-96406390D02*
X162338780Y-96358771D01*
X162338780Y-96358771D02*
X162434018Y-96311152D01*
X162434018Y-96311152D02*
X162576875Y-96311152D01*
X162576875Y-96311152D02*
X162672113Y-96358771D01*
X162672113Y-96358771D02*
X162719732Y-96454009D01*
X162719732Y-96454009D02*
X162719732Y-96977819D01*
X162719732Y-96454009D02*
X162767351Y-96358771D01*
X162767351Y-96358771D02*
X162862589Y-96311152D01*
X162862589Y-96311152D02*
X163005446Y-96311152D01*
X163005446Y-96311152D02*
X163100685Y-96358771D01*
X163100685Y-96358771D02*
X163148304Y-96454009D01*
X163148304Y-96454009D02*
X163148304Y-96977819D01*
X164672113Y-97358771D02*
X164624494Y-97311152D01*
X164624494Y-97311152D02*
X164529256Y-97168295D01*
X164529256Y-97168295D02*
X164481637Y-97073057D01*
X164481637Y-97073057D02*
X164434018Y-96930200D01*
X164434018Y-96930200D02*
X164386399Y-96692104D01*
X164386399Y-96692104D02*
X164386399Y-96501628D01*
X164386399Y-96501628D02*
X164434018Y-96263533D01*
X164434018Y-96263533D02*
X164481637Y-96120676D01*
X164481637Y-96120676D02*
X164529256Y-96025438D01*
X164529256Y-96025438D02*
X164624494Y-95882580D01*
X164624494Y-95882580D02*
X164672113Y-95834961D01*
X165624494Y-96882580D02*
X165576875Y-96930200D01*
X165576875Y-96930200D02*
X165434018Y-96977819D01*
X165434018Y-96977819D02*
X165338780Y-96977819D01*
X165338780Y-96977819D02*
X165195923Y-96930200D01*
X165195923Y-96930200D02*
X165100685Y-96834961D01*
X165100685Y-96834961D02*
X165053066Y-96739723D01*
X165053066Y-96739723D02*
X165005447Y-96549247D01*
X165005447Y-96549247D02*
X165005447Y-96406390D01*
X165005447Y-96406390D02*
X165053066Y-96215914D01*
X165053066Y-96215914D02*
X165100685Y-96120676D01*
X165100685Y-96120676D02*
X165195923Y-96025438D01*
X165195923Y-96025438D02*
X165338780Y-95977819D01*
X165338780Y-95977819D02*
X165434018Y-95977819D01*
X165434018Y-95977819D02*
X165576875Y-96025438D01*
X165576875Y-96025438D02*
X165624494Y-96073057D01*
X166195923Y-96977819D02*
X166100685Y-96930200D01*
X166100685Y-96930200D02*
X166053066Y-96882580D01*
X166053066Y-96882580D02*
X166005447Y-96787342D01*
X166005447Y-96787342D02*
X166005447Y-96501628D01*
X166005447Y-96501628D02*
X166053066Y-96406390D01*
X166053066Y-96406390D02*
X166100685Y-96358771D01*
X166100685Y-96358771D02*
X166195923Y-96311152D01*
X166195923Y-96311152D02*
X166338780Y-96311152D01*
X166338780Y-96311152D02*
X166434018Y-96358771D01*
X166434018Y-96358771D02*
X166481637Y-96406390D01*
X166481637Y-96406390D02*
X166529256Y-96501628D01*
X166529256Y-96501628D02*
X166529256Y-96787342D01*
X166529256Y-96787342D02*
X166481637Y-96882580D01*
X166481637Y-96882580D02*
X166434018Y-96930200D01*
X166434018Y-96930200D02*
X166338780Y-96977819D01*
X166338780Y-96977819D02*
X166195923Y-96977819D01*
X166957828Y-96977819D02*
X166957828Y-96311152D01*
X166957828Y-96406390D02*
X167005447Y-96358771D01*
X167005447Y-96358771D02*
X167100685Y-96311152D01*
X167100685Y-96311152D02*
X167243542Y-96311152D01*
X167243542Y-96311152D02*
X167338780Y-96358771D01*
X167338780Y-96358771D02*
X167386399Y-96454009D01*
X167386399Y-96454009D02*
X167386399Y-96977819D01*
X167386399Y-96454009D02*
X167434018Y-96358771D01*
X167434018Y-96358771D02*
X167529256Y-96311152D01*
X167529256Y-96311152D02*
X167672113Y-96311152D01*
X167672113Y-96311152D02*
X167767352Y-96358771D01*
X167767352Y-96358771D02*
X167814971Y-96454009D01*
X167814971Y-96454009D02*
X167814971Y-96977819D01*
X168291161Y-96311152D02*
X168291161Y-97311152D01*
X168291161Y-96358771D02*
X168386399Y-96311152D01*
X168386399Y-96311152D02*
X168576875Y-96311152D01*
X168576875Y-96311152D02*
X168672113Y-96358771D01*
X168672113Y-96358771D02*
X168719732Y-96406390D01*
X168719732Y-96406390D02*
X168767351Y-96501628D01*
X168767351Y-96501628D02*
X168767351Y-96787342D01*
X168767351Y-96787342D02*
X168719732Y-96882580D01*
X168719732Y-96882580D02*
X168672113Y-96930200D01*
X168672113Y-96930200D02*
X168576875Y-96977819D01*
X168576875Y-96977819D02*
X168386399Y-96977819D01*
X168386399Y-96977819D02*
X168291161Y-96930200D01*
X169338780Y-96977819D02*
X169243542Y-96930200D01*
X169243542Y-96930200D02*
X169195923Y-96882580D01*
X169195923Y-96882580D02*
X169148304Y-96787342D01*
X169148304Y-96787342D02*
X169148304Y-96501628D01*
X169148304Y-96501628D02*
X169195923Y-96406390D01*
X169195923Y-96406390D02*
X169243542Y-96358771D01*
X169243542Y-96358771D02*
X169338780Y-96311152D01*
X169338780Y-96311152D02*
X169481637Y-96311152D01*
X169481637Y-96311152D02*
X169576875Y-96358771D01*
X169576875Y-96358771D02*
X169624494Y-96406390D01*
X169624494Y-96406390D02*
X169672113Y-96501628D01*
X169672113Y-96501628D02*
X169672113Y-96787342D01*
X169672113Y-96787342D02*
X169624494Y-96882580D01*
X169624494Y-96882580D02*
X169576875Y-96930200D01*
X169576875Y-96930200D02*
X169481637Y-96977819D01*
X169481637Y-96977819D02*
X169338780Y-96977819D01*
X170100685Y-96311152D02*
X170100685Y-96977819D01*
X170100685Y-96406390D02*
X170148304Y-96358771D01*
X170148304Y-96358771D02*
X170243542Y-96311152D01*
X170243542Y-96311152D02*
X170386399Y-96311152D01*
X170386399Y-96311152D02*
X170481637Y-96358771D01*
X170481637Y-96358771D02*
X170529256Y-96454009D01*
X170529256Y-96454009D02*
X170529256Y-96977819D01*
X171386399Y-96930200D02*
X171291161Y-96977819D01*
X171291161Y-96977819D02*
X171100685Y-96977819D01*
X171100685Y-96977819D02*
X171005447Y-96930200D01*
X171005447Y-96930200D02*
X170957828Y-96834961D01*
X170957828Y-96834961D02*
X170957828Y-96454009D01*
X170957828Y-96454009D02*
X171005447Y-96358771D01*
X171005447Y-96358771D02*
X171100685Y-96311152D01*
X171100685Y-96311152D02*
X171291161Y-96311152D01*
X171291161Y-96311152D02*
X171386399Y-96358771D01*
X171386399Y-96358771D02*
X171434018Y-96454009D01*
X171434018Y-96454009D02*
X171434018Y-96549247D01*
X171434018Y-96549247D02*
X170957828Y-96644485D01*
X171862590Y-96311152D02*
X171862590Y-96977819D01*
X171862590Y-96406390D02*
X171910209Y-96358771D01*
X171910209Y-96358771D02*
X172005447Y-96311152D01*
X172005447Y-96311152D02*
X172148304Y-96311152D01*
X172148304Y-96311152D02*
X172243542Y-96358771D01*
X172243542Y-96358771D02*
X172291161Y-96454009D01*
X172291161Y-96454009D02*
X172291161Y-96977819D01*
X172624495Y-96311152D02*
X173005447Y-96311152D01*
X172767352Y-95977819D02*
X172767352Y-96834961D01*
X172767352Y-96834961D02*
X172814971Y-96930200D01*
X172814971Y-96930200D02*
X172910209Y-96977819D01*
X172910209Y-96977819D02*
X173005447Y-96977819D01*
X174053067Y-96930200D02*
X174195924Y-96977819D01*
X174195924Y-96977819D02*
X174434019Y-96977819D01*
X174434019Y-96977819D02*
X174529257Y-96930200D01*
X174529257Y-96930200D02*
X174576876Y-96882580D01*
X174576876Y-96882580D02*
X174624495Y-96787342D01*
X174624495Y-96787342D02*
X174624495Y-96692104D01*
X174624495Y-96692104D02*
X174576876Y-96596866D01*
X174576876Y-96596866D02*
X174529257Y-96549247D01*
X174529257Y-96549247D02*
X174434019Y-96501628D01*
X174434019Y-96501628D02*
X174243543Y-96454009D01*
X174243543Y-96454009D02*
X174148305Y-96406390D01*
X174148305Y-96406390D02*
X174100686Y-96358771D01*
X174100686Y-96358771D02*
X174053067Y-96263533D01*
X174053067Y-96263533D02*
X174053067Y-96168295D01*
X174053067Y-96168295D02*
X174100686Y-96073057D01*
X174100686Y-96073057D02*
X174148305Y-96025438D01*
X174148305Y-96025438D02*
X174243543Y-95977819D01*
X174243543Y-95977819D02*
X174481638Y-95977819D01*
X174481638Y-95977819D02*
X174624495Y-96025438D01*
X175053067Y-96977819D02*
X175053067Y-96311152D01*
X175053067Y-95977819D02*
X175005448Y-96025438D01*
X175005448Y-96025438D02*
X175053067Y-96073057D01*
X175053067Y-96073057D02*
X175100686Y-96025438D01*
X175100686Y-96025438D02*
X175053067Y-95977819D01*
X175053067Y-95977819D02*
X175053067Y-96073057D01*
X175957828Y-96977819D02*
X175957828Y-95977819D01*
X175957828Y-96930200D02*
X175862590Y-96977819D01*
X175862590Y-96977819D02*
X175672114Y-96977819D01*
X175672114Y-96977819D02*
X175576876Y-96930200D01*
X175576876Y-96930200D02*
X175529257Y-96882580D01*
X175529257Y-96882580D02*
X175481638Y-96787342D01*
X175481638Y-96787342D02*
X175481638Y-96501628D01*
X175481638Y-96501628D02*
X175529257Y-96406390D01*
X175529257Y-96406390D02*
X175576876Y-96358771D01*
X175576876Y-96358771D02*
X175672114Y-96311152D01*
X175672114Y-96311152D02*
X175862590Y-96311152D01*
X175862590Y-96311152D02*
X175957828Y-96358771D01*
X176814971Y-96930200D02*
X176719733Y-96977819D01*
X176719733Y-96977819D02*
X176529257Y-96977819D01*
X176529257Y-96977819D02*
X176434019Y-96930200D01*
X176434019Y-96930200D02*
X176386400Y-96834961D01*
X176386400Y-96834961D02*
X176386400Y-96454009D01*
X176386400Y-96454009D02*
X176434019Y-96358771D01*
X176434019Y-96358771D02*
X176529257Y-96311152D01*
X176529257Y-96311152D02*
X176719733Y-96311152D01*
X176719733Y-96311152D02*
X176814971Y-96358771D01*
X176814971Y-96358771D02*
X176862590Y-96454009D01*
X176862590Y-96454009D02*
X176862590Y-96549247D01*
X176862590Y-96549247D02*
X176386400Y-96644485D01*
X177195924Y-97358771D02*
X177243543Y-97311152D01*
X177243543Y-97311152D02*
X177338781Y-97168295D01*
X177338781Y-97168295D02*
X177386400Y-97073057D01*
X177386400Y-97073057D02*
X177434019Y-96930200D01*
X177434019Y-96930200D02*
X177481638Y-96692104D01*
X177481638Y-96692104D02*
X177481638Y-96501628D01*
X177481638Y-96501628D02*
X177434019Y-96263533D01*
X177434019Y-96263533D02*
X177386400Y-96120676D01*
X177386400Y-96120676D02*
X177338781Y-96025438D01*
X177338781Y-96025438D02*
X177243543Y-95882580D01*
X177243543Y-95882580D02*
X177195924Y-95834961D01*
D10*
X131442476Y-104861404D02*
X131404380Y-104899500D01*
X131404380Y-104899500D02*
X131290095Y-104937595D01*
X131290095Y-104937595D02*
X131213904Y-104937595D01*
X131213904Y-104937595D02*
X131099618Y-104899500D01*
X131099618Y-104899500D02*
X131023428Y-104823309D01*
X131023428Y-104823309D02*
X130985333Y-104747119D01*
X130985333Y-104747119D02*
X130947237Y-104594738D01*
X130947237Y-104594738D02*
X130947237Y-104480452D01*
X130947237Y-104480452D02*
X130985333Y-104328071D01*
X130985333Y-104328071D02*
X131023428Y-104251880D01*
X131023428Y-104251880D02*
X131099618Y-104175690D01*
X131099618Y-104175690D02*
X131213904Y-104137595D01*
X131213904Y-104137595D02*
X131290095Y-104137595D01*
X131290095Y-104137595D02*
X131404380Y-104175690D01*
X131404380Y-104175690D02*
X131442476Y-104213785D01*
X132204380Y-104937595D02*
X131747237Y-104937595D01*
X131975809Y-104937595D02*
X131975809Y-104137595D01*
X131975809Y-104137595D02*
X131899618Y-104251880D01*
X131899618Y-104251880D02*
X131823428Y-104328071D01*
X131823428Y-104328071D02*
X131747237Y-104366166D01*
X132585333Y-104899500D02*
X132585333Y-104937595D01*
X132585333Y-104937595D02*
X132547238Y-105013785D01*
X132547238Y-105013785D02*
X132509142Y-105051880D01*
X133994857Y-104861404D02*
X133956761Y-104899500D01*
X133956761Y-104899500D02*
X133842476Y-104937595D01*
X133842476Y-104937595D02*
X133766285Y-104937595D01*
X133766285Y-104937595D02*
X133651999Y-104899500D01*
X133651999Y-104899500D02*
X133575809Y-104823309D01*
X133575809Y-104823309D02*
X133537714Y-104747119D01*
X133537714Y-104747119D02*
X133499618Y-104594738D01*
X133499618Y-104594738D02*
X133499618Y-104480452D01*
X133499618Y-104480452D02*
X133537714Y-104328071D01*
X133537714Y-104328071D02*
X133575809Y-104251880D01*
X133575809Y-104251880D02*
X133651999Y-104175690D01*
X133651999Y-104175690D02*
X133766285Y-104137595D01*
X133766285Y-104137595D02*
X133842476Y-104137595D01*
X133842476Y-104137595D02*
X133956761Y-104175690D01*
X133956761Y-104175690D02*
X133994857Y-104213785D01*
X134299618Y-104213785D02*
X134337714Y-104175690D01*
X134337714Y-104175690D02*
X134413904Y-104137595D01*
X134413904Y-104137595D02*
X134604380Y-104137595D01*
X134604380Y-104137595D02*
X134680571Y-104175690D01*
X134680571Y-104175690D02*
X134718666Y-104213785D01*
X134718666Y-104213785D02*
X134756761Y-104289976D01*
X134756761Y-104289976D02*
X134756761Y-104366166D01*
X134756761Y-104366166D02*
X134718666Y-104480452D01*
X134718666Y-104480452D02*
X134261523Y-104937595D01*
X134261523Y-104937595D02*
X134756761Y-104937595D01*
X130394856Y-106225595D02*
X129937713Y-106225595D01*
X130166285Y-106225595D02*
X130166285Y-105425595D01*
X130166285Y-105425595D02*
X130090094Y-105539880D01*
X130090094Y-105539880D02*
X130013904Y-105616071D01*
X130013904Y-105616071D02*
X129937713Y-105654166D01*
X130890095Y-105425595D02*
X130966285Y-105425595D01*
X130966285Y-105425595D02*
X131042476Y-105463690D01*
X131042476Y-105463690D02*
X131080571Y-105501785D01*
X131080571Y-105501785D02*
X131118666Y-105577976D01*
X131118666Y-105577976D02*
X131156761Y-105730357D01*
X131156761Y-105730357D02*
X131156761Y-105920833D01*
X131156761Y-105920833D02*
X131118666Y-106073214D01*
X131118666Y-106073214D02*
X131080571Y-106149404D01*
X131080571Y-106149404D02*
X131042476Y-106187500D01*
X131042476Y-106187500D02*
X130966285Y-106225595D01*
X130966285Y-106225595D02*
X130890095Y-106225595D01*
X130890095Y-106225595D02*
X130813904Y-106187500D01*
X130813904Y-106187500D02*
X130775809Y-106149404D01*
X130775809Y-106149404D02*
X130737714Y-106073214D01*
X130737714Y-106073214D02*
X130699618Y-105920833D01*
X130699618Y-105920833D02*
X130699618Y-105730357D01*
X130699618Y-105730357D02*
X130737714Y-105577976D01*
X130737714Y-105577976D02*
X130775809Y-105501785D01*
X130775809Y-105501785D02*
X130813904Y-105463690D01*
X130813904Y-105463690D02*
X130890095Y-105425595D01*
X131842476Y-105692261D02*
X131842476Y-106225595D01*
X131499619Y-105692261D02*
X131499619Y-106111309D01*
X131499619Y-106111309D02*
X131537714Y-106187500D01*
X131537714Y-106187500D02*
X131613904Y-106225595D01*
X131613904Y-106225595D02*
X131728190Y-106225595D01*
X131728190Y-106225595D02*
X131804381Y-106187500D01*
X131804381Y-106187500D02*
X131842476Y-106149404D01*
X132490095Y-105806547D02*
X132223429Y-105806547D01*
X132223429Y-106225595D02*
X132223429Y-105425595D01*
X132223429Y-105425595D02*
X132604381Y-105425595D01*
X132947238Y-106187500D02*
X132947238Y-106225595D01*
X132947238Y-106225595D02*
X132909143Y-106301785D01*
X132909143Y-106301785D02*
X132871047Y-106339880D01*
X134318666Y-106225595D02*
X133861523Y-106225595D01*
X134090095Y-106225595D02*
X134090095Y-105425595D01*
X134090095Y-105425595D02*
X134013904Y-105539880D01*
X134013904Y-105539880D02*
X133937714Y-105616071D01*
X133937714Y-105616071D02*
X133861523Y-105654166D01*
X135004381Y-105425595D02*
X134852000Y-105425595D01*
X134852000Y-105425595D02*
X134775809Y-105463690D01*
X134775809Y-105463690D02*
X134737714Y-105501785D01*
X134737714Y-105501785D02*
X134661524Y-105616071D01*
X134661524Y-105616071D02*
X134623428Y-105768452D01*
X134623428Y-105768452D02*
X134623428Y-106073214D01*
X134623428Y-106073214D02*
X134661524Y-106149404D01*
X134661524Y-106149404D02*
X134699619Y-106187500D01*
X134699619Y-106187500D02*
X134775809Y-106225595D01*
X134775809Y-106225595D02*
X134928190Y-106225595D01*
X134928190Y-106225595D02*
X135004381Y-106187500D01*
X135004381Y-106187500D02*
X135042476Y-106149404D01*
X135042476Y-106149404D02*
X135080571Y-106073214D01*
X135080571Y-106073214D02*
X135080571Y-105882738D01*
X135080571Y-105882738D02*
X135042476Y-105806547D01*
X135042476Y-105806547D02*
X135004381Y-105768452D01*
X135004381Y-105768452D02*
X134928190Y-105730357D01*
X134928190Y-105730357D02*
X134775809Y-105730357D01*
X134775809Y-105730357D02*
X134699619Y-105768452D01*
X134699619Y-105768452D02*
X134661524Y-105806547D01*
X134661524Y-105806547D02*
X134623428Y-105882738D01*
X135309143Y-105425595D02*
X135575810Y-106225595D01*
X135575810Y-106225595D02*
X135842476Y-105425595D01*
D11*
X154507387Y-102106171D02*
X154459768Y-102058552D01*
X154459768Y-102058552D02*
X154364530Y-101915695D01*
X154364530Y-101915695D02*
X154316911Y-101820457D01*
X154316911Y-101820457D02*
X154269292Y-101677600D01*
X154269292Y-101677600D02*
X154221673Y-101439504D01*
X154221673Y-101439504D02*
X154221673Y-101249028D01*
X154221673Y-101249028D02*
X154269292Y-101010933D01*
X154269292Y-101010933D02*
X154316911Y-100868076D01*
X154316911Y-100868076D02*
X154364530Y-100772838D01*
X154364530Y-100772838D02*
X154459768Y-100629980D01*
X154459768Y-100629980D02*
X154507387Y-100582361D01*
X155459768Y-101629980D02*
X155412149Y-101677600D01*
X155412149Y-101677600D02*
X155269292Y-101725219D01*
X155269292Y-101725219D02*
X155174054Y-101725219D01*
X155174054Y-101725219D02*
X155031197Y-101677600D01*
X155031197Y-101677600D02*
X154935959Y-101582361D01*
X154935959Y-101582361D02*
X154888340Y-101487123D01*
X154888340Y-101487123D02*
X154840721Y-101296647D01*
X154840721Y-101296647D02*
X154840721Y-101153790D01*
X154840721Y-101153790D02*
X154888340Y-100963314D01*
X154888340Y-100963314D02*
X154935959Y-100868076D01*
X154935959Y-100868076D02*
X155031197Y-100772838D01*
X155031197Y-100772838D02*
X155174054Y-100725219D01*
X155174054Y-100725219D02*
X155269292Y-100725219D01*
X155269292Y-100725219D02*
X155412149Y-100772838D01*
X155412149Y-100772838D02*
X155459768Y-100820457D01*
X156031197Y-101725219D02*
X155935959Y-101677600D01*
X155935959Y-101677600D02*
X155888340Y-101629980D01*
X155888340Y-101629980D02*
X155840721Y-101534742D01*
X155840721Y-101534742D02*
X155840721Y-101249028D01*
X155840721Y-101249028D02*
X155888340Y-101153790D01*
X155888340Y-101153790D02*
X155935959Y-101106171D01*
X155935959Y-101106171D02*
X156031197Y-101058552D01*
X156031197Y-101058552D02*
X156174054Y-101058552D01*
X156174054Y-101058552D02*
X156269292Y-101106171D01*
X156269292Y-101106171D02*
X156316911Y-101153790D01*
X156316911Y-101153790D02*
X156364530Y-101249028D01*
X156364530Y-101249028D02*
X156364530Y-101534742D01*
X156364530Y-101534742D02*
X156316911Y-101629980D01*
X156316911Y-101629980D02*
X156269292Y-101677600D01*
X156269292Y-101677600D02*
X156174054Y-101725219D01*
X156174054Y-101725219D02*
X156031197Y-101725219D01*
X156793102Y-101058552D02*
X156793102Y-102058552D01*
X156793102Y-101106171D02*
X156888340Y-101058552D01*
X156888340Y-101058552D02*
X157078816Y-101058552D01*
X157078816Y-101058552D02*
X157174054Y-101106171D01*
X157174054Y-101106171D02*
X157221673Y-101153790D01*
X157221673Y-101153790D02*
X157269292Y-101249028D01*
X157269292Y-101249028D02*
X157269292Y-101534742D01*
X157269292Y-101534742D02*
X157221673Y-101629980D01*
X157221673Y-101629980D02*
X157174054Y-101677600D01*
X157174054Y-101677600D02*
X157078816Y-101725219D01*
X157078816Y-101725219D02*
X156888340Y-101725219D01*
X156888340Y-101725219D02*
X156793102Y-101677600D01*
X157697864Y-101058552D02*
X157697864Y-102058552D01*
X157697864Y-101106171D02*
X157793102Y-101058552D01*
X157793102Y-101058552D02*
X157983578Y-101058552D01*
X157983578Y-101058552D02*
X158078816Y-101106171D01*
X158078816Y-101106171D02*
X158126435Y-101153790D01*
X158126435Y-101153790D02*
X158174054Y-101249028D01*
X158174054Y-101249028D02*
X158174054Y-101534742D01*
X158174054Y-101534742D02*
X158126435Y-101629980D01*
X158126435Y-101629980D02*
X158078816Y-101677600D01*
X158078816Y-101677600D02*
X157983578Y-101725219D01*
X157983578Y-101725219D02*
X157793102Y-101725219D01*
X157793102Y-101725219D02*
X157697864Y-101677600D01*
X158983578Y-101677600D02*
X158888340Y-101725219D01*
X158888340Y-101725219D02*
X158697864Y-101725219D01*
X158697864Y-101725219D02*
X158602626Y-101677600D01*
X158602626Y-101677600D02*
X158555007Y-101582361D01*
X158555007Y-101582361D02*
X158555007Y-101201409D01*
X158555007Y-101201409D02*
X158602626Y-101106171D01*
X158602626Y-101106171D02*
X158697864Y-101058552D01*
X158697864Y-101058552D02*
X158888340Y-101058552D01*
X158888340Y-101058552D02*
X158983578Y-101106171D01*
X158983578Y-101106171D02*
X159031197Y-101201409D01*
X159031197Y-101201409D02*
X159031197Y-101296647D01*
X159031197Y-101296647D02*
X158555007Y-101391885D01*
X159459769Y-101725219D02*
X159459769Y-101058552D01*
X159459769Y-101249028D02*
X159507388Y-101153790D01*
X159507388Y-101153790D02*
X159555007Y-101106171D01*
X159555007Y-101106171D02*
X159650245Y-101058552D01*
X159650245Y-101058552D02*
X159745483Y-101058552D01*
X160840722Y-101725219D02*
X160840722Y-100725219D01*
X160840722Y-100725219D02*
X161221674Y-100725219D01*
X161221674Y-100725219D02*
X161316912Y-100772838D01*
X161316912Y-100772838D02*
X161364531Y-100820457D01*
X161364531Y-100820457D02*
X161412150Y-100915695D01*
X161412150Y-100915695D02*
X161412150Y-101058552D01*
X161412150Y-101058552D02*
X161364531Y-101153790D01*
X161364531Y-101153790D02*
X161316912Y-101201409D01*
X161316912Y-101201409D02*
X161221674Y-101249028D01*
X161221674Y-101249028D02*
X160840722Y-101249028D01*
X162269293Y-101725219D02*
X162269293Y-101201409D01*
X162269293Y-101201409D02*
X162221674Y-101106171D01*
X162221674Y-101106171D02*
X162126436Y-101058552D01*
X162126436Y-101058552D02*
X161935960Y-101058552D01*
X161935960Y-101058552D02*
X161840722Y-101106171D01*
X162269293Y-101677600D02*
X162174055Y-101725219D01*
X162174055Y-101725219D02*
X161935960Y-101725219D01*
X161935960Y-101725219D02*
X161840722Y-101677600D01*
X161840722Y-101677600D02*
X161793103Y-101582361D01*
X161793103Y-101582361D02*
X161793103Y-101487123D01*
X161793103Y-101487123D02*
X161840722Y-101391885D01*
X161840722Y-101391885D02*
X161935960Y-101344266D01*
X161935960Y-101344266D02*
X162174055Y-101344266D01*
X162174055Y-101344266D02*
X162269293Y-101296647D01*
X163174055Y-101725219D02*
X163174055Y-100725219D01*
X163174055Y-101677600D02*
X163078817Y-101725219D01*
X163078817Y-101725219D02*
X162888341Y-101725219D01*
X162888341Y-101725219D02*
X162793103Y-101677600D01*
X162793103Y-101677600D02*
X162745484Y-101629980D01*
X162745484Y-101629980D02*
X162697865Y-101534742D01*
X162697865Y-101534742D02*
X162697865Y-101249028D01*
X162697865Y-101249028D02*
X162745484Y-101153790D01*
X162745484Y-101153790D02*
X162793103Y-101106171D01*
X162793103Y-101106171D02*
X162888341Y-101058552D01*
X162888341Y-101058552D02*
X163078817Y-101058552D01*
X163078817Y-101058552D02*
X163174055Y-101106171D01*
X164412151Y-101725219D02*
X164412151Y-100725219D01*
X164412151Y-101201409D02*
X164983579Y-101201409D01*
X164983579Y-101725219D02*
X164983579Y-100725219D01*
X165840722Y-101677600D02*
X165745484Y-101725219D01*
X165745484Y-101725219D02*
X165555008Y-101725219D01*
X165555008Y-101725219D02*
X165459770Y-101677600D01*
X165459770Y-101677600D02*
X165412151Y-101582361D01*
X165412151Y-101582361D02*
X165412151Y-101201409D01*
X165412151Y-101201409D02*
X165459770Y-101106171D01*
X165459770Y-101106171D02*
X165555008Y-101058552D01*
X165555008Y-101058552D02*
X165745484Y-101058552D01*
X165745484Y-101058552D02*
X165840722Y-101106171D01*
X165840722Y-101106171D02*
X165888341Y-101201409D01*
X165888341Y-101201409D02*
X165888341Y-101296647D01*
X165888341Y-101296647D02*
X165412151Y-101391885D01*
X166745484Y-101725219D02*
X166745484Y-101201409D01*
X166745484Y-101201409D02*
X166697865Y-101106171D01*
X166697865Y-101106171D02*
X166602627Y-101058552D01*
X166602627Y-101058552D02*
X166412151Y-101058552D01*
X166412151Y-101058552D02*
X166316913Y-101106171D01*
X166745484Y-101677600D02*
X166650246Y-101725219D01*
X166650246Y-101725219D02*
X166412151Y-101725219D01*
X166412151Y-101725219D02*
X166316913Y-101677600D01*
X166316913Y-101677600D02*
X166269294Y-101582361D01*
X166269294Y-101582361D02*
X166269294Y-101487123D01*
X166269294Y-101487123D02*
X166316913Y-101391885D01*
X166316913Y-101391885D02*
X166412151Y-101344266D01*
X166412151Y-101344266D02*
X166650246Y-101344266D01*
X166650246Y-101344266D02*
X166745484Y-101296647D01*
X167078818Y-101058552D02*
X167459770Y-101058552D01*
X167221675Y-100725219D02*
X167221675Y-101582361D01*
X167221675Y-101582361D02*
X167269294Y-101677600D01*
X167269294Y-101677600D02*
X167364532Y-101725219D01*
X167364532Y-101725219D02*
X167459770Y-101725219D01*
X167745485Y-101677600D02*
X167840723Y-101725219D01*
X167840723Y-101725219D02*
X168031199Y-101725219D01*
X168031199Y-101725219D02*
X168126437Y-101677600D01*
X168126437Y-101677600D02*
X168174056Y-101582361D01*
X168174056Y-101582361D02*
X168174056Y-101534742D01*
X168174056Y-101534742D02*
X168126437Y-101439504D01*
X168126437Y-101439504D02*
X168031199Y-101391885D01*
X168031199Y-101391885D02*
X167888342Y-101391885D01*
X167888342Y-101391885D02*
X167793104Y-101344266D01*
X167793104Y-101344266D02*
X167745485Y-101249028D01*
X167745485Y-101249028D02*
X167745485Y-101201409D01*
X167745485Y-101201409D02*
X167793104Y-101106171D01*
X167793104Y-101106171D02*
X167888342Y-101058552D01*
X167888342Y-101058552D02*
X168031199Y-101058552D01*
X168031199Y-101058552D02*
X168126437Y-101106171D01*
X168602628Y-101725219D02*
X168602628Y-101058552D01*
X168602628Y-100725219D02*
X168555009Y-100772838D01*
X168555009Y-100772838D02*
X168602628Y-100820457D01*
X168602628Y-100820457D02*
X168650247Y-100772838D01*
X168650247Y-100772838D02*
X168602628Y-100725219D01*
X168602628Y-100725219D02*
X168602628Y-100820457D01*
X169078818Y-101058552D02*
X169078818Y-101725219D01*
X169078818Y-101153790D02*
X169126437Y-101106171D01*
X169126437Y-101106171D02*
X169221675Y-101058552D01*
X169221675Y-101058552D02*
X169364532Y-101058552D01*
X169364532Y-101058552D02*
X169459770Y-101106171D01*
X169459770Y-101106171D02*
X169507389Y-101201409D01*
X169507389Y-101201409D02*
X169507389Y-101725219D01*
X169983580Y-101725219D02*
X169983580Y-100725219D01*
X170078818Y-101344266D02*
X170364532Y-101725219D01*
X170364532Y-101058552D02*
X169983580Y-101439504D01*
X171507390Y-101439504D02*
X171983580Y-101439504D01*
X171412152Y-101725219D02*
X171745485Y-100725219D01*
X171745485Y-100725219D02*
X172078818Y-101725219D01*
X172412152Y-101725219D02*
X172412152Y-101058552D01*
X172412152Y-101249028D02*
X172459771Y-101153790D01*
X172459771Y-101153790D02*
X172507390Y-101106171D01*
X172507390Y-101106171D02*
X172602628Y-101058552D01*
X172602628Y-101058552D02*
X172697866Y-101058552D01*
X173412152Y-101677600D02*
X173316914Y-101725219D01*
X173316914Y-101725219D02*
X173126438Y-101725219D01*
X173126438Y-101725219D02*
X173031200Y-101677600D01*
X173031200Y-101677600D02*
X172983581Y-101582361D01*
X172983581Y-101582361D02*
X172983581Y-101201409D01*
X172983581Y-101201409D02*
X173031200Y-101106171D01*
X173031200Y-101106171D02*
X173126438Y-101058552D01*
X173126438Y-101058552D02*
X173316914Y-101058552D01*
X173316914Y-101058552D02*
X173412152Y-101106171D01*
X173412152Y-101106171D02*
X173459771Y-101201409D01*
X173459771Y-101201409D02*
X173459771Y-101296647D01*
X173459771Y-101296647D02*
X172983581Y-101391885D01*
X174316914Y-101725219D02*
X174316914Y-101201409D01*
X174316914Y-101201409D02*
X174269295Y-101106171D01*
X174269295Y-101106171D02*
X174174057Y-101058552D01*
X174174057Y-101058552D02*
X173983581Y-101058552D01*
X173983581Y-101058552D02*
X173888343Y-101106171D01*
X174316914Y-101677600D02*
X174221676Y-101725219D01*
X174221676Y-101725219D02*
X173983581Y-101725219D01*
X173983581Y-101725219D02*
X173888343Y-101677600D01*
X173888343Y-101677600D02*
X173840724Y-101582361D01*
X173840724Y-101582361D02*
X173840724Y-101487123D01*
X173840724Y-101487123D02*
X173888343Y-101391885D01*
X173888343Y-101391885D02*
X173983581Y-101344266D01*
X173983581Y-101344266D02*
X174221676Y-101344266D01*
X174221676Y-101344266D02*
X174316914Y-101296647D01*
X174697867Y-102106171D02*
X174745486Y-102058552D01*
X174745486Y-102058552D02*
X174840724Y-101915695D01*
X174840724Y-101915695D02*
X174888343Y-101820457D01*
X174888343Y-101820457D02*
X174935962Y-101677600D01*
X174935962Y-101677600D02*
X174983581Y-101439504D01*
X174983581Y-101439504D02*
X174983581Y-101249028D01*
X174983581Y-101249028D02*
X174935962Y-101010933D01*
X174935962Y-101010933D02*
X174888343Y-100868076D01*
X174888343Y-100868076D02*
X174840724Y-100772838D01*
X174840724Y-100772838D02*
X174745486Y-100629980D01*
X174745486Y-100629980D02*
X174697867Y-100582361D01*
D13*
X154758000Y-76616104D02*
X155234190Y-76616104D01*
X154662762Y-76901819D02*
X154996095Y-75901819D01*
X154996095Y-75901819D02*
X155329428Y-76901819D01*
X155662762Y-76901819D02*
X155662762Y-75901819D01*
X155662762Y-75901819D02*
X155996095Y-76616104D01*
X155996095Y-76616104D02*
X156329428Y-75901819D01*
X156329428Y-75901819D02*
X156329428Y-76901819D01*
X156758000Y-76854200D02*
X156900857Y-76901819D01*
X156900857Y-76901819D02*
X157138952Y-76901819D01*
X157138952Y-76901819D02*
X157234190Y-76854200D01*
X157234190Y-76854200D02*
X157281809Y-76806580D01*
X157281809Y-76806580D02*
X157329428Y-76711342D01*
X157329428Y-76711342D02*
X157329428Y-76616104D01*
X157329428Y-76616104D02*
X157281809Y-76520866D01*
X157281809Y-76520866D02*
X157234190Y-76473247D01*
X157234190Y-76473247D02*
X157138952Y-76425628D01*
X157138952Y-76425628D02*
X156948476Y-76378009D01*
X156948476Y-76378009D02*
X156853238Y-76330390D01*
X156853238Y-76330390D02*
X156805619Y-76282771D01*
X156805619Y-76282771D02*
X156758000Y-76187533D01*
X156758000Y-76187533D02*
X156758000Y-76092295D01*
X156758000Y-76092295D02*
X156805619Y-75997057D01*
X156805619Y-75997057D02*
X156853238Y-75949438D01*
X156853238Y-75949438D02*
X156948476Y-75901819D01*
X156948476Y-75901819D02*
X157186571Y-75901819D01*
X157186571Y-75901819D02*
X157329428Y-75949438D01*
X158281809Y-76901819D02*
X157710381Y-76901819D01*
X157996095Y-76901819D02*
X157996095Y-75901819D01*
X157996095Y-75901819D02*
X157900857Y-76044676D01*
X157900857Y-76044676D02*
X157805619Y-76139914D01*
X157805619Y-76139914D02*
X157710381Y-76187533D01*
X159234190Y-76901819D02*
X158662762Y-76901819D01*
X158948476Y-76901819D02*
X158948476Y-75901819D01*
X158948476Y-75901819D02*
X158853238Y-76044676D01*
X158853238Y-76044676D02*
X158758000Y-76139914D01*
X158758000Y-76139914D02*
X158662762Y-76187533D01*
X160186571Y-76901819D02*
X159615143Y-76901819D01*
X159900857Y-76901819D02*
X159900857Y-75901819D01*
X159900857Y-75901819D02*
X159805619Y-76044676D01*
X159805619Y-76044676D02*
X159710381Y-76139914D01*
X159710381Y-76139914D02*
X159615143Y-76187533D01*
X160519905Y-75901819D02*
X161186571Y-75901819D01*
X161186571Y-75901819D02*
X160758000Y-76901819D01*
X162138952Y-76806580D02*
X162091333Y-76854200D01*
X162091333Y-76854200D02*
X161948476Y-76901819D01*
X161948476Y-76901819D02*
X161853238Y-76901819D01*
X161853238Y-76901819D02*
X161710381Y-76854200D01*
X161710381Y-76854200D02*
X161615143Y-76758961D01*
X161615143Y-76758961D02*
X161567524Y-76663723D01*
X161567524Y-76663723D02*
X161519905Y-76473247D01*
X161519905Y-76473247D02*
X161519905Y-76330390D01*
X161519905Y-76330390D02*
X161567524Y-76139914D01*
X161567524Y-76139914D02*
X161615143Y-76044676D01*
X161615143Y-76044676D02*
X161710381Y-75949438D01*
X161710381Y-75949438D02*
X161853238Y-75901819D01*
X161853238Y-75901819D02*
X161948476Y-75901819D01*
X161948476Y-75901819D02*
X162091333Y-75949438D01*
X162091333Y-75949438D02*
X162138952Y-75997057D01*
X162567524Y-76901819D02*
X162567524Y-75901819D01*
X162567524Y-75901819D02*
X162805619Y-75901819D01*
X162805619Y-75901819D02*
X162948476Y-75949438D01*
X162948476Y-75949438D02*
X163043714Y-76044676D01*
X163043714Y-76044676D02*
X163091333Y-76139914D01*
X163091333Y-76139914D02*
X163138952Y-76330390D01*
X163138952Y-76330390D02*
X163138952Y-76473247D01*
X163138952Y-76473247D02*
X163091333Y-76663723D01*
X163091333Y-76663723D02*
X163043714Y-76758961D01*
X163043714Y-76758961D02*
X162948476Y-76854200D01*
X162948476Y-76854200D02*
X162805619Y-76901819D01*
X162805619Y-76901819D02*
X162567524Y-76901819D01*
X163567524Y-76520866D02*
X164329429Y-76520866D01*
X164710381Y-75901819D02*
X165329428Y-75901819D01*
X165329428Y-75901819D02*
X164996095Y-76282771D01*
X164996095Y-76282771D02*
X165138952Y-76282771D01*
X165138952Y-76282771D02*
X165234190Y-76330390D01*
X165234190Y-76330390D02*
X165281809Y-76378009D01*
X165281809Y-76378009D02*
X165329428Y-76473247D01*
X165329428Y-76473247D02*
X165329428Y-76711342D01*
X165329428Y-76711342D02*
X165281809Y-76806580D01*
X165281809Y-76806580D02*
X165234190Y-76854200D01*
X165234190Y-76854200D02*
X165138952Y-76901819D01*
X165138952Y-76901819D02*
X164853238Y-76901819D01*
X164853238Y-76901819D02*
X164758000Y-76854200D01*
X164758000Y-76854200D02*
X164710381Y-76806580D01*
X165758000Y-76806580D02*
X165805619Y-76854200D01*
X165805619Y-76854200D02*
X165758000Y-76901819D01*
X165758000Y-76901819D02*
X165710381Y-76854200D01*
X165710381Y-76854200D02*
X165758000Y-76806580D01*
X165758000Y-76806580D02*
X165758000Y-76901819D01*
X166138952Y-75901819D02*
X166757999Y-75901819D01*
X166757999Y-75901819D02*
X166424666Y-76282771D01*
X166424666Y-76282771D02*
X166567523Y-76282771D01*
X166567523Y-76282771D02*
X166662761Y-76330390D01*
X166662761Y-76330390D02*
X166710380Y-76378009D01*
X166710380Y-76378009D02*
X166757999Y-76473247D01*
X166757999Y-76473247D02*
X166757999Y-76711342D01*
X166757999Y-76711342D02*
X166710380Y-76806580D01*
X166710380Y-76806580D02*
X166662761Y-76854200D01*
X166662761Y-76854200D02*
X166567523Y-76901819D01*
X166567523Y-76901819D02*
X166281809Y-76901819D01*
X166281809Y-76901819D02*
X166186571Y-76854200D01*
X166186571Y-76854200D02*
X166138952Y-76806580D01*
X127211333Y-76226819D02*
X126878000Y-75750628D01*
X126639905Y-76226819D02*
X126639905Y-75226819D01*
X126639905Y-75226819D02*
X127020857Y-75226819D01*
X127020857Y-75226819D02*
X127116095Y-75274438D01*
X127116095Y-75274438D02*
X127163714Y-75322057D01*
X127163714Y-75322057D02*
X127211333Y-75417295D01*
X127211333Y-75417295D02*
X127211333Y-75560152D01*
X127211333Y-75560152D02*
X127163714Y-75655390D01*
X127163714Y-75655390D02*
X127116095Y-75703009D01*
X127116095Y-75703009D02*
X127020857Y-75750628D01*
X127020857Y-75750628D02*
X126639905Y-75750628D01*
X128163714Y-76226819D02*
X127592286Y-76226819D01*
X127878000Y-76226819D02*
X127878000Y-75226819D01*
X127878000Y-75226819D02*
X127782762Y-75369676D01*
X127782762Y-75369676D02*
X127687524Y-75464914D01*
X127687524Y-75464914D02*
X127592286Y-75512533D01*
X115988000Y-75685866D02*
X116749905Y-75685866D01*
X116368952Y-76066819D02*
X116368952Y-75304914D01*
X117130857Y-75066819D02*
X117749904Y-75066819D01*
X117749904Y-75066819D02*
X117416571Y-75447771D01*
X117416571Y-75447771D02*
X117559428Y-75447771D01*
X117559428Y-75447771D02*
X117654666Y-75495390D01*
X117654666Y-75495390D02*
X117702285Y-75543009D01*
X117702285Y-75543009D02*
X117749904Y-75638247D01*
X117749904Y-75638247D02*
X117749904Y-75876342D01*
X117749904Y-75876342D02*
X117702285Y-75971580D01*
X117702285Y-75971580D02*
X117654666Y-76019200D01*
X117654666Y-76019200D02*
X117559428Y-76066819D01*
X117559428Y-76066819D02*
X117273714Y-76066819D01*
X117273714Y-76066819D02*
X117178476Y-76019200D01*
X117178476Y-76019200D02*
X117130857Y-75971580D01*
X118178476Y-75971580D02*
X118226095Y-76019200D01*
X118226095Y-76019200D02*
X118178476Y-76066819D01*
X118178476Y-76066819D02*
X118130857Y-76019200D01*
X118130857Y-76019200D02*
X118178476Y-75971580D01*
X118178476Y-75971580D02*
X118178476Y-76066819D01*
X118559428Y-75066819D02*
X119178475Y-75066819D01*
X119178475Y-75066819D02*
X118845142Y-75447771D01*
X118845142Y-75447771D02*
X118987999Y-75447771D01*
X118987999Y-75447771D02*
X119083237Y-75495390D01*
X119083237Y-75495390D02*
X119130856Y-75543009D01*
X119130856Y-75543009D02*
X119178475Y-75638247D01*
X119178475Y-75638247D02*
X119178475Y-75876342D01*
X119178475Y-75876342D02*
X119130856Y-75971580D01*
X119130856Y-75971580D02*
X119083237Y-76019200D01*
X119083237Y-76019200D02*
X118987999Y-76066819D01*
X118987999Y-76066819D02*
X118702285Y-76066819D01*
X118702285Y-76066819D02*
X118607047Y-76019200D01*
X118607047Y-76019200D02*
X118559428Y-75971580D01*
X119464190Y-75066819D02*
X119797523Y-76066819D01*
X119797523Y-76066819D02*
X120130856Y-75066819D01*
X188012000Y-97121866D02*
X188773905Y-97121866D01*
X188392952Y-97502819D02*
X188392952Y-96740914D01*
X189154857Y-96502819D02*
X189773904Y-96502819D01*
X189773904Y-96502819D02*
X189440571Y-96883771D01*
X189440571Y-96883771D02*
X189583428Y-96883771D01*
X189583428Y-96883771D02*
X189678666Y-96931390D01*
X189678666Y-96931390D02*
X189726285Y-96979009D01*
X189726285Y-96979009D02*
X189773904Y-97074247D01*
X189773904Y-97074247D02*
X189773904Y-97312342D01*
X189773904Y-97312342D02*
X189726285Y-97407580D01*
X189726285Y-97407580D02*
X189678666Y-97455200D01*
X189678666Y-97455200D02*
X189583428Y-97502819D01*
X189583428Y-97502819D02*
X189297714Y-97502819D01*
X189297714Y-97502819D02*
X189202476Y-97455200D01*
X189202476Y-97455200D02*
X189154857Y-97407580D01*
X190202476Y-97407580D02*
X190250095Y-97455200D01*
X190250095Y-97455200D02*
X190202476Y-97502819D01*
X190202476Y-97502819D02*
X190154857Y-97455200D01*
X190154857Y-97455200D02*
X190202476Y-97407580D01*
X190202476Y-97407580D02*
X190202476Y-97502819D01*
X190583428Y-96502819D02*
X191202475Y-96502819D01*
X191202475Y-96502819D02*
X190869142Y-96883771D01*
X190869142Y-96883771D02*
X191011999Y-96883771D01*
X191011999Y-96883771D02*
X191107237Y-96931390D01*
X191107237Y-96931390D02*
X191154856Y-96979009D01*
X191154856Y-96979009D02*
X191202475Y-97074247D01*
X191202475Y-97074247D02*
X191202475Y-97312342D01*
X191202475Y-97312342D02*
X191154856Y-97407580D01*
X191154856Y-97407580D02*
X191107237Y-97455200D01*
X191107237Y-97455200D02*
X191011999Y-97502819D01*
X191011999Y-97502819D02*
X190726285Y-97502819D01*
X190726285Y-97502819D02*
X190631047Y-97455200D01*
X190631047Y-97455200D02*
X190583428Y-97407580D01*
X191488190Y-96502819D02*
X191821523Y-97502819D01*
X191821523Y-97502819D02*
X192154856Y-96502819D01*
X180455333Y-97342819D02*
X180122000Y-96866628D01*
X179883905Y-97342819D02*
X179883905Y-96342819D01*
X179883905Y-96342819D02*
X180264857Y-96342819D01*
X180264857Y-96342819D02*
X180360095Y-96390438D01*
X180360095Y-96390438D02*
X180407714Y-96438057D01*
X180407714Y-96438057D02*
X180455333Y-96533295D01*
X180455333Y-96533295D02*
X180455333Y-96676152D01*
X180455333Y-96676152D02*
X180407714Y-96771390D01*
X180407714Y-96771390D02*
X180360095Y-96819009D01*
X180360095Y-96819009D02*
X180264857Y-96866628D01*
X180264857Y-96866628D02*
X179883905Y-96866628D01*
X181407714Y-97342819D02*
X180836286Y-97342819D01*
X181122000Y-97342819D02*
X181122000Y-96342819D01*
X181122000Y-96342819D02*
X181026762Y-96485676D01*
X181026762Y-96485676D02*
X180931524Y-96580914D01*
X180931524Y-96580914D02*
X180836286Y-96628533D01*
X141242000Y-96382104D02*
X141718190Y-96382104D01*
X141146762Y-96667819D02*
X141480095Y-95667819D01*
X141480095Y-95667819D02*
X141813428Y-96667819D01*
X142146762Y-96667819D02*
X142146762Y-95667819D01*
X142146762Y-95667819D02*
X142480095Y-96382104D01*
X142480095Y-96382104D02*
X142813428Y-95667819D01*
X142813428Y-95667819D02*
X142813428Y-96667819D01*
X143242000Y-96620200D02*
X143384857Y-96667819D01*
X143384857Y-96667819D02*
X143622952Y-96667819D01*
X143622952Y-96667819D02*
X143718190Y-96620200D01*
X143718190Y-96620200D02*
X143765809Y-96572580D01*
X143765809Y-96572580D02*
X143813428Y-96477342D01*
X143813428Y-96477342D02*
X143813428Y-96382104D01*
X143813428Y-96382104D02*
X143765809Y-96286866D01*
X143765809Y-96286866D02*
X143718190Y-96239247D01*
X143718190Y-96239247D02*
X143622952Y-96191628D01*
X143622952Y-96191628D02*
X143432476Y-96144009D01*
X143432476Y-96144009D02*
X143337238Y-96096390D01*
X143337238Y-96096390D02*
X143289619Y-96048771D01*
X143289619Y-96048771D02*
X143242000Y-95953533D01*
X143242000Y-95953533D02*
X143242000Y-95858295D01*
X143242000Y-95858295D02*
X143289619Y-95763057D01*
X143289619Y-95763057D02*
X143337238Y-95715438D01*
X143337238Y-95715438D02*
X143432476Y-95667819D01*
X143432476Y-95667819D02*
X143670571Y-95667819D01*
X143670571Y-95667819D02*
X143813428Y-95715438D01*
X144765809Y-96667819D02*
X144194381Y-96667819D01*
X144480095Y-96667819D02*
X144480095Y-95667819D01*
X144480095Y-95667819D02*
X144384857Y-95810676D01*
X144384857Y-95810676D02*
X144289619Y-95905914D01*
X144289619Y-95905914D02*
X144194381Y-95953533D01*
X145718190Y-96667819D02*
X145146762Y-96667819D01*
X145432476Y-96667819D02*
X145432476Y-95667819D01*
X145432476Y-95667819D02*
X145337238Y-95810676D01*
X145337238Y-95810676D02*
X145242000Y-95905914D01*
X145242000Y-95905914D02*
X145146762Y-95953533D01*
X146670571Y-96667819D02*
X146099143Y-96667819D01*
X146384857Y-96667819D02*
X146384857Y-95667819D01*
X146384857Y-95667819D02*
X146289619Y-95810676D01*
X146289619Y-95810676D02*
X146194381Y-95905914D01*
X146194381Y-95905914D02*
X146099143Y-95953533D01*
X147003905Y-95667819D02*
X147670571Y-95667819D01*
X147670571Y-95667819D02*
X147242000Y-96667819D01*
X148622952Y-96572580D02*
X148575333Y-96620200D01*
X148575333Y-96620200D02*
X148432476Y-96667819D01*
X148432476Y-96667819D02*
X148337238Y-96667819D01*
X148337238Y-96667819D02*
X148194381Y-96620200D01*
X148194381Y-96620200D02*
X148099143Y-96524961D01*
X148099143Y-96524961D02*
X148051524Y-96429723D01*
X148051524Y-96429723D02*
X148003905Y-96239247D01*
X148003905Y-96239247D02*
X148003905Y-96096390D01*
X148003905Y-96096390D02*
X148051524Y-95905914D01*
X148051524Y-95905914D02*
X148099143Y-95810676D01*
X148099143Y-95810676D02*
X148194381Y-95715438D01*
X148194381Y-95715438D02*
X148337238Y-95667819D01*
X148337238Y-95667819D02*
X148432476Y-95667819D01*
X148432476Y-95667819D02*
X148575333Y-95715438D01*
X148575333Y-95715438D02*
X148622952Y-95763057D01*
X149051524Y-96667819D02*
X149051524Y-95667819D01*
X149051524Y-95667819D02*
X149289619Y-95667819D01*
X149289619Y-95667819D02*
X149432476Y-95715438D01*
X149432476Y-95715438D02*
X149527714Y-95810676D01*
X149527714Y-95810676D02*
X149575333Y-95905914D01*
X149575333Y-95905914D02*
X149622952Y-96096390D01*
X149622952Y-96096390D02*
X149622952Y-96239247D01*
X149622952Y-96239247D02*
X149575333Y-96429723D01*
X149575333Y-96429723D02*
X149527714Y-96524961D01*
X149527714Y-96524961D02*
X149432476Y-96620200D01*
X149432476Y-96620200D02*
X149289619Y-96667819D01*
X149289619Y-96667819D02*
X149051524Y-96667819D01*
X150051524Y-96286866D02*
X150813429Y-96286866D01*
X151194381Y-95667819D02*
X151813428Y-95667819D01*
X151813428Y-95667819D02*
X151480095Y-96048771D01*
X151480095Y-96048771D02*
X151622952Y-96048771D01*
X151622952Y-96048771D02*
X151718190Y-96096390D01*
X151718190Y-96096390D02*
X151765809Y-96144009D01*
X151765809Y-96144009D02*
X151813428Y-96239247D01*
X151813428Y-96239247D02*
X151813428Y-96477342D01*
X151813428Y-96477342D02*
X151765809Y-96572580D01*
X151765809Y-96572580D02*
X151718190Y-96620200D01*
X151718190Y-96620200D02*
X151622952Y-96667819D01*
X151622952Y-96667819D02*
X151337238Y-96667819D01*
X151337238Y-96667819D02*
X151242000Y-96620200D01*
X151242000Y-96620200D02*
X151194381Y-96572580D01*
X152242000Y-96572580D02*
X152289619Y-96620200D01*
X152289619Y-96620200D02*
X152242000Y-96667819D01*
X152242000Y-96667819D02*
X152194381Y-96620200D01*
X152194381Y-96620200D02*
X152242000Y-96572580D01*
X152242000Y-96572580D02*
X152242000Y-96667819D01*
X152622952Y-95667819D02*
X153241999Y-95667819D01*
X153241999Y-95667819D02*
X152908666Y-96048771D01*
X152908666Y-96048771D02*
X153051523Y-96048771D01*
X153051523Y-96048771D02*
X153146761Y-96096390D01*
X153146761Y-96096390D02*
X153194380Y-96144009D01*
X153194380Y-96144009D02*
X153241999Y-96239247D01*
X153241999Y-96239247D02*
X153241999Y-96477342D01*
X153241999Y-96477342D02*
X153194380Y-96572580D01*
X153194380Y-96572580D02*
X153146761Y-96620200D01*
X153146761Y-96620200D02*
X153051523Y-96667819D01*
X153051523Y-96667819D02*
X152765809Y-96667819D01*
X152765809Y-96667819D02*
X152670571Y-96620200D01*
X152670571Y-96620200D02*
X152622952Y-96572580D01*
D14*
%TO.C,mouse-bite-2mm-slot*%
X156000000Y-77470000D02*
G75*
G03*
X156000000Y-79470000I0J-1000000D01*
G01*
X152000000Y-79470000D02*
G75*
G03*
X152000000Y-77470000I0J1000000D01*
G01*
X177000000Y-77430000D02*
G75*
G03*
X177000000Y-79430000I0J-1000000D01*
G01*
X173000000Y-79430000D02*
G75*
G03*
X173000000Y-77430000I0J1000000D01*
G01*
D15*
%TO.C,D1*%
X189493000Y-75997000D02*
X184053000Y-75997000D01*
X189493000Y-75867000D02*
X189493000Y-75997000D01*
X189493000Y-73187000D02*
X189493000Y-73057000D01*
X189493000Y-73057000D02*
X184053000Y-73057000D01*
X188713000Y-75997000D02*
X188713000Y-73057000D01*
X188593000Y-75997000D02*
X188593000Y-73057000D01*
X188473000Y-75997000D02*
X188473000Y-73057000D01*
X184053000Y-75997000D02*
X184053000Y-75867000D01*
X184053000Y-73057000D02*
X184053000Y-73187000D01*
%TO.C,D2*%
X189493000Y-71747000D02*
X184053000Y-71747000D01*
X189493000Y-71617000D02*
X189493000Y-71747000D01*
X189493000Y-68937000D02*
X189493000Y-68807000D01*
X189493000Y-68807000D02*
X184053000Y-68807000D01*
X188713000Y-71747000D02*
X188713000Y-68807000D01*
X188593000Y-71747000D02*
X188593000Y-68807000D01*
X188473000Y-71747000D02*
X188473000Y-68807000D01*
X184053000Y-71747000D02*
X184053000Y-71617000D01*
X184053000Y-68807000D02*
X184053000Y-68937000D01*
%TO.C,C2*%
X171038000Y-74602000D02*
X172328000Y-74602000D01*
X172328000Y-72932000D02*
X172328000Y-76272000D01*
X172328000Y-76272000D02*
X177668000Y-76272000D01*
X177668000Y-72932000D02*
X172328000Y-72932000D01*
X177668000Y-76272000D02*
X177668000Y-72932000D01*
X178958000Y-74602000D02*
X177668000Y-74602000D01*
%TO.C,C1*%
X171038000Y-70442000D02*
X172328000Y-70442000D01*
X172328000Y-68772000D02*
X172328000Y-72112000D01*
X172328000Y-72112000D02*
X177668000Y-72112000D01*
X177668000Y-68772000D02*
X172328000Y-68772000D01*
X177668000Y-72112000D02*
X177668000Y-68772000D01*
X178958000Y-70442000D02*
X177668000Y-70442000D01*
D14*
%TO.C,mouse-bite-2mm-slot*%
X135000000Y-77470000D02*
G75*
G03*
X135000000Y-79470000I0J-1000000D01*
G01*
X131000000Y-79470000D02*
G75*
G03*
X131000000Y-77470000I0J1000000D01*
G01*
D15*
%TO.C,J1*%
X194223000Y-66722000D02*
X193623000Y-66722000D01*
X193623000Y-66722000D02*
X193673000Y-58472000D01*
X130673000Y-66672000D02*
X129023000Y-66672000D01*
X130673000Y-58472000D02*
X130673000Y-66672000D01*
X129023000Y-66672000D02*
X128973000Y-58472000D01*
X114273000Y-66722000D02*
X113973000Y-66722000D01*
X114273000Y-58472000D02*
X114273000Y-66722000D01*
%TO.C,AMS1117CD-3.3*%
X164068000Y-75397000D02*
X164068000Y-75127000D01*
X164068000Y-75127000D02*
X166898000Y-75127000D01*
X164068000Y-68767000D02*
X165168000Y-68767000D01*
X164068000Y-68497000D02*
X164068000Y-68767000D01*
X157648000Y-75397000D02*
X164068000Y-75397000D01*
X157648000Y-68497000D02*
X164068000Y-68497000D01*
%TO.C,TP2*%
X124853000Y-68847000D02*
X124853000Y-68727000D01*
X124853000Y-68727000D02*
X122193000Y-68727000D01*
X123523000Y-71387000D02*
X122193000Y-71387000D01*
X122193000Y-71387000D02*
X122193000Y-70057000D01*
X122193000Y-68847000D02*
X122193000Y-68727000D01*
%TO.C,TP1*%
X128503000Y-68887000D02*
X128503000Y-68767000D01*
X128503000Y-68767000D02*
X125843000Y-68767000D01*
X127173000Y-71427000D02*
X125843000Y-71427000D01*
X125843000Y-71427000D02*
X125843000Y-70097000D01*
X125843000Y-68887000D02*
X125843000Y-68767000D01*
%TO.C,R1*%
X131418000Y-73402000D02*
X130648000Y-73402000D01*
X130648000Y-74772000D02*
X130648000Y-72032000D01*
X130648000Y-72032000D02*
X124108000Y-72032000D01*
X124108000Y-74772000D02*
X130648000Y-74772000D01*
X124108000Y-72032000D02*
X124108000Y-74772000D01*
X123338000Y-73402000D02*
X124108000Y-73402000D01*
%TO.C,+3.3V*%
X120548000Y-73197000D02*
X120548000Y-70107000D01*
X114998001Y-71651538D02*
G75*
G03*
X120547999Y-73196830I2989999J-462D01*
G01*
X120548000Y-70107170D02*
G75*
G03*
X114998000Y-71652462I-2560000J-1544830D01*
G01*
X120488000Y-71652000D02*
G75*
G03*
X120488000Y-71652000I-2500000J0D01*
G01*
D14*
%TO.C,mouse-bite-2mm-slot*%
X152000000Y-95190000D02*
G75*
G03*
X152000000Y-93190000I0J1000000D01*
G01*
X156000000Y-93190000D02*
G75*
G03*
X156000000Y-95190000I0J-1000000D01*
G01*
X173000000Y-95190000D02*
G75*
G03*
X173000000Y-93190000I0J1000000D01*
G01*
X177000000Y-93190000D02*
G75*
G03*
X177000000Y-95190000I0J-1000000D01*
G01*
X131000000Y-95230000D02*
G75*
G03*
X131000000Y-93230000I0J1000000D01*
G01*
X135000000Y-93230000D02*
G75*
G03*
X135000000Y-95230000I0J-1000000D01*
G01*
D15*
%TO.C,D2*%
X118507000Y-100913000D02*
X123947000Y-100913000D01*
X118507000Y-101043000D02*
X118507000Y-100913000D01*
X118507000Y-103723000D02*
X118507000Y-103853000D01*
X118507000Y-103853000D02*
X123947000Y-103853000D01*
X119287000Y-100913000D02*
X119287000Y-103853000D01*
X119407000Y-100913000D02*
X119407000Y-103853000D01*
X119527000Y-100913000D02*
X119527000Y-103853000D01*
X123947000Y-100913000D02*
X123947000Y-101043000D01*
X123947000Y-103853000D02*
X123947000Y-103723000D01*
%TO.C,TP2*%
X183147000Y-103813000D02*
X183147000Y-103933000D01*
X183147000Y-103933000D02*
X185807000Y-103933000D01*
X184477000Y-101273000D02*
X185807000Y-101273000D01*
X185807000Y-101273000D02*
X185807000Y-102603000D01*
X185807000Y-103813000D02*
X185807000Y-103933000D01*
%TO.C,J1*%
X113777000Y-105938000D02*
X114377000Y-105938000D01*
X114377000Y-105938000D02*
X114327000Y-114188000D01*
X177327000Y-105988000D02*
X178977000Y-105988000D01*
X177327000Y-114188000D02*
X177327000Y-105988000D01*
X178977000Y-105988000D02*
X179027000Y-114188000D01*
X193727000Y-105938000D02*
X194027000Y-105938000D01*
X193727000Y-114188000D02*
X193727000Y-105938000D01*
%TO.C,+3.3V*%
X187452000Y-99463000D02*
X187452000Y-102553000D01*
X193001999Y-101008462D02*
G75*
G03*
X187452001Y-99463170I-2989999J462D01*
G01*
X187452000Y-102552830D02*
G75*
G03*
X193002000Y-101007538I2560000J1544830D01*
G01*
X192512000Y-101008000D02*
G75*
G03*
X192512000Y-101008000I-2500000J0D01*
G01*
%TO.C,R1*%
X176582000Y-99258000D02*
X177352000Y-99258000D01*
X177352000Y-97888000D02*
X177352000Y-100628000D01*
X177352000Y-100628000D02*
X183892000Y-100628000D01*
X183892000Y-97888000D02*
X177352000Y-97888000D01*
X183892000Y-100628000D02*
X183892000Y-97888000D01*
X184662000Y-99258000D02*
X183892000Y-99258000D01*
%TO.C,C1*%
X136962000Y-102218000D02*
X135672000Y-102218000D01*
X135672000Y-103888000D02*
X135672000Y-100548000D01*
X135672000Y-100548000D02*
X130332000Y-100548000D01*
X130332000Y-103888000D02*
X135672000Y-103888000D01*
X130332000Y-100548000D02*
X130332000Y-103888000D01*
X129042000Y-102218000D02*
X130332000Y-102218000D01*
%TO.C,D1*%
X118507000Y-96663000D02*
X123947000Y-96663000D01*
X118507000Y-96793000D02*
X118507000Y-96663000D01*
X118507000Y-99473000D02*
X118507000Y-99603000D01*
X118507000Y-99603000D02*
X123947000Y-99603000D01*
X119287000Y-96663000D02*
X119287000Y-99603000D01*
X119407000Y-96663000D02*
X119407000Y-99603000D01*
X119527000Y-96663000D02*
X119527000Y-99603000D01*
X123947000Y-96663000D02*
X123947000Y-96793000D01*
X123947000Y-99603000D02*
X123947000Y-99473000D01*
%TO.C,C2*%
X136962000Y-98058000D02*
X135672000Y-98058000D01*
X135672000Y-99728000D02*
X135672000Y-96388000D01*
X135672000Y-96388000D02*
X130332000Y-96388000D01*
X130332000Y-99728000D02*
X135672000Y-99728000D01*
X130332000Y-96388000D02*
X130332000Y-99728000D01*
X129042000Y-98058000D02*
X130332000Y-98058000D01*
%TO.C,AMS1117CD-3.3*%
X143932000Y-97263000D02*
X143932000Y-97533000D01*
X143932000Y-97533000D02*
X141102000Y-97533000D01*
X143932000Y-103893000D02*
X142832000Y-103893000D01*
X143932000Y-104163000D02*
X143932000Y-103893000D01*
X150352000Y-97263000D02*
X143932000Y-97263000D01*
X150352000Y-104163000D02*
X143932000Y-104163000D01*
%TO.C,TP1*%
X179497000Y-103773000D02*
X179497000Y-103893000D01*
X179497000Y-103893000D02*
X182157000Y-103893000D01*
X180827000Y-101233000D02*
X182157000Y-101233000D01*
X182157000Y-101233000D02*
X182157000Y-102563000D01*
X182157000Y-103773000D02*
X182157000Y-103893000D01*
%TD*%
M02*
