%TF.GenerationSoftware,KiCad,Pcbnew,7.0.7*%
%TF.CreationDate,2023-11-02T08:16:25-05:00*%
%TF.ProjectId,PCI Blaster Mouse Bites,50434920-426c-4617-9374-6572204d6f75,rev?*%
%TF.SameCoordinates,Original*%
%TF.FileFunction,Copper,L2,Bot*%
%TF.FilePolarity,Positive*%
%FSLAX46Y46*%
G04 Gerber Fmt 4.6, Leading zero omitted, Abs format (unit mm)*
G04 Created by KiCad (PCBNEW 7.0.7) date 2023-11-02 08:16:25*
%MOMM*%
%LPD*%
G01*
G04 APERTURE LIST*
%TA.AperFunction,ComponentPad*%
%ADD10R,2.200000X2.200000*%
%TD*%
%TA.AperFunction,ComponentPad*%
%ADD11O,2.200000X2.200000*%
%TD*%
%TA.AperFunction,ComponentPad*%
%ADD12C,1.600000*%
%TD*%
%TA.AperFunction,ComponentPad*%
%ADD13O,1.600000X1.600000*%
%TD*%
%TA.AperFunction,ConnectorPad*%
%ADD14R,1.020000X4.570000*%
%TD*%
%TA.AperFunction,ConnectorPad*%
%ADD15R,0.510000X0.760000*%
%TD*%
%TA.AperFunction,ComponentPad*%
%ADD16R,1.700000X1.700000*%
%TD*%
%TA.AperFunction,ComponentPad*%
%ADD17R,1.800000X1.800000*%
%TD*%
%TA.AperFunction,ComponentPad*%
%ADD18C,1.800000*%
%TD*%
%TA.AperFunction,ViaPad*%
%ADD19C,0.800000*%
%TD*%
%TA.AperFunction,Conductor*%
%ADD20C,0.500000*%
%TD*%
%TA.AperFunction,Conductor*%
%ADD21C,0.250000*%
%TD*%
G04 APERTURE END LIST*
D10*
%TO.P,D1,1,K*%
%TO.N,+5V*%
X190583000Y-74527000D03*
D11*
%TO.P,D1,2,A*%
%TO.N,+3.3V*%
X182963000Y-74527000D03*
%TD*%
D10*
%TO.P,D2,1,K*%
%TO.N,+3.3V*%
X190583000Y-70277000D03*
D11*
%TO.P,D2,2,A*%
%TO.N,GND*%
X182963000Y-70277000D03*
%TD*%
D12*
%TO.P,C2,1*%
%TO.N,+3.3V*%
X169998000Y-74602000D03*
D13*
%TO.P,C2,2*%
%TO.N,GND*%
X179998000Y-74602000D03*
%TD*%
D12*
%TO.P,C1,1*%
%TO.N,+5V*%
X169998000Y-70442000D03*
D13*
%TO.P,C1,2*%
%TO.N,GND*%
X179998000Y-70442000D03*
%TD*%
D14*
%TO.P,J1,A1,TRST#*%
%TO.N,unconnected-(J1-TRST#-PadA1)*%
X192683000Y-63172000D03*
D15*
X192683000Y-60512000D03*
D14*
%TO.P,J1,A2,+12V*%
%TO.N,unconnected-(J1-+12V-PadA2)*%
X191413000Y-63172000D03*
D15*
X191413000Y-60512000D03*
D14*
%TO.P,J1,A3,TMS*%
%TO.N,unconnected-(J1-TMS-PadA3)*%
X190153000Y-63172000D03*
D15*
X190153000Y-60512000D03*
D14*
%TO.P,J1,A4,TDI*%
%TO.N,unconnected-(J1-TDI-PadA4)*%
X188873000Y-63172000D03*
D15*
X188873000Y-60512000D03*
D14*
%TO.P,J1,A5,+5V*%
%TO.N,+5V*%
X187603000Y-63172000D03*
D15*
X187603000Y-60512000D03*
D14*
%TO.P,J1,A6,INTA#*%
%TO.N,unconnected-(J1-INTA#-PadA6)*%
X186333000Y-63172000D03*
D15*
X186333000Y-60512000D03*
D14*
%TO.P,J1,A7,INTC#*%
%TO.N,unconnected-(J1-INTC#-PadA7)*%
X185063000Y-63172000D03*
D15*
X185063000Y-60512000D03*
D14*
%TO.P,J1,A8,+5V*%
%TO.N,+5V*%
X183793000Y-63172000D03*
D15*
X183793000Y-60512000D03*
D14*
%TO.P,J1,A9,RESERVED*%
%TO.N,unconnected-(J1-RESERVED-PadA9)*%
X182523000Y-63172000D03*
D15*
X182523000Y-60512000D03*
D14*
%TO.P,J1,A10,+5V*%
%TO.N,+5V*%
X181253000Y-63172000D03*
D15*
X181253000Y-60512000D03*
D14*
%TO.P,J1,A11,RESERVED*%
%TO.N,unconnected-(J1-RESERVED-PadA11)*%
X179983000Y-63172000D03*
D15*
X179983000Y-60512000D03*
D14*
%TO.P,J1,A12,GND*%
%TO.N,GND*%
X178723000Y-63172000D03*
D15*
X178723000Y-60512000D03*
D14*
%TO.P,J1,A13,GND*%
X177443000Y-63172000D03*
D15*
X177443000Y-60512000D03*
D14*
%TO.P,J1,A14,RESERVED*%
%TO.N,unconnected-(J1-RESERVED-PadA14)*%
X176173000Y-63172000D03*
D15*
X176173000Y-60512000D03*
D14*
%TO.P,J1,A15,RST#*%
%TO.N,unconnected-(J1-RST#-PadA15)*%
X174903000Y-63172000D03*
D15*
X174903000Y-60512000D03*
D14*
%TO.P,J1,A16,+5V*%
%TO.N,+5V*%
X173633000Y-63172000D03*
D15*
X173633000Y-60512000D03*
D14*
%TO.P,J1,A17,GNT#*%
%TO.N,unconnected-(J1-GNT#-PadA17)*%
X172363000Y-63172000D03*
D15*
X172363000Y-60512000D03*
D14*
%TO.P,J1,A18,GND*%
%TO.N,GND*%
X171093000Y-63172000D03*
D15*
X171093000Y-60512000D03*
D14*
%TO.P,J1,A19,RESERVED*%
%TO.N,unconnected-(J1-RESERVED-PadA19)*%
X169833000Y-63172000D03*
D15*
X169833000Y-60512000D03*
D14*
%TO.P,J1,A20,AD[30]*%
%TO.N,unconnected-(J1-AD[30]-PadA20)*%
X168553000Y-63172000D03*
D15*
X168553000Y-60512000D03*
D14*
%TO.P,J1,A21,+3.3V*%
%TO.N,+3.3V*%
X167293000Y-63172000D03*
D15*
X167293000Y-60512000D03*
D14*
%TO.P,J1,A22,AD[28]*%
%TO.N,unconnected-(J1-AD[28]-PadA22)*%
X166013000Y-63172000D03*
D15*
X166013000Y-60512000D03*
D14*
%TO.P,J1,A23,AD[26]*%
%TO.N,unconnected-(J1-AD[26]-PadA23)*%
X164743000Y-63172000D03*
D15*
X164743000Y-60512000D03*
D14*
%TO.P,J1,A24,GND*%
%TO.N,GND*%
X163473000Y-63172000D03*
D15*
X163473000Y-60512000D03*
D14*
%TO.P,J1,A25,AD[24]*%
%TO.N,unconnected-(J1-AD[24]-PadA25)*%
X162203000Y-63172000D03*
D15*
X162203000Y-60512000D03*
D14*
%TO.P,J1,A26,IDSEL*%
%TO.N,unconnected-(J1-IDSEL-PadA26)*%
X160933000Y-63172000D03*
D15*
X160933000Y-60512000D03*
D14*
%TO.P,J1,A27,+3.3V*%
%TO.N,+3.3V*%
X159663000Y-63172000D03*
D15*
X159663000Y-60512000D03*
D14*
%TO.P,J1,A28,AD[22]*%
%TO.N,unconnected-(J1-AD[22]-PadA28)*%
X158393000Y-63172000D03*
D15*
X158393000Y-60512000D03*
D14*
%TO.P,J1,A29,AD[20]*%
%TO.N,unconnected-(J1-AD[20]-PadA29)*%
X157123000Y-63172000D03*
D15*
X157123000Y-60512000D03*
D14*
%TO.P,J1,A30,GND*%
%TO.N,GND*%
X155853000Y-63172000D03*
D15*
X155853000Y-60512000D03*
D14*
%TO.P,J1,A31,AD[18]*%
%TO.N,unconnected-(J1-AD[18]-PadA31)*%
X154583000Y-63172000D03*
D15*
X154583000Y-60512000D03*
D14*
%TO.P,J1,A32,AD[16]*%
%TO.N,unconnected-(J1-AD[16]-PadA32)*%
X153313000Y-63172000D03*
D15*
X153313000Y-60512000D03*
D14*
%TO.P,J1,A33,+3.3V*%
%TO.N,+3.3V*%
X152043000Y-63172000D03*
D15*
X152043000Y-60512000D03*
D14*
%TO.P,J1,A34,FRAME#*%
%TO.N,unconnected-(J1-FRAME#-PadA34)*%
X150773000Y-63172000D03*
D15*
X150773000Y-60512000D03*
D14*
%TO.P,J1,A35,GND*%
%TO.N,GND*%
X149503000Y-63172000D03*
D15*
X149503000Y-60512000D03*
D14*
%TO.P,J1,A36,TRDY#*%
%TO.N,unconnected-(J1-TRDY#-PadA36)*%
X148233000Y-63172000D03*
D15*
X148233000Y-60512000D03*
D14*
%TO.P,J1,A37,GND*%
%TO.N,GND*%
X146963000Y-63172000D03*
D15*
X146963000Y-60512000D03*
D14*
%TO.P,J1,A38,STOP#*%
%TO.N,unconnected-(J1-STOP#-PadA38)*%
X145693000Y-63172000D03*
D15*
X145693000Y-60512000D03*
D14*
%TO.P,J1,A39,+3.3V*%
%TO.N,+3.3V*%
X144423000Y-63172000D03*
D15*
X144423000Y-60512000D03*
D14*
%TO.P,J1,A40,SDONE*%
%TO.N,unconnected-(J1-SDONE-PadA40)*%
X143153000Y-63172000D03*
D15*
X143153000Y-60512000D03*
D14*
%TO.P,J1,A41,SBO#*%
%TO.N,unconnected-(J1-SBO#-PadA41)*%
X141883000Y-63172000D03*
D15*
X141883000Y-60512000D03*
D14*
%TO.P,J1,A42,GND*%
%TO.N,unconnected-(J1-GND-PadA42)*%
X140613000Y-63172000D03*
D15*
X140613000Y-60512000D03*
D14*
%TO.P,J1,A43,PAR*%
%TO.N,unconnected-(J1-PAR-PadA43)*%
X139343000Y-63172000D03*
D15*
X139343000Y-60512000D03*
D14*
%TO.P,J1,A44,AD[15]*%
%TO.N,unconnected-(J1-AD[15]-PadA44)*%
X138073000Y-63172000D03*
D15*
X138073000Y-60512000D03*
D14*
%TO.P,J1,A45,+3.3V*%
%TO.N,+3.3V*%
X136803000Y-63172000D03*
D15*
X136803000Y-60512000D03*
D14*
%TO.P,J1,A46,AD[13]*%
%TO.N,unconnected-(J1-AD[13]-PadA46)*%
X135533000Y-63172000D03*
D15*
X135533000Y-60512000D03*
D14*
%TO.P,J1,A47,AD[11]*%
%TO.N,unconnected-(J1-AD[11]-PadA47)*%
X134263000Y-63172000D03*
D15*
X134263000Y-60512000D03*
D14*
%TO.P,J1,A48,GND*%
%TO.N,GND*%
X132993000Y-63172000D03*
D15*
X132993000Y-60512000D03*
D14*
%TO.P,J1,A49,AD[09]*%
%TO.N,unconnected-(J1-AD[09]-PadA49)*%
X131723000Y-63172000D03*
D15*
X131723000Y-60512000D03*
D14*
%TO.P,J1,A52,C/BE#[0]*%
%TO.N,unconnected-(J1-C{slash}BE#[0]-PadA52)*%
X127913000Y-63172000D03*
D15*
X127913000Y-60512000D03*
D14*
%TO.P,J1,A53,+3.3V*%
%TO.N,+3.3V*%
X126643000Y-63172000D03*
D15*
X126643000Y-60512000D03*
D14*
%TO.P,J1,A54,AD[06]*%
%TO.N,unconnected-(J1-AD[06]-PadA54)*%
X125373000Y-63172000D03*
D15*
X125373000Y-60512000D03*
D14*
%TO.P,J1,A55,AD[04]*%
%TO.N,unconnected-(J1-AD[04]-PadA55)*%
X124103000Y-63172000D03*
D15*
X124103000Y-60512000D03*
D14*
%TO.P,J1,A56,GND*%
%TO.N,GND*%
X122833000Y-63172000D03*
D15*
X122833000Y-60512000D03*
D14*
%TO.P,J1,A57,AD[02]*%
%TO.N,unconnected-(J1-AD[02]-PadA57)*%
X121563000Y-63172000D03*
D15*
X121563000Y-60512000D03*
D14*
%TO.P,J1,A58,AD[00]*%
%TO.N,unconnected-(J1-AD[00]-PadA58)*%
X120293000Y-63172000D03*
D15*
X120293000Y-60512000D03*
D14*
%TO.P,J1,A59,+5V*%
%TO.N,+5V*%
X119023000Y-63172000D03*
D15*
X119023000Y-60512000D03*
D14*
%TO.P,J1,A60,REQ64#*%
%TO.N,unconnected-(J1-REQ64#-PadA60)*%
X117753000Y-63172000D03*
D15*
X117753000Y-60512000D03*
D14*
%TO.P,J1,A61,+5V*%
%TO.N,+5V*%
X116483000Y-63172000D03*
D15*
X116483000Y-60512000D03*
D14*
%TO.P,J1,A62,+5V*%
X115223000Y-63172000D03*
D15*
X115223000Y-60512000D03*
%TD*%
D16*
%TO.P,TP2,1,1*%
%TO.N,GND*%
X123523000Y-70057000D03*
%TD*%
%TO.P,TP1,1,1*%
%TO.N,+3.3V*%
X127173000Y-70097000D03*
%TD*%
D12*
%TO.P,R1,1*%
%TO.N,+3.3V*%
X132458000Y-73402000D03*
D13*
%TO.P,R1,2*%
%TO.N,Net-(LED1-A)*%
X122298000Y-73402000D03*
%TD*%
D17*
%TO.P,+3.3V,1,K*%
%TO.N,GND*%
X119258000Y-71652000D03*
D18*
%TO.P,+3.3V,2,A*%
%TO.N,Net-(LED1-A)*%
X116718000Y-71652000D03*
%TD*%
D10*
%TO.P,D2,1,K*%
%TO.N,+3.3V*%
X117417000Y-102383000D03*
D11*
%TO.P,D2,2,A*%
%TO.N,GND*%
X125037000Y-102383000D03*
%TD*%
D16*
%TO.P,TP2,1,1*%
%TO.N,GND*%
X184477000Y-102603000D03*
%TD*%
D14*
%TO.P,J1,A1,TRST#*%
%TO.N,unconnected-(J1-TRST#-PadA1)*%
X115317000Y-109488000D03*
D15*
X115317000Y-112148000D03*
D14*
%TO.P,J1,A2,+12V*%
%TO.N,unconnected-(J1-+12V-PadA2)*%
X116587000Y-109488000D03*
D15*
X116587000Y-112148000D03*
D14*
%TO.P,J1,A3,TMS*%
%TO.N,unconnected-(J1-TMS-PadA3)*%
X117847000Y-109488000D03*
D15*
X117847000Y-112148000D03*
D14*
%TO.P,J1,A4,TDI*%
%TO.N,unconnected-(J1-TDI-PadA4)*%
X119127000Y-109488000D03*
D15*
X119127000Y-112148000D03*
D14*
%TO.P,J1,A5,+5V*%
%TO.N,+5V*%
X120397000Y-109488000D03*
D15*
X120397000Y-112148000D03*
D14*
%TO.P,J1,A6,INTA#*%
%TO.N,unconnected-(J1-INTA#-PadA6)*%
X121667000Y-109488000D03*
D15*
X121667000Y-112148000D03*
D14*
%TO.P,J1,A7,INTC#*%
%TO.N,unconnected-(J1-INTC#-PadA7)*%
X122937000Y-109488000D03*
D15*
X122937000Y-112148000D03*
D14*
%TO.P,J1,A8,+5V*%
%TO.N,+5V*%
X124207000Y-109488000D03*
D15*
X124207000Y-112148000D03*
D14*
%TO.P,J1,A9,RESERVED*%
%TO.N,unconnected-(J1-RESERVED-PadA9)*%
X125477000Y-109488000D03*
D15*
X125477000Y-112148000D03*
D14*
%TO.P,J1,A10,+5V*%
%TO.N,+5V*%
X126747000Y-109488000D03*
D15*
X126747000Y-112148000D03*
D14*
%TO.P,J1,A11,RESERVED*%
%TO.N,unconnected-(J1-RESERVED-PadA11)*%
X128017000Y-109488000D03*
D15*
X128017000Y-112148000D03*
D14*
%TO.P,J1,A12,GND*%
%TO.N,GND*%
X129277000Y-109488000D03*
D15*
X129277000Y-112148000D03*
D14*
%TO.P,J1,A13,GND*%
X130557000Y-109488000D03*
D15*
X130557000Y-112148000D03*
D14*
%TO.P,J1,A14,RESERVED*%
%TO.N,unconnected-(J1-RESERVED-PadA14)*%
X131827000Y-109488000D03*
D15*
X131827000Y-112148000D03*
D14*
%TO.P,J1,A15,RST#*%
%TO.N,unconnected-(J1-RST#-PadA15)*%
X133097000Y-109488000D03*
D15*
X133097000Y-112148000D03*
D14*
%TO.P,J1,A16,+5V*%
%TO.N,+5V*%
X134367000Y-109488000D03*
D15*
X134367000Y-112148000D03*
D14*
%TO.P,J1,A17,GNT#*%
%TO.N,unconnected-(J1-GNT#-PadA17)*%
X135637000Y-109488000D03*
D15*
X135637000Y-112148000D03*
D14*
%TO.P,J1,A18,GND*%
%TO.N,GND*%
X136907000Y-109488000D03*
D15*
X136907000Y-112148000D03*
D14*
%TO.P,J1,A19,RESERVED*%
%TO.N,unconnected-(J1-RESERVED-PadA19)*%
X138167000Y-109488000D03*
D15*
X138167000Y-112148000D03*
D14*
%TO.P,J1,A20,AD[30]*%
%TO.N,unconnected-(J1-AD[30]-PadA20)*%
X139447000Y-109488000D03*
D15*
X139447000Y-112148000D03*
D14*
%TO.P,J1,A21,+3.3V*%
%TO.N,+3.3V*%
X140707000Y-109488000D03*
D15*
X140707000Y-112148000D03*
D14*
%TO.P,J1,A22,AD[28]*%
%TO.N,unconnected-(J1-AD[28]-PadA22)*%
X141987000Y-109488000D03*
D15*
X141987000Y-112148000D03*
D14*
%TO.P,J1,A23,AD[26]*%
%TO.N,unconnected-(J1-AD[26]-PadA23)*%
X143257000Y-109488000D03*
D15*
X143257000Y-112148000D03*
D14*
%TO.P,J1,A24,GND*%
%TO.N,GND*%
X144527000Y-109488000D03*
D15*
X144527000Y-112148000D03*
D14*
%TO.P,J1,A25,AD[24]*%
%TO.N,unconnected-(J1-AD[24]-PadA25)*%
X145797000Y-109488000D03*
D15*
X145797000Y-112148000D03*
D14*
%TO.P,J1,A26,IDSEL*%
%TO.N,unconnected-(J1-IDSEL-PadA26)*%
X147067000Y-109488000D03*
D15*
X147067000Y-112148000D03*
D14*
%TO.P,J1,A27,+3.3V*%
%TO.N,+3.3V*%
X148337000Y-109488000D03*
D15*
X148337000Y-112148000D03*
D14*
%TO.P,J1,A28,AD[22]*%
%TO.N,unconnected-(J1-AD[22]-PadA28)*%
X149607000Y-109488000D03*
D15*
X149607000Y-112148000D03*
D14*
%TO.P,J1,A29,AD[20]*%
%TO.N,unconnected-(J1-AD[20]-PadA29)*%
X150877000Y-109488000D03*
D15*
X150877000Y-112148000D03*
D14*
%TO.P,J1,A30,GND*%
%TO.N,GND*%
X152147000Y-109488000D03*
D15*
X152147000Y-112148000D03*
D14*
%TO.P,J1,A31,AD[18]*%
%TO.N,unconnected-(J1-AD[18]-PadA31)*%
X153417000Y-109488000D03*
D15*
X153417000Y-112148000D03*
D14*
%TO.P,J1,A32,AD[16]*%
%TO.N,unconnected-(J1-AD[16]-PadA32)*%
X154687000Y-109488000D03*
D15*
X154687000Y-112148000D03*
D14*
%TO.P,J1,A33,+3.3V*%
%TO.N,+3.3V*%
X155957000Y-109488000D03*
D15*
X155957000Y-112148000D03*
D14*
%TO.P,J1,A34,FRAME#*%
%TO.N,unconnected-(J1-FRAME#-PadA34)*%
X157227000Y-109488000D03*
D15*
X157227000Y-112148000D03*
D14*
%TO.P,J1,A35,GND*%
%TO.N,GND*%
X158497000Y-109488000D03*
D15*
X158497000Y-112148000D03*
D14*
%TO.P,J1,A36,TRDY#*%
%TO.N,unconnected-(J1-TRDY#-PadA36)*%
X159767000Y-109488000D03*
D15*
X159767000Y-112148000D03*
D14*
%TO.P,J1,A37,GND*%
%TO.N,GND*%
X161037000Y-109488000D03*
D15*
X161037000Y-112148000D03*
D14*
%TO.P,J1,A38,STOP#*%
%TO.N,unconnected-(J1-STOP#-PadA38)*%
X162307000Y-109488000D03*
D15*
X162307000Y-112148000D03*
D14*
%TO.P,J1,A39,+3.3V*%
%TO.N,+3.3V*%
X163577000Y-109488000D03*
D15*
X163577000Y-112148000D03*
D14*
%TO.P,J1,A40,SDONE*%
%TO.N,unconnected-(J1-SDONE-PadA40)*%
X164847000Y-109488000D03*
D15*
X164847000Y-112148000D03*
D14*
%TO.P,J1,A41,SBO#*%
%TO.N,unconnected-(J1-SBO#-PadA41)*%
X166117000Y-109488000D03*
D15*
X166117000Y-112148000D03*
D14*
%TO.P,J1,A42,GND*%
%TO.N,unconnected-(J1-GND-PadA42)*%
X167387000Y-109488000D03*
D15*
X167387000Y-112148000D03*
D14*
%TO.P,J1,A43,PAR*%
%TO.N,unconnected-(J1-PAR-PadA43)*%
X168657000Y-109488000D03*
D15*
X168657000Y-112148000D03*
D14*
%TO.P,J1,A44,AD[15]*%
%TO.N,unconnected-(J1-AD[15]-PadA44)*%
X169927000Y-109488000D03*
D15*
X169927000Y-112148000D03*
D14*
%TO.P,J1,A45,+3.3V*%
%TO.N,+3.3V*%
X171197000Y-109488000D03*
D15*
X171197000Y-112148000D03*
D14*
%TO.P,J1,A46,AD[13]*%
%TO.N,unconnected-(J1-AD[13]-PadA46)*%
X172467000Y-109488000D03*
D15*
X172467000Y-112148000D03*
D14*
%TO.P,J1,A47,AD[11]*%
%TO.N,unconnected-(J1-AD[11]-PadA47)*%
X173737000Y-109488000D03*
D15*
X173737000Y-112148000D03*
D14*
%TO.P,J1,A48,GND*%
%TO.N,GND*%
X175007000Y-109488000D03*
D15*
X175007000Y-112148000D03*
D14*
%TO.P,J1,A49,AD[09]*%
%TO.N,unconnected-(J1-AD[09]-PadA49)*%
X176277000Y-109488000D03*
D15*
X176277000Y-112148000D03*
D14*
%TO.P,J1,A52,C/BE#[0]*%
%TO.N,unconnected-(J1-C{slash}BE#[0]-PadA52)*%
X180087000Y-109488000D03*
D15*
X180087000Y-112148000D03*
D14*
%TO.P,J1,A53,+3.3V*%
%TO.N,+3.3V*%
X181357000Y-109488000D03*
D15*
X181357000Y-112148000D03*
D14*
%TO.P,J1,A54,AD[06]*%
%TO.N,unconnected-(J1-AD[06]-PadA54)*%
X182627000Y-109488000D03*
D15*
X182627000Y-112148000D03*
D14*
%TO.P,J1,A55,AD[04]*%
%TO.N,unconnected-(J1-AD[04]-PadA55)*%
X183897000Y-109488000D03*
D15*
X183897000Y-112148000D03*
D14*
%TO.P,J1,A56,GND*%
%TO.N,GND*%
X185167000Y-109488000D03*
D15*
X185167000Y-112148000D03*
D14*
%TO.P,J1,A57,AD[02]*%
%TO.N,unconnected-(J1-AD[02]-PadA57)*%
X186437000Y-109488000D03*
D15*
X186437000Y-112148000D03*
D14*
%TO.P,J1,A58,AD[00]*%
%TO.N,unconnected-(J1-AD[00]-PadA58)*%
X187707000Y-109488000D03*
D15*
X187707000Y-112148000D03*
D14*
%TO.P,J1,A59,+5V*%
%TO.N,+5V*%
X188977000Y-109488000D03*
D15*
X188977000Y-112148000D03*
D14*
%TO.P,J1,A60,REQ64#*%
%TO.N,unconnected-(J1-REQ64#-PadA60)*%
X190247000Y-109488000D03*
D15*
X190247000Y-112148000D03*
D14*
%TO.P,J1,A61,+5V*%
%TO.N,+5V*%
X191517000Y-109488000D03*
D15*
X191517000Y-112148000D03*
D14*
%TO.P,J1,A62,+5V*%
X192777000Y-109488000D03*
D15*
X192777000Y-112148000D03*
%TD*%
D17*
%TO.P,+3.3V,1,K*%
%TO.N,GND*%
X188742000Y-101008000D03*
D18*
%TO.P,+3.3V,2,A*%
%TO.N,Net-(LED1-A)*%
X191282000Y-101008000D03*
%TD*%
D12*
%TO.P,R1,1*%
%TO.N,+3.3V*%
X175542000Y-99258000D03*
D13*
%TO.P,R1,2*%
%TO.N,Net-(LED1-A)*%
X185702000Y-99258000D03*
%TD*%
D12*
%TO.P,C1,1*%
%TO.N,+5V*%
X138002000Y-102218000D03*
D13*
%TO.P,C1,2*%
%TO.N,GND*%
X128002000Y-102218000D03*
%TD*%
D10*
%TO.P,D1,1,K*%
%TO.N,+5V*%
X117417000Y-98133000D03*
D11*
%TO.P,D1,2,A*%
%TO.N,+3.3V*%
X125037000Y-98133000D03*
%TD*%
D12*
%TO.P,C2,1*%
%TO.N,+3.3V*%
X138002000Y-98058000D03*
D13*
%TO.P,C2,2*%
%TO.N,GND*%
X128002000Y-98058000D03*
%TD*%
D16*
%TO.P,TP1,1,1*%
%TO.N,+3.3V*%
X180827000Y-102563000D03*
%TD*%
D19*
%TO.N,+3.3V*%
X136723000Y-66977000D03*
%TO.N,GND*%
X167840000Y-74239000D03*
%TO.N,+3.3V*%
X158448000Y-67027500D03*
X126648000Y-66902000D03*
%TO.N,GND*%
X171573000Y-67552000D03*
%TO.N,+3.3V*%
X137868000Y-73350000D03*
X148028000Y-74112000D03*
X140154000Y-73350000D03*
X150568000Y-74112000D03*
X152023000Y-67027500D03*
X155013000Y-69921000D03*
%TO.N,+5V*%
X190598000Y-67327000D03*
X186255000Y-66492000D03*
X175048000Y-70427000D03*
%TO.N,+3.3V*%
X144423000Y-67027500D03*
X153108000Y-74112000D03*
X145488000Y-74112000D03*
%TO.N,GND*%
X123648000Y-67877000D03*
%TO.N,+5V*%
X117402000Y-105333000D03*
X132952000Y-102233000D03*
X121745000Y-106168000D03*
%TO.N,GND*%
X184352000Y-104783000D03*
X136427000Y-105108000D03*
X140160000Y-98421000D03*
%TO.N,+3.3V*%
X149552000Y-105632500D03*
X170132000Y-99310000D03*
X159972000Y-98548000D03*
X152987000Y-102739000D03*
X155977000Y-105632500D03*
X162512000Y-98548000D03*
X154892000Y-98548000D03*
X157432000Y-98548000D03*
X181352000Y-105758000D03*
X167846000Y-99310000D03*
X163577000Y-105632500D03*
X171277000Y-105683000D03*
%TD*%
D20*
%TO.N,+3.3V*%
X126648000Y-66902000D02*
X126648000Y-63177000D01*
X136723000Y-63252000D02*
X136803000Y-63172000D01*
X159663000Y-65812500D02*
X159663000Y-63172000D01*
D21*
X152043000Y-67007500D02*
X152023000Y-67027500D01*
D20*
X136723000Y-66977000D02*
X136723000Y-63252000D01*
X152043000Y-63172000D02*
X152043000Y-67007500D01*
X144423000Y-63172000D02*
X144423000Y-67027500D01*
%TO.N,GND*%
X167840000Y-75890000D02*
X167840000Y-74239000D01*
X132898000Y-67877000D02*
X144548000Y-67877000D01*
X149473000Y-67877000D02*
X155798000Y-67877000D01*
X167840000Y-74239000D02*
X167840000Y-67877000D01*
X171269000Y-76652000D02*
X168602000Y-76652000D01*
X171093000Y-65957000D02*
X171093000Y-63172000D01*
X169173000Y-67877000D02*
X171093000Y-65957000D01*
X173319000Y-74602000D02*
X171269000Y-76652000D01*
X146963000Y-63172000D02*
X146963000Y-67787000D01*
X122833000Y-65707000D02*
X124923000Y-67797000D01*
X163473000Y-65957000D02*
X163473000Y-63172000D01*
X169173000Y-67877000D02*
X171248000Y-67877000D01*
D21*
X132993000Y-67782000D02*
X132898000Y-67877000D01*
D20*
X167840000Y-67877000D02*
X169173000Y-67877000D01*
X171248000Y-67877000D02*
X171573000Y-67552000D01*
D21*
X144598000Y-67927000D02*
X144548000Y-67877000D01*
D20*
X144548000Y-67877000D02*
X146873000Y-67877000D01*
X149503000Y-63172000D02*
X149503000Y-67847000D01*
D21*
X155853000Y-67822000D02*
X155798000Y-67877000D01*
D20*
X123648000Y-67877000D02*
X124923000Y-67877000D01*
X161553000Y-67877000D02*
X163473000Y-65957000D01*
X124923000Y-67877000D02*
X132898000Y-67877000D01*
%TO.N,+5V*%
X189423000Y-72427000D02*
X190583000Y-73587000D01*
X175048000Y-70427000D02*
X177048000Y-72427000D01*
X187573000Y-67327000D02*
X186255000Y-67327000D01*
%TO.N,+3.3V*%
X126648000Y-63177000D02*
X126643000Y-63172000D01*
%TO.N,+5V*%
X183748000Y-67327000D02*
X182623000Y-67327000D01*
X186255000Y-67327000D02*
X183748000Y-67327000D01*
X183793000Y-67282000D02*
X183793000Y-63172000D01*
X182623000Y-67327000D02*
X181253000Y-65957000D01*
X177048000Y-72427000D02*
X189423000Y-72427000D01*
%TO.N,GND*%
X155798000Y-67877000D02*
X161553000Y-67877000D01*
%TO.N,+5V*%
X190583000Y-73587000D02*
X190583000Y-74527000D01*
X181253000Y-65957000D02*
X181253000Y-63172000D01*
D21*
%TO.N,GND*%
X149503000Y-67847000D02*
X149473000Y-67877000D01*
D20*
X168602000Y-76652000D02*
X167840000Y-75890000D01*
D21*
X146963000Y-67787000D02*
X146873000Y-67877000D01*
D20*
%TO.N,+5V*%
X186255000Y-67327000D02*
X186255000Y-66492000D01*
X190598000Y-67327000D02*
X187573000Y-67327000D01*
%TO.N,+3.3V*%
X158448000Y-67027500D02*
X159663000Y-65812500D01*
%TO.N,GND*%
X179998000Y-74602000D02*
X173319000Y-74602000D01*
%TO.N,+5V*%
X187603000Y-67297000D02*
X187603000Y-63172000D01*
%TO.N,GND*%
X155853000Y-63172000D02*
X155853000Y-67822000D01*
%TO.N,+5V*%
X187573000Y-67327000D02*
X187603000Y-67297000D01*
%TO.N,GND*%
X146873000Y-67877000D02*
X149473000Y-67877000D01*
X122833000Y-63172000D02*
X122833000Y-65707000D01*
X161553000Y-67877000D02*
X167840000Y-67877000D01*
%TO.N,+5V*%
X183748000Y-67327000D02*
X183793000Y-67282000D01*
D21*
%TO.N,GND*%
X124923000Y-67797000D02*
X124923000Y-67877000D01*
D20*
X132993000Y-63172000D02*
X132993000Y-67782000D01*
%TO.N,+5V*%
X130952000Y-100233000D02*
X118577000Y-100233000D01*
X125377000Y-105333000D02*
X126747000Y-106703000D01*
X124207000Y-105378000D02*
X124207000Y-109488000D01*
X120427000Y-105333000D02*
X120397000Y-105363000D01*
X126747000Y-106703000D02*
X126747000Y-109488000D01*
X120427000Y-105333000D02*
X121745000Y-105333000D01*
X120397000Y-105363000D02*
X120397000Y-109488000D01*
X117417000Y-99073000D02*
X117417000Y-98133000D01*
X117402000Y-105333000D02*
X120427000Y-105333000D01*
X124252000Y-105333000D02*
X125377000Y-105333000D01*
X132952000Y-102233000D02*
X130952000Y-100233000D01*
X121745000Y-105333000D02*
X121745000Y-106168000D01*
X118577000Y-100233000D02*
X117417000Y-99073000D01*
X121745000Y-105333000D02*
X124252000Y-105333000D01*
X124252000Y-105333000D02*
X124207000Y-105378000D01*
%TO.N,GND*%
X128002000Y-98058000D02*
X134681000Y-98058000D01*
X146447000Y-104783000D02*
X144527000Y-106703000D01*
D21*
X175007000Y-104878000D02*
X175102000Y-104783000D01*
D20*
X136731000Y-96008000D02*
X139398000Y-96008000D01*
D21*
X183077000Y-104863000D02*
X183077000Y-104783000D01*
D20*
X184352000Y-104783000D02*
X183077000Y-104783000D01*
X175102000Y-104783000D02*
X163452000Y-104783000D01*
D21*
X161037000Y-104873000D02*
X161127000Y-104783000D01*
D20*
X136907000Y-106703000D02*
X136907000Y-109488000D01*
D21*
X163402000Y-104733000D02*
X163452000Y-104783000D01*
D20*
X136752000Y-104783000D02*
X136427000Y-105108000D01*
D21*
X158497000Y-104813000D02*
X158527000Y-104783000D01*
D20*
X144527000Y-106703000D02*
X144527000Y-109488000D01*
X185167000Y-109488000D02*
X185167000Y-106953000D01*
X161127000Y-104783000D02*
X158527000Y-104783000D01*
X139398000Y-96008000D02*
X140160000Y-96770000D01*
X152202000Y-104783000D02*
X146447000Y-104783000D01*
X138827000Y-104783000D02*
X136907000Y-106703000D01*
X134681000Y-98058000D02*
X136731000Y-96008000D01*
X175007000Y-109488000D02*
X175007000Y-104878000D01*
X152147000Y-109488000D02*
X152147000Y-104838000D01*
X140160000Y-98421000D02*
X140160000Y-104783000D01*
X138827000Y-104783000D02*
X136752000Y-104783000D01*
X161037000Y-109488000D02*
X161037000Y-104873000D01*
X158497000Y-109488000D02*
X158497000Y-104813000D01*
D21*
X152147000Y-104838000D02*
X152202000Y-104783000D01*
D20*
X146447000Y-104783000D02*
X140160000Y-104783000D01*
X140160000Y-96770000D02*
X140160000Y-98421000D01*
X163452000Y-104783000D02*
X161127000Y-104783000D01*
X185167000Y-106953000D02*
X183077000Y-104863000D01*
X140160000Y-104783000D02*
X138827000Y-104783000D01*
X183077000Y-104783000D02*
X175102000Y-104783000D01*
X158527000Y-104783000D02*
X152202000Y-104783000D01*
%TO.N,+3.3V*%
X171277000Y-109408000D02*
X171197000Y-109488000D01*
D21*
X155957000Y-105652500D02*
X155977000Y-105632500D01*
D20*
X181352000Y-105758000D02*
X181352000Y-109483000D01*
X155957000Y-109488000D02*
X155957000Y-105652500D01*
X148337000Y-106847500D02*
X148337000Y-109488000D01*
X171277000Y-105683000D02*
X171277000Y-109408000D01*
X181352000Y-109483000D02*
X181357000Y-109488000D01*
X163577000Y-109488000D02*
X163577000Y-105632500D01*
X149552000Y-105632500D02*
X148337000Y-106847500D01*
%TD*%
%TA.AperFunction,Conductor*%
%TO.N,+3.3V*%
G36*
X173830063Y-97755972D02*
G01*
X173896765Y-97776769D01*
X173941635Y-97830326D01*
X173952000Y-97879955D01*
X173952000Y-103908500D01*
X173932315Y-103975539D01*
X173879511Y-104021294D01*
X173828000Y-104032500D01*
X159725643Y-104032500D01*
X141098521Y-103933644D01*
X141031587Y-103913604D01*
X140986113Y-103860558D01*
X140975193Y-103811490D01*
X140910500Y-99460875D01*
X140910500Y-98955321D01*
X140927113Y-98893321D01*
X140987179Y-98789284D01*
X141045674Y-98609256D01*
X141065460Y-98421000D01*
X141045674Y-98232744D01*
X140987179Y-98052716D01*
X140927113Y-97948677D01*
X140910500Y-97886677D01*
X140910500Y-97334636D01*
X140930185Y-97267597D01*
X140982989Y-97221842D01*
X141036560Y-97210653D01*
X173830063Y-97755972D01*
G37*
%TD.AperFunction*%
%TD*%
%TA.AperFunction,Conductor*%
%TO.N,+3.3V*%
G36*
X166901478Y-68726355D02*
G01*
X166968412Y-68746395D01*
X167013886Y-68799441D01*
X167024806Y-68848509D01*
X167089500Y-73199125D01*
X167089500Y-73704677D01*
X167072887Y-73766677D01*
X167012821Y-73870714D01*
X166954327Y-74050740D01*
X166954326Y-74050744D01*
X166934540Y-74239000D01*
X166954326Y-74427256D01*
X166954327Y-74427259D01*
X167012818Y-74607277D01*
X167012821Y-74607284D01*
X167072887Y-74711321D01*
X167089500Y-74773321D01*
X167089500Y-75325362D01*
X167069815Y-75392401D01*
X167017011Y-75438156D01*
X166963438Y-75449345D01*
X134169938Y-74904027D01*
X134103235Y-74883230D01*
X134058365Y-74829673D01*
X134048000Y-74780044D01*
X134048000Y-68751500D01*
X134067685Y-68684461D01*
X134120489Y-68638706D01*
X134172000Y-68627500D01*
X144460279Y-68627500D01*
X146785279Y-68627500D01*
X148274357Y-68627500D01*
X166901478Y-68726355D01*
G37*
%TD.AperFunction*%
%TD*%
M02*
