M48
; DRILL file {KiCad 7.0.7} date Thu Nov  2 08:16:05 2023
; FORMAT={-:-/ absolute / inch / decimal}
; #@! TF.CreationDate,2023-11-02T08:16:05-05:00
; #@! TF.GenerationSoftware,Kicad,Pcbnew,7.0.7
; #@! TF.FileFunction,Plated,1,2,PTH
FMAT,2
INCH
; #@! TA.AperFunction,Plated,PTH,ViaDrill
T1C0.0157
; #@! TA.AperFunction,Plated,PTH,ComponentDrill
T2C0.0315
; #@! TA.AperFunction,Plated,PTH,ComponentDrill
T3C0.0354
; #@! TA.AperFunction,Plated,PTH,ComponentDrill
T4C0.0394
; #@! TA.AperFunction,Plated,PTH,ComponentDrill
T5C0.0433
%
G90
G05
T1
X4.6221Y-4.147
X4.7931Y-4.1798
X4.868Y-2.6723
X4.9861Y-2.6339
X5.2343Y-4.0249
X5.3711Y-4.1381
X5.3828Y-2.6369
X5.4279Y-2.8878
X5.5179Y-2.8878
X5.5181Y-3.8748
X5.6859Y-2.6389
X5.7279Y-2.9178
X5.8279Y-2.9178
X5.8879Y-4.1588
X5.9279Y-2.9178
X5.9852Y-2.6389
X6.0231Y-4.0448
X6.0279Y-2.9178
X6.0981Y-3.8798
X6.1029Y-2.7528
X6.1408Y-4.1588
X6.1981Y-3.8798
X6.2381Y-2.6389
X6.2981Y-3.8798
X6.3981Y-3.8798
X6.44Y-4.1588
X6.6079Y-2.9228
X6.6081Y-3.9098
X6.6981Y-3.9098
X6.7432Y-4.1607
X6.7548Y-2.6595
X6.8917Y-2.7727
X7.1398Y-4.1637
X7.258Y-4.1253
X7.3329Y-2.6178
X7.5039Y-2.6507
T2
X4.8149Y-2.8898
X5.0394Y-3.8606
X5.0394Y-4.0243
X5.2149Y-2.8898
X5.4331Y-3.8606
X5.4331Y-4.0243
X6.6928Y-2.7733
X6.6928Y-2.9371
X6.9111Y-3.9078
X7.0865Y-2.7733
X7.0865Y-2.9371
X7.3111Y-3.9078
T3
X4.5952Y-2.8209
X4.6952Y-2.8209
X7.4308Y-3.9767
X7.5308Y-3.9767
T4
X4.8631Y-2.7581
X5.0068Y-2.7597
X7.1192Y-4.0379
X7.2629Y-4.0395
T5
X4.6227Y-3.8635
X4.6227Y-4.0308
X4.9227Y-3.8635
X4.9227Y-4.0308
X7.2033Y-2.7668
X7.2033Y-2.9341
X7.5033Y-2.7668
X7.5033Y-2.9341
T0
M30
