%TF.GenerationSoftware,KiCad,Pcbnew,7.0.7*%
%TF.CreationDate,2023-11-02T08:16:25-05:00*%
%TF.ProjectId,PCI Blaster Mouse Bites,50434920-426c-4617-9374-6572204d6f75,rev?*%
%TF.SameCoordinates,Original*%
%TF.FileFunction,Copper,L1,Top*%
%TF.FilePolarity,Positive*%
%FSLAX46Y46*%
G04 Gerber Fmt 4.6, Leading zero omitted, Abs format (unit mm)*
G04 Created by KiCad (PCBNEW 7.0.7) date 2023-11-02 08:16:25*
%MOMM*%
%LPD*%
G01*
G04 APERTURE LIST*
G04 Aperture macros list*
%AMRoundRect*
0 Rectangle with rounded corners*
0 $1 Rounding radius*
0 $2 $3 $4 $5 $6 $7 $8 $9 X,Y pos of 4 corners*
0 Add a 4 corners polygon primitive as box body*
4,1,4,$2,$3,$4,$5,$6,$7,$8,$9,$2,$3,0*
0 Add four circle primitives for the rounded corners*
1,1,$1+$1,$2,$3*
1,1,$1+$1,$4,$5*
1,1,$1+$1,$6,$7*
1,1,$1+$1,$8,$9*
0 Add four rect primitives between the rounded corners*
20,1,$1+$1,$2,$3,$4,$5,0*
20,1,$1+$1,$4,$5,$6,$7,0*
20,1,$1+$1,$6,$7,$8,$9,0*
20,1,$1+$1,$8,$9,$2,$3,0*%
G04 Aperture macros list end*
%TA.AperFunction,ComponentPad*%
%ADD10R,2.200000X2.200000*%
%TD*%
%TA.AperFunction,ComponentPad*%
%ADD11O,2.200000X2.200000*%
%TD*%
%TA.AperFunction,ComponentPad*%
%ADD12C,1.600000*%
%TD*%
%TA.AperFunction,ComponentPad*%
%ADD13O,1.600000X1.600000*%
%TD*%
%TA.AperFunction,ConnectorPad*%
%ADD14R,1.020000X4.570000*%
%TD*%
%TA.AperFunction,ConnectorPad*%
%ADD15R,0.510000X0.760000*%
%TD*%
%TA.AperFunction,SMDPad,CuDef*%
%ADD16RoundRect,0.250000X0.850000X0.350000X-0.850000X0.350000X-0.850000X-0.350000X0.850000X-0.350000X0*%
%TD*%
%TA.AperFunction,SMDPad,CuDef*%
%ADD17RoundRect,0.250000X1.275000X1.125000X-1.275000X1.125000X-1.275000X-1.125000X1.275000X-1.125000X0*%
%TD*%
%TA.AperFunction,SMDPad,CuDef*%
%ADD18RoundRect,0.249997X2.950003X2.650003X-2.950003X2.650003X-2.950003X-2.650003X2.950003X-2.650003X0*%
%TD*%
%TA.AperFunction,ComponentPad*%
%ADD19R,1.700000X1.700000*%
%TD*%
%TA.AperFunction,ComponentPad*%
%ADD20R,1.800000X1.800000*%
%TD*%
%TA.AperFunction,ComponentPad*%
%ADD21C,1.800000*%
%TD*%
%TA.AperFunction,SMDPad,CuDef*%
%ADD22RoundRect,0.250000X-0.850000X-0.350000X0.850000X-0.350000X0.850000X0.350000X-0.850000X0.350000X0*%
%TD*%
%TA.AperFunction,SMDPad,CuDef*%
%ADD23RoundRect,0.250000X-1.275000X-1.125000X1.275000X-1.125000X1.275000X1.125000X-1.275000X1.125000X0*%
%TD*%
%TA.AperFunction,SMDPad,CuDef*%
%ADD24RoundRect,0.249997X-2.950003X-2.650003X2.950003X-2.650003X2.950003X2.650003X-2.950003X2.650003X0*%
%TD*%
%TA.AperFunction,ViaPad*%
%ADD25C,0.800000*%
%TD*%
%TA.AperFunction,Conductor*%
%ADD26C,0.500000*%
%TD*%
%TA.AperFunction,Conductor*%
%ADD27C,0.250000*%
%TD*%
G04 APERTURE END LIST*
D10*
%TO.P,D1,1,K*%
%TO.N,+5V*%
X190583000Y-74527000D03*
D11*
%TO.P,D1,2,A*%
%TO.N,+3.3V*%
X182963000Y-74527000D03*
%TD*%
D10*
%TO.P,D2,1,K*%
%TO.N,+3.3V*%
X190583000Y-70277000D03*
D11*
%TO.P,D2,2,A*%
%TO.N,GND*%
X182963000Y-70277000D03*
%TD*%
D12*
%TO.P,C2,1*%
%TO.N,+3.3V*%
X169998000Y-74602000D03*
D13*
%TO.P,C2,2*%
%TO.N,GND*%
X179998000Y-74602000D03*
%TD*%
D12*
%TO.P,C1,1*%
%TO.N,+5V*%
X169998000Y-70442000D03*
D13*
%TO.P,C1,2*%
%TO.N,GND*%
X179998000Y-70442000D03*
%TD*%
D14*
%TO.P,J1,B1,-12V*%
%TO.N,unconnected-(J1--12V-PadB1)*%
X192683000Y-63172000D03*
D15*
X192683000Y-60512000D03*
D14*
%TO.P,J1,B2,TCK*%
%TO.N,unconnected-(J1-TCK-PadB2)*%
X191413000Y-63172000D03*
D15*
X191413000Y-60512000D03*
D14*
%TO.P,J1,B3,GND*%
%TO.N,GND*%
X190153000Y-63172000D03*
D15*
X190153000Y-60512000D03*
D14*
%TO.P,J1,B4,TDO*%
%TO.N,unconnected-(J1-TDO-PadB4)*%
X188873000Y-63172000D03*
D15*
X188873000Y-60512000D03*
D14*
%TO.P,J1,B5,+5V*%
%TO.N,+5V*%
X187603000Y-63172000D03*
D15*
X187603000Y-60512000D03*
D14*
%TO.P,J1,B6,+5V*%
X186333000Y-63172000D03*
D15*
X186333000Y-60512000D03*
D14*
%TO.P,J1,B7,INTB#*%
%TO.N,unconnected-(J1-INTB#-PadB7)*%
X185063000Y-63172000D03*
D15*
X185063000Y-60512000D03*
D14*
%TO.P,J1,B8,INTD#*%
%TO.N,unconnected-(J1-INTD#-PadB8)*%
X183793000Y-63172000D03*
D15*
X183793000Y-60512000D03*
D14*
%TO.P,J1,B9,PRSNT1#*%
%TO.N,unconnected-(J1-PRSNT1#-PadB9)*%
X182523000Y-63172000D03*
D15*
X182523000Y-60512000D03*
D14*
%TO.P,J1,B10,RESERVED*%
%TO.N,unconnected-(J1-RESERVED-PadB10)*%
X181253000Y-63172000D03*
D15*
X181253000Y-60512000D03*
D14*
%TO.P,J1,B11,PRSNT2#*%
%TO.N,unconnected-(J1-PRSNT2#-PadB11)*%
X179983000Y-63172000D03*
D15*
X179983000Y-60512000D03*
D14*
%TO.P,J1,B12,GND*%
%TO.N,GND*%
X178723000Y-63172000D03*
D15*
X178723000Y-60512000D03*
D14*
%TO.P,J1,B13,GND*%
X177443000Y-63172000D03*
D15*
X177443000Y-60512000D03*
D14*
%TO.P,J1,B14,RESERVED*%
%TO.N,unconnected-(J1-RESERVED-PadB14)*%
X176173000Y-63172000D03*
D15*
X176173000Y-60512000D03*
D14*
%TO.P,J1,B15,GND*%
%TO.N,GND*%
X174903000Y-63172000D03*
D15*
X174903000Y-60512000D03*
D14*
%TO.P,J1,B16,CLK*%
%TO.N,unconnected-(J1-CLK-PadB16)*%
X173633000Y-63172000D03*
D15*
X173633000Y-60512000D03*
D14*
%TO.P,J1,B17,GND*%
%TO.N,GND*%
X172363000Y-63172000D03*
D15*
X172363000Y-60512000D03*
D14*
%TO.P,J1,B18,REQ#*%
%TO.N,unconnected-(J1-REQ#-PadB18)*%
X171093000Y-63172000D03*
D15*
X171093000Y-60512000D03*
D14*
%TO.P,J1,B19,+5V*%
%TO.N,+5V*%
X169833000Y-63172000D03*
D15*
X169833000Y-60512000D03*
D14*
%TO.P,J1,B20,AD[31]*%
%TO.N,unconnected-(J1-AD[31]-PadB20)*%
X168553000Y-63172000D03*
D15*
X168553000Y-60512000D03*
D14*
%TO.P,J1,B21,AD[29]*%
%TO.N,unconnected-(J1-AD[29]-PadB21)*%
X167293000Y-63172000D03*
D15*
X167293000Y-60512000D03*
D14*
%TO.P,J1,B22,GND*%
%TO.N,GND*%
X166013000Y-63172000D03*
D15*
X166013000Y-60512000D03*
D14*
%TO.P,J1,B23,AD[27]*%
%TO.N,unconnected-(J1-AD[27]-PadB23)*%
X164743000Y-63172000D03*
D15*
X164743000Y-60512000D03*
D14*
%TO.P,J1,B24,AD[25]*%
%TO.N,unconnected-(J1-AD[25]-PadB24)*%
X163473000Y-63172000D03*
D15*
X163473000Y-60512000D03*
D14*
%TO.P,J1,B25,+3.3V*%
%TO.N,+3.3V*%
X162203000Y-63172000D03*
D15*
X162203000Y-60512000D03*
D14*
%TO.P,J1,B26,C/BE#[3]*%
%TO.N,unconnected-(J1-C{slash}BE#[3]-PadB26)*%
X160933000Y-63172000D03*
D15*
X160933000Y-60512000D03*
D14*
%TO.P,J1,B27,AD[23]*%
%TO.N,unconnected-(J1-AD[23]-PadB27)*%
X159663000Y-63172000D03*
D15*
X159663000Y-60512000D03*
D14*
%TO.P,J1,B28,GND*%
%TO.N,GND*%
X158393000Y-63172000D03*
D15*
X158393000Y-60512000D03*
D14*
%TO.P,J1,B29,AD[21]*%
%TO.N,unconnected-(J1-AD[21]-PadB29)*%
X157123000Y-63172000D03*
D15*
X157123000Y-60512000D03*
D14*
%TO.P,J1,B30,AD[19]*%
%TO.N,unconnected-(J1-AD[19]-PadB30)*%
X155853000Y-63172000D03*
D15*
X155853000Y-60512000D03*
D14*
%TO.P,J1,B31,+3.3V*%
%TO.N,+3.3V*%
X154583000Y-63172000D03*
D15*
X154583000Y-60512000D03*
D14*
%TO.P,J1,B32,AD[17]*%
%TO.N,unconnected-(J1-AD[17]-PadB32)*%
X153313000Y-63172000D03*
D15*
X153313000Y-60512000D03*
D14*
%TO.P,J1,B33,C/BE#[2]*%
%TO.N,unconnected-(J1-C{slash}BE#[2]-PadB33)*%
X152043000Y-63172000D03*
D15*
X152043000Y-60512000D03*
D14*
%TO.P,J1,B34,GND*%
%TO.N,GND*%
X150773000Y-63172000D03*
D15*
X150773000Y-60512000D03*
D14*
%TO.P,J1,B35,IRDY#*%
%TO.N,unconnected-(J1-IRDY#-PadB35)*%
X149503000Y-63172000D03*
D15*
X149503000Y-60512000D03*
D14*
%TO.P,J1,B36,+3.3V*%
%TO.N,+3.3V*%
X148233000Y-63172000D03*
D15*
X148233000Y-60512000D03*
D14*
%TO.P,J1,B37,DEVSEL#*%
%TO.N,unconnected-(J1-DEVSEL#-PadB37)*%
X146963000Y-63172000D03*
D15*
X146963000Y-60512000D03*
D14*
%TO.P,J1,B38,GND*%
%TO.N,GND*%
X145693000Y-63172000D03*
D15*
X145693000Y-60512000D03*
D14*
%TO.P,J1,B39,LOCK#*%
%TO.N,unconnected-(J1-LOCK#-PadB39)*%
X144423000Y-63172000D03*
D15*
X144423000Y-60512000D03*
D14*
%TO.P,J1,B40,PERR#*%
%TO.N,unconnected-(J1-PERR#-PadB40)*%
X143153000Y-63172000D03*
D15*
X143153000Y-60512000D03*
D14*
%TO.P,J1,B41,+3.3V*%
%TO.N,+3.3V*%
X141883000Y-63172000D03*
D15*
X141883000Y-60512000D03*
D14*
%TO.P,J1,B42,SERR#*%
%TO.N,unconnected-(J1-SERR#-PadB42)*%
X140613000Y-63172000D03*
D15*
X140613000Y-60512000D03*
D14*
%TO.P,J1,B43,+3.3V*%
%TO.N,+3.3V*%
X139343000Y-63172000D03*
D15*
X139343000Y-60512000D03*
D14*
%TO.P,J1,B44,C/BE#[1]*%
%TO.N,unconnected-(J1-C{slash}BE#[1]-PadB44)*%
X138073000Y-63172000D03*
D15*
X138073000Y-60512000D03*
D14*
%TO.P,J1,B45,AD[14]*%
%TO.N,unconnected-(J1-AD[14]-PadB45)*%
X136803000Y-63172000D03*
D15*
X136803000Y-60512000D03*
D14*
%TO.P,J1,B46,GND*%
%TO.N,GND*%
X135533000Y-63172000D03*
D15*
X135533000Y-60512000D03*
D14*
%TO.P,J1,B47,AD[12]*%
%TO.N,unconnected-(J1-AD[12]-PadB47)*%
X134263000Y-63172000D03*
D15*
X134263000Y-60512000D03*
D14*
%TO.P,J1,B48,AD[10]*%
%TO.N,unconnected-(J1-AD[10]-PadB48)*%
X132993000Y-63172000D03*
D15*
X132993000Y-60512000D03*
D14*
%TO.P,J1,B49,GND*%
%TO.N,GND*%
X131723000Y-63172000D03*
D15*
X131723000Y-60512000D03*
D14*
%TO.P,J1,B52,AD[08]*%
%TO.N,unconnected-(J1-AD[08]-PadB52)*%
X127913000Y-63172000D03*
D15*
X127913000Y-60512000D03*
D14*
%TO.P,J1,B53,AD[07]*%
%TO.N,unconnected-(J1-AD[07]-PadB53)*%
X126643000Y-63172000D03*
D15*
X126643000Y-60512000D03*
D14*
%TO.P,J1,B54,+3.3V*%
%TO.N,+3.3V*%
X125373000Y-63172000D03*
D15*
X125373000Y-60512000D03*
D14*
%TO.P,J1,B55,AD[05]*%
%TO.N,unconnected-(J1-AD[05]-PadB55)*%
X124103000Y-63172000D03*
D15*
X124103000Y-60512000D03*
D14*
%TO.P,J1,B56,AD[03]*%
%TO.N,unconnected-(J1-AD[03]-PadB56)*%
X122833000Y-63172000D03*
D15*
X122833000Y-60512000D03*
D14*
%TO.P,J1,B57,GND*%
%TO.N,GND*%
X121563000Y-63172000D03*
D15*
X121563000Y-60512000D03*
D14*
%TO.P,J1,B58,AD[01]*%
%TO.N,unconnected-(J1-AD[01]-PadB58)*%
X120293000Y-63172000D03*
D15*
X120293000Y-60512000D03*
D14*
%TO.P,J1,B59,+5V*%
%TO.N,+5V*%
X119023000Y-63172000D03*
D15*
X119023000Y-60512000D03*
D14*
%TO.P,J1,B60,ACK64#*%
%TO.N,unconnected-(J1-ACK64#-PadB60)*%
X117753000Y-63172000D03*
D15*
X117753000Y-60512000D03*
D14*
%TO.P,J1,B61,+5V*%
%TO.N,+5V*%
X116483000Y-63172000D03*
D15*
X116483000Y-60512000D03*
D14*
%TO.P,J1,B62,+5V*%
X115223000Y-63172000D03*
D15*
X115223000Y-60512000D03*
%TD*%
D16*
%TO.P,AMS1117CD-3.3,1,GND*%
%TO.N,GND*%
X165798000Y-74227000D03*
%TO.P,AMS1117CD-3.3,2,VO*%
%TO.N,+3.3V*%
X165798000Y-71947000D03*
D17*
X161173000Y-73472000D03*
X161173000Y-70422000D03*
D18*
X159498000Y-71947000D03*
D17*
X157823000Y-73472000D03*
X157823000Y-70422000D03*
D16*
%TO.P,AMS1117CD-3.3,3,VI*%
%TO.N,+5V*%
X165798000Y-69667000D03*
%TD*%
D19*
%TO.P,TP2,1,1*%
%TO.N,GND*%
X123523000Y-70057000D03*
%TD*%
%TO.P,TP1,1,1*%
%TO.N,+3.3V*%
X127173000Y-70097000D03*
%TD*%
D12*
%TO.P,R1,1*%
%TO.N,+3.3V*%
X132458000Y-73402000D03*
D13*
%TO.P,R1,2*%
%TO.N,Net-(LED1-A)*%
X122298000Y-73402000D03*
%TD*%
D20*
%TO.P,+3.3V,1,K*%
%TO.N,GND*%
X119258000Y-71652000D03*
D21*
%TO.P,+3.3V,2,A*%
%TO.N,Net-(LED1-A)*%
X116718000Y-71652000D03*
%TD*%
D10*
%TO.P,D2,1,K*%
%TO.N,+3.3V*%
X117417000Y-102383000D03*
D11*
%TO.P,D2,2,A*%
%TO.N,GND*%
X125037000Y-102383000D03*
%TD*%
D19*
%TO.P,TP2,1,1*%
%TO.N,GND*%
X184477000Y-102603000D03*
%TD*%
D14*
%TO.P,J1,B1,-12V*%
%TO.N,unconnected-(J1--12V-PadB1)*%
X115317000Y-109488000D03*
D15*
X115317000Y-112148000D03*
D14*
%TO.P,J1,B2,TCK*%
%TO.N,unconnected-(J1-TCK-PadB2)*%
X116587000Y-109488000D03*
D15*
X116587000Y-112148000D03*
D14*
%TO.P,J1,B3,GND*%
%TO.N,GND*%
X117847000Y-109488000D03*
D15*
X117847000Y-112148000D03*
D14*
%TO.P,J1,B4,TDO*%
%TO.N,unconnected-(J1-TDO-PadB4)*%
X119127000Y-109488000D03*
D15*
X119127000Y-112148000D03*
D14*
%TO.P,J1,B5,+5V*%
%TO.N,+5V*%
X120397000Y-109488000D03*
D15*
X120397000Y-112148000D03*
D14*
%TO.P,J1,B6,+5V*%
X121667000Y-109488000D03*
D15*
X121667000Y-112148000D03*
D14*
%TO.P,J1,B7,INTB#*%
%TO.N,unconnected-(J1-INTB#-PadB7)*%
X122937000Y-109488000D03*
D15*
X122937000Y-112148000D03*
D14*
%TO.P,J1,B8,INTD#*%
%TO.N,unconnected-(J1-INTD#-PadB8)*%
X124207000Y-109488000D03*
D15*
X124207000Y-112148000D03*
D14*
%TO.P,J1,B9,PRSNT1#*%
%TO.N,unconnected-(J1-PRSNT1#-PadB9)*%
X125477000Y-109488000D03*
D15*
X125477000Y-112148000D03*
D14*
%TO.P,J1,B10,RESERVED*%
%TO.N,unconnected-(J1-RESERVED-PadB10)*%
X126747000Y-109488000D03*
D15*
X126747000Y-112148000D03*
D14*
%TO.P,J1,B11,PRSNT2#*%
%TO.N,unconnected-(J1-PRSNT2#-PadB11)*%
X128017000Y-109488000D03*
D15*
X128017000Y-112148000D03*
D14*
%TO.P,J1,B12,GND*%
%TO.N,GND*%
X129277000Y-109488000D03*
D15*
X129277000Y-112148000D03*
D14*
%TO.P,J1,B13,GND*%
X130557000Y-109488000D03*
D15*
X130557000Y-112148000D03*
D14*
%TO.P,J1,B14,RESERVED*%
%TO.N,unconnected-(J1-RESERVED-PadB14)*%
X131827000Y-109488000D03*
D15*
X131827000Y-112148000D03*
D14*
%TO.P,J1,B15,GND*%
%TO.N,GND*%
X133097000Y-109488000D03*
D15*
X133097000Y-112148000D03*
D14*
%TO.P,J1,B16,CLK*%
%TO.N,unconnected-(J1-CLK-PadB16)*%
X134367000Y-109488000D03*
D15*
X134367000Y-112148000D03*
D14*
%TO.P,J1,B17,GND*%
%TO.N,GND*%
X135637000Y-109488000D03*
D15*
X135637000Y-112148000D03*
D14*
%TO.P,J1,B18,REQ#*%
%TO.N,unconnected-(J1-REQ#-PadB18)*%
X136907000Y-109488000D03*
D15*
X136907000Y-112148000D03*
D14*
%TO.P,J1,B19,+5V*%
%TO.N,+5V*%
X138167000Y-109488000D03*
D15*
X138167000Y-112148000D03*
D14*
%TO.P,J1,B20,AD[31]*%
%TO.N,unconnected-(J1-AD[31]-PadB20)*%
X139447000Y-109488000D03*
D15*
X139447000Y-112148000D03*
D14*
%TO.P,J1,B21,AD[29]*%
%TO.N,unconnected-(J1-AD[29]-PadB21)*%
X140707000Y-109488000D03*
D15*
X140707000Y-112148000D03*
D14*
%TO.P,J1,B22,GND*%
%TO.N,GND*%
X141987000Y-109488000D03*
D15*
X141987000Y-112148000D03*
D14*
%TO.P,J1,B23,AD[27]*%
%TO.N,unconnected-(J1-AD[27]-PadB23)*%
X143257000Y-109488000D03*
D15*
X143257000Y-112148000D03*
D14*
%TO.P,J1,B24,AD[25]*%
%TO.N,unconnected-(J1-AD[25]-PadB24)*%
X144527000Y-109488000D03*
D15*
X144527000Y-112148000D03*
D14*
%TO.P,J1,B25,+3.3V*%
%TO.N,+3.3V*%
X145797000Y-109488000D03*
D15*
X145797000Y-112148000D03*
D14*
%TO.P,J1,B26,C/BE#[3]*%
%TO.N,unconnected-(J1-C{slash}BE#[3]-PadB26)*%
X147067000Y-109488000D03*
D15*
X147067000Y-112148000D03*
D14*
%TO.P,J1,B27,AD[23]*%
%TO.N,unconnected-(J1-AD[23]-PadB27)*%
X148337000Y-109488000D03*
D15*
X148337000Y-112148000D03*
D14*
%TO.P,J1,B28,GND*%
%TO.N,GND*%
X149607000Y-109488000D03*
D15*
X149607000Y-112148000D03*
D14*
%TO.P,J1,B29,AD[21]*%
%TO.N,unconnected-(J1-AD[21]-PadB29)*%
X150877000Y-109488000D03*
D15*
X150877000Y-112148000D03*
D14*
%TO.P,J1,B30,AD[19]*%
%TO.N,unconnected-(J1-AD[19]-PadB30)*%
X152147000Y-109488000D03*
D15*
X152147000Y-112148000D03*
D14*
%TO.P,J1,B31,+3.3V*%
%TO.N,+3.3V*%
X153417000Y-109488000D03*
D15*
X153417000Y-112148000D03*
D14*
%TO.P,J1,B32,AD[17]*%
%TO.N,unconnected-(J1-AD[17]-PadB32)*%
X154687000Y-109488000D03*
D15*
X154687000Y-112148000D03*
D14*
%TO.P,J1,B33,C/BE#[2]*%
%TO.N,unconnected-(J1-C{slash}BE#[2]-PadB33)*%
X155957000Y-109488000D03*
D15*
X155957000Y-112148000D03*
D14*
%TO.P,J1,B34,GND*%
%TO.N,GND*%
X157227000Y-109488000D03*
D15*
X157227000Y-112148000D03*
D14*
%TO.P,J1,B35,IRDY#*%
%TO.N,unconnected-(J1-IRDY#-PadB35)*%
X158497000Y-109488000D03*
D15*
X158497000Y-112148000D03*
D14*
%TO.P,J1,B36,+3.3V*%
%TO.N,+3.3V*%
X159767000Y-109488000D03*
D15*
X159767000Y-112148000D03*
D14*
%TO.P,J1,B37,DEVSEL#*%
%TO.N,unconnected-(J1-DEVSEL#-PadB37)*%
X161037000Y-109488000D03*
D15*
X161037000Y-112148000D03*
D14*
%TO.P,J1,B38,GND*%
%TO.N,GND*%
X162307000Y-109488000D03*
D15*
X162307000Y-112148000D03*
D14*
%TO.P,J1,B39,LOCK#*%
%TO.N,unconnected-(J1-LOCK#-PadB39)*%
X163577000Y-109488000D03*
D15*
X163577000Y-112148000D03*
D14*
%TO.P,J1,B40,PERR#*%
%TO.N,unconnected-(J1-PERR#-PadB40)*%
X164847000Y-109488000D03*
D15*
X164847000Y-112148000D03*
D14*
%TO.P,J1,B41,+3.3V*%
%TO.N,+3.3V*%
X166117000Y-109488000D03*
D15*
X166117000Y-112148000D03*
D14*
%TO.P,J1,B42,SERR#*%
%TO.N,unconnected-(J1-SERR#-PadB42)*%
X167387000Y-109488000D03*
D15*
X167387000Y-112148000D03*
D14*
%TO.P,J1,B43,+3.3V*%
%TO.N,+3.3V*%
X168657000Y-109488000D03*
D15*
X168657000Y-112148000D03*
D14*
%TO.P,J1,B44,C/BE#[1]*%
%TO.N,unconnected-(J1-C{slash}BE#[1]-PadB44)*%
X169927000Y-109488000D03*
D15*
X169927000Y-112148000D03*
D14*
%TO.P,J1,B45,AD[14]*%
%TO.N,unconnected-(J1-AD[14]-PadB45)*%
X171197000Y-109488000D03*
D15*
X171197000Y-112148000D03*
D14*
%TO.P,J1,B46,GND*%
%TO.N,GND*%
X172467000Y-109488000D03*
D15*
X172467000Y-112148000D03*
D14*
%TO.P,J1,B47,AD[12]*%
%TO.N,unconnected-(J1-AD[12]-PadB47)*%
X173737000Y-109488000D03*
D15*
X173737000Y-112148000D03*
D14*
%TO.P,J1,B48,AD[10]*%
%TO.N,unconnected-(J1-AD[10]-PadB48)*%
X175007000Y-109488000D03*
D15*
X175007000Y-112148000D03*
D14*
%TO.P,J1,B49,GND*%
%TO.N,GND*%
X176277000Y-109488000D03*
D15*
X176277000Y-112148000D03*
D14*
%TO.P,J1,B52,AD[08]*%
%TO.N,unconnected-(J1-AD[08]-PadB52)*%
X180087000Y-109488000D03*
D15*
X180087000Y-112148000D03*
D14*
%TO.P,J1,B53,AD[07]*%
%TO.N,unconnected-(J1-AD[07]-PadB53)*%
X181357000Y-109488000D03*
D15*
X181357000Y-112148000D03*
D14*
%TO.P,J1,B54,+3.3V*%
%TO.N,+3.3V*%
X182627000Y-109488000D03*
D15*
X182627000Y-112148000D03*
D14*
%TO.P,J1,B55,AD[05]*%
%TO.N,unconnected-(J1-AD[05]-PadB55)*%
X183897000Y-109488000D03*
D15*
X183897000Y-112148000D03*
D14*
%TO.P,J1,B56,AD[03]*%
%TO.N,unconnected-(J1-AD[03]-PadB56)*%
X185167000Y-109488000D03*
D15*
X185167000Y-112148000D03*
D14*
%TO.P,J1,B57,GND*%
%TO.N,GND*%
X186437000Y-109488000D03*
D15*
X186437000Y-112148000D03*
D14*
%TO.P,J1,B58,AD[01]*%
%TO.N,unconnected-(J1-AD[01]-PadB58)*%
X187707000Y-109488000D03*
D15*
X187707000Y-112148000D03*
D14*
%TO.P,J1,B59,+5V*%
%TO.N,+5V*%
X188977000Y-109488000D03*
D15*
X188977000Y-112148000D03*
D14*
%TO.P,J1,B60,ACK64#*%
%TO.N,unconnected-(J1-ACK64#-PadB60)*%
X190247000Y-109488000D03*
D15*
X190247000Y-112148000D03*
D14*
%TO.P,J1,B61,+5V*%
%TO.N,+5V*%
X191517000Y-109488000D03*
D15*
X191517000Y-112148000D03*
D14*
%TO.P,J1,B62,+5V*%
X192777000Y-109488000D03*
D15*
X192777000Y-112148000D03*
%TD*%
D20*
%TO.P,+3.3V,1,K*%
%TO.N,GND*%
X188742000Y-101008000D03*
D21*
%TO.P,+3.3V,2,A*%
%TO.N,Net-(LED1-A)*%
X191282000Y-101008000D03*
%TD*%
D12*
%TO.P,R1,1*%
%TO.N,+3.3V*%
X175542000Y-99258000D03*
D13*
%TO.P,R1,2*%
%TO.N,Net-(LED1-A)*%
X185702000Y-99258000D03*
%TD*%
D12*
%TO.P,C1,1*%
%TO.N,+5V*%
X138002000Y-102218000D03*
D13*
%TO.P,C1,2*%
%TO.N,GND*%
X128002000Y-102218000D03*
%TD*%
D10*
%TO.P,D1,1,K*%
%TO.N,+5V*%
X117417000Y-98133000D03*
D11*
%TO.P,D1,2,A*%
%TO.N,+3.3V*%
X125037000Y-98133000D03*
%TD*%
D12*
%TO.P,C2,1*%
%TO.N,+3.3V*%
X138002000Y-98058000D03*
D13*
%TO.P,C2,2*%
%TO.N,GND*%
X128002000Y-98058000D03*
%TD*%
D22*
%TO.P,AMS1117CD-3.3,1,GND*%
%TO.N,GND*%
X142202000Y-98433000D03*
%TO.P,AMS1117CD-3.3,2,VO*%
%TO.N,+3.3V*%
X142202000Y-100713000D03*
D23*
X146827000Y-99188000D03*
X146827000Y-102238000D03*
D24*
X148502000Y-100713000D03*
D23*
X150177000Y-99188000D03*
X150177000Y-102238000D03*
D22*
%TO.P,AMS1117CD-3.3,3,VI*%
%TO.N,+5V*%
X142202000Y-102993000D03*
%TD*%
D19*
%TO.P,TP1,1,1*%
%TO.N,+3.3V*%
X180827000Y-102563000D03*
%TD*%
D25*
%TO.N,+3.3V*%
X136723000Y-66977000D03*
%TO.N,GND*%
X167840000Y-74239000D03*
%TO.N,+3.3V*%
X158448000Y-67027500D03*
X126648000Y-66902000D03*
%TO.N,GND*%
X171573000Y-67552000D03*
%TO.N,+3.3V*%
X137868000Y-73350000D03*
X148028000Y-74112000D03*
X140154000Y-73350000D03*
X150568000Y-74112000D03*
X152023000Y-67027500D03*
X155013000Y-69921000D03*
%TO.N,+5V*%
X190598000Y-67327000D03*
X186255000Y-66492000D03*
X175048000Y-70427000D03*
%TO.N,+3.3V*%
X144423000Y-67027500D03*
X153108000Y-74112000D03*
X145488000Y-74112000D03*
%TO.N,GND*%
X123648000Y-67877000D03*
%TO.N,+5V*%
X117402000Y-105333000D03*
X132952000Y-102233000D03*
X121745000Y-106168000D03*
%TO.N,GND*%
X184352000Y-104783000D03*
X136427000Y-105108000D03*
X140160000Y-98421000D03*
%TO.N,+3.3V*%
X149552000Y-105632500D03*
X170132000Y-99310000D03*
X159972000Y-98548000D03*
X152987000Y-102739000D03*
X155977000Y-105632500D03*
X162512000Y-98548000D03*
X154892000Y-98548000D03*
X157432000Y-98548000D03*
X181352000Y-105758000D03*
X167846000Y-99310000D03*
X163577000Y-105632500D03*
X171277000Y-105683000D03*
%TD*%
D26*
%TO.N,Net-(LED1-A)*%
X121498001Y-74201999D02*
X117937999Y-74201999D01*
%TO.N,+3.3V*%
X182963000Y-74527000D02*
X182963000Y-72287000D01*
X182998000Y-72252000D02*
X190548000Y-72252000D01*
D27*
X154507500Y-67027500D02*
X154583000Y-66952000D01*
D26*
X190583000Y-72217000D02*
X190583000Y-70277000D01*
D27*
X141883000Y-68642000D02*
X141873000Y-68652000D01*
D26*
%TO.N,Net-(LED1-A)*%
X117937999Y-74201999D02*
X116718000Y-72982000D01*
%TO.N,+3.3V*%
X169998000Y-74602000D02*
X172348000Y-72252000D01*
X144423000Y-67027500D02*
X149553500Y-67027500D01*
X149553500Y-67027500D02*
X148233000Y-65707000D01*
%TO.N,Net-(LED1-A)*%
X116718000Y-72982000D02*
X116718000Y-71652000D01*
D27*
%TO.N,+3.3V*%
X157823000Y-70422000D02*
X158448000Y-69797000D01*
D26*
X158448000Y-69797000D02*
X158448000Y-67027500D01*
X154583000Y-66952000D02*
X154583000Y-68742000D01*
X139343000Y-63172000D02*
X139343000Y-68697000D01*
X167768000Y-71947000D02*
X165798000Y-71947000D01*
X134698000Y-66977000D02*
X134698000Y-68702000D01*
X190548000Y-72252000D02*
X190583000Y-72217000D01*
X134698000Y-66977000D02*
X136723000Y-66977000D01*
X141883000Y-63172000D02*
X141883000Y-68642000D01*
X152023000Y-67027500D02*
X154507500Y-67027500D01*
D27*
X182963000Y-72287000D02*
X182998000Y-72252000D01*
D26*
X165798000Y-71947000D02*
X159498000Y-71947000D01*
X126648000Y-66902000D02*
X125398000Y-66902000D01*
%TO.N,GND*%
X178723000Y-66977000D02*
X177448000Y-66977000D01*
%TO.N,+3.3V*%
X126648000Y-66902000D02*
X126723000Y-66977000D01*
%TO.N,GND*%
X174873000Y-66977000D02*
X174903000Y-66947000D01*
%TO.N,+3.3V*%
X152023000Y-67027500D02*
X149553500Y-67027500D01*
%TO.N,GND*%
X178723000Y-67327000D02*
X178723000Y-66977000D01*
X182963000Y-70277000D02*
X180163000Y-70277000D01*
X177443000Y-66972000D02*
X177443000Y-63172000D01*
%TO.N,+3.3V*%
X128098000Y-69172000D02*
X127173000Y-70097000D01*
%TO.N,GND*%
X174873000Y-66977000D02*
X173383000Y-66977000D01*
X120718000Y-67852000D02*
X119258000Y-69312000D01*
X122348000Y-68882000D02*
X122348000Y-67852000D01*
X178723000Y-67954082D02*
X175400082Y-71277000D01*
X120718000Y-67852000D02*
X121563000Y-67852000D01*
X165798000Y-74227000D02*
X167828000Y-74227000D01*
X179998000Y-70442000D02*
X178723000Y-69167000D01*
X172363000Y-66762000D02*
X172363000Y-65957000D01*
X178723000Y-69167000D02*
X178723000Y-67327000D01*
X123523000Y-70057000D02*
X122348000Y-68882000D01*
X173383000Y-66977000D02*
X172363000Y-65957000D01*
X122348000Y-67852000D02*
X123623000Y-67852000D01*
%TO.N,+3.3V*%
X125398000Y-66902000D02*
X125373000Y-66927000D01*
%TO.N,GND*%
X166013000Y-65597000D02*
X166013000Y-63172000D01*
D27*
%TO.N,+3.3V*%
X139343000Y-68697000D02*
X139348000Y-68702000D01*
D26*
%TO.N,GND*%
X119258000Y-69312000D02*
X119258000Y-71652000D01*
X175400082Y-71277000D02*
X170930767Y-71277000D01*
X190153000Y-65707000D02*
X190153000Y-63172000D01*
X123623000Y-67852000D02*
X123648000Y-67877000D01*
X170515767Y-71692000D02*
X168612949Y-71692000D01*
%TO.N,Net-(LED1-A)*%
X122298000Y-73402000D02*
X121498001Y-74201999D01*
%TO.N,GND*%
X121563000Y-67852000D02*
X121563000Y-63172000D01*
X178723000Y-66977000D02*
X178723000Y-63172000D01*
X177448000Y-66977000D02*
X174873000Y-66977000D01*
X171573000Y-67552000D02*
X172363000Y-66762000D01*
%TO.N,+3.3V*%
X126723000Y-66977000D02*
X128098000Y-66977000D01*
D27*
%TO.N,GND*%
X122398000Y-67902000D02*
X122348000Y-67852000D01*
D26*
X172363000Y-65957000D02*
X172363000Y-63172000D01*
X167637949Y-70717000D02*
X164658051Y-70717000D01*
X164248000Y-70306949D02*
X164248000Y-67362000D01*
X170930767Y-71277000D02*
X170515767Y-71692000D01*
%TO.N,+3.3V*%
X162203000Y-69242000D02*
X162203000Y-63172000D01*
D27*
%TO.N,GND*%
X167828000Y-74227000D02*
X167840000Y-74239000D01*
D26*
X177448000Y-66977000D02*
X177443000Y-66972000D01*
%TO.N,+3.3V*%
X128098000Y-66977000D02*
X134698000Y-66977000D01*
X168023000Y-72202000D02*
X167768000Y-71947000D01*
%TO.N,GND*%
X180163000Y-70277000D02*
X179998000Y-70442000D01*
%TO.N,+3.3V*%
X159498000Y-71947000D02*
X162203000Y-69242000D01*
%TO.N,GND*%
X182963000Y-70277000D02*
X185583000Y-70277000D01*
X121563000Y-67852000D02*
X122348000Y-67852000D01*
X164248000Y-67362000D02*
X166013000Y-65597000D01*
%TO.N,+5V*%
X167738000Y-69667000D02*
X165798000Y-69667000D01*
X175033000Y-70442000D02*
X175048000Y-70427000D01*
X169998000Y-70442000D02*
X168513000Y-70442000D01*
X190623000Y-67302000D02*
X190598000Y-67327000D01*
%TO.N,+3.3V*%
X128098000Y-66977000D02*
X128098000Y-69172000D01*
%TO.N,GND*%
X174903000Y-66947000D02*
X174903000Y-63172000D01*
X164658051Y-70717000D02*
X164248000Y-70306949D01*
%TO.N,+5V*%
X169998000Y-70442000D02*
X175033000Y-70442000D01*
X190583000Y-74527000D02*
X192348000Y-72762000D01*
%TO.N,+3.3V*%
X169998000Y-74602000D02*
X168023000Y-72627000D01*
D27*
X154583000Y-68742000D02*
X154573000Y-68752000D01*
D26*
%TO.N,+5V*%
X169998000Y-70442000D02*
X169998000Y-63337000D01*
X192348000Y-72762000D02*
X192348000Y-67302000D01*
%TO.N,+3.3V*%
X148233000Y-65707000D02*
X148233000Y-63172000D01*
%TO.N,+5V*%
X187271000Y-66492000D02*
X186255000Y-66492000D01*
%TO.N,+3.3V*%
X168023000Y-72627000D02*
X168023000Y-72202000D01*
%TO.N,+5V*%
X186255000Y-66492000D02*
X186255000Y-63250000D01*
X186255000Y-63250000D02*
X186333000Y-63172000D01*
%TO.N,+3.3V*%
X172348000Y-72252000D02*
X182998000Y-72252000D01*
X154583000Y-63172000D02*
X154583000Y-66952000D01*
%TO.N,GND*%
X168612949Y-71692000D02*
X167637949Y-70717000D01*
%TO.N,+5V*%
X168513000Y-70442000D02*
X167738000Y-69667000D01*
X192348000Y-67302000D02*
X190623000Y-67302000D01*
X187603000Y-63172000D02*
X187603000Y-66160000D01*
X187603000Y-66160000D02*
X187271000Y-66492000D01*
%TO.N,+3.3V*%
X125373000Y-66927000D02*
X125373000Y-63172000D01*
%TO.N,GND*%
X178723000Y-67327000D02*
X178723000Y-67954082D01*
X185583000Y-70277000D02*
X190153000Y-65707000D01*
%TO.N,+5V*%
X169998000Y-63337000D02*
X169833000Y-63172000D01*
X139487000Y-102218000D02*
X140262000Y-102993000D01*
X121745000Y-109410000D02*
X121667000Y-109488000D01*
X138002000Y-102218000D02*
X138002000Y-109323000D01*
X138002000Y-102218000D02*
X132967000Y-102218000D01*
X121745000Y-106168000D02*
X121745000Y-109410000D01*
X117377000Y-105358000D02*
X117402000Y-105333000D01*
X115652000Y-99898000D02*
X115652000Y-105358000D01*
X138002000Y-102218000D02*
X139487000Y-102218000D01*
X120729000Y-106168000D02*
X121745000Y-106168000D01*
X132967000Y-102218000D02*
X132952000Y-102233000D01*
X140262000Y-102993000D02*
X142202000Y-102993000D01*
X138002000Y-109323000D02*
X138167000Y-109488000D01*
X120397000Y-106500000D02*
X120729000Y-106168000D01*
X115652000Y-105358000D02*
X117377000Y-105358000D01*
X117417000Y-98133000D02*
X115652000Y-99898000D01*
X120397000Y-109488000D02*
X120397000Y-106500000D01*
%TO.N,GND*%
X143752000Y-105298000D02*
X141987000Y-107063000D01*
X143752000Y-102353051D02*
X143752000Y-105298000D01*
X137484233Y-100968000D02*
X139387051Y-100968000D01*
X130552000Y-105683000D02*
X133127000Y-105683000D01*
X143341949Y-101943000D02*
X143752000Y-102353051D01*
X139387051Y-100968000D02*
X140362051Y-101943000D01*
D27*
X185602000Y-104758000D02*
X185652000Y-104808000D01*
D26*
X129277000Y-105683000D02*
X129277000Y-109488000D01*
X136427000Y-105108000D02*
X135637000Y-105898000D01*
X117847000Y-106953000D02*
X117847000Y-109488000D01*
X140362051Y-101943000D02*
X143341949Y-101943000D01*
X135637000Y-106703000D02*
X135637000Y-109488000D01*
D27*
X140172000Y-98433000D02*
X140160000Y-98421000D01*
D26*
X129277000Y-105333000D02*
X129277000Y-104705918D01*
X186437000Y-104808000D02*
X186437000Y-109488000D01*
X184377000Y-104808000D02*
X184352000Y-104783000D01*
X132599918Y-101383000D02*
X137069233Y-101383000D01*
X133097000Y-105713000D02*
X133097000Y-109488000D01*
X129277000Y-104705918D02*
X132599918Y-101383000D01*
X127837000Y-102383000D02*
X128002000Y-102218000D01*
X186437000Y-104808000D02*
X185652000Y-104808000D01*
X188742000Y-103348000D02*
X188742000Y-101008000D01*
X129277000Y-103493000D02*
X129277000Y-105333000D01*
X142202000Y-98433000D02*
X140172000Y-98433000D01*
X137069233Y-101383000D02*
X137484233Y-100968000D01*
X129277000Y-105683000D02*
X130552000Y-105683000D01*
X133127000Y-105683000D02*
X134617000Y-105683000D01*
X141987000Y-107063000D02*
X141987000Y-109488000D01*
X187282000Y-104808000D02*
X188742000Y-103348000D01*
X125037000Y-102383000D02*
X122417000Y-102383000D01*
X135637000Y-105898000D02*
X135637000Y-106703000D01*
X134617000Y-105683000D02*
X135637000Y-106703000D01*
X122417000Y-102383000D02*
X117847000Y-106953000D01*
X129277000Y-105333000D02*
X129277000Y-105683000D01*
X187282000Y-104808000D02*
X186437000Y-104808000D01*
X184477000Y-102603000D02*
X185652000Y-103778000D01*
X130552000Y-105683000D02*
X130557000Y-105688000D01*
X185652000Y-104808000D02*
X184377000Y-104808000D01*
X128002000Y-102218000D02*
X129277000Y-103493000D01*
X133127000Y-105683000D02*
X133097000Y-105713000D01*
X130557000Y-105688000D02*
X130557000Y-109488000D01*
X185652000Y-103778000D02*
X185652000Y-104808000D01*
X125037000Y-102383000D02*
X127837000Y-102383000D01*
%TO.N,+3.3V*%
X140232000Y-100713000D02*
X142202000Y-100713000D01*
X153417000Y-105708000D02*
X153417000Y-103918000D01*
X139977000Y-100458000D02*
X140232000Y-100713000D01*
X159767000Y-106953000D02*
X159767000Y-109488000D01*
X139977000Y-100033000D02*
X139977000Y-100458000D01*
X173302000Y-105683000D02*
X173302000Y-103958000D01*
X163577000Y-105632500D02*
X158446500Y-105632500D01*
X155977000Y-105632500D02*
X153492500Y-105632500D01*
X138002000Y-98058000D02*
X139977000Y-100033000D01*
D27*
X125037000Y-100373000D02*
X125002000Y-100408000D01*
D26*
X158446500Y-105632500D02*
X159767000Y-106953000D01*
X182627000Y-105733000D02*
X182627000Y-109488000D01*
X166117000Y-109488000D02*
X166117000Y-104018000D01*
X173302000Y-105683000D02*
X171277000Y-105683000D01*
X148502000Y-100713000D02*
X145797000Y-103418000D01*
X153417000Y-109488000D02*
X153417000Y-105708000D01*
X117452000Y-100408000D02*
X117417000Y-100443000D01*
X179902000Y-105683000D02*
X179902000Y-103488000D01*
X135652000Y-100408000D02*
X125002000Y-100408000D01*
X181352000Y-105758000D02*
X182602000Y-105758000D01*
X179902000Y-103488000D02*
X180827000Y-102563000D01*
X145797000Y-103418000D02*
X145797000Y-109488000D01*
X182602000Y-105758000D02*
X182627000Y-105733000D01*
X142202000Y-100713000D02*
X148502000Y-100713000D01*
X168657000Y-109488000D02*
X168657000Y-103963000D01*
X181277000Y-105683000D02*
X179902000Y-105683000D01*
D27*
X168657000Y-103963000D02*
X168652000Y-103958000D01*
D26*
X155977000Y-105632500D02*
X158446500Y-105632500D01*
X117417000Y-100443000D02*
X117417000Y-102383000D01*
D27*
X166117000Y-104018000D02*
X166127000Y-104008000D01*
X150177000Y-102238000D02*
X149552000Y-102863000D01*
X153492500Y-105632500D02*
X153417000Y-105708000D01*
D26*
X125002000Y-100408000D02*
X117452000Y-100408000D01*
X181352000Y-105758000D02*
X181277000Y-105683000D01*
X149552000Y-102863000D02*
X149552000Y-105632500D01*
X179902000Y-105683000D02*
X173302000Y-105683000D01*
X125037000Y-98133000D02*
X125037000Y-100373000D01*
D27*
X153417000Y-103918000D02*
X153427000Y-103908000D01*
D26*
X138002000Y-98058000D02*
X135652000Y-100408000D01*
%TO.N,Net-(LED1-A)*%
X190062001Y-98458001D02*
X191282000Y-99678000D01*
X186501999Y-98458001D02*
X190062001Y-98458001D01*
X191282000Y-99678000D02*
X191282000Y-101008000D01*
X185702000Y-99258000D02*
X186501999Y-98458001D01*
%TD*%
%TA.AperFunction,Conductor*%
%TO.N,+3.3V*%
G36*
X176828172Y-97747475D02*
G01*
X176895124Y-97767443D01*
X176940655Y-97820440D01*
X176951643Y-97871831D01*
X176932355Y-104574499D01*
X176912478Y-104641481D01*
X176859543Y-104687084D01*
X176808499Y-104698142D01*
X151086143Y-104727856D01*
X151019081Y-104708249D01*
X150973265Y-104655498D01*
X150962000Y-104603856D01*
X150962000Y-97762526D01*
X150981685Y-97695487D01*
X151034489Y-97649732D01*
X151086524Y-97638527D01*
X176828172Y-97747475D01*
G37*
%TD.AperFunction*%
%TD*%
%TA.AperFunction,Conductor*%
%TO.N,+3.3V*%
G36*
X156980919Y-67951750D02*
G01*
X157026735Y-68004501D01*
X157038000Y-68056143D01*
X157038000Y-74897473D01*
X157018315Y-74964512D01*
X156965511Y-75010267D01*
X156913475Y-75021472D01*
X131171830Y-74912524D01*
X131104875Y-74892556D01*
X131059344Y-74839559D01*
X131048356Y-74788168D01*
X131067644Y-68085497D01*
X131087521Y-68018518D01*
X131140456Y-67972915D01*
X131191498Y-67961857D01*
X156913858Y-67932143D01*
X156980919Y-67951750D01*
G37*
%TD.AperFunction*%
%TD*%
M02*
