M48
; DRILL file {KiCad 7.0.7} date Thu Nov  2 08:16:05 2023
; FORMAT={-:-/ absolute / inch / decimal}
; #@! TF.CreationDate,2023-11-02T08:16:05-05:00
; #@! TF.GenerationSoftware,Kicad,Pcbnew,7.0.7
; #@! TF.FileFunction,NonPlated,1,2,NPTH
FMAT,2
INCH
; #@! TA.AperFunction,NonPlated,NPTH,ComponentDrill
T1C0.0197
%
G90
G05
T1
X5.2067Y-3.0598
X5.2067Y-3.1189
X5.2067Y-3.6803
X5.2067Y-3.7394
X5.2362Y-3.0598
X5.2362Y-3.1189
X5.2362Y-3.6803
X5.2362Y-3.7394
X5.2657Y-3.0598
X5.2657Y-3.1189
X5.2657Y-3.6803
X5.2657Y-3.7394
X6.0335Y-3.0598
X6.0335Y-3.1189
X6.0335Y-3.6787
X6.0335Y-3.7378
X6.063Y-3.0598
X6.063Y-3.1189
X6.063Y-3.6787
X6.063Y-3.7378
X6.0925Y-3.0598
X6.0925Y-3.1189
X6.0925Y-3.6787
X6.0925Y-3.7378
X6.8602Y-3.0583
X6.8602Y-3.1173
X6.8602Y-3.6787
X6.8602Y-3.7378
X6.8898Y-3.0583
X6.8898Y-3.1173
X6.8898Y-3.6787
X6.8898Y-3.7378
X6.9193Y-3.0583
X6.9193Y-3.1173
X6.9193Y-3.6787
X6.9193Y-3.7378
T0
M30
