M48
; DRILL file {KiCad 7.0.7} date Thu Nov  2 08:25:24 2023
; FORMAT={-:-/ absolute / inch / decimal}
; #@! TF.CreationDate,2023-11-02T08:25:24-05:00
; #@! TF.GenerationSoftware,Kicad,Pcbnew,7.0.7
; #@! TF.FileFunction,Plated,1,2,PTH
FMAT,2
INCH
; #@! TA.AperFunction,Plated,PTH,ViaDrill
T1C0.0157
; #@! TA.AperFunction,Plated,PTH,ComponentDrill
T2C0.0315
; #@! TA.AperFunction,Plated,PTH,ComponentDrill
T3C0.0354
; #@! TA.AperFunction,Plated,PTH,ComponentDrill
T4C0.0394
; #@! TA.AperFunction,Plated,PTH,ComponentDrill
T5C0.0433
%
G90
G05
T1
X4.624Y-4.1171
X4.795Y-4.15
X5.2362Y-3.9951
X5.373Y-4.1083
X5.52Y-3.845
X5.8898Y-4.1289
X6.025Y-4.015
X6.1Y-3.85
X6.1427Y-4.1289
X6.2Y-3.85
X6.3Y-3.85
X6.4Y-3.85
X6.4419Y-4.1289
X6.61Y-3.88
X6.7Y-3.88
X6.7451Y-4.1309
X7.1417Y-4.1339
X7.2598Y-4.0955
T2
X5.0413Y-3.8307
X5.0413Y-3.9945
X5.435Y-3.8307
X5.435Y-3.9945
X6.913Y-3.878
X7.313Y-3.878
T3
X7.4327Y-3.9469
X7.5327Y-3.9469
T4
X7.1211Y-4.0081
X7.2648Y-4.0096
T5
X4.6246Y-3.8337
X4.6246Y-4.001
X4.9246Y-3.8337
X4.9246Y-4.001
T0
M30
