%TF.GenerationSoftware,KiCad,Pcbnew,7.0.10*%
%TF.CreationDate,2024-01-09T10:53:44-06:00*%
%TF.ProjectId,PCI_Blaster,5043495f-426c-4617-9374-65722e6b6963,rev?*%
%TF.SameCoordinates,Original*%
%TF.FileFunction,Legend,Bot*%
%TF.FilePolarity,Positive*%
%FSLAX46Y46*%
G04 Gerber Fmt 4.6, Leading zero omitted, Abs format (unit mm)*
G04 Created by KiCad (PCBNEW 7.0.10) date 2024-01-09 10:53:44*
%MOMM*%
%LPD*%
G01*
G04 APERTURE LIST*
%ADD10C,0.200000*%
%ADD11C,0.300000*%
%ADD12C,0.150000*%
G04 APERTURE END LIST*
D10*
X120349673Y-90102780D02*
X120349673Y-91102780D01*
X120349673Y-91102780D02*
X120730625Y-91102780D01*
X120730625Y-91102780D02*
X120825863Y-91055161D01*
X120825863Y-91055161D02*
X120873482Y-91007542D01*
X120873482Y-91007542D02*
X120921101Y-90912304D01*
X120921101Y-90912304D02*
X120921101Y-90769447D01*
X120921101Y-90769447D02*
X120873482Y-90674209D01*
X120873482Y-90674209D02*
X120825863Y-90626590D01*
X120825863Y-90626590D02*
X120730625Y-90578971D01*
X120730625Y-90578971D02*
X120349673Y-90578971D01*
X121349673Y-91102780D02*
X121349673Y-90293257D01*
X121349673Y-90293257D02*
X121397292Y-90198019D01*
X121397292Y-90198019D02*
X121444911Y-90150400D01*
X121444911Y-90150400D02*
X121540149Y-90102780D01*
X121540149Y-90102780D02*
X121730625Y-90102780D01*
X121730625Y-90102780D02*
X121825863Y-90150400D01*
X121825863Y-90150400D02*
X121873482Y-90198019D01*
X121873482Y-90198019D02*
X121921101Y-90293257D01*
X121921101Y-90293257D02*
X121921101Y-91102780D01*
X122873482Y-90102780D02*
X122397292Y-90102780D01*
X122397292Y-90102780D02*
X122397292Y-91102780D01*
X123683006Y-90102780D02*
X123206816Y-90102780D01*
X123206816Y-90102780D02*
X123206816Y-91102780D01*
X184359673Y-90102780D02*
X184359673Y-91102780D01*
X184359673Y-91102780D02*
X184740625Y-91102780D01*
X184740625Y-91102780D02*
X184835863Y-91055161D01*
X184835863Y-91055161D02*
X184883482Y-91007542D01*
X184883482Y-91007542D02*
X184931101Y-90912304D01*
X184931101Y-90912304D02*
X184931101Y-90769447D01*
X184931101Y-90769447D02*
X184883482Y-90674209D01*
X184883482Y-90674209D02*
X184835863Y-90626590D01*
X184835863Y-90626590D02*
X184740625Y-90578971D01*
X184740625Y-90578971D02*
X184359673Y-90578971D01*
X185359673Y-91102780D02*
X185359673Y-90293257D01*
X185359673Y-90293257D02*
X185407292Y-90198019D01*
X185407292Y-90198019D02*
X185454911Y-90150400D01*
X185454911Y-90150400D02*
X185550149Y-90102780D01*
X185550149Y-90102780D02*
X185740625Y-90102780D01*
X185740625Y-90102780D02*
X185835863Y-90150400D01*
X185835863Y-90150400D02*
X185883482Y-90198019D01*
X185883482Y-90198019D02*
X185931101Y-90293257D01*
X185931101Y-90293257D02*
X185931101Y-91102780D01*
X186883482Y-90102780D02*
X186407292Y-90102780D01*
X186407292Y-90102780D02*
X186407292Y-91102780D01*
X187693006Y-90102780D02*
X187216816Y-90102780D01*
X187216816Y-90102780D02*
X187216816Y-91102780D01*
D11*
X129816917Y-104100828D02*
X129816917Y-105172257D01*
X129816917Y-105172257D02*
X129888346Y-105386542D01*
X129888346Y-105386542D02*
X130031203Y-105529400D01*
X130031203Y-105529400D02*
X130245489Y-105600828D01*
X130245489Y-105600828D02*
X130388346Y-105600828D01*
X128388346Y-105600828D02*
X129102632Y-105600828D01*
X129102632Y-105600828D02*
X129102632Y-104100828D01*
X127031203Y-105457971D02*
X127102631Y-105529400D01*
X127102631Y-105529400D02*
X127316917Y-105600828D01*
X127316917Y-105600828D02*
X127459774Y-105600828D01*
X127459774Y-105600828D02*
X127674060Y-105529400D01*
X127674060Y-105529400D02*
X127816917Y-105386542D01*
X127816917Y-105386542D02*
X127888346Y-105243685D01*
X127888346Y-105243685D02*
X127959774Y-104957971D01*
X127959774Y-104957971D02*
X127959774Y-104743685D01*
X127959774Y-104743685D02*
X127888346Y-104457971D01*
X127888346Y-104457971D02*
X127816917Y-104315114D01*
X127816917Y-104315114D02*
X127674060Y-104172257D01*
X127674060Y-104172257D02*
X127459774Y-104100828D01*
X127459774Y-104100828D02*
X127316917Y-104100828D01*
X127316917Y-104100828D02*
X127102631Y-104172257D01*
X127102631Y-104172257D02*
X127031203Y-104243685D01*
X125959774Y-104100828D02*
X125959774Y-105172257D01*
X125959774Y-105172257D02*
X126031203Y-105386542D01*
X126031203Y-105386542D02*
X126174060Y-105529400D01*
X126174060Y-105529400D02*
X126388346Y-105600828D01*
X126388346Y-105600828D02*
X126531203Y-105600828D01*
X124531203Y-105600828D02*
X125245489Y-105600828D01*
X125245489Y-105600828D02*
X125245489Y-104100828D01*
X123174060Y-105457971D02*
X123245488Y-105529400D01*
X123245488Y-105529400D02*
X123459774Y-105600828D01*
X123459774Y-105600828D02*
X123602631Y-105600828D01*
X123602631Y-105600828D02*
X123816917Y-105529400D01*
X123816917Y-105529400D02*
X123959774Y-105386542D01*
X123959774Y-105386542D02*
X124031203Y-105243685D01*
X124031203Y-105243685D02*
X124102631Y-104957971D01*
X124102631Y-104957971D02*
X124102631Y-104743685D01*
X124102631Y-104743685D02*
X124031203Y-104457971D01*
X124031203Y-104457971D02*
X123959774Y-104315114D01*
X123959774Y-104315114D02*
X123816917Y-104172257D01*
X123816917Y-104172257D02*
X123602631Y-104100828D01*
X123602631Y-104100828D02*
X123459774Y-104100828D01*
X123459774Y-104100828D02*
X123245488Y-104172257D01*
X123245488Y-104172257D02*
X123174060Y-104243685D01*
X122102631Y-104100828D02*
X122102631Y-105172257D01*
X122102631Y-105172257D02*
X122174060Y-105386542D01*
X122174060Y-105386542D02*
X122316917Y-105529400D01*
X122316917Y-105529400D02*
X122531203Y-105600828D01*
X122531203Y-105600828D02*
X122674060Y-105600828D01*
X120674060Y-105600828D02*
X121388346Y-105600828D01*
X121388346Y-105600828D02*
X121388346Y-104100828D01*
X119316917Y-105457971D02*
X119388345Y-105529400D01*
X119388345Y-105529400D02*
X119602631Y-105600828D01*
X119602631Y-105600828D02*
X119745488Y-105600828D01*
X119745488Y-105600828D02*
X119959774Y-105529400D01*
X119959774Y-105529400D02*
X120102631Y-105386542D01*
X120102631Y-105386542D02*
X120174060Y-105243685D01*
X120174060Y-105243685D02*
X120245488Y-104957971D01*
X120245488Y-104957971D02*
X120245488Y-104743685D01*
X120245488Y-104743685D02*
X120174060Y-104457971D01*
X120174060Y-104457971D02*
X120102631Y-104315114D01*
X120102631Y-104315114D02*
X119959774Y-104172257D01*
X119959774Y-104172257D02*
X119745488Y-104100828D01*
X119745488Y-104100828D02*
X119602631Y-104100828D01*
X119602631Y-104100828D02*
X119388345Y-104172257D01*
X119388345Y-104172257D02*
X119316917Y-104243685D01*
X118245488Y-104100828D02*
X118245488Y-105172257D01*
X118245488Y-105172257D02*
X118316917Y-105386542D01*
X118316917Y-105386542D02*
X118459774Y-105529400D01*
X118459774Y-105529400D02*
X118674060Y-105600828D01*
X118674060Y-105600828D02*
X118816917Y-105600828D01*
X116816917Y-105600828D02*
X117531203Y-105600828D01*
X117531203Y-105600828D02*
X117531203Y-104100828D01*
X115459774Y-105457971D02*
X115531202Y-105529400D01*
X115531202Y-105529400D02*
X115745488Y-105600828D01*
X115745488Y-105600828D02*
X115888345Y-105600828D01*
X115888345Y-105600828D02*
X116102631Y-105529400D01*
X116102631Y-105529400D02*
X116245488Y-105386542D01*
X116245488Y-105386542D02*
X116316917Y-105243685D01*
X116316917Y-105243685D02*
X116388345Y-104957971D01*
X116388345Y-104957971D02*
X116388345Y-104743685D01*
X116388345Y-104743685D02*
X116316917Y-104457971D01*
X116316917Y-104457971D02*
X116245488Y-104315114D01*
X116245488Y-104315114D02*
X116102631Y-104172257D01*
X116102631Y-104172257D02*
X115888345Y-104100828D01*
X115888345Y-104100828D02*
X115745488Y-104100828D01*
X115745488Y-104100828D02*
X115531202Y-104172257D01*
X115531202Y-104172257D02*
X115459774Y-104243685D01*
D12*
X177913220Y-94909819D02*
X177913220Y-95719342D01*
X177913220Y-95719342D02*
X177865601Y-95814580D01*
X177865601Y-95814580D02*
X177817982Y-95862200D01*
X177817982Y-95862200D02*
X177722744Y-95909819D01*
X177722744Y-95909819D02*
X177532268Y-95909819D01*
X177532268Y-95909819D02*
X177437030Y-95862200D01*
X177437030Y-95862200D02*
X177389411Y-95814580D01*
X177389411Y-95814580D02*
X177341792Y-95719342D01*
X177341792Y-95719342D02*
X177341792Y-94909819D01*
X176865601Y-95243152D02*
X176865601Y-95909819D01*
X176865601Y-95338390D02*
X176817982Y-95290771D01*
X176817982Y-95290771D02*
X176722744Y-95243152D01*
X176722744Y-95243152D02*
X176579887Y-95243152D01*
X176579887Y-95243152D02*
X176484649Y-95290771D01*
X176484649Y-95290771D02*
X176437030Y-95386009D01*
X176437030Y-95386009D02*
X176437030Y-95909819D01*
X175532268Y-95909819D02*
X175532268Y-94909819D01*
X175532268Y-95862200D02*
X175627506Y-95909819D01*
X175627506Y-95909819D02*
X175817982Y-95909819D01*
X175817982Y-95909819D02*
X175913220Y-95862200D01*
X175913220Y-95862200D02*
X175960839Y-95814580D01*
X175960839Y-95814580D02*
X176008458Y-95719342D01*
X176008458Y-95719342D02*
X176008458Y-95433628D01*
X176008458Y-95433628D02*
X175960839Y-95338390D01*
X175960839Y-95338390D02*
X175913220Y-95290771D01*
X175913220Y-95290771D02*
X175817982Y-95243152D01*
X175817982Y-95243152D02*
X175627506Y-95243152D01*
X175627506Y-95243152D02*
X175532268Y-95290771D01*
X174675125Y-95862200D02*
X174770363Y-95909819D01*
X174770363Y-95909819D02*
X174960839Y-95909819D01*
X174960839Y-95909819D02*
X175056077Y-95862200D01*
X175056077Y-95862200D02*
X175103696Y-95766961D01*
X175103696Y-95766961D02*
X175103696Y-95386009D01*
X175103696Y-95386009D02*
X175056077Y-95290771D01*
X175056077Y-95290771D02*
X174960839Y-95243152D01*
X174960839Y-95243152D02*
X174770363Y-95243152D01*
X174770363Y-95243152D02*
X174675125Y-95290771D01*
X174675125Y-95290771D02*
X174627506Y-95386009D01*
X174627506Y-95386009D02*
X174627506Y-95481247D01*
X174627506Y-95481247D02*
X175103696Y-95576485D01*
X174341791Y-95243152D02*
X173960839Y-95243152D01*
X174198934Y-95909819D02*
X174198934Y-95052676D01*
X174198934Y-95052676D02*
X174151315Y-94957438D01*
X174151315Y-94957438D02*
X174056077Y-94909819D01*
X174056077Y-94909819D02*
X173960839Y-94909819D01*
X173627505Y-95909819D02*
X173627505Y-95243152D01*
X173627505Y-94909819D02*
X173675124Y-94957438D01*
X173675124Y-94957438D02*
X173627505Y-95005057D01*
X173627505Y-95005057D02*
X173579886Y-94957438D01*
X173579886Y-94957438D02*
X173627505Y-94909819D01*
X173627505Y-94909819D02*
X173627505Y-95005057D01*
X173151315Y-95243152D02*
X173151315Y-95909819D01*
X173151315Y-95338390D02*
X173103696Y-95290771D01*
X173103696Y-95290771D02*
X173008458Y-95243152D01*
X173008458Y-95243152D02*
X172865601Y-95243152D01*
X172865601Y-95243152D02*
X172770363Y-95290771D01*
X172770363Y-95290771D02*
X172722744Y-95386009D01*
X172722744Y-95386009D02*
X172722744Y-95909819D01*
X171865601Y-95862200D02*
X171960839Y-95909819D01*
X171960839Y-95909819D02*
X172151315Y-95909819D01*
X172151315Y-95909819D02*
X172246553Y-95862200D01*
X172246553Y-95862200D02*
X172294172Y-95766961D01*
X172294172Y-95766961D02*
X172294172Y-95386009D01*
X172294172Y-95386009D02*
X172246553Y-95290771D01*
X172246553Y-95290771D02*
X172151315Y-95243152D01*
X172151315Y-95243152D02*
X171960839Y-95243152D01*
X171960839Y-95243152D02*
X171865601Y-95290771D01*
X171865601Y-95290771D02*
X171817982Y-95386009D01*
X171817982Y-95386009D02*
X171817982Y-95481247D01*
X171817982Y-95481247D02*
X172294172Y-95576485D01*
X170960839Y-95909819D02*
X170960839Y-94909819D01*
X170960839Y-95862200D02*
X171056077Y-95909819D01*
X171056077Y-95909819D02*
X171246553Y-95909819D01*
X171246553Y-95909819D02*
X171341791Y-95862200D01*
X171341791Y-95862200D02*
X171389410Y-95814580D01*
X171389410Y-95814580D02*
X171437029Y-95719342D01*
X171437029Y-95719342D02*
X171437029Y-95433628D01*
X171437029Y-95433628D02*
X171389410Y-95338390D01*
X171389410Y-95338390D02*
X171341791Y-95290771D01*
X171341791Y-95290771D02*
X171246553Y-95243152D01*
X171246553Y-95243152D02*
X171056077Y-95243152D01*
X171056077Y-95243152D02*
X170960839Y-95290771D01*
X169770362Y-95862200D02*
X169627505Y-95909819D01*
X169627505Y-95909819D02*
X169389410Y-95909819D01*
X169389410Y-95909819D02*
X169294172Y-95862200D01*
X169294172Y-95862200D02*
X169246553Y-95814580D01*
X169246553Y-95814580D02*
X169198934Y-95719342D01*
X169198934Y-95719342D02*
X169198934Y-95624104D01*
X169198934Y-95624104D02*
X169246553Y-95528866D01*
X169246553Y-95528866D02*
X169294172Y-95481247D01*
X169294172Y-95481247D02*
X169389410Y-95433628D01*
X169389410Y-95433628D02*
X169579886Y-95386009D01*
X169579886Y-95386009D02*
X169675124Y-95338390D01*
X169675124Y-95338390D02*
X169722743Y-95290771D01*
X169722743Y-95290771D02*
X169770362Y-95195533D01*
X169770362Y-95195533D02*
X169770362Y-95100295D01*
X169770362Y-95100295D02*
X169722743Y-95005057D01*
X169722743Y-95005057D02*
X169675124Y-94957438D01*
X169675124Y-94957438D02*
X169579886Y-94909819D01*
X169579886Y-94909819D02*
X169341791Y-94909819D01*
X169341791Y-94909819D02*
X169198934Y-94957438D01*
X168865600Y-95243152D02*
X168627505Y-95909819D01*
X168389410Y-95243152D02*
X168627505Y-95909819D01*
X168627505Y-95909819D02*
X168722743Y-96147914D01*
X168722743Y-96147914D02*
X168770362Y-96195533D01*
X168770362Y-96195533D02*
X168865600Y-96243152D01*
X168056076Y-95862200D02*
X167960838Y-95909819D01*
X167960838Y-95909819D02*
X167770362Y-95909819D01*
X167770362Y-95909819D02*
X167675124Y-95862200D01*
X167675124Y-95862200D02*
X167627505Y-95766961D01*
X167627505Y-95766961D02*
X167627505Y-95719342D01*
X167627505Y-95719342D02*
X167675124Y-95624104D01*
X167675124Y-95624104D02*
X167770362Y-95576485D01*
X167770362Y-95576485D02*
X167913219Y-95576485D01*
X167913219Y-95576485D02*
X168008457Y-95528866D01*
X168008457Y-95528866D02*
X168056076Y-95433628D01*
X168056076Y-95433628D02*
X168056076Y-95386009D01*
X168056076Y-95386009D02*
X168008457Y-95290771D01*
X168008457Y-95290771D02*
X167913219Y-95243152D01*
X167913219Y-95243152D02*
X167770362Y-95243152D01*
X167770362Y-95243152D02*
X167675124Y-95290771D01*
X167341790Y-95243152D02*
X166960838Y-95243152D01*
X167198933Y-94909819D02*
X167198933Y-95766961D01*
X167198933Y-95766961D02*
X167151314Y-95862200D01*
X167151314Y-95862200D02*
X167056076Y-95909819D01*
X167056076Y-95909819D02*
X166960838Y-95909819D01*
X166246552Y-95862200D02*
X166341790Y-95909819D01*
X166341790Y-95909819D02*
X166532266Y-95909819D01*
X166532266Y-95909819D02*
X166627504Y-95862200D01*
X166627504Y-95862200D02*
X166675123Y-95766961D01*
X166675123Y-95766961D02*
X166675123Y-95386009D01*
X166675123Y-95386009D02*
X166627504Y-95290771D01*
X166627504Y-95290771D02*
X166532266Y-95243152D01*
X166532266Y-95243152D02*
X166341790Y-95243152D01*
X166341790Y-95243152D02*
X166246552Y-95290771D01*
X166246552Y-95290771D02*
X166198933Y-95386009D01*
X166198933Y-95386009D02*
X166198933Y-95481247D01*
X166198933Y-95481247D02*
X166675123Y-95576485D01*
X165770361Y-95909819D02*
X165770361Y-95243152D01*
X165770361Y-95338390D02*
X165722742Y-95290771D01*
X165722742Y-95290771D02*
X165627504Y-95243152D01*
X165627504Y-95243152D02*
X165484647Y-95243152D01*
X165484647Y-95243152D02*
X165389409Y-95290771D01*
X165389409Y-95290771D02*
X165341790Y-95386009D01*
X165341790Y-95386009D02*
X165341790Y-95909819D01*
X165341790Y-95386009D02*
X165294171Y-95290771D01*
X165294171Y-95290771D02*
X165198933Y-95243152D01*
X165198933Y-95243152D02*
X165056076Y-95243152D01*
X165056076Y-95243152D02*
X164960837Y-95290771D01*
X164960837Y-95290771D02*
X164913218Y-95386009D01*
X164913218Y-95386009D02*
X164913218Y-95909819D01*
X164484647Y-95862200D02*
X164389409Y-95909819D01*
X164389409Y-95909819D02*
X164198933Y-95909819D01*
X164198933Y-95909819D02*
X164103695Y-95862200D01*
X164103695Y-95862200D02*
X164056076Y-95766961D01*
X164056076Y-95766961D02*
X164056076Y-95719342D01*
X164056076Y-95719342D02*
X164103695Y-95624104D01*
X164103695Y-95624104D02*
X164198933Y-95576485D01*
X164198933Y-95576485D02*
X164341790Y-95576485D01*
X164341790Y-95576485D02*
X164437028Y-95528866D01*
X164437028Y-95528866D02*
X164484647Y-95433628D01*
X164484647Y-95433628D02*
X164484647Y-95386009D01*
X164484647Y-95386009D02*
X164437028Y-95290771D01*
X164437028Y-95290771D02*
X164341790Y-95243152D01*
X164341790Y-95243152D02*
X164198933Y-95243152D01*
X164198933Y-95243152D02*
X164103695Y-95290771D01*
X163579885Y-95862200D02*
X163579885Y-95909819D01*
X163579885Y-95909819D02*
X163627504Y-96005057D01*
X163627504Y-96005057D02*
X163675123Y-96052676D01*
X161913219Y-95909819D02*
X162389409Y-95909819D01*
X162389409Y-95909819D02*
X162389409Y-94909819D01*
X161103695Y-95909819D02*
X161579885Y-95909819D01*
X161579885Y-95909819D02*
X161579885Y-94909819D01*
X160198933Y-95814580D02*
X160246552Y-95862200D01*
X160246552Y-95862200D02*
X160389409Y-95909819D01*
X160389409Y-95909819D02*
X160484647Y-95909819D01*
X160484647Y-95909819D02*
X160627504Y-95862200D01*
X160627504Y-95862200D02*
X160722742Y-95766961D01*
X160722742Y-95766961D02*
X160770361Y-95671723D01*
X160770361Y-95671723D02*
X160817980Y-95481247D01*
X160817980Y-95481247D02*
X160817980Y-95338390D01*
X160817980Y-95338390D02*
X160770361Y-95147914D01*
X160770361Y-95147914D02*
X160722742Y-95052676D01*
X160722742Y-95052676D02*
X160627504Y-94957438D01*
X160627504Y-94957438D02*
X160484647Y-94909819D01*
X160484647Y-94909819D02*
X160389409Y-94909819D01*
X160389409Y-94909819D02*
X160246552Y-94957438D01*
X160246552Y-94957438D02*
X160198933Y-95005057D01*
X159008456Y-95909819D02*
X159008456Y-94909819D01*
X159008456Y-94909819D02*
X158770361Y-94909819D01*
X158770361Y-94909819D02*
X158627504Y-94957438D01*
X158627504Y-94957438D02*
X158532266Y-95052676D01*
X158532266Y-95052676D02*
X158484647Y-95147914D01*
X158484647Y-95147914D02*
X158437028Y-95338390D01*
X158437028Y-95338390D02*
X158437028Y-95481247D01*
X158437028Y-95481247D02*
X158484647Y-95671723D01*
X158484647Y-95671723D02*
X158532266Y-95766961D01*
X158532266Y-95766961D02*
X158627504Y-95862200D01*
X158627504Y-95862200D02*
X158770361Y-95909819D01*
X158770361Y-95909819D02*
X159008456Y-95909819D01*
X157675123Y-95386009D02*
X157532266Y-95433628D01*
X157532266Y-95433628D02*
X157484647Y-95481247D01*
X157484647Y-95481247D02*
X157437028Y-95576485D01*
X157437028Y-95576485D02*
X157437028Y-95719342D01*
X157437028Y-95719342D02*
X157484647Y-95814580D01*
X157484647Y-95814580D02*
X157532266Y-95862200D01*
X157532266Y-95862200D02*
X157627504Y-95909819D01*
X157627504Y-95909819D02*
X158008456Y-95909819D01*
X158008456Y-95909819D02*
X158008456Y-94909819D01*
X158008456Y-94909819D02*
X157675123Y-94909819D01*
X157675123Y-94909819D02*
X157579885Y-94957438D01*
X157579885Y-94957438D02*
X157532266Y-95005057D01*
X157532266Y-95005057D02*
X157484647Y-95100295D01*
X157484647Y-95100295D02*
X157484647Y-95195533D01*
X157484647Y-95195533D02*
X157532266Y-95290771D01*
X157532266Y-95290771D02*
X157579885Y-95338390D01*
X157579885Y-95338390D02*
X157675123Y-95386009D01*
X157675123Y-95386009D02*
X158008456Y-95386009D01*
X157056075Y-95624104D02*
X156579885Y-95624104D01*
X157151313Y-95909819D02*
X156817980Y-94909819D01*
X156817980Y-94909819D02*
X156484647Y-95909819D01*
X155389408Y-95909819D02*
X155389408Y-94909819D01*
X155389408Y-94909819D02*
X155008456Y-94909819D01*
X155008456Y-94909819D02*
X154913218Y-94957438D01*
X154913218Y-94957438D02*
X154865599Y-95005057D01*
X154865599Y-95005057D02*
X154817980Y-95100295D01*
X154817980Y-95100295D02*
X154817980Y-95243152D01*
X154817980Y-95243152D02*
X154865599Y-95338390D01*
X154865599Y-95338390D02*
X154913218Y-95386009D01*
X154913218Y-95386009D02*
X155008456Y-95433628D01*
X155008456Y-95433628D02*
X155389408Y-95433628D01*
X153817980Y-95814580D02*
X153865599Y-95862200D01*
X153865599Y-95862200D02*
X154008456Y-95909819D01*
X154008456Y-95909819D02*
X154103694Y-95909819D01*
X154103694Y-95909819D02*
X154246551Y-95862200D01*
X154246551Y-95862200D02*
X154341789Y-95766961D01*
X154341789Y-95766961D02*
X154389408Y-95671723D01*
X154389408Y-95671723D02*
X154437027Y-95481247D01*
X154437027Y-95481247D02*
X154437027Y-95338390D01*
X154437027Y-95338390D02*
X154389408Y-95147914D01*
X154389408Y-95147914D02*
X154341789Y-95052676D01*
X154341789Y-95052676D02*
X154246551Y-94957438D01*
X154246551Y-94957438D02*
X154103694Y-94909819D01*
X154103694Y-94909819D02*
X154008456Y-94909819D01*
X154008456Y-94909819D02*
X153865599Y-94957438D01*
X153865599Y-94957438D02*
X153817980Y-95005057D01*
X153389408Y-95528866D02*
X152627504Y-95528866D01*
X151579885Y-95909819D02*
X151913218Y-95433628D01*
X152151313Y-95909819D02*
X152151313Y-94909819D01*
X152151313Y-94909819D02*
X151770361Y-94909819D01*
X151770361Y-94909819D02*
X151675123Y-94957438D01*
X151675123Y-94957438D02*
X151627504Y-95005057D01*
X151627504Y-95005057D02*
X151579885Y-95100295D01*
X151579885Y-95100295D02*
X151579885Y-95243152D01*
X151579885Y-95243152D02*
X151627504Y-95338390D01*
X151627504Y-95338390D02*
X151675123Y-95386009D01*
X151675123Y-95386009D02*
X151770361Y-95433628D01*
X151770361Y-95433628D02*
X152151313Y-95433628D01*
X150770361Y-95862200D02*
X150865599Y-95909819D01*
X150865599Y-95909819D02*
X151056075Y-95909819D01*
X151056075Y-95909819D02*
X151151313Y-95862200D01*
X151151313Y-95862200D02*
X151198932Y-95766961D01*
X151198932Y-95766961D02*
X151198932Y-95386009D01*
X151198932Y-95386009D02*
X151151313Y-95290771D01*
X151151313Y-95290771D02*
X151056075Y-95243152D01*
X151056075Y-95243152D02*
X150865599Y-95243152D01*
X150865599Y-95243152D02*
X150770361Y-95290771D01*
X150770361Y-95290771D02*
X150722742Y-95386009D01*
X150722742Y-95386009D02*
X150722742Y-95481247D01*
X150722742Y-95481247D02*
X151198932Y-95576485D01*
X150341789Y-95862200D02*
X150246551Y-95909819D01*
X150246551Y-95909819D02*
X150056075Y-95909819D01*
X150056075Y-95909819D02*
X149960837Y-95862200D01*
X149960837Y-95862200D02*
X149913218Y-95766961D01*
X149913218Y-95766961D02*
X149913218Y-95719342D01*
X149913218Y-95719342D02*
X149960837Y-95624104D01*
X149960837Y-95624104D02*
X150056075Y-95576485D01*
X150056075Y-95576485D02*
X150198932Y-95576485D01*
X150198932Y-95576485D02*
X150294170Y-95528866D01*
X150294170Y-95528866D02*
X150341789Y-95433628D01*
X150341789Y-95433628D02*
X150341789Y-95386009D01*
X150341789Y-95386009D02*
X150294170Y-95290771D01*
X150294170Y-95290771D02*
X150198932Y-95243152D01*
X150198932Y-95243152D02*
X150056075Y-95243152D01*
X150056075Y-95243152D02*
X149960837Y-95290771D01*
X149627503Y-95243152D02*
X149246551Y-95243152D01*
X149484646Y-94909819D02*
X149484646Y-95766961D01*
X149484646Y-95766961D02*
X149437027Y-95862200D01*
X149437027Y-95862200D02*
X149341789Y-95909819D01*
X149341789Y-95909819D02*
X149246551Y-95909819D01*
X148770360Y-95909819D02*
X148865598Y-95862200D01*
X148865598Y-95862200D02*
X148913217Y-95814580D01*
X148913217Y-95814580D02*
X148960836Y-95719342D01*
X148960836Y-95719342D02*
X148960836Y-95433628D01*
X148960836Y-95433628D02*
X148913217Y-95338390D01*
X148913217Y-95338390D02*
X148865598Y-95290771D01*
X148865598Y-95290771D02*
X148770360Y-95243152D01*
X148770360Y-95243152D02*
X148627503Y-95243152D01*
X148627503Y-95243152D02*
X148532265Y-95290771D01*
X148532265Y-95290771D02*
X148484646Y-95338390D01*
X148484646Y-95338390D02*
X148437027Y-95433628D01*
X148437027Y-95433628D02*
X148437027Y-95719342D01*
X148437027Y-95719342D02*
X148484646Y-95814580D01*
X148484646Y-95814580D02*
X148532265Y-95862200D01*
X148532265Y-95862200D02*
X148627503Y-95909819D01*
X148627503Y-95909819D02*
X148770360Y-95909819D01*
X147294170Y-94862200D02*
X148151312Y-96147914D01*
X146960836Y-95909819D02*
X146960836Y-94909819D01*
X146960836Y-94909819D02*
X146579884Y-94909819D01*
X146579884Y-94909819D02*
X146484646Y-94957438D01*
X146484646Y-94957438D02*
X146437027Y-95005057D01*
X146437027Y-95005057D02*
X146389408Y-95100295D01*
X146389408Y-95100295D02*
X146389408Y-95243152D01*
X146389408Y-95243152D02*
X146437027Y-95338390D01*
X146437027Y-95338390D02*
X146484646Y-95386009D01*
X146484646Y-95386009D02*
X146579884Y-95433628D01*
X146579884Y-95433628D02*
X146960836Y-95433628D01*
X145389408Y-95814580D02*
X145437027Y-95862200D01*
X145437027Y-95862200D02*
X145579884Y-95909819D01*
X145579884Y-95909819D02*
X145675122Y-95909819D01*
X145675122Y-95909819D02*
X145817979Y-95862200D01*
X145817979Y-95862200D02*
X145913217Y-95766961D01*
X145913217Y-95766961D02*
X145960836Y-95671723D01*
X145960836Y-95671723D02*
X146008455Y-95481247D01*
X146008455Y-95481247D02*
X146008455Y-95338390D01*
X146008455Y-95338390D02*
X145960836Y-95147914D01*
X145960836Y-95147914D02*
X145913217Y-95052676D01*
X145913217Y-95052676D02*
X145817979Y-94957438D01*
X145817979Y-94957438D02*
X145675122Y-94909819D01*
X145675122Y-94909819D02*
X145579884Y-94909819D01*
X145579884Y-94909819D02*
X145437027Y-94957438D01*
X145437027Y-94957438D02*
X145389408Y-95005057D01*
X144960836Y-95528866D02*
X144198932Y-95528866D01*
X143151313Y-95909819D02*
X143484646Y-95433628D01*
X143722741Y-95909819D02*
X143722741Y-94909819D01*
X143722741Y-94909819D02*
X143341789Y-94909819D01*
X143341789Y-94909819D02*
X143246551Y-94957438D01*
X143246551Y-94957438D02*
X143198932Y-95005057D01*
X143198932Y-95005057D02*
X143151313Y-95100295D01*
X143151313Y-95100295D02*
X143151313Y-95243152D01*
X143151313Y-95243152D02*
X143198932Y-95338390D01*
X143198932Y-95338390D02*
X143246551Y-95386009D01*
X143246551Y-95386009D02*
X143341789Y-95433628D01*
X143341789Y-95433628D02*
X143722741Y-95433628D01*
X142341789Y-95862200D02*
X142437027Y-95909819D01*
X142437027Y-95909819D02*
X142627503Y-95909819D01*
X142627503Y-95909819D02*
X142722741Y-95862200D01*
X142722741Y-95862200D02*
X142770360Y-95766961D01*
X142770360Y-95766961D02*
X142770360Y-95386009D01*
X142770360Y-95386009D02*
X142722741Y-95290771D01*
X142722741Y-95290771D02*
X142627503Y-95243152D01*
X142627503Y-95243152D02*
X142437027Y-95243152D01*
X142437027Y-95243152D02*
X142341789Y-95290771D01*
X142341789Y-95290771D02*
X142294170Y-95386009D01*
X142294170Y-95386009D02*
X142294170Y-95481247D01*
X142294170Y-95481247D02*
X142770360Y-95576485D01*
X141913217Y-95862200D02*
X141817979Y-95909819D01*
X141817979Y-95909819D02*
X141627503Y-95909819D01*
X141627503Y-95909819D02*
X141532265Y-95862200D01*
X141532265Y-95862200D02*
X141484646Y-95766961D01*
X141484646Y-95766961D02*
X141484646Y-95719342D01*
X141484646Y-95719342D02*
X141532265Y-95624104D01*
X141532265Y-95624104D02*
X141627503Y-95576485D01*
X141627503Y-95576485D02*
X141770360Y-95576485D01*
X141770360Y-95576485D02*
X141865598Y-95528866D01*
X141865598Y-95528866D02*
X141913217Y-95433628D01*
X141913217Y-95433628D02*
X141913217Y-95386009D01*
X141913217Y-95386009D02*
X141865598Y-95290771D01*
X141865598Y-95290771D02*
X141770360Y-95243152D01*
X141770360Y-95243152D02*
X141627503Y-95243152D01*
X141627503Y-95243152D02*
X141532265Y-95290771D01*
X141198931Y-95243152D02*
X140817979Y-95243152D01*
X141056074Y-94909819D02*
X141056074Y-95766961D01*
X141056074Y-95766961D02*
X141008455Y-95862200D01*
X141008455Y-95862200D02*
X140913217Y-95909819D01*
X140913217Y-95909819D02*
X140817979Y-95909819D01*
X140341788Y-95909819D02*
X140437026Y-95862200D01*
X140437026Y-95862200D02*
X140484645Y-95814580D01*
X140484645Y-95814580D02*
X140532264Y-95719342D01*
X140532264Y-95719342D02*
X140532264Y-95433628D01*
X140532264Y-95433628D02*
X140484645Y-95338390D01*
X140484645Y-95338390D02*
X140437026Y-95290771D01*
X140437026Y-95290771D02*
X140341788Y-95243152D01*
X140341788Y-95243152D02*
X140198931Y-95243152D01*
X140198931Y-95243152D02*
X140103693Y-95290771D01*
X140103693Y-95290771D02*
X140056074Y-95338390D01*
X140056074Y-95338390D02*
X140008455Y-95433628D01*
X140008455Y-95433628D02*
X140008455Y-95719342D01*
X140008455Y-95719342D02*
X140056074Y-95814580D01*
X140056074Y-95814580D02*
X140103693Y-95862200D01*
X140103693Y-95862200D02*
X140198931Y-95909819D01*
X140198931Y-95909819D02*
X140341788Y-95909819D01*
X139579883Y-95909819D02*
X139579883Y-95243152D01*
X139579883Y-95433628D02*
X139532264Y-95338390D01*
X139532264Y-95338390D02*
X139484645Y-95290771D01*
X139484645Y-95290771D02*
X139389407Y-95243152D01*
X139389407Y-95243152D02*
X139294169Y-95243152D01*
X138532264Y-95909819D02*
X138532264Y-95386009D01*
X138532264Y-95386009D02*
X138579883Y-95290771D01*
X138579883Y-95290771D02*
X138675121Y-95243152D01*
X138675121Y-95243152D02*
X138865597Y-95243152D01*
X138865597Y-95243152D02*
X138960835Y-95290771D01*
X138532264Y-95862200D02*
X138627502Y-95909819D01*
X138627502Y-95909819D02*
X138865597Y-95909819D01*
X138865597Y-95909819D02*
X138960835Y-95862200D01*
X138960835Y-95862200D02*
X139008454Y-95766961D01*
X139008454Y-95766961D02*
X139008454Y-95671723D01*
X139008454Y-95671723D02*
X138960835Y-95576485D01*
X138960835Y-95576485D02*
X138865597Y-95528866D01*
X138865597Y-95528866D02*
X138627502Y-95528866D01*
X138627502Y-95528866D02*
X138532264Y-95481247D01*
X138198930Y-95243152D02*
X137817978Y-95243152D01*
X138056073Y-94909819D02*
X138056073Y-95766961D01*
X138056073Y-95766961D02*
X138008454Y-95862200D01*
X138008454Y-95862200D02*
X137913216Y-95909819D01*
X137913216Y-95909819D02*
X137817978Y-95909819D01*
X137484644Y-95909819D02*
X137484644Y-95243152D01*
X137484644Y-94909819D02*
X137532263Y-94957438D01*
X137532263Y-94957438D02*
X137484644Y-95005057D01*
X137484644Y-95005057D02*
X137437025Y-94957438D01*
X137437025Y-94957438D02*
X137484644Y-94909819D01*
X137484644Y-94909819D02*
X137484644Y-95005057D01*
X136865597Y-95909819D02*
X136960835Y-95862200D01*
X136960835Y-95862200D02*
X137008454Y-95814580D01*
X137008454Y-95814580D02*
X137056073Y-95719342D01*
X137056073Y-95719342D02*
X137056073Y-95433628D01*
X137056073Y-95433628D02*
X137008454Y-95338390D01*
X137008454Y-95338390D02*
X136960835Y-95290771D01*
X136960835Y-95290771D02*
X136865597Y-95243152D01*
X136865597Y-95243152D02*
X136722740Y-95243152D01*
X136722740Y-95243152D02*
X136627502Y-95290771D01*
X136627502Y-95290771D02*
X136579883Y-95338390D01*
X136579883Y-95338390D02*
X136532264Y-95433628D01*
X136532264Y-95433628D02*
X136532264Y-95719342D01*
X136532264Y-95719342D02*
X136579883Y-95814580D01*
X136579883Y-95814580D02*
X136627502Y-95862200D01*
X136627502Y-95862200D02*
X136722740Y-95909819D01*
X136722740Y-95909819D02*
X136865597Y-95909819D01*
X136103692Y-95243152D02*
X136103692Y-95909819D01*
X136103692Y-95338390D02*
X136056073Y-95290771D01*
X136056073Y-95290771D02*
X135960835Y-95243152D01*
X135960835Y-95243152D02*
X135817978Y-95243152D01*
X135817978Y-95243152D02*
X135722740Y-95290771D01*
X135722740Y-95290771D02*
X135675121Y-95386009D01*
X135675121Y-95386009D02*
X135675121Y-95909819D01*
X177532268Y-97472200D02*
X177627506Y-97519819D01*
X177627506Y-97519819D02*
X177817982Y-97519819D01*
X177817982Y-97519819D02*
X177913220Y-97472200D01*
X177913220Y-97472200D02*
X177960839Y-97376961D01*
X177960839Y-97376961D02*
X177960839Y-96996009D01*
X177960839Y-96996009D02*
X177913220Y-96900771D01*
X177913220Y-96900771D02*
X177817982Y-96853152D01*
X177817982Y-96853152D02*
X177627506Y-96853152D01*
X177627506Y-96853152D02*
X177532268Y-96900771D01*
X177532268Y-96900771D02*
X177484649Y-96996009D01*
X177484649Y-96996009D02*
X177484649Y-97091247D01*
X177484649Y-97091247D02*
X177960839Y-97186485D01*
X177056077Y-97519819D02*
X177056077Y-96519819D01*
X177056077Y-96900771D02*
X176960839Y-96853152D01*
X176960839Y-96853152D02*
X176770363Y-96853152D01*
X176770363Y-96853152D02*
X176675125Y-96900771D01*
X176675125Y-96900771D02*
X176627506Y-96948390D01*
X176627506Y-96948390D02*
X176579887Y-97043628D01*
X176579887Y-97043628D02*
X176579887Y-97329342D01*
X176579887Y-97329342D02*
X176627506Y-97424580D01*
X176627506Y-97424580D02*
X176675125Y-97472200D01*
X176675125Y-97472200D02*
X176770363Y-97519819D01*
X176770363Y-97519819D02*
X176960839Y-97519819D01*
X176960839Y-97519819D02*
X177056077Y-97472200D01*
X175722744Y-97519819D02*
X175722744Y-96996009D01*
X175722744Y-96996009D02*
X175770363Y-96900771D01*
X175770363Y-96900771D02*
X175865601Y-96853152D01*
X175865601Y-96853152D02*
X176056077Y-96853152D01*
X176056077Y-96853152D02*
X176151315Y-96900771D01*
X175722744Y-97472200D02*
X175817982Y-97519819D01*
X175817982Y-97519819D02*
X176056077Y-97519819D01*
X176056077Y-97519819D02*
X176151315Y-97472200D01*
X176151315Y-97472200D02*
X176198934Y-97376961D01*
X176198934Y-97376961D02*
X176198934Y-97281723D01*
X176198934Y-97281723D02*
X176151315Y-97186485D01*
X176151315Y-97186485D02*
X176056077Y-97138866D01*
X176056077Y-97138866D02*
X175817982Y-97138866D01*
X175817982Y-97138866D02*
X175722744Y-97091247D01*
X175341791Y-96853152D02*
X175103696Y-97519819D01*
X174865601Y-96853152D02*
X175103696Y-97519819D01*
X175103696Y-97519819D02*
X175198934Y-97757914D01*
X175198934Y-97757914D02*
X175246553Y-97805533D01*
X175246553Y-97805533D02*
X175341791Y-97853152D01*
X174484648Y-97424580D02*
X174437029Y-97472200D01*
X174437029Y-97472200D02*
X174484648Y-97519819D01*
X174484648Y-97519819D02*
X174532267Y-97472200D01*
X174532267Y-97472200D02*
X174484648Y-97424580D01*
X174484648Y-97424580D02*
X174484648Y-97519819D01*
X173579887Y-97472200D02*
X173675125Y-97519819D01*
X173675125Y-97519819D02*
X173865601Y-97519819D01*
X173865601Y-97519819D02*
X173960839Y-97472200D01*
X173960839Y-97472200D02*
X174008458Y-97424580D01*
X174008458Y-97424580D02*
X174056077Y-97329342D01*
X174056077Y-97329342D02*
X174056077Y-97043628D01*
X174056077Y-97043628D02*
X174008458Y-96948390D01*
X174008458Y-96948390D02*
X173960839Y-96900771D01*
X173960839Y-96900771D02*
X173865601Y-96853152D01*
X173865601Y-96853152D02*
X173675125Y-96853152D01*
X173675125Y-96853152D02*
X173579887Y-96900771D01*
X173008458Y-97519819D02*
X173103696Y-97472200D01*
X173103696Y-97472200D02*
X173151315Y-97424580D01*
X173151315Y-97424580D02*
X173198934Y-97329342D01*
X173198934Y-97329342D02*
X173198934Y-97043628D01*
X173198934Y-97043628D02*
X173151315Y-96948390D01*
X173151315Y-96948390D02*
X173103696Y-96900771D01*
X173103696Y-96900771D02*
X173008458Y-96853152D01*
X173008458Y-96853152D02*
X172865601Y-96853152D01*
X172865601Y-96853152D02*
X172770363Y-96900771D01*
X172770363Y-96900771D02*
X172722744Y-96948390D01*
X172722744Y-96948390D02*
X172675125Y-97043628D01*
X172675125Y-97043628D02*
X172675125Y-97329342D01*
X172675125Y-97329342D02*
X172722744Y-97424580D01*
X172722744Y-97424580D02*
X172770363Y-97472200D01*
X172770363Y-97472200D02*
X172865601Y-97519819D01*
X172865601Y-97519819D02*
X173008458Y-97519819D01*
X172246553Y-97519819D02*
X172246553Y-96853152D01*
X172246553Y-96948390D02*
X172198934Y-96900771D01*
X172198934Y-96900771D02*
X172103696Y-96853152D01*
X172103696Y-96853152D02*
X171960839Y-96853152D01*
X171960839Y-96853152D02*
X171865601Y-96900771D01*
X171865601Y-96900771D02*
X171817982Y-96996009D01*
X171817982Y-96996009D02*
X171817982Y-97519819D01*
X171817982Y-96996009D02*
X171770363Y-96900771D01*
X171770363Y-96900771D02*
X171675125Y-96853152D01*
X171675125Y-96853152D02*
X171532268Y-96853152D01*
X171532268Y-96853152D02*
X171437029Y-96900771D01*
X171437029Y-96900771D02*
X171389410Y-96996009D01*
X171389410Y-96996009D02*
X171389410Y-97519819D01*
X170198935Y-96472200D02*
X171056077Y-97757914D01*
X169913220Y-97472200D02*
X169817982Y-97519819D01*
X169817982Y-97519819D02*
X169627506Y-97519819D01*
X169627506Y-97519819D02*
X169532268Y-97472200D01*
X169532268Y-97472200D02*
X169484649Y-97376961D01*
X169484649Y-97376961D02*
X169484649Y-97329342D01*
X169484649Y-97329342D02*
X169532268Y-97234104D01*
X169532268Y-97234104D02*
X169627506Y-97186485D01*
X169627506Y-97186485D02*
X169770363Y-97186485D01*
X169770363Y-97186485D02*
X169865601Y-97138866D01*
X169865601Y-97138866D02*
X169913220Y-97043628D01*
X169913220Y-97043628D02*
X169913220Y-96996009D01*
X169913220Y-96996009D02*
X169865601Y-96900771D01*
X169865601Y-96900771D02*
X169770363Y-96853152D01*
X169770363Y-96853152D02*
X169627506Y-96853152D01*
X169627506Y-96853152D02*
X169532268Y-96900771D01*
X169198934Y-96853152D02*
X168817982Y-96853152D01*
X169056077Y-96519819D02*
X169056077Y-97376961D01*
X169056077Y-97376961D02*
X169008458Y-97472200D01*
X169008458Y-97472200D02*
X168913220Y-97519819D01*
X168913220Y-97519819D02*
X168817982Y-97519819D01*
X168484648Y-97519819D02*
X168484648Y-96853152D01*
X168484648Y-97043628D02*
X168437029Y-96948390D01*
X168437029Y-96948390D02*
X168389410Y-96900771D01*
X168389410Y-96900771D02*
X168294172Y-96853152D01*
X168294172Y-96853152D02*
X168198934Y-96853152D01*
X167151315Y-96472200D02*
X168008457Y-97757914D01*
X166817981Y-96853152D02*
X166817981Y-97853152D01*
X166817981Y-96900771D02*
X166722743Y-96853152D01*
X166722743Y-96853152D02*
X166532267Y-96853152D01*
X166532267Y-96853152D02*
X166437029Y-96900771D01*
X166437029Y-96900771D02*
X166389410Y-96948390D01*
X166389410Y-96948390D02*
X166341791Y-97043628D01*
X166341791Y-97043628D02*
X166341791Y-97329342D01*
X166341791Y-97329342D02*
X166389410Y-97424580D01*
X166389410Y-97424580D02*
X166437029Y-97472200D01*
X166437029Y-97472200D02*
X166532267Y-97519819D01*
X166532267Y-97519819D02*
X166722743Y-97519819D01*
X166722743Y-97519819D02*
X166817981Y-97472200D01*
X165484648Y-97472200D02*
X165579886Y-97519819D01*
X165579886Y-97519819D02*
X165770362Y-97519819D01*
X165770362Y-97519819D02*
X165865600Y-97472200D01*
X165865600Y-97472200D02*
X165913219Y-97424580D01*
X165913219Y-97424580D02*
X165960838Y-97329342D01*
X165960838Y-97329342D02*
X165960838Y-97043628D01*
X165960838Y-97043628D02*
X165913219Y-96948390D01*
X165913219Y-96948390D02*
X165865600Y-96900771D01*
X165865600Y-96900771D02*
X165770362Y-96853152D01*
X165770362Y-96853152D02*
X165579886Y-96853152D01*
X165579886Y-96853152D02*
X165484648Y-96900771D01*
X165056076Y-97519819D02*
X165056076Y-96853152D01*
X165056076Y-97043628D02*
X165008457Y-96948390D01*
X165008457Y-96948390D02*
X164960838Y-96900771D01*
X164960838Y-96900771D02*
X164865600Y-96853152D01*
X164865600Y-96853152D02*
X164770362Y-96853152D01*
X164056076Y-97472200D02*
X164151314Y-97519819D01*
X164151314Y-97519819D02*
X164341790Y-97519819D01*
X164341790Y-97519819D02*
X164437028Y-97472200D01*
X164437028Y-97472200D02*
X164484647Y-97376961D01*
X164484647Y-97376961D02*
X164484647Y-96996009D01*
X164484647Y-96996009D02*
X164437028Y-96900771D01*
X164437028Y-96900771D02*
X164341790Y-96853152D01*
X164341790Y-96853152D02*
X164151314Y-96853152D01*
X164151314Y-96853152D02*
X164056076Y-96900771D01*
X164056076Y-96900771D02*
X164008457Y-96996009D01*
X164008457Y-96996009D02*
X164008457Y-97091247D01*
X164008457Y-97091247D02*
X164484647Y-97186485D01*
X163627504Y-97472200D02*
X163532266Y-97519819D01*
X163532266Y-97519819D02*
X163341790Y-97519819D01*
X163341790Y-97519819D02*
X163246552Y-97472200D01*
X163246552Y-97472200D02*
X163198933Y-97376961D01*
X163198933Y-97376961D02*
X163198933Y-97329342D01*
X163198933Y-97329342D02*
X163246552Y-97234104D01*
X163246552Y-97234104D02*
X163341790Y-97186485D01*
X163341790Y-97186485D02*
X163484647Y-97186485D01*
X163484647Y-97186485D02*
X163579885Y-97138866D01*
X163579885Y-97138866D02*
X163627504Y-97043628D01*
X163627504Y-97043628D02*
X163627504Y-96996009D01*
X163627504Y-96996009D02*
X163579885Y-96900771D01*
X163579885Y-96900771D02*
X163484647Y-96853152D01*
X163484647Y-96853152D02*
X163341790Y-96853152D01*
X163341790Y-96853152D02*
X163246552Y-96900771D01*
X162913218Y-96853152D02*
X162532266Y-96853152D01*
X162770361Y-96519819D02*
X162770361Y-97376961D01*
X162770361Y-97376961D02*
X162722742Y-97472200D01*
X162722742Y-97472200D02*
X162627504Y-97519819D01*
X162627504Y-97519819D02*
X162532266Y-97519819D01*
X162056075Y-97519819D02*
X162151313Y-97472200D01*
X162151313Y-97472200D02*
X162198932Y-97424580D01*
X162198932Y-97424580D02*
X162246551Y-97329342D01*
X162246551Y-97329342D02*
X162246551Y-97043628D01*
X162246551Y-97043628D02*
X162198932Y-96948390D01*
X162198932Y-96948390D02*
X162151313Y-96900771D01*
X162151313Y-96900771D02*
X162056075Y-96853152D01*
X162056075Y-96853152D02*
X161913218Y-96853152D01*
X161913218Y-96853152D02*
X161817980Y-96900771D01*
X161817980Y-96900771D02*
X161770361Y-96948390D01*
X161770361Y-96948390D02*
X161722742Y-97043628D01*
X161722742Y-97043628D02*
X161722742Y-97329342D01*
X161722742Y-97329342D02*
X161770361Y-97424580D01*
X161770361Y-97424580D02*
X161817980Y-97472200D01*
X161817980Y-97472200D02*
X161913218Y-97519819D01*
X161913218Y-97519819D02*
X162056075Y-97519819D01*
X161294170Y-97519819D02*
X161294170Y-96853152D01*
X161294170Y-97043628D02*
X161246551Y-96948390D01*
X161246551Y-96948390D02*
X161198932Y-96900771D01*
X161198932Y-96900771D02*
X161103694Y-96853152D01*
X161103694Y-96853152D02*
X161008456Y-96853152D01*
X160246551Y-97519819D02*
X160246551Y-96996009D01*
X160246551Y-96996009D02*
X160294170Y-96900771D01*
X160294170Y-96900771D02*
X160389408Y-96853152D01*
X160389408Y-96853152D02*
X160579884Y-96853152D01*
X160579884Y-96853152D02*
X160675122Y-96900771D01*
X160246551Y-97472200D02*
X160341789Y-97519819D01*
X160341789Y-97519819D02*
X160579884Y-97519819D01*
X160579884Y-97519819D02*
X160675122Y-97472200D01*
X160675122Y-97472200D02*
X160722741Y-97376961D01*
X160722741Y-97376961D02*
X160722741Y-97281723D01*
X160722741Y-97281723D02*
X160675122Y-97186485D01*
X160675122Y-97186485D02*
X160579884Y-97138866D01*
X160579884Y-97138866D02*
X160341789Y-97138866D01*
X160341789Y-97138866D02*
X160246551Y-97091247D01*
X159913217Y-96853152D02*
X159532265Y-96853152D01*
X159770360Y-96519819D02*
X159770360Y-97376961D01*
X159770360Y-97376961D02*
X159722741Y-97472200D01*
X159722741Y-97472200D02*
X159627503Y-97519819D01*
X159627503Y-97519819D02*
X159532265Y-97519819D01*
X159198931Y-97519819D02*
X159198931Y-96853152D01*
X159198931Y-96519819D02*
X159246550Y-96567438D01*
X159246550Y-96567438D02*
X159198931Y-96615057D01*
X159198931Y-96615057D02*
X159151312Y-96567438D01*
X159151312Y-96567438D02*
X159198931Y-96519819D01*
X159198931Y-96519819D02*
X159198931Y-96615057D01*
X158579884Y-97519819D02*
X158675122Y-97472200D01*
X158675122Y-97472200D02*
X158722741Y-97424580D01*
X158722741Y-97424580D02*
X158770360Y-97329342D01*
X158770360Y-97329342D02*
X158770360Y-97043628D01*
X158770360Y-97043628D02*
X158722741Y-96948390D01*
X158722741Y-96948390D02*
X158675122Y-96900771D01*
X158675122Y-96900771D02*
X158579884Y-96853152D01*
X158579884Y-96853152D02*
X158437027Y-96853152D01*
X158437027Y-96853152D02*
X158341789Y-96900771D01*
X158341789Y-96900771D02*
X158294170Y-96948390D01*
X158294170Y-96948390D02*
X158246551Y-97043628D01*
X158246551Y-97043628D02*
X158246551Y-97329342D01*
X158246551Y-97329342D02*
X158294170Y-97424580D01*
X158294170Y-97424580D02*
X158341789Y-97472200D01*
X158341789Y-97472200D02*
X158437027Y-97519819D01*
X158437027Y-97519819D02*
X158579884Y-97519819D01*
X157817979Y-96853152D02*
X157817979Y-97519819D01*
X157817979Y-96948390D02*
X157770360Y-96900771D01*
X157770360Y-96900771D02*
X157675122Y-96853152D01*
X157675122Y-96853152D02*
X157532265Y-96853152D01*
X157532265Y-96853152D02*
X157437027Y-96900771D01*
X157437027Y-96900771D02*
X157389408Y-96996009D01*
X157389408Y-96996009D02*
X157389408Y-97519819D01*
D10*
X173820802Y-101311623D02*
X173820802Y-100061623D01*
X173820802Y-100061623D02*
X173344612Y-100061623D01*
X173344612Y-100061623D02*
X173225564Y-100121147D01*
X173225564Y-100121147D02*
X173166041Y-100180671D01*
X173166041Y-100180671D02*
X173106517Y-100299719D01*
X173106517Y-100299719D02*
X173106517Y-100478290D01*
X173106517Y-100478290D02*
X173166041Y-100597338D01*
X173166041Y-100597338D02*
X173225564Y-100656861D01*
X173225564Y-100656861D02*
X173344612Y-100716385D01*
X173344612Y-100716385D02*
X173820802Y-100716385D01*
X171856517Y-101192576D02*
X171916041Y-101252100D01*
X171916041Y-101252100D02*
X172094612Y-101311623D01*
X172094612Y-101311623D02*
X172213660Y-101311623D01*
X172213660Y-101311623D02*
X172392231Y-101252100D01*
X172392231Y-101252100D02*
X172511279Y-101133052D01*
X172511279Y-101133052D02*
X172570802Y-101014004D01*
X172570802Y-101014004D02*
X172630326Y-100775909D01*
X172630326Y-100775909D02*
X172630326Y-100597338D01*
X172630326Y-100597338D02*
X172570802Y-100359242D01*
X172570802Y-100359242D02*
X172511279Y-100240195D01*
X172511279Y-100240195D02*
X172392231Y-100121147D01*
X172392231Y-100121147D02*
X172213660Y-100061623D01*
X172213660Y-100061623D02*
X172094612Y-100061623D01*
X172094612Y-100061623D02*
X171916041Y-100121147D01*
X171916041Y-100121147D02*
X171856517Y-100180671D01*
X171320802Y-101311623D02*
X171320802Y-100061623D01*
X169951755Y-100061623D02*
X169535088Y-101311623D01*
X169535088Y-101311623D02*
X169118422Y-100061623D01*
X168523183Y-101311623D02*
X168642231Y-101252100D01*
X168642231Y-101252100D02*
X168701754Y-101192576D01*
X168701754Y-101192576D02*
X168761278Y-101073528D01*
X168761278Y-101073528D02*
X168761278Y-100716385D01*
X168761278Y-100716385D02*
X168701754Y-100597338D01*
X168701754Y-100597338D02*
X168642231Y-100537814D01*
X168642231Y-100537814D02*
X168523183Y-100478290D01*
X168523183Y-100478290D02*
X168344612Y-100478290D01*
X168344612Y-100478290D02*
X168225564Y-100537814D01*
X168225564Y-100537814D02*
X168166040Y-100597338D01*
X168166040Y-100597338D02*
X168106516Y-100716385D01*
X168106516Y-100716385D02*
X168106516Y-101073528D01*
X168106516Y-101073528D02*
X168166040Y-101192576D01*
X168166040Y-101192576D02*
X168225564Y-101252100D01*
X168225564Y-101252100D02*
X168344612Y-101311623D01*
X168344612Y-101311623D02*
X168523183Y-101311623D01*
X167392231Y-101311623D02*
X167511279Y-101252100D01*
X167511279Y-101252100D02*
X167570802Y-101133052D01*
X167570802Y-101133052D02*
X167570802Y-100061623D01*
X167094612Y-100478290D02*
X166618421Y-100478290D01*
X166916040Y-100061623D02*
X166916040Y-101133052D01*
X166916040Y-101133052D02*
X166856517Y-101252100D01*
X166856517Y-101252100D02*
X166737469Y-101311623D01*
X166737469Y-101311623D02*
X166618421Y-101311623D01*
X165666040Y-101311623D02*
X165666040Y-100656861D01*
X165666040Y-100656861D02*
X165725564Y-100537814D01*
X165725564Y-100537814D02*
X165844612Y-100478290D01*
X165844612Y-100478290D02*
X166082707Y-100478290D01*
X166082707Y-100478290D02*
X166201754Y-100537814D01*
X165666040Y-101252100D02*
X165785088Y-101311623D01*
X165785088Y-101311623D02*
X166082707Y-101311623D01*
X166082707Y-101311623D02*
X166201754Y-101252100D01*
X166201754Y-101252100D02*
X166261278Y-101133052D01*
X166261278Y-101133052D02*
X166261278Y-101014004D01*
X166261278Y-101014004D02*
X166201754Y-100894957D01*
X166201754Y-100894957D02*
X166082707Y-100835433D01*
X166082707Y-100835433D02*
X165785088Y-100835433D01*
X165785088Y-100835433D02*
X165666040Y-100775909D01*
X164535088Y-100478290D02*
X164535088Y-101490195D01*
X164535088Y-101490195D02*
X164594612Y-101609242D01*
X164594612Y-101609242D02*
X164654136Y-101668766D01*
X164654136Y-101668766D02*
X164773183Y-101728290D01*
X164773183Y-101728290D02*
X164951755Y-101728290D01*
X164951755Y-101728290D02*
X165070802Y-101668766D01*
X164535088Y-101252100D02*
X164654136Y-101311623D01*
X164654136Y-101311623D02*
X164892231Y-101311623D01*
X164892231Y-101311623D02*
X165011279Y-101252100D01*
X165011279Y-101252100D02*
X165070802Y-101192576D01*
X165070802Y-101192576D02*
X165130326Y-101073528D01*
X165130326Y-101073528D02*
X165130326Y-100716385D01*
X165130326Y-100716385D02*
X165070802Y-100597338D01*
X165070802Y-100597338D02*
X165011279Y-100537814D01*
X165011279Y-100537814D02*
X164892231Y-100478290D01*
X164892231Y-100478290D02*
X164654136Y-100478290D01*
X164654136Y-100478290D02*
X164535088Y-100537814D01*
X163463660Y-101252100D02*
X163582708Y-101311623D01*
X163582708Y-101311623D02*
X163820803Y-101311623D01*
X163820803Y-101311623D02*
X163939850Y-101252100D01*
X163939850Y-101252100D02*
X163999374Y-101133052D01*
X163999374Y-101133052D02*
X163999374Y-100656861D01*
X163999374Y-100656861D02*
X163939850Y-100537814D01*
X163939850Y-100537814D02*
X163820803Y-100478290D01*
X163820803Y-100478290D02*
X163582708Y-100478290D01*
X163582708Y-100478290D02*
X163463660Y-100537814D01*
X163463660Y-100537814D02*
X163404136Y-100656861D01*
X163404136Y-100656861D02*
X163404136Y-100775909D01*
X163404136Y-100775909D02*
X163999374Y-100894957D01*
X161499374Y-100656861D02*
X161320802Y-100716385D01*
X161320802Y-100716385D02*
X161261279Y-100775909D01*
X161261279Y-100775909D02*
X161201755Y-100894957D01*
X161201755Y-100894957D02*
X161201755Y-101073528D01*
X161201755Y-101073528D02*
X161261279Y-101192576D01*
X161261279Y-101192576D02*
X161320802Y-101252100D01*
X161320802Y-101252100D02*
X161439850Y-101311623D01*
X161439850Y-101311623D02*
X161916040Y-101311623D01*
X161916040Y-101311623D02*
X161916040Y-100061623D01*
X161916040Y-100061623D02*
X161499374Y-100061623D01*
X161499374Y-100061623D02*
X161380326Y-100121147D01*
X161380326Y-100121147D02*
X161320802Y-100180671D01*
X161320802Y-100180671D02*
X161261279Y-100299719D01*
X161261279Y-100299719D02*
X161261279Y-100418766D01*
X161261279Y-100418766D02*
X161320802Y-100537814D01*
X161320802Y-100537814D02*
X161380326Y-100597338D01*
X161380326Y-100597338D02*
X161499374Y-100656861D01*
X161499374Y-100656861D02*
X161916040Y-100656861D01*
X160487469Y-101311623D02*
X160606517Y-101252100D01*
X160606517Y-101252100D02*
X160666040Y-101133052D01*
X160666040Y-101133052D02*
X160666040Y-100061623D01*
X159475564Y-101311623D02*
X159475564Y-100656861D01*
X159475564Y-100656861D02*
X159535088Y-100537814D01*
X159535088Y-100537814D02*
X159654136Y-100478290D01*
X159654136Y-100478290D02*
X159892231Y-100478290D01*
X159892231Y-100478290D02*
X160011278Y-100537814D01*
X159475564Y-101252100D02*
X159594612Y-101311623D01*
X159594612Y-101311623D02*
X159892231Y-101311623D01*
X159892231Y-101311623D02*
X160011278Y-101252100D01*
X160011278Y-101252100D02*
X160070802Y-101133052D01*
X160070802Y-101133052D02*
X160070802Y-101014004D01*
X160070802Y-101014004D02*
X160011278Y-100894957D01*
X160011278Y-100894957D02*
X159892231Y-100835433D01*
X159892231Y-100835433D02*
X159594612Y-100835433D01*
X159594612Y-100835433D02*
X159475564Y-100775909D01*
X158939850Y-101252100D02*
X158820803Y-101311623D01*
X158820803Y-101311623D02*
X158582707Y-101311623D01*
X158582707Y-101311623D02*
X158463660Y-101252100D01*
X158463660Y-101252100D02*
X158404136Y-101133052D01*
X158404136Y-101133052D02*
X158404136Y-101073528D01*
X158404136Y-101073528D02*
X158463660Y-100954480D01*
X158463660Y-100954480D02*
X158582707Y-100894957D01*
X158582707Y-100894957D02*
X158761279Y-100894957D01*
X158761279Y-100894957D02*
X158880326Y-100835433D01*
X158880326Y-100835433D02*
X158939850Y-100716385D01*
X158939850Y-100716385D02*
X158939850Y-100656861D01*
X158939850Y-100656861D02*
X158880326Y-100537814D01*
X158880326Y-100537814D02*
X158761279Y-100478290D01*
X158761279Y-100478290D02*
X158582707Y-100478290D01*
X158582707Y-100478290D02*
X158463660Y-100537814D01*
X158046993Y-100478290D02*
X157570802Y-100478290D01*
X157868421Y-100061623D02*
X157868421Y-101133052D01*
X157868421Y-101133052D02*
X157808898Y-101252100D01*
X157808898Y-101252100D02*
X157689850Y-101311623D01*
X157689850Y-101311623D02*
X157570802Y-101311623D01*
X156677945Y-101252100D02*
X156796993Y-101311623D01*
X156796993Y-101311623D02*
X157035088Y-101311623D01*
X157035088Y-101311623D02*
X157154135Y-101252100D01*
X157154135Y-101252100D02*
X157213659Y-101133052D01*
X157213659Y-101133052D02*
X157213659Y-100656861D01*
X157213659Y-100656861D02*
X157154135Y-100537814D01*
X157154135Y-100537814D02*
X157035088Y-100478290D01*
X157035088Y-100478290D02*
X156796993Y-100478290D01*
X156796993Y-100478290D02*
X156677945Y-100537814D01*
X156677945Y-100537814D02*
X156618421Y-100656861D01*
X156618421Y-100656861D02*
X156618421Y-100775909D01*
X156618421Y-100775909D02*
X157213659Y-100894957D01*
X156082706Y-101311623D02*
X156082706Y-100478290D01*
X156082706Y-100716385D02*
X156023183Y-100597338D01*
X156023183Y-100597338D02*
X155963659Y-100537814D01*
X155963659Y-100537814D02*
X155844611Y-100478290D01*
X155844611Y-100478290D02*
X155725564Y-100478290D01*
X173820802Y-103324123D02*
X173820802Y-102074123D01*
X173820802Y-102074123D02*
X173344612Y-102074123D01*
X173344612Y-102074123D02*
X173225564Y-102133647D01*
X173225564Y-102133647D02*
X173166041Y-102193171D01*
X173166041Y-102193171D02*
X173106517Y-102312219D01*
X173106517Y-102312219D02*
X173106517Y-102490790D01*
X173106517Y-102490790D02*
X173166041Y-102609838D01*
X173166041Y-102609838D02*
X173225564Y-102669361D01*
X173225564Y-102669361D02*
X173344612Y-102728885D01*
X173344612Y-102728885D02*
X173820802Y-102728885D01*
X172570802Y-103324123D02*
X172570802Y-102490790D01*
X172570802Y-102728885D02*
X172511279Y-102609838D01*
X172511279Y-102609838D02*
X172451755Y-102550314D01*
X172451755Y-102550314D02*
X172332707Y-102490790D01*
X172332707Y-102490790D02*
X172213660Y-102490790D01*
X171618421Y-103324123D02*
X171737469Y-103264600D01*
X171737469Y-103264600D02*
X171796992Y-103205076D01*
X171796992Y-103205076D02*
X171856516Y-103086028D01*
X171856516Y-103086028D02*
X171856516Y-102728885D01*
X171856516Y-102728885D02*
X171796992Y-102609838D01*
X171796992Y-102609838D02*
X171737469Y-102550314D01*
X171737469Y-102550314D02*
X171618421Y-102490790D01*
X171618421Y-102490790D02*
X171439850Y-102490790D01*
X171439850Y-102490790D02*
X171320802Y-102550314D01*
X171320802Y-102550314D02*
X171261278Y-102609838D01*
X171261278Y-102609838D02*
X171201754Y-102728885D01*
X171201754Y-102728885D02*
X171201754Y-103086028D01*
X171201754Y-103086028D02*
X171261278Y-103205076D01*
X171261278Y-103205076D02*
X171320802Y-103264600D01*
X171320802Y-103264600D02*
X171439850Y-103324123D01*
X171439850Y-103324123D02*
X171618421Y-103324123D01*
X170785088Y-102490790D02*
X170487469Y-103324123D01*
X170487469Y-103324123D02*
X170189850Y-102490790D01*
X169713659Y-103324123D02*
X169713659Y-102490790D01*
X169713659Y-102074123D02*
X169773183Y-102133647D01*
X169773183Y-102133647D02*
X169713659Y-102193171D01*
X169713659Y-102193171D02*
X169654136Y-102133647D01*
X169654136Y-102133647D02*
X169713659Y-102074123D01*
X169713659Y-102074123D02*
X169713659Y-102193171D01*
X168582707Y-103324123D02*
X168582707Y-102074123D01*
X168582707Y-103264600D02*
X168701755Y-103324123D01*
X168701755Y-103324123D02*
X168939850Y-103324123D01*
X168939850Y-103324123D02*
X169058898Y-103264600D01*
X169058898Y-103264600D02*
X169118421Y-103205076D01*
X169118421Y-103205076D02*
X169177945Y-103086028D01*
X169177945Y-103086028D02*
X169177945Y-102728885D01*
X169177945Y-102728885D02*
X169118421Y-102609838D01*
X169118421Y-102609838D02*
X169058898Y-102550314D01*
X169058898Y-102550314D02*
X168939850Y-102490790D01*
X168939850Y-102490790D02*
X168701755Y-102490790D01*
X168701755Y-102490790D02*
X168582707Y-102550314D01*
X167511279Y-103264600D02*
X167630327Y-103324123D01*
X167630327Y-103324123D02*
X167868422Y-103324123D01*
X167868422Y-103324123D02*
X167987469Y-103264600D01*
X167987469Y-103264600D02*
X168046993Y-103145552D01*
X168046993Y-103145552D02*
X168046993Y-102669361D01*
X168046993Y-102669361D02*
X167987469Y-102550314D01*
X167987469Y-102550314D02*
X167868422Y-102490790D01*
X167868422Y-102490790D02*
X167630327Y-102490790D01*
X167630327Y-102490790D02*
X167511279Y-102550314D01*
X167511279Y-102550314D02*
X167451755Y-102669361D01*
X167451755Y-102669361D02*
X167451755Y-102788409D01*
X167451755Y-102788409D02*
X168046993Y-102907457D01*
X166975564Y-103264600D02*
X166856517Y-103324123D01*
X166856517Y-103324123D02*
X166618421Y-103324123D01*
X166618421Y-103324123D02*
X166499374Y-103264600D01*
X166499374Y-103264600D02*
X166439850Y-103145552D01*
X166439850Y-103145552D02*
X166439850Y-103086028D01*
X166439850Y-103086028D02*
X166499374Y-102966980D01*
X166499374Y-102966980D02*
X166618421Y-102907457D01*
X166618421Y-102907457D02*
X166796993Y-102907457D01*
X166796993Y-102907457D02*
X166916040Y-102847933D01*
X166916040Y-102847933D02*
X166975564Y-102728885D01*
X166975564Y-102728885D02*
X166975564Y-102669361D01*
X166975564Y-102669361D02*
X166916040Y-102550314D01*
X166916040Y-102550314D02*
X166796993Y-102490790D01*
X166796993Y-102490790D02*
X166618421Y-102490790D01*
X166618421Y-102490790D02*
X166499374Y-102550314D01*
X165070802Y-102074123D02*
X164296993Y-102074123D01*
X164296993Y-102074123D02*
X164713659Y-102550314D01*
X164713659Y-102550314D02*
X164535088Y-102550314D01*
X164535088Y-102550314D02*
X164416040Y-102609838D01*
X164416040Y-102609838D02*
X164356516Y-102669361D01*
X164356516Y-102669361D02*
X164296993Y-102788409D01*
X164296993Y-102788409D02*
X164296993Y-103086028D01*
X164296993Y-103086028D02*
X164356516Y-103205076D01*
X164356516Y-103205076D02*
X164416040Y-103264600D01*
X164416040Y-103264600D02*
X164535088Y-103324123D01*
X164535088Y-103324123D02*
X164892231Y-103324123D01*
X164892231Y-103324123D02*
X165011278Y-103264600D01*
X165011278Y-103264600D02*
X165070802Y-103205076D01*
X163761278Y-103205076D02*
X163701755Y-103264600D01*
X163701755Y-103264600D02*
X163761278Y-103324123D01*
X163761278Y-103324123D02*
X163820802Y-103264600D01*
X163820802Y-103264600D02*
X163761278Y-103205076D01*
X163761278Y-103205076D02*
X163761278Y-103324123D01*
X163285088Y-102074123D02*
X162511279Y-102074123D01*
X162511279Y-102074123D02*
X162927945Y-102550314D01*
X162927945Y-102550314D02*
X162749374Y-102550314D01*
X162749374Y-102550314D02*
X162630326Y-102609838D01*
X162630326Y-102609838D02*
X162570802Y-102669361D01*
X162570802Y-102669361D02*
X162511279Y-102788409D01*
X162511279Y-102788409D02*
X162511279Y-103086028D01*
X162511279Y-103086028D02*
X162570802Y-103205076D01*
X162570802Y-103205076D02*
X162630326Y-103264600D01*
X162630326Y-103264600D02*
X162749374Y-103324123D01*
X162749374Y-103324123D02*
X163106517Y-103324123D01*
X163106517Y-103324123D02*
X163225564Y-103264600D01*
X163225564Y-103264600D02*
X163285088Y-103205076D01*
X162154136Y-102074123D02*
X161737469Y-103324123D01*
X161737469Y-103324123D02*
X161320803Y-102074123D01*
X160130326Y-102490790D02*
X159654135Y-102490790D01*
X159951754Y-103324123D02*
X159951754Y-102252695D01*
X159951754Y-102252695D02*
X159892231Y-102133647D01*
X159892231Y-102133647D02*
X159773183Y-102074123D01*
X159773183Y-102074123D02*
X159654135Y-102074123D01*
X159058897Y-103324123D02*
X159177945Y-103264600D01*
X159177945Y-103264600D02*
X159237468Y-103205076D01*
X159237468Y-103205076D02*
X159296992Y-103086028D01*
X159296992Y-103086028D02*
X159296992Y-102728885D01*
X159296992Y-102728885D02*
X159237468Y-102609838D01*
X159237468Y-102609838D02*
X159177945Y-102550314D01*
X159177945Y-102550314D02*
X159058897Y-102490790D01*
X159058897Y-102490790D02*
X158880326Y-102490790D01*
X158880326Y-102490790D02*
X158761278Y-102550314D01*
X158761278Y-102550314D02*
X158701754Y-102609838D01*
X158701754Y-102609838D02*
X158642230Y-102728885D01*
X158642230Y-102728885D02*
X158642230Y-103086028D01*
X158642230Y-103086028D02*
X158701754Y-103205076D01*
X158701754Y-103205076D02*
X158761278Y-103264600D01*
X158761278Y-103264600D02*
X158880326Y-103324123D01*
X158880326Y-103324123D02*
X159058897Y-103324123D01*
X158106516Y-103324123D02*
X158106516Y-102490790D01*
X158106516Y-102728885D02*
X158046993Y-102609838D01*
X158046993Y-102609838D02*
X157987469Y-102550314D01*
X157987469Y-102550314D02*
X157868421Y-102490790D01*
X157868421Y-102490790D02*
X157749374Y-102490790D01*
X155785087Y-102074123D02*
X156380325Y-102074123D01*
X156380325Y-102074123D02*
X156439849Y-102669361D01*
X156439849Y-102669361D02*
X156380325Y-102609838D01*
X156380325Y-102609838D02*
X156261278Y-102550314D01*
X156261278Y-102550314D02*
X155963659Y-102550314D01*
X155963659Y-102550314D02*
X155844611Y-102609838D01*
X155844611Y-102609838D02*
X155785087Y-102669361D01*
X155785087Y-102669361D02*
X155725564Y-102788409D01*
X155725564Y-102788409D02*
X155725564Y-103086028D01*
X155725564Y-103086028D02*
X155785087Y-103205076D01*
X155785087Y-103205076D02*
X155844611Y-103264600D01*
X155844611Y-103264600D02*
X155963659Y-103324123D01*
X155963659Y-103324123D02*
X156261278Y-103324123D01*
X156261278Y-103324123D02*
X156380325Y-103264600D01*
X156380325Y-103264600D02*
X156439849Y-103205076D01*
X155368421Y-102074123D02*
X154951754Y-103324123D01*
X154951754Y-103324123D02*
X154535088Y-102074123D01*
X153225563Y-103264600D02*
X153106516Y-103324123D01*
X153106516Y-103324123D02*
X152868420Y-103324123D01*
X152868420Y-103324123D02*
X152749373Y-103264600D01*
X152749373Y-103264600D02*
X152689849Y-103145552D01*
X152689849Y-103145552D02*
X152689849Y-103086028D01*
X152689849Y-103086028D02*
X152749373Y-102966980D01*
X152749373Y-102966980D02*
X152868420Y-102907457D01*
X152868420Y-102907457D02*
X153046992Y-102907457D01*
X153046992Y-102907457D02*
X153166039Y-102847933D01*
X153166039Y-102847933D02*
X153225563Y-102728885D01*
X153225563Y-102728885D02*
X153225563Y-102669361D01*
X153225563Y-102669361D02*
X153166039Y-102550314D01*
X153166039Y-102550314D02*
X153046992Y-102490790D01*
X153046992Y-102490790D02*
X152868420Y-102490790D01*
X152868420Y-102490790D02*
X152749373Y-102550314D01*
X151975563Y-103324123D02*
X152094611Y-103264600D01*
X152094611Y-103264600D02*
X152154134Y-103145552D01*
X152154134Y-103145552D02*
X152154134Y-102074123D01*
X151320801Y-103324123D02*
X151439849Y-103264600D01*
X151439849Y-103264600D02*
X151499372Y-103205076D01*
X151499372Y-103205076D02*
X151558896Y-103086028D01*
X151558896Y-103086028D02*
X151558896Y-102728885D01*
X151558896Y-102728885D02*
X151499372Y-102609838D01*
X151499372Y-102609838D02*
X151439849Y-102550314D01*
X151439849Y-102550314D02*
X151320801Y-102490790D01*
X151320801Y-102490790D02*
X151142230Y-102490790D01*
X151142230Y-102490790D02*
X151023182Y-102550314D01*
X151023182Y-102550314D02*
X150963658Y-102609838D01*
X150963658Y-102609838D02*
X150904134Y-102728885D01*
X150904134Y-102728885D02*
X150904134Y-103086028D01*
X150904134Y-103086028D02*
X150963658Y-103205076D01*
X150963658Y-103205076D02*
X151023182Y-103264600D01*
X151023182Y-103264600D02*
X151142230Y-103324123D01*
X151142230Y-103324123D02*
X151320801Y-103324123D01*
X150546992Y-102490790D02*
X150070801Y-102490790D01*
X150368420Y-102074123D02*
X150368420Y-103145552D01*
X150368420Y-103145552D02*
X150308897Y-103264600D01*
X150308897Y-103264600D02*
X150189849Y-103324123D01*
X150189849Y-103324123D02*
X150070801Y-103324123D01*
X149713658Y-103264600D02*
X149594611Y-103324123D01*
X149594611Y-103324123D02*
X149356515Y-103324123D01*
X149356515Y-103324123D02*
X149237468Y-103264600D01*
X149237468Y-103264600D02*
X149177944Y-103145552D01*
X149177944Y-103145552D02*
X149177944Y-103086028D01*
X149177944Y-103086028D02*
X149237468Y-102966980D01*
X149237468Y-102966980D02*
X149356515Y-102907457D01*
X149356515Y-102907457D02*
X149535087Y-102907457D01*
X149535087Y-102907457D02*
X149654134Y-102847933D01*
X149654134Y-102847933D02*
X149713658Y-102728885D01*
X149713658Y-102728885D02*
X149713658Y-102669361D01*
X149713658Y-102669361D02*
X149654134Y-102550314D01*
X149654134Y-102550314D02*
X149535087Y-102490790D01*
X149535087Y-102490790D02*
X149356515Y-102490790D01*
X149356515Y-102490790D02*
X149237468Y-102550314D01*
X173285088Y-104503290D02*
X173285088Y-105515195D01*
X173285088Y-105515195D02*
X173344612Y-105634242D01*
X173344612Y-105634242D02*
X173404136Y-105693766D01*
X173404136Y-105693766D02*
X173523183Y-105753290D01*
X173523183Y-105753290D02*
X173701755Y-105753290D01*
X173701755Y-105753290D02*
X173820802Y-105693766D01*
X173285088Y-105277100D02*
X173404136Y-105336623D01*
X173404136Y-105336623D02*
X173642231Y-105336623D01*
X173642231Y-105336623D02*
X173761279Y-105277100D01*
X173761279Y-105277100D02*
X173820802Y-105217576D01*
X173820802Y-105217576D02*
X173880326Y-105098528D01*
X173880326Y-105098528D02*
X173880326Y-104741385D01*
X173880326Y-104741385D02*
X173820802Y-104622338D01*
X173820802Y-104622338D02*
X173761279Y-104562814D01*
X173761279Y-104562814D02*
X173642231Y-104503290D01*
X173642231Y-104503290D02*
X173404136Y-104503290D01*
X173404136Y-104503290D02*
X173285088Y-104562814D01*
X172689850Y-105336623D02*
X172689850Y-104503290D01*
X172689850Y-104086623D02*
X172749374Y-104146147D01*
X172749374Y-104146147D02*
X172689850Y-104205671D01*
X172689850Y-104205671D02*
X172630327Y-104146147D01*
X172630327Y-104146147D02*
X172689850Y-104086623D01*
X172689850Y-104086623D02*
X172689850Y-104205671D01*
X172273184Y-104503290D02*
X171796993Y-104503290D01*
X172094612Y-104086623D02*
X172094612Y-105158052D01*
X172094612Y-105158052D02*
X172035089Y-105277100D01*
X172035089Y-105277100D02*
X171916041Y-105336623D01*
X171916041Y-105336623D02*
X171796993Y-105336623D01*
X171380326Y-105336623D02*
X171380326Y-104086623D01*
X170844612Y-105336623D02*
X170844612Y-104681861D01*
X170844612Y-104681861D02*
X170904136Y-104562814D01*
X170904136Y-104562814D02*
X171023184Y-104503290D01*
X171023184Y-104503290D02*
X171201755Y-104503290D01*
X171201755Y-104503290D02*
X171320803Y-104562814D01*
X171320803Y-104562814D02*
X171380326Y-104622338D01*
X169713660Y-104503290D02*
X169713660Y-105336623D01*
X170249374Y-104503290D02*
X170249374Y-105158052D01*
X170249374Y-105158052D02*
X170189851Y-105277100D01*
X170189851Y-105277100D02*
X170070803Y-105336623D01*
X170070803Y-105336623D02*
X169892232Y-105336623D01*
X169892232Y-105336623D02*
X169773184Y-105277100D01*
X169773184Y-105277100D02*
X169713660Y-105217576D01*
X169118422Y-105336623D02*
X169118422Y-104086623D01*
X169118422Y-104562814D02*
X168999375Y-104503290D01*
X168999375Y-104503290D02*
X168761280Y-104503290D01*
X168761280Y-104503290D02*
X168642232Y-104562814D01*
X168642232Y-104562814D02*
X168582708Y-104622338D01*
X168582708Y-104622338D02*
X168523184Y-104741385D01*
X168523184Y-104741385D02*
X168523184Y-105098528D01*
X168523184Y-105098528D02*
X168582708Y-105217576D01*
X168582708Y-105217576D02*
X168642232Y-105277100D01*
X168642232Y-105277100D02*
X168761280Y-105336623D01*
X168761280Y-105336623D02*
X168999375Y-105336623D01*
X168999375Y-105336623D02*
X169118422Y-105277100D01*
X167987470Y-105217576D02*
X167927947Y-105277100D01*
X167927947Y-105277100D02*
X167987470Y-105336623D01*
X167987470Y-105336623D02*
X168046994Y-105277100D01*
X168046994Y-105277100D02*
X167987470Y-105217576D01*
X167987470Y-105217576D02*
X167987470Y-105336623D01*
X166856518Y-105277100D02*
X166975566Y-105336623D01*
X166975566Y-105336623D02*
X167213661Y-105336623D01*
X167213661Y-105336623D02*
X167332709Y-105277100D01*
X167332709Y-105277100D02*
X167392232Y-105217576D01*
X167392232Y-105217576D02*
X167451756Y-105098528D01*
X167451756Y-105098528D02*
X167451756Y-104741385D01*
X167451756Y-104741385D02*
X167392232Y-104622338D01*
X167392232Y-104622338D02*
X167332709Y-104562814D01*
X167332709Y-104562814D02*
X167213661Y-104503290D01*
X167213661Y-104503290D02*
X166975566Y-104503290D01*
X166975566Y-104503290D02*
X166856518Y-104562814D01*
X166142232Y-105336623D02*
X166261280Y-105277100D01*
X166261280Y-105277100D02*
X166320803Y-105217576D01*
X166320803Y-105217576D02*
X166380327Y-105098528D01*
X166380327Y-105098528D02*
X166380327Y-104741385D01*
X166380327Y-104741385D02*
X166320803Y-104622338D01*
X166320803Y-104622338D02*
X166261280Y-104562814D01*
X166261280Y-104562814D02*
X166142232Y-104503290D01*
X166142232Y-104503290D02*
X165963661Y-104503290D01*
X165963661Y-104503290D02*
X165844613Y-104562814D01*
X165844613Y-104562814D02*
X165785089Y-104622338D01*
X165785089Y-104622338D02*
X165725565Y-104741385D01*
X165725565Y-104741385D02*
X165725565Y-105098528D01*
X165725565Y-105098528D02*
X165785089Y-105217576D01*
X165785089Y-105217576D02*
X165844613Y-105277100D01*
X165844613Y-105277100D02*
X165963661Y-105336623D01*
X165963661Y-105336623D02*
X166142232Y-105336623D01*
X165189851Y-105336623D02*
X165189851Y-104503290D01*
X165189851Y-104622338D02*
X165130328Y-104562814D01*
X165130328Y-104562814D02*
X165011280Y-104503290D01*
X165011280Y-104503290D02*
X164832709Y-104503290D01*
X164832709Y-104503290D02*
X164713661Y-104562814D01*
X164713661Y-104562814D02*
X164654137Y-104681861D01*
X164654137Y-104681861D02*
X164654137Y-105336623D01*
X164654137Y-104681861D02*
X164594613Y-104562814D01*
X164594613Y-104562814D02*
X164475566Y-104503290D01*
X164475566Y-104503290D02*
X164296994Y-104503290D01*
X164296994Y-104503290D02*
X164177947Y-104562814D01*
X164177947Y-104562814D02*
X164118423Y-104681861D01*
X164118423Y-104681861D02*
X164118423Y-105336623D01*
X162630327Y-104027100D02*
X163701756Y-105634242D01*
X161677946Y-105277100D02*
X161796994Y-105336623D01*
X161796994Y-105336623D02*
X162035089Y-105336623D01*
X162035089Y-105336623D02*
X162154137Y-105277100D01*
X162154137Y-105277100D02*
X162213660Y-105217576D01*
X162213660Y-105217576D02*
X162273184Y-105098528D01*
X162273184Y-105098528D02*
X162273184Y-104741385D01*
X162273184Y-104741385D02*
X162213660Y-104622338D01*
X162213660Y-104622338D02*
X162154137Y-104562814D01*
X162154137Y-104562814D02*
X162035089Y-104503290D01*
X162035089Y-104503290D02*
X161796994Y-104503290D01*
X161796994Y-104503290D02*
X161677946Y-104562814D01*
X161142231Y-105336623D02*
X161142231Y-104086623D01*
X160606517Y-105336623D02*
X160606517Y-104681861D01*
X160606517Y-104681861D02*
X160666041Y-104562814D01*
X160666041Y-104562814D02*
X160785089Y-104503290D01*
X160785089Y-104503290D02*
X160963660Y-104503290D01*
X160963660Y-104503290D02*
X161082708Y-104562814D01*
X161082708Y-104562814D02*
X161142231Y-104622338D01*
X159475565Y-105336623D02*
X159475565Y-104681861D01*
X159475565Y-104681861D02*
X159535089Y-104562814D01*
X159535089Y-104562814D02*
X159654137Y-104503290D01*
X159654137Y-104503290D02*
X159892232Y-104503290D01*
X159892232Y-104503290D02*
X160011279Y-104562814D01*
X159475565Y-105277100D02*
X159594613Y-105336623D01*
X159594613Y-105336623D02*
X159892232Y-105336623D01*
X159892232Y-105336623D02*
X160011279Y-105277100D01*
X160011279Y-105277100D02*
X160070803Y-105158052D01*
X160070803Y-105158052D02*
X160070803Y-105039004D01*
X160070803Y-105039004D02*
X160011279Y-104919957D01*
X160011279Y-104919957D02*
X159892232Y-104860433D01*
X159892232Y-104860433D02*
X159594613Y-104860433D01*
X159594613Y-104860433D02*
X159475565Y-104800909D01*
X158344613Y-105336623D02*
X158344613Y-104086623D01*
X158344613Y-105277100D02*
X158463661Y-105336623D01*
X158463661Y-105336623D02*
X158701756Y-105336623D01*
X158701756Y-105336623D02*
X158820804Y-105277100D01*
X158820804Y-105277100D02*
X158880327Y-105217576D01*
X158880327Y-105217576D02*
X158939851Y-105098528D01*
X158939851Y-105098528D02*
X158939851Y-104741385D01*
X158939851Y-104741385D02*
X158880327Y-104622338D01*
X158880327Y-104622338D02*
X158820804Y-104562814D01*
X158820804Y-104562814D02*
X158701756Y-104503290D01*
X158701756Y-104503290D02*
X158463661Y-104503290D01*
X158463661Y-104503290D02*
X158344613Y-104562814D01*
X157749375Y-105336623D02*
X157749375Y-104503290D01*
X157749375Y-104741385D02*
X157689852Y-104622338D01*
X157689852Y-104622338D02*
X157630328Y-104562814D01*
X157630328Y-104562814D02*
X157511280Y-104503290D01*
X157511280Y-104503290D02*
X157392233Y-104503290D01*
X156082708Y-104027100D02*
X157154137Y-105634242D01*
X155666041Y-105336623D02*
X155666041Y-104086623D01*
X155666041Y-104086623D02*
X155189851Y-104086623D01*
X155189851Y-104086623D02*
X155070803Y-104146147D01*
X155070803Y-104146147D02*
X155011280Y-104205671D01*
X155011280Y-104205671D02*
X154951756Y-104324719D01*
X154951756Y-104324719D02*
X154951756Y-104503290D01*
X154951756Y-104503290D02*
X155011280Y-104622338D01*
X155011280Y-104622338D02*
X155070803Y-104681861D01*
X155070803Y-104681861D02*
X155189851Y-104741385D01*
X155189851Y-104741385D02*
X155666041Y-104741385D01*
X153701756Y-105217576D02*
X153761280Y-105277100D01*
X153761280Y-105277100D02*
X153939851Y-105336623D01*
X153939851Y-105336623D02*
X154058899Y-105336623D01*
X154058899Y-105336623D02*
X154237470Y-105277100D01*
X154237470Y-105277100D02*
X154356518Y-105158052D01*
X154356518Y-105158052D02*
X154416041Y-105039004D01*
X154416041Y-105039004D02*
X154475565Y-104800909D01*
X154475565Y-104800909D02*
X154475565Y-104622338D01*
X154475565Y-104622338D02*
X154416041Y-104384242D01*
X154416041Y-104384242D02*
X154356518Y-104265195D01*
X154356518Y-104265195D02*
X154237470Y-104146147D01*
X154237470Y-104146147D02*
X154058899Y-104086623D01*
X154058899Y-104086623D02*
X153939851Y-104086623D01*
X153939851Y-104086623D02*
X153761280Y-104146147D01*
X153761280Y-104146147D02*
X153701756Y-104205671D01*
X153166041Y-105336623D02*
X153166041Y-104086623D01*
X152570803Y-104860433D02*
X151618423Y-104860433D01*
X151201756Y-104086623D02*
X150785089Y-105336623D01*
X150785089Y-105336623D02*
X150368423Y-104086623D01*
X149773184Y-105336623D02*
X149892232Y-105277100D01*
X149892232Y-105277100D02*
X149951755Y-105217576D01*
X149951755Y-105217576D02*
X150011279Y-105098528D01*
X150011279Y-105098528D02*
X150011279Y-104741385D01*
X150011279Y-104741385D02*
X149951755Y-104622338D01*
X149951755Y-104622338D02*
X149892232Y-104562814D01*
X149892232Y-104562814D02*
X149773184Y-104503290D01*
X149773184Y-104503290D02*
X149594613Y-104503290D01*
X149594613Y-104503290D02*
X149475565Y-104562814D01*
X149475565Y-104562814D02*
X149416041Y-104622338D01*
X149416041Y-104622338D02*
X149356517Y-104741385D01*
X149356517Y-104741385D02*
X149356517Y-105098528D01*
X149356517Y-105098528D02*
X149416041Y-105217576D01*
X149416041Y-105217576D02*
X149475565Y-105277100D01*
X149475565Y-105277100D02*
X149594613Y-105336623D01*
X149594613Y-105336623D02*
X149773184Y-105336623D01*
X148642232Y-105336623D02*
X148761280Y-105277100D01*
X148761280Y-105277100D02*
X148820803Y-105158052D01*
X148820803Y-105158052D02*
X148820803Y-104086623D01*
X148344613Y-104503290D02*
X147868422Y-104503290D01*
X148166041Y-104086623D02*
X148166041Y-105158052D01*
X148166041Y-105158052D02*
X148106518Y-105277100D01*
X148106518Y-105277100D02*
X147987470Y-105336623D01*
X147987470Y-105336623D02*
X147868422Y-105336623D01*
X146916041Y-105336623D02*
X146916041Y-104681861D01*
X146916041Y-104681861D02*
X146975565Y-104562814D01*
X146975565Y-104562814D02*
X147094613Y-104503290D01*
X147094613Y-104503290D02*
X147332708Y-104503290D01*
X147332708Y-104503290D02*
X147451755Y-104562814D01*
X146916041Y-105277100D02*
X147035089Y-105336623D01*
X147035089Y-105336623D02*
X147332708Y-105336623D01*
X147332708Y-105336623D02*
X147451755Y-105277100D01*
X147451755Y-105277100D02*
X147511279Y-105158052D01*
X147511279Y-105158052D02*
X147511279Y-105039004D01*
X147511279Y-105039004D02*
X147451755Y-104919957D01*
X147451755Y-104919957D02*
X147332708Y-104860433D01*
X147332708Y-104860433D02*
X147035089Y-104860433D01*
X147035089Y-104860433D02*
X146916041Y-104800909D01*
X145785089Y-104503290D02*
X145785089Y-105515195D01*
X145785089Y-105515195D02*
X145844613Y-105634242D01*
X145844613Y-105634242D02*
X145904137Y-105693766D01*
X145904137Y-105693766D02*
X146023184Y-105753290D01*
X146023184Y-105753290D02*
X146201756Y-105753290D01*
X146201756Y-105753290D02*
X146320803Y-105693766D01*
X145785089Y-105277100D02*
X145904137Y-105336623D01*
X145904137Y-105336623D02*
X146142232Y-105336623D01*
X146142232Y-105336623D02*
X146261280Y-105277100D01*
X146261280Y-105277100D02*
X146320803Y-105217576D01*
X146320803Y-105217576D02*
X146380327Y-105098528D01*
X146380327Y-105098528D02*
X146380327Y-104741385D01*
X146380327Y-104741385D02*
X146320803Y-104622338D01*
X146320803Y-104622338D02*
X146261280Y-104562814D01*
X146261280Y-104562814D02*
X146142232Y-104503290D01*
X146142232Y-104503290D02*
X145904137Y-104503290D01*
X145904137Y-104503290D02*
X145785089Y-104562814D01*
X144713661Y-105277100D02*
X144832709Y-105336623D01*
X144832709Y-105336623D02*
X145070804Y-105336623D01*
X145070804Y-105336623D02*
X145189851Y-105277100D01*
X145189851Y-105277100D02*
X145249375Y-105158052D01*
X145249375Y-105158052D02*
X145249375Y-104681861D01*
X145249375Y-104681861D02*
X145189851Y-104562814D01*
X145189851Y-104562814D02*
X145070804Y-104503290D01*
X145070804Y-104503290D02*
X144832709Y-104503290D01*
X144832709Y-104503290D02*
X144713661Y-104562814D01*
X144713661Y-104562814D02*
X144654137Y-104681861D01*
X144654137Y-104681861D02*
X144654137Y-104800909D01*
X144654137Y-104800909D02*
X145249375Y-104919957D01*
X144118422Y-104860433D02*
X143166042Y-104860433D01*
X142154137Y-104681861D02*
X141975565Y-104741385D01*
X141975565Y-104741385D02*
X141916042Y-104800909D01*
X141916042Y-104800909D02*
X141856518Y-104919957D01*
X141856518Y-104919957D02*
X141856518Y-105098528D01*
X141856518Y-105098528D02*
X141916042Y-105217576D01*
X141916042Y-105217576D02*
X141975565Y-105277100D01*
X141975565Y-105277100D02*
X142094613Y-105336623D01*
X142094613Y-105336623D02*
X142570803Y-105336623D01*
X142570803Y-105336623D02*
X142570803Y-104086623D01*
X142570803Y-104086623D02*
X142154137Y-104086623D01*
X142154137Y-104086623D02*
X142035089Y-104146147D01*
X142035089Y-104146147D02*
X141975565Y-104205671D01*
X141975565Y-104205671D02*
X141916042Y-104324719D01*
X141916042Y-104324719D02*
X141916042Y-104443766D01*
X141916042Y-104443766D02*
X141975565Y-104562814D01*
X141975565Y-104562814D02*
X142035089Y-104622338D01*
X142035089Y-104622338D02*
X142154137Y-104681861D01*
X142154137Y-104681861D02*
X142570803Y-104681861D01*
X141142232Y-105336623D02*
X141261280Y-105277100D01*
X141261280Y-105277100D02*
X141320803Y-105158052D01*
X141320803Y-105158052D02*
X141320803Y-104086623D01*
X140130327Y-105336623D02*
X140130327Y-104681861D01*
X140130327Y-104681861D02*
X140189851Y-104562814D01*
X140189851Y-104562814D02*
X140308899Y-104503290D01*
X140308899Y-104503290D02*
X140546994Y-104503290D01*
X140546994Y-104503290D02*
X140666041Y-104562814D01*
X140130327Y-105277100D02*
X140249375Y-105336623D01*
X140249375Y-105336623D02*
X140546994Y-105336623D01*
X140546994Y-105336623D02*
X140666041Y-105277100D01*
X140666041Y-105277100D02*
X140725565Y-105158052D01*
X140725565Y-105158052D02*
X140725565Y-105039004D01*
X140725565Y-105039004D02*
X140666041Y-104919957D01*
X140666041Y-104919957D02*
X140546994Y-104860433D01*
X140546994Y-104860433D02*
X140249375Y-104860433D01*
X140249375Y-104860433D02*
X140130327Y-104800909D01*
X139594613Y-105277100D02*
X139475566Y-105336623D01*
X139475566Y-105336623D02*
X139237470Y-105336623D01*
X139237470Y-105336623D02*
X139118423Y-105277100D01*
X139118423Y-105277100D02*
X139058899Y-105158052D01*
X139058899Y-105158052D02*
X139058899Y-105098528D01*
X139058899Y-105098528D02*
X139118423Y-104979480D01*
X139118423Y-104979480D02*
X139237470Y-104919957D01*
X139237470Y-104919957D02*
X139416042Y-104919957D01*
X139416042Y-104919957D02*
X139535089Y-104860433D01*
X139535089Y-104860433D02*
X139594613Y-104741385D01*
X139594613Y-104741385D02*
X139594613Y-104681861D01*
X139594613Y-104681861D02*
X139535089Y-104562814D01*
X139535089Y-104562814D02*
X139416042Y-104503290D01*
X139416042Y-104503290D02*
X139237470Y-104503290D01*
X139237470Y-104503290D02*
X139118423Y-104562814D01*
X138701756Y-104503290D02*
X138225565Y-104503290D01*
X138523184Y-104086623D02*
X138523184Y-105158052D01*
X138523184Y-105158052D02*
X138463661Y-105277100D01*
X138463661Y-105277100D02*
X138344613Y-105336623D01*
X138344613Y-105336623D02*
X138225565Y-105336623D01*
X137332708Y-105277100D02*
X137451756Y-105336623D01*
X137451756Y-105336623D02*
X137689851Y-105336623D01*
X137689851Y-105336623D02*
X137808898Y-105277100D01*
X137808898Y-105277100D02*
X137868422Y-105158052D01*
X137868422Y-105158052D02*
X137868422Y-104681861D01*
X137868422Y-104681861D02*
X137808898Y-104562814D01*
X137808898Y-104562814D02*
X137689851Y-104503290D01*
X137689851Y-104503290D02*
X137451756Y-104503290D01*
X137451756Y-104503290D02*
X137332708Y-104562814D01*
X137332708Y-104562814D02*
X137273184Y-104681861D01*
X137273184Y-104681861D02*
X137273184Y-104800909D01*
X137273184Y-104800909D02*
X137868422Y-104919957D01*
X136737469Y-105336623D02*
X136737469Y-104503290D01*
X136737469Y-104741385D02*
X136677946Y-104622338D01*
X136677946Y-104622338D02*
X136618422Y-104562814D01*
X136618422Y-104562814D02*
X136499374Y-104503290D01*
X136499374Y-104503290D02*
X136380327Y-104503290D01*
M02*
