M48
; DRILL file {KiCad 7.0.10} date Tue Jan  9 10:53:39 2024
; FORMAT={-:-/ absolute / inch / decimal}
; #@! TF.CreationDate,2024-01-09T10:53:39-06:00
; #@! TF.GenerationSoftware,Kicad,Pcbnew,7.0.10
; #@! TF.FileFunction,Plated,1,2,PTH
FMAT,2
INCH
; #@! TA.AperFunction,Plated,PTH,ViaDrill
T1C0.0157
; #@! TA.AperFunction,Plated,PTH,ComponentDrill
T2C0.0315
; #@! TA.AperFunction,Plated,PTH,ComponentDrill
T3C0.0354
; #@! TA.AperFunction,Plated,PTH,ComponentDrill
T4C0.0394
; #@! TA.AperFunction,Plated,PTH,ComponentDrill
T5C0.0433
%
G90
G05
T1
X4.6378Y-4.1417
X4.7953Y-4.1417
X5.2362Y-4.1102
X5.5433Y-4.1496
X5.5827Y-4.1102
X5.8425Y-4.1575
X5.8919Y-4.126
X6.0Y-3.9291
X6.0236Y-3.8484
X6.025Y-4.015
X6.1177Y-3.85
X6.1417Y-4.1575
X6.1969Y-4.1122
X6.2118Y-3.8496
X6.3059Y-3.8492
X6.3858Y-4.1122
X6.4Y-3.8488
X6.4409Y-4.1496
X6.5256Y-3.8786
X6.6109Y-3.88
X6.6962Y-3.8793
X6.7815Y-3.878
X6.937Y-4.1417
X7.1102Y-4.0394
X7.1969Y-4.0394
X7.3386Y-4.1417
X7.5669Y-4.1417
T2
X5.0413Y-3.8307
X5.0413Y-4.0079
X5.435Y-3.8307
X5.435Y-4.0079
X6.9094Y-4.0453
X7.3094Y-4.0453
T3
X7.4301Y-3.9075
X7.5301Y-3.9075
T4
X7.0571Y-3.8583
X7.1571Y-3.8583
T5
X4.6138Y-3.9173
X4.9138Y-3.9173
M30
