%TF.GenerationSoftware,KiCad,Pcbnew,7.0.7*%
%TF.CreationDate,2023-11-02T08:25:27-05:00*%
%TF.ProjectId,PCI_Blaster,5043495f-426c-4617-9374-65722e6b6963,rev?*%
%TF.SameCoordinates,Original*%
%TF.FileFunction,Legend,Bot*%
%TF.FilePolarity,Positive*%
%FSLAX46Y46*%
G04 Gerber Fmt 4.6, Leading zero omitted, Abs format (unit mm)*
G04 Created by KiCad (PCBNEW 7.0.7) date 2023-11-02 08:25:27*
%MOMM*%
%LPD*%
G01*
G04 APERTURE LIST*
%ADD10C,0.200000*%
%ADD11C,0.150000*%
%ADD12C,0.010000*%
G04 APERTURE END LIST*
D10*
X120349673Y-90102780D02*
X120349673Y-91102780D01*
X120349673Y-91102780D02*
X120730625Y-91102780D01*
X120730625Y-91102780D02*
X120825863Y-91055161D01*
X120825863Y-91055161D02*
X120873482Y-91007542D01*
X120873482Y-91007542D02*
X120921101Y-90912304D01*
X120921101Y-90912304D02*
X120921101Y-90769447D01*
X120921101Y-90769447D02*
X120873482Y-90674209D01*
X120873482Y-90674209D02*
X120825863Y-90626590D01*
X120825863Y-90626590D02*
X120730625Y-90578971D01*
X120730625Y-90578971D02*
X120349673Y-90578971D01*
X121349673Y-91102780D02*
X121349673Y-90293257D01*
X121349673Y-90293257D02*
X121397292Y-90198019D01*
X121397292Y-90198019D02*
X121444911Y-90150400D01*
X121444911Y-90150400D02*
X121540149Y-90102780D01*
X121540149Y-90102780D02*
X121730625Y-90102780D01*
X121730625Y-90102780D02*
X121825863Y-90150400D01*
X121825863Y-90150400D02*
X121873482Y-90198019D01*
X121873482Y-90198019D02*
X121921101Y-90293257D01*
X121921101Y-90293257D02*
X121921101Y-91102780D01*
X122873482Y-90102780D02*
X122397292Y-90102780D01*
X122397292Y-90102780D02*
X122397292Y-91102780D01*
X123683006Y-90102780D02*
X123206816Y-90102780D01*
X123206816Y-90102780D02*
X123206816Y-91102780D01*
X184359673Y-90102780D02*
X184359673Y-91102780D01*
X184359673Y-91102780D02*
X184740625Y-91102780D01*
X184740625Y-91102780D02*
X184835863Y-91055161D01*
X184835863Y-91055161D02*
X184883482Y-91007542D01*
X184883482Y-91007542D02*
X184931101Y-90912304D01*
X184931101Y-90912304D02*
X184931101Y-90769447D01*
X184931101Y-90769447D02*
X184883482Y-90674209D01*
X184883482Y-90674209D02*
X184835863Y-90626590D01*
X184835863Y-90626590D02*
X184740625Y-90578971D01*
X184740625Y-90578971D02*
X184359673Y-90578971D01*
X185359673Y-91102780D02*
X185359673Y-90293257D01*
X185359673Y-90293257D02*
X185407292Y-90198019D01*
X185407292Y-90198019D02*
X185454911Y-90150400D01*
X185454911Y-90150400D02*
X185550149Y-90102780D01*
X185550149Y-90102780D02*
X185740625Y-90102780D01*
X185740625Y-90102780D02*
X185835863Y-90150400D01*
X185835863Y-90150400D02*
X185883482Y-90198019D01*
X185883482Y-90198019D02*
X185931101Y-90293257D01*
X185931101Y-90293257D02*
X185931101Y-91102780D01*
X186883482Y-90102780D02*
X186407292Y-90102780D01*
X186407292Y-90102780D02*
X186407292Y-91102780D01*
X187693006Y-90102780D02*
X187216816Y-90102780D01*
X187216816Y-90102780D02*
X187216816Y-91102780D01*
D11*
X183738220Y-94909819D02*
X183738220Y-95719342D01*
X183738220Y-95719342D02*
X183690601Y-95814580D01*
X183690601Y-95814580D02*
X183642982Y-95862200D01*
X183642982Y-95862200D02*
X183547744Y-95909819D01*
X183547744Y-95909819D02*
X183357268Y-95909819D01*
X183357268Y-95909819D02*
X183262030Y-95862200D01*
X183262030Y-95862200D02*
X183214411Y-95814580D01*
X183214411Y-95814580D02*
X183166792Y-95719342D01*
X183166792Y-95719342D02*
X183166792Y-94909819D01*
X182690601Y-95243152D02*
X182690601Y-95909819D01*
X182690601Y-95338390D02*
X182642982Y-95290771D01*
X182642982Y-95290771D02*
X182547744Y-95243152D01*
X182547744Y-95243152D02*
X182404887Y-95243152D01*
X182404887Y-95243152D02*
X182309649Y-95290771D01*
X182309649Y-95290771D02*
X182262030Y-95386009D01*
X182262030Y-95386009D02*
X182262030Y-95909819D01*
X181357268Y-95909819D02*
X181357268Y-94909819D01*
X181357268Y-95862200D02*
X181452506Y-95909819D01*
X181452506Y-95909819D02*
X181642982Y-95909819D01*
X181642982Y-95909819D02*
X181738220Y-95862200D01*
X181738220Y-95862200D02*
X181785839Y-95814580D01*
X181785839Y-95814580D02*
X181833458Y-95719342D01*
X181833458Y-95719342D02*
X181833458Y-95433628D01*
X181833458Y-95433628D02*
X181785839Y-95338390D01*
X181785839Y-95338390D02*
X181738220Y-95290771D01*
X181738220Y-95290771D02*
X181642982Y-95243152D01*
X181642982Y-95243152D02*
X181452506Y-95243152D01*
X181452506Y-95243152D02*
X181357268Y-95290771D01*
X180500125Y-95862200D02*
X180595363Y-95909819D01*
X180595363Y-95909819D02*
X180785839Y-95909819D01*
X180785839Y-95909819D02*
X180881077Y-95862200D01*
X180881077Y-95862200D02*
X180928696Y-95766961D01*
X180928696Y-95766961D02*
X180928696Y-95386009D01*
X180928696Y-95386009D02*
X180881077Y-95290771D01*
X180881077Y-95290771D02*
X180785839Y-95243152D01*
X180785839Y-95243152D02*
X180595363Y-95243152D01*
X180595363Y-95243152D02*
X180500125Y-95290771D01*
X180500125Y-95290771D02*
X180452506Y-95386009D01*
X180452506Y-95386009D02*
X180452506Y-95481247D01*
X180452506Y-95481247D02*
X180928696Y-95576485D01*
X180166791Y-95243152D02*
X179785839Y-95243152D01*
X180023934Y-95909819D02*
X180023934Y-95052676D01*
X180023934Y-95052676D02*
X179976315Y-94957438D01*
X179976315Y-94957438D02*
X179881077Y-94909819D01*
X179881077Y-94909819D02*
X179785839Y-94909819D01*
X179452505Y-95909819D02*
X179452505Y-95243152D01*
X179452505Y-94909819D02*
X179500124Y-94957438D01*
X179500124Y-94957438D02*
X179452505Y-95005057D01*
X179452505Y-95005057D02*
X179404886Y-94957438D01*
X179404886Y-94957438D02*
X179452505Y-94909819D01*
X179452505Y-94909819D02*
X179452505Y-95005057D01*
X178976315Y-95243152D02*
X178976315Y-95909819D01*
X178976315Y-95338390D02*
X178928696Y-95290771D01*
X178928696Y-95290771D02*
X178833458Y-95243152D01*
X178833458Y-95243152D02*
X178690601Y-95243152D01*
X178690601Y-95243152D02*
X178595363Y-95290771D01*
X178595363Y-95290771D02*
X178547744Y-95386009D01*
X178547744Y-95386009D02*
X178547744Y-95909819D01*
X177690601Y-95862200D02*
X177785839Y-95909819D01*
X177785839Y-95909819D02*
X177976315Y-95909819D01*
X177976315Y-95909819D02*
X178071553Y-95862200D01*
X178071553Y-95862200D02*
X178119172Y-95766961D01*
X178119172Y-95766961D02*
X178119172Y-95386009D01*
X178119172Y-95386009D02*
X178071553Y-95290771D01*
X178071553Y-95290771D02*
X177976315Y-95243152D01*
X177976315Y-95243152D02*
X177785839Y-95243152D01*
X177785839Y-95243152D02*
X177690601Y-95290771D01*
X177690601Y-95290771D02*
X177642982Y-95386009D01*
X177642982Y-95386009D02*
X177642982Y-95481247D01*
X177642982Y-95481247D02*
X178119172Y-95576485D01*
X176785839Y-95909819D02*
X176785839Y-94909819D01*
X176785839Y-95862200D02*
X176881077Y-95909819D01*
X176881077Y-95909819D02*
X177071553Y-95909819D01*
X177071553Y-95909819D02*
X177166791Y-95862200D01*
X177166791Y-95862200D02*
X177214410Y-95814580D01*
X177214410Y-95814580D02*
X177262029Y-95719342D01*
X177262029Y-95719342D02*
X177262029Y-95433628D01*
X177262029Y-95433628D02*
X177214410Y-95338390D01*
X177214410Y-95338390D02*
X177166791Y-95290771D01*
X177166791Y-95290771D02*
X177071553Y-95243152D01*
X177071553Y-95243152D02*
X176881077Y-95243152D01*
X176881077Y-95243152D02*
X176785839Y-95290771D01*
X175595362Y-95862200D02*
X175452505Y-95909819D01*
X175452505Y-95909819D02*
X175214410Y-95909819D01*
X175214410Y-95909819D02*
X175119172Y-95862200D01*
X175119172Y-95862200D02*
X175071553Y-95814580D01*
X175071553Y-95814580D02*
X175023934Y-95719342D01*
X175023934Y-95719342D02*
X175023934Y-95624104D01*
X175023934Y-95624104D02*
X175071553Y-95528866D01*
X175071553Y-95528866D02*
X175119172Y-95481247D01*
X175119172Y-95481247D02*
X175214410Y-95433628D01*
X175214410Y-95433628D02*
X175404886Y-95386009D01*
X175404886Y-95386009D02*
X175500124Y-95338390D01*
X175500124Y-95338390D02*
X175547743Y-95290771D01*
X175547743Y-95290771D02*
X175595362Y-95195533D01*
X175595362Y-95195533D02*
X175595362Y-95100295D01*
X175595362Y-95100295D02*
X175547743Y-95005057D01*
X175547743Y-95005057D02*
X175500124Y-94957438D01*
X175500124Y-94957438D02*
X175404886Y-94909819D01*
X175404886Y-94909819D02*
X175166791Y-94909819D01*
X175166791Y-94909819D02*
X175023934Y-94957438D01*
X174690600Y-95243152D02*
X174452505Y-95909819D01*
X174214410Y-95243152D02*
X174452505Y-95909819D01*
X174452505Y-95909819D02*
X174547743Y-96147914D01*
X174547743Y-96147914D02*
X174595362Y-96195533D01*
X174595362Y-96195533D02*
X174690600Y-96243152D01*
X173881076Y-95862200D02*
X173785838Y-95909819D01*
X173785838Y-95909819D02*
X173595362Y-95909819D01*
X173595362Y-95909819D02*
X173500124Y-95862200D01*
X173500124Y-95862200D02*
X173452505Y-95766961D01*
X173452505Y-95766961D02*
X173452505Y-95719342D01*
X173452505Y-95719342D02*
X173500124Y-95624104D01*
X173500124Y-95624104D02*
X173595362Y-95576485D01*
X173595362Y-95576485D02*
X173738219Y-95576485D01*
X173738219Y-95576485D02*
X173833457Y-95528866D01*
X173833457Y-95528866D02*
X173881076Y-95433628D01*
X173881076Y-95433628D02*
X173881076Y-95386009D01*
X173881076Y-95386009D02*
X173833457Y-95290771D01*
X173833457Y-95290771D02*
X173738219Y-95243152D01*
X173738219Y-95243152D02*
X173595362Y-95243152D01*
X173595362Y-95243152D02*
X173500124Y-95290771D01*
X173166790Y-95243152D02*
X172785838Y-95243152D01*
X173023933Y-94909819D02*
X173023933Y-95766961D01*
X173023933Y-95766961D02*
X172976314Y-95862200D01*
X172976314Y-95862200D02*
X172881076Y-95909819D01*
X172881076Y-95909819D02*
X172785838Y-95909819D01*
X172071552Y-95862200D02*
X172166790Y-95909819D01*
X172166790Y-95909819D02*
X172357266Y-95909819D01*
X172357266Y-95909819D02*
X172452504Y-95862200D01*
X172452504Y-95862200D02*
X172500123Y-95766961D01*
X172500123Y-95766961D02*
X172500123Y-95386009D01*
X172500123Y-95386009D02*
X172452504Y-95290771D01*
X172452504Y-95290771D02*
X172357266Y-95243152D01*
X172357266Y-95243152D02*
X172166790Y-95243152D01*
X172166790Y-95243152D02*
X172071552Y-95290771D01*
X172071552Y-95290771D02*
X172023933Y-95386009D01*
X172023933Y-95386009D02*
X172023933Y-95481247D01*
X172023933Y-95481247D02*
X172500123Y-95576485D01*
X171595361Y-95909819D02*
X171595361Y-95243152D01*
X171595361Y-95338390D02*
X171547742Y-95290771D01*
X171547742Y-95290771D02*
X171452504Y-95243152D01*
X171452504Y-95243152D02*
X171309647Y-95243152D01*
X171309647Y-95243152D02*
X171214409Y-95290771D01*
X171214409Y-95290771D02*
X171166790Y-95386009D01*
X171166790Y-95386009D02*
X171166790Y-95909819D01*
X171166790Y-95386009D02*
X171119171Y-95290771D01*
X171119171Y-95290771D02*
X171023933Y-95243152D01*
X171023933Y-95243152D02*
X170881076Y-95243152D01*
X170881076Y-95243152D02*
X170785837Y-95290771D01*
X170785837Y-95290771D02*
X170738218Y-95386009D01*
X170738218Y-95386009D02*
X170738218Y-95909819D01*
X170309647Y-95862200D02*
X170214409Y-95909819D01*
X170214409Y-95909819D02*
X170023933Y-95909819D01*
X170023933Y-95909819D02*
X169928695Y-95862200D01*
X169928695Y-95862200D02*
X169881076Y-95766961D01*
X169881076Y-95766961D02*
X169881076Y-95719342D01*
X169881076Y-95719342D02*
X169928695Y-95624104D01*
X169928695Y-95624104D02*
X170023933Y-95576485D01*
X170023933Y-95576485D02*
X170166790Y-95576485D01*
X170166790Y-95576485D02*
X170262028Y-95528866D01*
X170262028Y-95528866D02*
X170309647Y-95433628D01*
X170309647Y-95433628D02*
X170309647Y-95386009D01*
X170309647Y-95386009D02*
X170262028Y-95290771D01*
X170262028Y-95290771D02*
X170166790Y-95243152D01*
X170166790Y-95243152D02*
X170023933Y-95243152D01*
X170023933Y-95243152D02*
X169928695Y-95290771D01*
X169404885Y-95862200D02*
X169404885Y-95909819D01*
X169404885Y-95909819D02*
X169452504Y-96005057D01*
X169452504Y-96005057D02*
X169500123Y-96052676D01*
X167738219Y-95909819D02*
X168214409Y-95909819D01*
X168214409Y-95909819D02*
X168214409Y-94909819D01*
X166928695Y-95909819D02*
X167404885Y-95909819D01*
X167404885Y-95909819D02*
X167404885Y-94909819D01*
X166023933Y-95814580D02*
X166071552Y-95862200D01*
X166071552Y-95862200D02*
X166214409Y-95909819D01*
X166214409Y-95909819D02*
X166309647Y-95909819D01*
X166309647Y-95909819D02*
X166452504Y-95862200D01*
X166452504Y-95862200D02*
X166547742Y-95766961D01*
X166547742Y-95766961D02*
X166595361Y-95671723D01*
X166595361Y-95671723D02*
X166642980Y-95481247D01*
X166642980Y-95481247D02*
X166642980Y-95338390D01*
X166642980Y-95338390D02*
X166595361Y-95147914D01*
X166595361Y-95147914D02*
X166547742Y-95052676D01*
X166547742Y-95052676D02*
X166452504Y-94957438D01*
X166452504Y-94957438D02*
X166309647Y-94909819D01*
X166309647Y-94909819D02*
X166214409Y-94909819D01*
X166214409Y-94909819D02*
X166071552Y-94957438D01*
X166071552Y-94957438D02*
X166023933Y-95005057D01*
X164833456Y-95909819D02*
X164833456Y-94909819D01*
X164833456Y-94909819D02*
X164595361Y-94909819D01*
X164595361Y-94909819D02*
X164452504Y-94957438D01*
X164452504Y-94957438D02*
X164357266Y-95052676D01*
X164357266Y-95052676D02*
X164309647Y-95147914D01*
X164309647Y-95147914D02*
X164262028Y-95338390D01*
X164262028Y-95338390D02*
X164262028Y-95481247D01*
X164262028Y-95481247D02*
X164309647Y-95671723D01*
X164309647Y-95671723D02*
X164357266Y-95766961D01*
X164357266Y-95766961D02*
X164452504Y-95862200D01*
X164452504Y-95862200D02*
X164595361Y-95909819D01*
X164595361Y-95909819D02*
X164833456Y-95909819D01*
X163500123Y-95386009D02*
X163357266Y-95433628D01*
X163357266Y-95433628D02*
X163309647Y-95481247D01*
X163309647Y-95481247D02*
X163262028Y-95576485D01*
X163262028Y-95576485D02*
X163262028Y-95719342D01*
X163262028Y-95719342D02*
X163309647Y-95814580D01*
X163309647Y-95814580D02*
X163357266Y-95862200D01*
X163357266Y-95862200D02*
X163452504Y-95909819D01*
X163452504Y-95909819D02*
X163833456Y-95909819D01*
X163833456Y-95909819D02*
X163833456Y-94909819D01*
X163833456Y-94909819D02*
X163500123Y-94909819D01*
X163500123Y-94909819D02*
X163404885Y-94957438D01*
X163404885Y-94957438D02*
X163357266Y-95005057D01*
X163357266Y-95005057D02*
X163309647Y-95100295D01*
X163309647Y-95100295D02*
X163309647Y-95195533D01*
X163309647Y-95195533D02*
X163357266Y-95290771D01*
X163357266Y-95290771D02*
X163404885Y-95338390D01*
X163404885Y-95338390D02*
X163500123Y-95386009D01*
X163500123Y-95386009D02*
X163833456Y-95386009D01*
X162881075Y-95624104D02*
X162404885Y-95624104D01*
X162976313Y-95909819D02*
X162642980Y-94909819D01*
X162642980Y-94909819D02*
X162309647Y-95909819D01*
X161214408Y-95909819D02*
X161214408Y-94909819D01*
X161214408Y-94909819D02*
X160833456Y-94909819D01*
X160833456Y-94909819D02*
X160738218Y-94957438D01*
X160738218Y-94957438D02*
X160690599Y-95005057D01*
X160690599Y-95005057D02*
X160642980Y-95100295D01*
X160642980Y-95100295D02*
X160642980Y-95243152D01*
X160642980Y-95243152D02*
X160690599Y-95338390D01*
X160690599Y-95338390D02*
X160738218Y-95386009D01*
X160738218Y-95386009D02*
X160833456Y-95433628D01*
X160833456Y-95433628D02*
X161214408Y-95433628D01*
X159642980Y-95814580D02*
X159690599Y-95862200D01*
X159690599Y-95862200D02*
X159833456Y-95909819D01*
X159833456Y-95909819D02*
X159928694Y-95909819D01*
X159928694Y-95909819D02*
X160071551Y-95862200D01*
X160071551Y-95862200D02*
X160166789Y-95766961D01*
X160166789Y-95766961D02*
X160214408Y-95671723D01*
X160214408Y-95671723D02*
X160262027Y-95481247D01*
X160262027Y-95481247D02*
X160262027Y-95338390D01*
X160262027Y-95338390D02*
X160214408Y-95147914D01*
X160214408Y-95147914D02*
X160166789Y-95052676D01*
X160166789Y-95052676D02*
X160071551Y-94957438D01*
X160071551Y-94957438D02*
X159928694Y-94909819D01*
X159928694Y-94909819D02*
X159833456Y-94909819D01*
X159833456Y-94909819D02*
X159690599Y-94957438D01*
X159690599Y-94957438D02*
X159642980Y-95005057D01*
X159214408Y-95528866D02*
X158452504Y-95528866D01*
X157404885Y-95909819D02*
X157738218Y-95433628D01*
X157976313Y-95909819D02*
X157976313Y-94909819D01*
X157976313Y-94909819D02*
X157595361Y-94909819D01*
X157595361Y-94909819D02*
X157500123Y-94957438D01*
X157500123Y-94957438D02*
X157452504Y-95005057D01*
X157452504Y-95005057D02*
X157404885Y-95100295D01*
X157404885Y-95100295D02*
X157404885Y-95243152D01*
X157404885Y-95243152D02*
X157452504Y-95338390D01*
X157452504Y-95338390D02*
X157500123Y-95386009D01*
X157500123Y-95386009D02*
X157595361Y-95433628D01*
X157595361Y-95433628D02*
X157976313Y-95433628D01*
X156595361Y-95862200D02*
X156690599Y-95909819D01*
X156690599Y-95909819D02*
X156881075Y-95909819D01*
X156881075Y-95909819D02*
X156976313Y-95862200D01*
X156976313Y-95862200D02*
X157023932Y-95766961D01*
X157023932Y-95766961D02*
X157023932Y-95386009D01*
X157023932Y-95386009D02*
X156976313Y-95290771D01*
X156976313Y-95290771D02*
X156881075Y-95243152D01*
X156881075Y-95243152D02*
X156690599Y-95243152D01*
X156690599Y-95243152D02*
X156595361Y-95290771D01*
X156595361Y-95290771D02*
X156547742Y-95386009D01*
X156547742Y-95386009D02*
X156547742Y-95481247D01*
X156547742Y-95481247D02*
X157023932Y-95576485D01*
X156166789Y-95862200D02*
X156071551Y-95909819D01*
X156071551Y-95909819D02*
X155881075Y-95909819D01*
X155881075Y-95909819D02*
X155785837Y-95862200D01*
X155785837Y-95862200D02*
X155738218Y-95766961D01*
X155738218Y-95766961D02*
X155738218Y-95719342D01*
X155738218Y-95719342D02*
X155785837Y-95624104D01*
X155785837Y-95624104D02*
X155881075Y-95576485D01*
X155881075Y-95576485D02*
X156023932Y-95576485D01*
X156023932Y-95576485D02*
X156119170Y-95528866D01*
X156119170Y-95528866D02*
X156166789Y-95433628D01*
X156166789Y-95433628D02*
X156166789Y-95386009D01*
X156166789Y-95386009D02*
X156119170Y-95290771D01*
X156119170Y-95290771D02*
X156023932Y-95243152D01*
X156023932Y-95243152D02*
X155881075Y-95243152D01*
X155881075Y-95243152D02*
X155785837Y-95290771D01*
X155452503Y-95243152D02*
X155071551Y-95243152D01*
X155309646Y-94909819D02*
X155309646Y-95766961D01*
X155309646Y-95766961D02*
X155262027Y-95862200D01*
X155262027Y-95862200D02*
X155166789Y-95909819D01*
X155166789Y-95909819D02*
X155071551Y-95909819D01*
X154595360Y-95909819D02*
X154690598Y-95862200D01*
X154690598Y-95862200D02*
X154738217Y-95814580D01*
X154738217Y-95814580D02*
X154785836Y-95719342D01*
X154785836Y-95719342D02*
X154785836Y-95433628D01*
X154785836Y-95433628D02*
X154738217Y-95338390D01*
X154738217Y-95338390D02*
X154690598Y-95290771D01*
X154690598Y-95290771D02*
X154595360Y-95243152D01*
X154595360Y-95243152D02*
X154452503Y-95243152D01*
X154452503Y-95243152D02*
X154357265Y-95290771D01*
X154357265Y-95290771D02*
X154309646Y-95338390D01*
X154309646Y-95338390D02*
X154262027Y-95433628D01*
X154262027Y-95433628D02*
X154262027Y-95719342D01*
X154262027Y-95719342D02*
X154309646Y-95814580D01*
X154309646Y-95814580D02*
X154357265Y-95862200D01*
X154357265Y-95862200D02*
X154452503Y-95909819D01*
X154452503Y-95909819D02*
X154595360Y-95909819D01*
X153119170Y-94862200D02*
X153976312Y-96147914D01*
X152785836Y-95909819D02*
X152785836Y-94909819D01*
X152785836Y-94909819D02*
X152404884Y-94909819D01*
X152404884Y-94909819D02*
X152309646Y-94957438D01*
X152309646Y-94957438D02*
X152262027Y-95005057D01*
X152262027Y-95005057D02*
X152214408Y-95100295D01*
X152214408Y-95100295D02*
X152214408Y-95243152D01*
X152214408Y-95243152D02*
X152262027Y-95338390D01*
X152262027Y-95338390D02*
X152309646Y-95386009D01*
X152309646Y-95386009D02*
X152404884Y-95433628D01*
X152404884Y-95433628D02*
X152785836Y-95433628D01*
X151214408Y-95814580D02*
X151262027Y-95862200D01*
X151262027Y-95862200D02*
X151404884Y-95909819D01*
X151404884Y-95909819D02*
X151500122Y-95909819D01*
X151500122Y-95909819D02*
X151642979Y-95862200D01*
X151642979Y-95862200D02*
X151738217Y-95766961D01*
X151738217Y-95766961D02*
X151785836Y-95671723D01*
X151785836Y-95671723D02*
X151833455Y-95481247D01*
X151833455Y-95481247D02*
X151833455Y-95338390D01*
X151833455Y-95338390D02*
X151785836Y-95147914D01*
X151785836Y-95147914D02*
X151738217Y-95052676D01*
X151738217Y-95052676D02*
X151642979Y-94957438D01*
X151642979Y-94957438D02*
X151500122Y-94909819D01*
X151500122Y-94909819D02*
X151404884Y-94909819D01*
X151404884Y-94909819D02*
X151262027Y-94957438D01*
X151262027Y-94957438D02*
X151214408Y-95005057D01*
X150785836Y-95528866D02*
X150023932Y-95528866D01*
X148976313Y-95909819D02*
X149309646Y-95433628D01*
X149547741Y-95909819D02*
X149547741Y-94909819D01*
X149547741Y-94909819D02*
X149166789Y-94909819D01*
X149166789Y-94909819D02*
X149071551Y-94957438D01*
X149071551Y-94957438D02*
X149023932Y-95005057D01*
X149023932Y-95005057D02*
X148976313Y-95100295D01*
X148976313Y-95100295D02*
X148976313Y-95243152D01*
X148976313Y-95243152D02*
X149023932Y-95338390D01*
X149023932Y-95338390D02*
X149071551Y-95386009D01*
X149071551Y-95386009D02*
X149166789Y-95433628D01*
X149166789Y-95433628D02*
X149547741Y-95433628D01*
X148166789Y-95862200D02*
X148262027Y-95909819D01*
X148262027Y-95909819D02*
X148452503Y-95909819D01*
X148452503Y-95909819D02*
X148547741Y-95862200D01*
X148547741Y-95862200D02*
X148595360Y-95766961D01*
X148595360Y-95766961D02*
X148595360Y-95386009D01*
X148595360Y-95386009D02*
X148547741Y-95290771D01*
X148547741Y-95290771D02*
X148452503Y-95243152D01*
X148452503Y-95243152D02*
X148262027Y-95243152D01*
X148262027Y-95243152D02*
X148166789Y-95290771D01*
X148166789Y-95290771D02*
X148119170Y-95386009D01*
X148119170Y-95386009D02*
X148119170Y-95481247D01*
X148119170Y-95481247D02*
X148595360Y-95576485D01*
X147738217Y-95862200D02*
X147642979Y-95909819D01*
X147642979Y-95909819D02*
X147452503Y-95909819D01*
X147452503Y-95909819D02*
X147357265Y-95862200D01*
X147357265Y-95862200D02*
X147309646Y-95766961D01*
X147309646Y-95766961D02*
X147309646Y-95719342D01*
X147309646Y-95719342D02*
X147357265Y-95624104D01*
X147357265Y-95624104D02*
X147452503Y-95576485D01*
X147452503Y-95576485D02*
X147595360Y-95576485D01*
X147595360Y-95576485D02*
X147690598Y-95528866D01*
X147690598Y-95528866D02*
X147738217Y-95433628D01*
X147738217Y-95433628D02*
X147738217Y-95386009D01*
X147738217Y-95386009D02*
X147690598Y-95290771D01*
X147690598Y-95290771D02*
X147595360Y-95243152D01*
X147595360Y-95243152D02*
X147452503Y-95243152D01*
X147452503Y-95243152D02*
X147357265Y-95290771D01*
X147023931Y-95243152D02*
X146642979Y-95243152D01*
X146881074Y-94909819D02*
X146881074Y-95766961D01*
X146881074Y-95766961D02*
X146833455Y-95862200D01*
X146833455Y-95862200D02*
X146738217Y-95909819D01*
X146738217Y-95909819D02*
X146642979Y-95909819D01*
X146166788Y-95909819D02*
X146262026Y-95862200D01*
X146262026Y-95862200D02*
X146309645Y-95814580D01*
X146309645Y-95814580D02*
X146357264Y-95719342D01*
X146357264Y-95719342D02*
X146357264Y-95433628D01*
X146357264Y-95433628D02*
X146309645Y-95338390D01*
X146309645Y-95338390D02*
X146262026Y-95290771D01*
X146262026Y-95290771D02*
X146166788Y-95243152D01*
X146166788Y-95243152D02*
X146023931Y-95243152D01*
X146023931Y-95243152D02*
X145928693Y-95290771D01*
X145928693Y-95290771D02*
X145881074Y-95338390D01*
X145881074Y-95338390D02*
X145833455Y-95433628D01*
X145833455Y-95433628D02*
X145833455Y-95719342D01*
X145833455Y-95719342D02*
X145881074Y-95814580D01*
X145881074Y-95814580D02*
X145928693Y-95862200D01*
X145928693Y-95862200D02*
X146023931Y-95909819D01*
X146023931Y-95909819D02*
X146166788Y-95909819D01*
X145404883Y-95909819D02*
X145404883Y-95243152D01*
X145404883Y-95433628D02*
X145357264Y-95338390D01*
X145357264Y-95338390D02*
X145309645Y-95290771D01*
X145309645Y-95290771D02*
X145214407Y-95243152D01*
X145214407Y-95243152D02*
X145119169Y-95243152D01*
X144357264Y-95909819D02*
X144357264Y-95386009D01*
X144357264Y-95386009D02*
X144404883Y-95290771D01*
X144404883Y-95290771D02*
X144500121Y-95243152D01*
X144500121Y-95243152D02*
X144690597Y-95243152D01*
X144690597Y-95243152D02*
X144785835Y-95290771D01*
X144357264Y-95862200D02*
X144452502Y-95909819D01*
X144452502Y-95909819D02*
X144690597Y-95909819D01*
X144690597Y-95909819D02*
X144785835Y-95862200D01*
X144785835Y-95862200D02*
X144833454Y-95766961D01*
X144833454Y-95766961D02*
X144833454Y-95671723D01*
X144833454Y-95671723D02*
X144785835Y-95576485D01*
X144785835Y-95576485D02*
X144690597Y-95528866D01*
X144690597Y-95528866D02*
X144452502Y-95528866D01*
X144452502Y-95528866D02*
X144357264Y-95481247D01*
X144023930Y-95243152D02*
X143642978Y-95243152D01*
X143881073Y-94909819D02*
X143881073Y-95766961D01*
X143881073Y-95766961D02*
X143833454Y-95862200D01*
X143833454Y-95862200D02*
X143738216Y-95909819D01*
X143738216Y-95909819D02*
X143642978Y-95909819D01*
X143309644Y-95909819D02*
X143309644Y-95243152D01*
X143309644Y-94909819D02*
X143357263Y-94957438D01*
X143357263Y-94957438D02*
X143309644Y-95005057D01*
X143309644Y-95005057D02*
X143262025Y-94957438D01*
X143262025Y-94957438D02*
X143309644Y-94909819D01*
X143309644Y-94909819D02*
X143309644Y-95005057D01*
X142690597Y-95909819D02*
X142785835Y-95862200D01*
X142785835Y-95862200D02*
X142833454Y-95814580D01*
X142833454Y-95814580D02*
X142881073Y-95719342D01*
X142881073Y-95719342D02*
X142881073Y-95433628D01*
X142881073Y-95433628D02*
X142833454Y-95338390D01*
X142833454Y-95338390D02*
X142785835Y-95290771D01*
X142785835Y-95290771D02*
X142690597Y-95243152D01*
X142690597Y-95243152D02*
X142547740Y-95243152D01*
X142547740Y-95243152D02*
X142452502Y-95290771D01*
X142452502Y-95290771D02*
X142404883Y-95338390D01*
X142404883Y-95338390D02*
X142357264Y-95433628D01*
X142357264Y-95433628D02*
X142357264Y-95719342D01*
X142357264Y-95719342D02*
X142404883Y-95814580D01*
X142404883Y-95814580D02*
X142452502Y-95862200D01*
X142452502Y-95862200D02*
X142547740Y-95909819D01*
X142547740Y-95909819D02*
X142690597Y-95909819D01*
X141928692Y-95243152D02*
X141928692Y-95909819D01*
X141928692Y-95338390D02*
X141881073Y-95290771D01*
X141881073Y-95290771D02*
X141785835Y-95243152D01*
X141785835Y-95243152D02*
X141642978Y-95243152D01*
X141642978Y-95243152D02*
X141547740Y-95290771D01*
X141547740Y-95290771D02*
X141500121Y-95386009D01*
X141500121Y-95386009D02*
X141500121Y-95909819D01*
X183357268Y-97472200D02*
X183452506Y-97519819D01*
X183452506Y-97519819D02*
X183642982Y-97519819D01*
X183642982Y-97519819D02*
X183738220Y-97472200D01*
X183738220Y-97472200D02*
X183785839Y-97376961D01*
X183785839Y-97376961D02*
X183785839Y-96996009D01*
X183785839Y-96996009D02*
X183738220Y-96900771D01*
X183738220Y-96900771D02*
X183642982Y-96853152D01*
X183642982Y-96853152D02*
X183452506Y-96853152D01*
X183452506Y-96853152D02*
X183357268Y-96900771D01*
X183357268Y-96900771D02*
X183309649Y-96996009D01*
X183309649Y-96996009D02*
X183309649Y-97091247D01*
X183309649Y-97091247D02*
X183785839Y-97186485D01*
X182881077Y-97519819D02*
X182881077Y-96519819D01*
X182881077Y-96900771D02*
X182785839Y-96853152D01*
X182785839Y-96853152D02*
X182595363Y-96853152D01*
X182595363Y-96853152D02*
X182500125Y-96900771D01*
X182500125Y-96900771D02*
X182452506Y-96948390D01*
X182452506Y-96948390D02*
X182404887Y-97043628D01*
X182404887Y-97043628D02*
X182404887Y-97329342D01*
X182404887Y-97329342D02*
X182452506Y-97424580D01*
X182452506Y-97424580D02*
X182500125Y-97472200D01*
X182500125Y-97472200D02*
X182595363Y-97519819D01*
X182595363Y-97519819D02*
X182785839Y-97519819D01*
X182785839Y-97519819D02*
X182881077Y-97472200D01*
X181547744Y-97519819D02*
X181547744Y-96996009D01*
X181547744Y-96996009D02*
X181595363Y-96900771D01*
X181595363Y-96900771D02*
X181690601Y-96853152D01*
X181690601Y-96853152D02*
X181881077Y-96853152D01*
X181881077Y-96853152D02*
X181976315Y-96900771D01*
X181547744Y-97472200D02*
X181642982Y-97519819D01*
X181642982Y-97519819D02*
X181881077Y-97519819D01*
X181881077Y-97519819D02*
X181976315Y-97472200D01*
X181976315Y-97472200D02*
X182023934Y-97376961D01*
X182023934Y-97376961D02*
X182023934Y-97281723D01*
X182023934Y-97281723D02*
X181976315Y-97186485D01*
X181976315Y-97186485D02*
X181881077Y-97138866D01*
X181881077Y-97138866D02*
X181642982Y-97138866D01*
X181642982Y-97138866D02*
X181547744Y-97091247D01*
X181166791Y-96853152D02*
X180928696Y-97519819D01*
X180690601Y-96853152D02*
X180928696Y-97519819D01*
X180928696Y-97519819D02*
X181023934Y-97757914D01*
X181023934Y-97757914D02*
X181071553Y-97805533D01*
X181071553Y-97805533D02*
X181166791Y-97853152D01*
X180309648Y-97424580D02*
X180262029Y-97472200D01*
X180262029Y-97472200D02*
X180309648Y-97519819D01*
X180309648Y-97519819D02*
X180357267Y-97472200D01*
X180357267Y-97472200D02*
X180309648Y-97424580D01*
X180309648Y-97424580D02*
X180309648Y-97519819D01*
X179404887Y-97472200D02*
X179500125Y-97519819D01*
X179500125Y-97519819D02*
X179690601Y-97519819D01*
X179690601Y-97519819D02*
X179785839Y-97472200D01*
X179785839Y-97472200D02*
X179833458Y-97424580D01*
X179833458Y-97424580D02*
X179881077Y-97329342D01*
X179881077Y-97329342D02*
X179881077Y-97043628D01*
X179881077Y-97043628D02*
X179833458Y-96948390D01*
X179833458Y-96948390D02*
X179785839Y-96900771D01*
X179785839Y-96900771D02*
X179690601Y-96853152D01*
X179690601Y-96853152D02*
X179500125Y-96853152D01*
X179500125Y-96853152D02*
X179404887Y-96900771D01*
X178833458Y-97519819D02*
X178928696Y-97472200D01*
X178928696Y-97472200D02*
X178976315Y-97424580D01*
X178976315Y-97424580D02*
X179023934Y-97329342D01*
X179023934Y-97329342D02*
X179023934Y-97043628D01*
X179023934Y-97043628D02*
X178976315Y-96948390D01*
X178976315Y-96948390D02*
X178928696Y-96900771D01*
X178928696Y-96900771D02*
X178833458Y-96853152D01*
X178833458Y-96853152D02*
X178690601Y-96853152D01*
X178690601Y-96853152D02*
X178595363Y-96900771D01*
X178595363Y-96900771D02*
X178547744Y-96948390D01*
X178547744Y-96948390D02*
X178500125Y-97043628D01*
X178500125Y-97043628D02*
X178500125Y-97329342D01*
X178500125Y-97329342D02*
X178547744Y-97424580D01*
X178547744Y-97424580D02*
X178595363Y-97472200D01*
X178595363Y-97472200D02*
X178690601Y-97519819D01*
X178690601Y-97519819D02*
X178833458Y-97519819D01*
X178071553Y-97519819D02*
X178071553Y-96853152D01*
X178071553Y-96948390D02*
X178023934Y-96900771D01*
X178023934Y-96900771D02*
X177928696Y-96853152D01*
X177928696Y-96853152D02*
X177785839Y-96853152D01*
X177785839Y-96853152D02*
X177690601Y-96900771D01*
X177690601Y-96900771D02*
X177642982Y-96996009D01*
X177642982Y-96996009D02*
X177642982Y-97519819D01*
X177642982Y-96996009D02*
X177595363Y-96900771D01*
X177595363Y-96900771D02*
X177500125Y-96853152D01*
X177500125Y-96853152D02*
X177357268Y-96853152D01*
X177357268Y-96853152D02*
X177262029Y-96900771D01*
X177262029Y-96900771D02*
X177214410Y-96996009D01*
X177214410Y-96996009D02*
X177214410Y-97519819D01*
X176023935Y-96472200D02*
X176881077Y-97757914D01*
X175738220Y-97472200D02*
X175642982Y-97519819D01*
X175642982Y-97519819D02*
X175452506Y-97519819D01*
X175452506Y-97519819D02*
X175357268Y-97472200D01*
X175357268Y-97472200D02*
X175309649Y-97376961D01*
X175309649Y-97376961D02*
X175309649Y-97329342D01*
X175309649Y-97329342D02*
X175357268Y-97234104D01*
X175357268Y-97234104D02*
X175452506Y-97186485D01*
X175452506Y-97186485D02*
X175595363Y-97186485D01*
X175595363Y-97186485D02*
X175690601Y-97138866D01*
X175690601Y-97138866D02*
X175738220Y-97043628D01*
X175738220Y-97043628D02*
X175738220Y-96996009D01*
X175738220Y-96996009D02*
X175690601Y-96900771D01*
X175690601Y-96900771D02*
X175595363Y-96853152D01*
X175595363Y-96853152D02*
X175452506Y-96853152D01*
X175452506Y-96853152D02*
X175357268Y-96900771D01*
X175023934Y-96853152D02*
X174642982Y-96853152D01*
X174881077Y-96519819D02*
X174881077Y-97376961D01*
X174881077Y-97376961D02*
X174833458Y-97472200D01*
X174833458Y-97472200D02*
X174738220Y-97519819D01*
X174738220Y-97519819D02*
X174642982Y-97519819D01*
X174309648Y-97519819D02*
X174309648Y-96853152D01*
X174309648Y-97043628D02*
X174262029Y-96948390D01*
X174262029Y-96948390D02*
X174214410Y-96900771D01*
X174214410Y-96900771D02*
X174119172Y-96853152D01*
X174119172Y-96853152D02*
X174023934Y-96853152D01*
X172976315Y-96472200D02*
X173833457Y-97757914D01*
X172642981Y-96853152D02*
X172642981Y-97853152D01*
X172642981Y-96900771D02*
X172547743Y-96853152D01*
X172547743Y-96853152D02*
X172357267Y-96853152D01*
X172357267Y-96853152D02*
X172262029Y-96900771D01*
X172262029Y-96900771D02*
X172214410Y-96948390D01*
X172214410Y-96948390D02*
X172166791Y-97043628D01*
X172166791Y-97043628D02*
X172166791Y-97329342D01*
X172166791Y-97329342D02*
X172214410Y-97424580D01*
X172214410Y-97424580D02*
X172262029Y-97472200D01*
X172262029Y-97472200D02*
X172357267Y-97519819D01*
X172357267Y-97519819D02*
X172547743Y-97519819D01*
X172547743Y-97519819D02*
X172642981Y-97472200D01*
X171309648Y-97472200D02*
X171404886Y-97519819D01*
X171404886Y-97519819D02*
X171595362Y-97519819D01*
X171595362Y-97519819D02*
X171690600Y-97472200D01*
X171690600Y-97472200D02*
X171738219Y-97424580D01*
X171738219Y-97424580D02*
X171785838Y-97329342D01*
X171785838Y-97329342D02*
X171785838Y-97043628D01*
X171785838Y-97043628D02*
X171738219Y-96948390D01*
X171738219Y-96948390D02*
X171690600Y-96900771D01*
X171690600Y-96900771D02*
X171595362Y-96853152D01*
X171595362Y-96853152D02*
X171404886Y-96853152D01*
X171404886Y-96853152D02*
X171309648Y-96900771D01*
X170881076Y-97519819D02*
X170881076Y-96853152D01*
X170881076Y-97043628D02*
X170833457Y-96948390D01*
X170833457Y-96948390D02*
X170785838Y-96900771D01*
X170785838Y-96900771D02*
X170690600Y-96853152D01*
X170690600Y-96853152D02*
X170595362Y-96853152D01*
X169881076Y-97472200D02*
X169976314Y-97519819D01*
X169976314Y-97519819D02*
X170166790Y-97519819D01*
X170166790Y-97519819D02*
X170262028Y-97472200D01*
X170262028Y-97472200D02*
X170309647Y-97376961D01*
X170309647Y-97376961D02*
X170309647Y-96996009D01*
X170309647Y-96996009D02*
X170262028Y-96900771D01*
X170262028Y-96900771D02*
X170166790Y-96853152D01*
X170166790Y-96853152D02*
X169976314Y-96853152D01*
X169976314Y-96853152D02*
X169881076Y-96900771D01*
X169881076Y-96900771D02*
X169833457Y-96996009D01*
X169833457Y-96996009D02*
X169833457Y-97091247D01*
X169833457Y-97091247D02*
X170309647Y-97186485D01*
X169452504Y-97472200D02*
X169357266Y-97519819D01*
X169357266Y-97519819D02*
X169166790Y-97519819D01*
X169166790Y-97519819D02*
X169071552Y-97472200D01*
X169071552Y-97472200D02*
X169023933Y-97376961D01*
X169023933Y-97376961D02*
X169023933Y-97329342D01*
X169023933Y-97329342D02*
X169071552Y-97234104D01*
X169071552Y-97234104D02*
X169166790Y-97186485D01*
X169166790Y-97186485D02*
X169309647Y-97186485D01*
X169309647Y-97186485D02*
X169404885Y-97138866D01*
X169404885Y-97138866D02*
X169452504Y-97043628D01*
X169452504Y-97043628D02*
X169452504Y-96996009D01*
X169452504Y-96996009D02*
X169404885Y-96900771D01*
X169404885Y-96900771D02*
X169309647Y-96853152D01*
X169309647Y-96853152D02*
X169166790Y-96853152D01*
X169166790Y-96853152D02*
X169071552Y-96900771D01*
X168738218Y-96853152D02*
X168357266Y-96853152D01*
X168595361Y-96519819D02*
X168595361Y-97376961D01*
X168595361Y-97376961D02*
X168547742Y-97472200D01*
X168547742Y-97472200D02*
X168452504Y-97519819D01*
X168452504Y-97519819D02*
X168357266Y-97519819D01*
X167881075Y-97519819D02*
X167976313Y-97472200D01*
X167976313Y-97472200D02*
X168023932Y-97424580D01*
X168023932Y-97424580D02*
X168071551Y-97329342D01*
X168071551Y-97329342D02*
X168071551Y-97043628D01*
X168071551Y-97043628D02*
X168023932Y-96948390D01*
X168023932Y-96948390D02*
X167976313Y-96900771D01*
X167976313Y-96900771D02*
X167881075Y-96853152D01*
X167881075Y-96853152D02*
X167738218Y-96853152D01*
X167738218Y-96853152D02*
X167642980Y-96900771D01*
X167642980Y-96900771D02*
X167595361Y-96948390D01*
X167595361Y-96948390D02*
X167547742Y-97043628D01*
X167547742Y-97043628D02*
X167547742Y-97329342D01*
X167547742Y-97329342D02*
X167595361Y-97424580D01*
X167595361Y-97424580D02*
X167642980Y-97472200D01*
X167642980Y-97472200D02*
X167738218Y-97519819D01*
X167738218Y-97519819D02*
X167881075Y-97519819D01*
X167119170Y-97519819D02*
X167119170Y-96853152D01*
X167119170Y-97043628D02*
X167071551Y-96948390D01*
X167071551Y-96948390D02*
X167023932Y-96900771D01*
X167023932Y-96900771D02*
X166928694Y-96853152D01*
X166928694Y-96853152D02*
X166833456Y-96853152D01*
X166071551Y-97519819D02*
X166071551Y-96996009D01*
X166071551Y-96996009D02*
X166119170Y-96900771D01*
X166119170Y-96900771D02*
X166214408Y-96853152D01*
X166214408Y-96853152D02*
X166404884Y-96853152D01*
X166404884Y-96853152D02*
X166500122Y-96900771D01*
X166071551Y-97472200D02*
X166166789Y-97519819D01*
X166166789Y-97519819D02*
X166404884Y-97519819D01*
X166404884Y-97519819D02*
X166500122Y-97472200D01*
X166500122Y-97472200D02*
X166547741Y-97376961D01*
X166547741Y-97376961D02*
X166547741Y-97281723D01*
X166547741Y-97281723D02*
X166500122Y-97186485D01*
X166500122Y-97186485D02*
X166404884Y-97138866D01*
X166404884Y-97138866D02*
X166166789Y-97138866D01*
X166166789Y-97138866D02*
X166071551Y-97091247D01*
X165738217Y-96853152D02*
X165357265Y-96853152D01*
X165595360Y-96519819D02*
X165595360Y-97376961D01*
X165595360Y-97376961D02*
X165547741Y-97472200D01*
X165547741Y-97472200D02*
X165452503Y-97519819D01*
X165452503Y-97519819D02*
X165357265Y-97519819D01*
X165023931Y-97519819D02*
X165023931Y-96853152D01*
X165023931Y-96519819D02*
X165071550Y-96567438D01*
X165071550Y-96567438D02*
X165023931Y-96615057D01*
X165023931Y-96615057D02*
X164976312Y-96567438D01*
X164976312Y-96567438D02*
X165023931Y-96519819D01*
X165023931Y-96519819D02*
X165023931Y-96615057D01*
X164404884Y-97519819D02*
X164500122Y-97472200D01*
X164500122Y-97472200D02*
X164547741Y-97424580D01*
X164547741Y-97424580D02*
X164595360Y-97329342D01*
X164595360Y-97329342D02*
X164595360Y-97043628D01*
X164595360Y-97043628D02*
X164547741Y-96948390D01*
X164547741Y-96948390D02*
X164500122Y-96900771D01*
X164500122Y-96900771D02*
X164404884Y-96853152D01*
X164404884Y-96853152D02*
X164262027Y-96853152D01*
X164262027Y-96853152D02*
X164166789Y-96900771D01*
X164166789Y-96900771D02*
X164119170Y-96948390D01*
X164119170Y-96948390D02*
X164071551Y-97043628D01*
X164071551Y-97043628D02*
X164071551Y-97329342D01*
X164071551Y-97329342D02*
X164119170Y-97424580D01*
X164119170Y-97424580D02*
X164166789Y-97472200D01*
X164166789Y-97472200D02*
X164262027Y-97519819D01*
X164262027Y-97519819D02*
X164404884Y-97519819D01*
X163642979Y-96853152D02*
X163642979Y-97519819D01*
X163642979Y-96948390D02*
X163595360Y-96900771D01*
X163595360Y-96900771D02*
X163500122Y-96853152D01*
X163500122Y-96853152D02*
X163357265Y-96853152D01*
X163357265Y-96853152D02*
X163262027Y-96900771D01*
X163262027Y-96900771D02*
X163214408Y-96996009D01*
X163214408Y-96996009D02*
X163214408Y-97519819D01*
D10*
X178745802Y-100486623D02*
X178745802Y-99236623D01*
X178745802Y-99236623D02*
X178269612Y-99236623D01*
X178269612Y-99236623D02*
X178150564Y-99296147D01*
X178150564Y-99296147D02*
X178091041Y-99355671D01*
X178091041Y-99355671D02*
X178031517Y-99474719D01*
X178031517Y-99474719D02*
X178031517Y-99653290D01*
X178031517Y-99653290D02*
X178091041Y-99772338D01*
X178091041Y-99772338D02*
X178150564Y-99831861D01*
X178150564Y-99831861D02*
X178269612Y-99891385D01*
X178269612Y-99891385D02*
X178745802Y-99891385D01*
X176781517Y-100367576D02*
X176841041Y-100427100D01*
X176841041Y-100427100D02*
X177019612Y-100486623D01*
X177019612Y-100486623D02*
X177138660Y-100486623D01*
X177138660Y-100486623D02*
X177317231Y-100427100D01*
X177317231Y-100427100D02*
X177436279Y-100308052D01*
X177436279Y-100308052D02*
X177495802Y-100189004D01*
X177495802Y-100189004D02*
X177555326Y-99950909D01*
X177555326Y-99950909D02*
X177555326Y-99772338D01*
X177555326Y-99772338D02*
X177495802Y-99534242D01*
X177495802Y-99534242D02*
X177436279Y-99415195D01*
X177436279Y-99415195D02*
X177317231Y-99296147D01*
X177317231Y-99296147D02*
X177138660Y-99236623D01*
X177138660Y-99236623D02*
X177019612Y-99236623D01*
X177019612Y-99236623D02*
X176841041Y-99296147D01*
X176841041Y-99296147D02*
X176781517Y-99355671D01*
X176245802Y-100486623D02*
X176245802Y-99236623D01*
X174876755Y-99236623D02*
X174460088Y-100486623D01*
X174460088Y-100486623D02*
X174043422Y-99236623D01*
X173448183Y-100486623D02*
X173567231Y-100427100D01*
X173567231Y-100427100D02*
X173626754Y-100367576D01*
X173626754Y-100367576D02*
X173686278Y-100248528D01*
X173686278Y-100248528D02*
X173686278Y-99891385D01*
X173686278Y-99891385D02*
X173626754Y-99772338D01*
X173626754Y-99772338D02*
X173567231Y-99712814D01*
X173567231Y-99712814D02*
X173448183Y-99653290D01*
X173448183Y-99653290D02*
X173269612Y-99653290D01*
X173269612Y-99653290D02*
X173150564Y-99712814D01*
X173150564Y-99712814D02*
X173091040Y-99772338D01*
X173091040Y-99772338D02*
X173031516Y-99891385D01*
X173031516Y-99891385D02*
X173031516Y-100248528D01*
X173031516Y-100248528D02*
X173091040Y-100367576D01*
X173091040Y-100367576D02*
X173150564Y-100427100D01*
X173150564Y-100427100D02*
X173269612Y-100486623D01*
X173269612Y-100486623D02*
X173448183Y-100486623D01*
X172317231Y-100486623D02*
X172436279Y-100427100D01*
X172436279Y-100427100D02*
X172495802Y-100308052D01*
X172495802Y-100308052D02*
X172495802Y-99236623D01*
X172019612Y-99653290D02*
X171543421Y-99653290D01*
X171841040Y-99236623D02*
X171841040Y-100308052D01*
X171841040Y-100308052D02*
X171781517Y-100427100D01*
X171781517Y-100427100D02*
X171662469Y-100486623D01*
X171662469Y-100486623D02*
X171543421Y-100486623D01*
X170591040Y-100486623D02*
X170591040Y-99831861D01*
X170591040Y-99831861D02*
X170650564Y-99712814D01*
X170650564Y-99712814D02*
X170769612Y-99653290D01*
X170769612Y-99653290D02*
X171007707Y-99653290D01*
X171007707Y-99653290D02*
X171126754Y-99712814D01*
X170591040Y-100427100D02*
X170710088Y-100486623D01*
X170710088Y-100486623D02*
X171007707Y-100486623D01*
X171007707Y-100486623D02*
X171126754Y-100427100D01*
X171126754Y-100427100D02*
X171186278Y-100308052D01*
X171186278Y-100308052D02*
X171186278Y-100189004D01*
X171186278Y-100189004D02*
X171126754Y-100069957D01*
X171126754Y-100069957D02*
X171007707Y-100010433D01*
X171007707Y-100010433D02*
X170710088Y-100010433D01*
X170710088Y-100010433D02*
X170591040Y-99950909D01*
X169460088Y-99653290D02*
X169460088Y-100665195D01*
X169460088Y-100665195D02*
X169519612Y-100784242D01*
X169519612Y-100784242D02*
X169579136Y-100843766D01*
X169579136Y-100843766D02*
X169698183Y-100903290D01*
X169698183Y-100903290D02*
X169876755Y-100903290D01*
X169876755Y-100903290D02*
X169995802Y-100843766D01*
X169460088Y-100427100D02*
X169579136Y-100486623D01*
X169579136Y-100486623D02*
X169817231Y-100486623D01*
X169817231Y-100486623D02*
X169936279Y-100427100D01*
X169936279Y-100427100D02*
X169995802Y-100367576D01*
X169995802Y-100367576D02*
X170055326Y-100248528D01*
X170055326Y-100248528D02*
X170055326Y-99891385D01*
X170055326Y-99891385D02*
X169995802Y-99772338D01*
X169995802Y-99772338D02*
X169936279Y-99712814D01*
X169936279Y-99712814D02*
X169817231Y-99653290D01*
X169817231Y-99653290D02*
X169579136Y-99653290D01*
X169579136Y-99653290D02*
X169460088Y-99712814D01*
X168388660Y-100427100D02*
X168507708Y-100486623D01*
X168507708Y-100486623D02*
X168745803Y-100486623D01*
X168745803Y-100486623D02*
X168864850Y-100427100D01*
X168864850Y-100427100D02*
X168924374Y-100308052D01*
X168924374Y-100308052D02*
X168924374Y-99831861D01*
X168924374Y-99831861D02*
X168864850Y-99712814D01*
X168864850Y-99712814D02*
X168745803Y-99653290D01*
X168745803Y-99653290D02*
X168507708Y-99653290D01*
X168507708Y-99653290D02*
X168388660Y-99712814D01*
X168388660Y-99712814D02*
X168329136Y-99831861D01*
X168329136Y-99831861D02*
X168329136Y-99950909D01*
X168329136Y-99950909D02*
X168924374Y-100069957D01*
X166424374Y-99831861D02*
X166245802Y-99891385D01*
X166245802Y-99891385D02*
X166186279Y-99950909D01*
X166186279Y-99950909D02*
X166126755Y-100069957D01*
X166126755Y-100069957D02*
X166126755Y-100248528D01*
X166126755Y-100248528D02*
X166186279Y-100367576D01*
X166186279Y-100367576D02*
X166245802Y-100427100D01*
X166245802Y-100427100D02*
X166364850Y-100486623D01*
X166364850Y-100486623D02*
X166841040Y-100486623D01*
X166841040Y-100486623D02*
X166841040Y-99236623D01*
X166841040Y-99236623D02*
X166424374Y-99236623D01*
X166424374Y-99236623D02*
X166305326Y-99296147D01*
X166305326Y-99296147D02*
X166245802Y-99355671D01*
X166245802Y-99355671D02*
X166186279Y-99474719D01*
X166186279Y-99474719D02*
X166186279Y-99593766D01*
X166186279Y-99593766D02*
X166245802Y-99712814D01*
X166245802Y-99712814D02*
X166305326Y-99772338D01*
X166305326Y-99772338D02*
X166424374Y-99831861D01*
X166424374Y-99831861D02*
X166841040Y-99831861D01*
X165412469Y-100486623D02*
X165531517Y-100427100D01*
X165531517Y-100427100D02*
X165591040Y-100308052D01*
X165591040Y-100308052D02*
X165591040Y-99236623D01*
X164400564Y-100486623D02*
X164400564Y-99831861D01*
X164400564Y-99831861D02*
X164460088Y-99712814D01*
X164460088Y-99712814D02*
X164579136Y-99653290D01*
X164579136Y-99653290D02*
X164817231Y-99653290D01*
X164817231Y-99653290D02*
X164936278Y-99712814D01*
X164400564Y-100427100D02*
X164519612Y-100486623D01*
X164519612Y-100486623D02*
X164817231Y-100486623D01*
X164817231Y-100486623D02*
X164936278Y-100427100D01*
X164936278Y-100427100D02*
X164995802Y-100308052D01*
X164995802Y-100308052D02*
X164995802Y-100189004D01*
X164995802Y-100189004D02*
X164936278Y-100069957D01*
X164936278Y-100069957D02*
X164817231Y-100010433D01*
X164817231Y-100010433D02*
X164519612Y-100010433D01*
X164519612Y-100010433D02*
X164400564Y-99950909D01*
X163864850Y-100427100D02*
X163745803Y-100486623D01*
X163745803Y-100486623D02*
X163507707Y-100486623D01*
X163507707Y-100486623D02*
X163388660Y-100427100D01*
X163388660Y-100427100D02*
X163329136Y-100308052D01*
X163329136Y-100308052D02*
X163329136Y-100248528D01*
X163329136Y-100248528D02*
X163388660Y-100129480D01*
X163388660Y-100129480D02*
X163507707Y-100069957D01*
X163507707Y-100069957D02*
X163686279Y-100069957D01*
X163686279Y-100069957D02*
X163805326Y-100010433D01*
X163805326Y-100010433D02*
X163864850Y-99891385D01*
X163864850Y-99891385D02*
X163864850Y-99831861D01*
X163864850Y-99831861D02*
X163805326Y-99712814D01*
X163805326Y-99712814D02*
X163686279Y-99653290D01*
X163686279Y-99653290D02*
X163507707Y-99653290D01*
X163507707Y-99653290D02*
X163388660Y-99712814D01*
X162971993Y-99653290D02*
X162495802Y-99653290D01*
X162793421Y-99236623D02*
X162793421Y-100308052D01*
X162793421Y-100308052D02*
X162733898Y-100427100D01*
X162733898Y-100427100D02*
X162614850Y-100486623D01*
X162614850Y-100486623D02*
X162495802Y-100486623D01*
X161602945Y-100427100D02*
X161721993Y-100486623D01*
X161721993Y-100486623D02*
X161960088Y-100486623D01*
X161960088Y-100486623D02*
X162079135Y-100427100D01*
X162079135Y-100427100D02*
X162138659Y-100308052D01*
X162138659Y-100308052D02*
X162138659Y-99831861D01*
X162138659Y-99831861D02*
X162079135Y-99712814D01*
X162079135Y-99712814D02*
X161960088Y-99653290D01*
X161960088Y-99653290D02*
X161721993Y-99653290D01*
X161721993Y-99653290D02*
X161602945Y-99712814D01*
X161602945Y-99712814D02*
X161543421Y-99831861D01*
X161543421Y-99831861D02*
X161543421Y-99950909D01*
X161543421Y-99950909D02*
X162138659Y-100069957D01*
X161007706Y-100486623D02*
X161007706Y-99653290D01*
X161007706Y-99891385D02*
X160948183Y-99772338D01*
X160948183Y-99772338D02*
X160888659Y-99712814D01*
X160888659Y-99712814D02*
X160769611Y-99653290D01*
X160769611Y-99653290D02*
X160650564Y-99653290D01*
X178745802Y-102499123D02*
X178745802Y-101249123D01*
X178745802Y-101249123D02*
X178269612Y-101249123D01*
X178269612Y-101249123D02*
X178150564Y-101308647D01*
X178150564Y-101308647D02*
X178091041Y-101368171D01*
X178091041Y-101368171D02*
X178031517Y-101487219D01*
X178031517Y-101487219D02*
X178031517Y-101665790D01*
X178031517Y-101665790D02*
X178091041Y-101784838D01*
X178091041Y-101784838D02*
X178150564Y-101844361D01*
X178150564Y-101844361D02*
X178269612Y-101903885D01*
X178269612Y-101903885D02*
X178745802Y-101903885D01*
X177495802Y-102499123D02*
X177495802Y-101665790D01*
X177495802Y-101903885D02*
X177436279Y-101784838D01*
X177436279Y-101784838D02*
X177376755Y-101725314D01*
X177376755Y-101725314D02*
X177257707Y-101665790D01*
X177257707Y-101665790D02*
X177138660Y-101665790D01*
X176543421Y-102499123D02*
X176662469Y-102439600D01*
X176662469Y-102439600D02*
X176721992Y-102380076D01*
X176721992Y-102380076D02*
X176781516Y-102261028D01*
X176781516Y-102261028D02*
X176781516Y-101903885D01*
X176781516Y-101903885D02*
X176721992Y-101784838D01*
X176721992Y-101784838D02*
X176662469Y-101725314D01*
X176662469Y-101725314D02*
X176543421Y-101665790D01*
X176543421Y-101665790D02*
X176364850Y-101665790D01*
X176364850Y-101665790D02*
X176245802Y-101725314D01*
X176245802Y-101725314D02*
X176186278Y-101784838D01*
X176186278Y-101784838D02*
X176126754Y-101903885D01*
X176126754Y-101903885D02*
X176126754Y-102261028D01*
X176126754Y-102261028D02*
X176186278Y-102380076D01*
X176186278Y-102380076D02*
X176245802Y-102439600D01*
X176245802Y-102439600D02*
X176364850Y-102499123D01*
X176364850Y-102499123D02*
X176543421Y-102499123D01*
X175710088Y-101665790D02*
X175412469Y-102499123D01*
X175412469Y-102499123D02*
X175114850Y-101665790D01*
X174638659Y-102499123D02*
X174638659Y-101665790D01*
X174638659Y-101249123D02*
X174698183Y-101308647D01*
X174698183Y-101308647D02*
X174638659Y-101368171D01*
X174638659Y-101368171D02*
X174579136Y-101308647D01*
X174579136Y-101308647D02*
X174638659Y-101249123D01*
X174638659Y-101249123D02*
X174638659Y-101368171D01*
X173507707Y-102499123D02*
X173507707Y-101249123D01*
X173507707Y-102439600D02*
X173626755Y-102499123D01*
X173626755Y-102499123D02*
X173864850Y-102499123D01*
X173864850Y-102499123D02*
X173983898Y-102439600D01*
X173983898Y-102439600D02*
X174043421Y-102380076D01*
X174043421Y-102380076D02*
X174102945Y-102261028D01*
X174102945Y-102261028D02*
X174102945Y-101903885D01*
X174102945Y-101903885D02*
X174043421Y-101784838D01*
X174043421Y-101784838D02*
X173983898Y-101725314D01*
X173983898Y-101725314D02*
X173864850Y-101665790D01*
X173864850Y-101665790D02*
X173626755Y-101665790D01*
X173626755Y-101665790D02*
X173507707Y-101725314D01*
X172436279Y-102439600D02*
X172555327Y-102499123D01*
X172555327Y-102499123D02*
X172793422Y-102499123D01*
X172793422Y-102499123D02*
X172912469Y-102439600D01*
X172912469Y-102439600D02*
X172971993Y-102320552D01*
X172971993Y-102320552D02*
X172971993Y-101844361D01*
X172971993Y-101844361D02*
X172912469Y-101725314D01*
X172912469Y-101725314D02*
X172793422Y-101665790D01*
X172793422Y-101665790D02*
X172555327Y-101665790D01*
X172555327Y-101665790D02*
X172436279Y-101725314D01*
X172436279Y-101725314D02*
X172376755Y-101844361D01*
X172376755Y-101844361D02*
X172376755Y-101963409D01*
X172376755Y-101963409D02*
X172971993Y-102082457D01*
X171900564Y-102439600D02*
X171781517Y-102499123D01*
X171781517Y-102499123D02*
X171543421Y-102499123D01*
X171543421Y-102499123D02*
X171424374Y-102439600D01*
X171424374Y-102439600D02*
X171364850Y-102320552D01*
X171364850Y-102320552D02*
X171364850Y-102261028D01*
X171364850Y-102261028D02*
X171424374Y-102141980D01*
X171424374Y-102141980D02*
X171543421Y-102082457D01*
X171543421Y-102082457D02*
X171721993Y-102082457D01*
X171721993Y-102082457D02*
X171841040Y-102022933D01*
X171841040Y-102022933D02*
X171900564Y-101903885D01*
X171900564Y-101903885D02*
X171900564Y-101844361D01*
X171900564Y-101844361D02*
X171841040Y-101725314D01*
X171841040Y-101725314D02*
X171721993Y-101665790D01*
X171721993Y-101665790D02*
X171543421Y-101665790D01*
X171543421Y-101665790D02*
X171424374Y-101725314D01*
X169995802Y-101249123D02*
X169221993Y-101249123D01*
X169221993Y-101249123D02*
X169638659Y-101725314D01*
X169638659Y-101725314D02*
X169460088Y-101725314D01*
X169460088Y-101725314D02*
X169341040Y-101784838D01*
X169341040Y-101784838D02*
X169281516Y-101844361D01*
X169281516Y-101844361D02*
X169221993Y-101963409D01*
X169221993Y-101963409D02*
X169221993Y-102261028D01*
X169221993Y-102261028D02*
X169281516Y-102380076D01*
X169281516Y-102380076D02*
X169341040Y-102439600D01*
X169341040Y-102439600D02*
X169460088Y-102499123D01*
X169460088Y-102499123D02*
X169817231Y-102499123D01*
X169817231Y-102499123D02*
X169936278Y-102439600D01*
X169936278Y-102439600D02*
X169995802Y-102380076D01*
X168686278Y-102380076D02*
X168626755Y-102439600D01*
X168626755Y-102439600D02*
X168686278Y-102499123D01*
X168686278Y-102499123D02*
X168745802Y-102439600D01*
X168745802Y-102439600D02*
X168686278Y-102380076D01*
X168686278Y-102380076D02*
X168686278Y-102499123D01*
X168210088Y-101249123D02*
X167436279Y-101249123D01*
X167436279Y-101249123D02*
X167852945Y-101725314D01*
X167852945Y-101725314D02*
X167674374Y-101725314D01*
X167674374Y-101725314D02*
X167555326Y-101784838D01*
X167555326Y-101784838D02*
X167495802Y-101844361D01*
X167495802Y-101844361D02*
X167436279Y-101963409D01*
X167436279Y-101963409D02*
X167436279Y-102261028D01*
X167436279Y-102261028D02*
X167495802Y-102380076D01*
X167495802Y-102380076D02*
X167555326Y-102439600D01*
X167555326Y-102439600D02*
X167674374Y-102499123D01*
X167674374Y-102499123D02*
X168031517Y-102499123D01*
X168031517Y-102499123D02*
X168150564Y-102439600D01*
X168150564Y-102439600D02*
X168210088Y-102380076D01*
X167079136Y-101249123D02*
X166662469Y-102499123D01*
X166662469Y-102499123D02*
X166245803Y-101249123D01*
X165055326Y-101665790D02*
X164579135Y-101665790D01*
X164876754Y-102499123D02*
X164876754Y-101427695D01*
X164876754Y-101427695D02*
X164817231Y-101308647D01*
X164817231Y-101308647D02*
X164698183Y-101249123D01*
X164698183Y-101249123D02*
X164579135Y-101249123D01*
X163983897Y-102499123D02*
X164102945Y-102439600D01*
X164102945Y-102439600D02*
X164162468Y-102380076D01*
X164162468Y-102380076D02*
X164221992Y-102261028D01*
X164221992Y-102261028D02*
X164221992Y-101903885D01*
X164221992Y-101903885D02*
X164162468Y-101784838D01*
X164162468Y-101784838D02*
X164102945Y-101725314D01*
X164102945Y-101725314D02*
X163983897Y-101665790D01*
X163983897Y-101665790D02*
X163805326Y-101665790D01*
X163805326Y-101665790D02*
X163686278Y-101725314D01*
X163686278Y-101725314D02*
X163626754Y-101784838D01*
X163626754Y-101784838D02*
X163567230Y-101903885D01*
X163567230Y-101903885D02*
X163567230Y-102261028D01*
X163567230Y-102261028D02*
X163626754Y-102380076D01*
X163626754Y-102380076D02*
X163686278Y-102439600D01*
X163686278Y-102439600D02*
X163805326Y-102499123D01*
X163805326Y-102499123D02*
X163983897Y-102499123D01*
X163031516Y-102499123D02*
X163031516Y-101665790D01*
X163031516Y-101903885D02*
X162971993Y-101784838D01*
X162971993Y-101784838D02*
X162912469Y-101725314D01*
X162912469Y-101725314D02*
X162793421Y-101665790D01*
X162793421Y-101665790D02*
X162674374Y-101665790D01*
X160710087Y-101249123D02*
X161305325Y-101249123D01*
X161305325Y-101249123D02*
X161364849Y-101844361D01*
X161364849Y-101844361D02*
X161305325Y-101784838D01*
X161305325Y-101784838D02*
X161186278Y-101725314D01*
X161186278Y-101725314D02*
X160888659Y-101725314D01*
X160888659Y-101725314D02*
X160769611Y-101784838D01*
X160769611Y-101784838D02*
X160710087Y-101844361D01*
X160710087Y-101844361D02*
X160650564Y-101963409D01*
X160650564Y-101963409D02*
X160650564Y-102261028D01*
X160650564Y-102261028D02*
X160710087Y-102380076D01*
X160710087Y-102380076D02*
X160769611Y-102439600D01*
X160769611Y-102439600D02*
X160888659Y-102499123D01*
X160888659Y-102499123D02*
X161186278Y-102499123D01*
X161186278Y-102499123D02*
X161305325Y-102439600D01*
X161305325Y-102439600D02*
X161364849Y-102380076D01*
X160293421Y-101249123D02*
X159876754Y-102499123D01*
X159876754Y-102499123D02*
X159460088Y-101249123D01*
X158150563Y-102439600D02*
X158031516Y-102499123D01*
X158031516Y-102499123D02*
X157793420Y-102499123D01*
X157793420Y-102499123D02*
X157674373Y-102439600D01*
X157674373Y-102439600D02*
X157614849Y-102320552D01*
X157614849Y-102320552D02*
X157614849Y-102261028D01*
X157614849Y-102261028D02*
X157674373Y-102141980D01*
X157674373Y-102141980D02*
X157793420Y-102082457D01*
X157793420Y-102082457D02*
X157971992Y-102082457D01*
X157971992Y-102082457D02*
X158091039Y-102022933D01*
X158091039Y-102022933D02*
X158150563Y-101903885D01*
X158150563Y-101903885D02*
X158150563Y-101844361D01*
X158150563Y-101844361D02*
X158091039Y-101725314D01*
X158091039Y-101725314D02*
X157971992Y-101665790D01*
X157971992Y-101665790D02*
X157793420Y-101665790D01*
X157793420Y-101665790D02*
X157674373Y-101725314D01*
X156900563Y-102499123D02*
X157019611Y-102439600D01*
X157019611Y-102439600D02*
X157079134Y-102320552D01*
X157079134Y-102320552D02*
X157079134Y-101249123D01*
X156245801Y-102499123D02*
X156364849Y-102439600D01*
X156364849Y-102439600D02*
X156424372Y-102380076D01*
X156424372Y-102380076D02*
X156483896Y-102261028D01*
X156483896Y-102261028D02*
X156483896Y-101903885D01*
X156483896Y-101903885D02*
X156424372Y-101784838D01*
X156424372Y-101784838D02*
X156364849Y-101725314D01*
X156364849Y-101725314D02*
X156245801Y-101665790D01*
X156245801Y-101665790D02*
X156067230Y-101665790D01*
X156067230Y-101665790D02*
X155948182Y-101725314D01*
X155948182Y-101725314D02*
X155888658Y-101784838D01*
X155888658Y-101784838D02*
X155829134Y-101903885D01*
X155829134Y-101903885D02*
X155829134Y-102261028D01*
X155829134Y-102261028D02*
X155888658Y-102380076D01*
X155888658Y-102380076D02*
X155948182Y-102439600D01*
X155948182Y-102439600D02*
X156067230Y-102499123D01*
X156067230Y-102499123D02*
X156245801Y-102499123D01*
X155471992Y-101665790D02*
X154995801Y-101665790D01*
X155293420Y-101249123D02*
X155293420Y-102320552D01*
X155293420Y-102320552D02*
X155233897Y-102439600D01*
X155233897Y-102439600D02*
X155114849Y-102499123D01*
X155114849Y-102499123D02*
X154995801Y-102499123D01*
X154638658Y-102439600D02*
X154519611Y-102499123D01*
X154519611Y-102499123D02*
X154281515Y-102499123D01*
X154281515Y-102499123D02*
X154162468Y-102439600D01*
X154162468Y-102439600D02*
X154102944Y-102320552D01*
X154102944Y-102320552D02*
X154102944Y-102261028D01*
X154102944Y-102261028D02*
X154162468Y-102141980D01*
X154162468Y-102141980D02*
X154281515Y-102082457D01*
X154281515Y-102082457D02*
X154460087Y-102082457D01*
X154460087Y-102082457D02*
X154579134Y-102022933D01*
X154579134Y-102022933D02*
X154638658Y-101903885D01*
X154638658Y-101903885D02*
X154638658Y-101844361D01*
X154638658Y-101844361D02*
X154579134Y-101725314D01*
X154579134Y-101725314D02*
X154460087Y-101665790D01*
X154460087Y-101665790D02*
X154281515Y-101665790D01*
X154281515Y-101665790D02*
X154162468Y-101725314D01*
X178210088Y-103678290D02*
X178210088Y-104690195D01*
X178210088Y-104690195D02*
X178269612Y-104809242D01*
X178269612Y-104809242D02*
X178329136Y-104868766D01*
X178329136Y-104868766D02*
X178448183Y-104928290D01*
X178448183Y-104928290D02*
X178626755Y-104928290D01*
X178626755Y-104928290D02*
X178745802Y-104868766D01*
X178210088Y-104452100D02*
X178329136Y-104511623D01*
X178329136Y-104511623D02*
X178567231Y-104511623D01*
X178567231Y-104511623D02*
X178686279Y-104452100D01*
X178686279Y-104452100D02*
X178745802Y-104392576D01*
X178745802Y-104392576D02*
X178805326Y-104273528D01*
X178805326Y-104273528D02*
X178805326Y-103916385D01*
X178805326Y-103916385D02*
X178745802Y-103797338D01*
X178745802Y-103797338D02*
X178686279Y-103737814D01*
X178686279Y-103737814D02*
X178567231Y-103678290D01*
X178567231Y-103678290D02*
X178329136Y-103678290D01*
X178329136Y-103678290D02*
X178210088Y-103737814D01*
X177614850Y-104511623D02*
X177614850Y-103678290D01*
X177614850Y-103261623D02*
X177674374Y-103321147D01*
X177674374Y-103321147D02*
X177614850Y-103380671D01*
X177614850Y-103380671D02*
X177555327Y-103321147D01*
X177555327Y-103321147D02*
X177614850Y-103261623D01*
X177614850Y-103261623D02*
X177614850Y-103380671D01*
X177198184Y-103678290D02*
X176721993Y-103678290D01*
X177019612Y-103261623D02*
X177019612Y-104333052D01*
X177019612Y-104333052D02*
X176960089Y-104452100D01*
X176960089Y-104452100D02*
X176841041Y-104511623D01*
X176841041Y-104511623D02*
X176721993Y-104511623D01*
X176305326Y-104511623D02*
X176305326Y-103261623D01*
X175769612Y-104511623D02*
X175769612Y-103856861D01*
X175769612Y-103856861D02*
X175829136Y-103737814D01*
X175829136Y-103737814D02*
X175948184Y-103678290D01*
X175948184Y-103678290D02*
X176126755Y-103678290D01*
X176126755Y-103678290D02*
X176245803Y-103737814D01*
X176245803Y-103737814D02*
X176305326Y-103797338D01*
X174638660Y-103678290D02*
X174638660Y-104511623D01*
X175174374Y-103678290D02*
X175174374Y-104333052D01*
X175174374Y-104333052D02*
X175114851Y-104452100D01*
X175114851Y-104452100D02*
X174995803Y-104511623D01*
X174995803Y-104511623D02*
X174817232Y-104511623D01*
X174817232Y-104511623D02*
X174698184Y-104452100D01*
X174698184Y-104452100D02*
X174638660Y-104392576D01*
X174043422Y-104511623D02*
X174043422Y-103261623D01*
X174043422Y-103737814D02*
X173924375Y-103678290D01*
X173924375Y-103678290D02*
X173686280Y-103678290D01*
X173686280Y-103678290D02*
X173567232Y-103737814D01*
X173567232Y-103737814D02*
X173507708Y-103797338D01*
X173507708Y-103797338D02*
X173448184Y-103916385D01*
X173448184Y-103916385D02*
X173448184Y-104273528D01*
X173448184Y-104273528D02*
X173507708Y-104392576D01*
X173507708Y-104392576D02*
X173567232Y-104452100D01*
X173567232Y-104452100D02*
X173686280Y-104511623D01*
X173686280Y-104511623D02*
X173924375Y-104511623D01*
X173924375Y-104511623D02*
X174043422Y-104452100D01*
X172912470Y-104392576D02*
X172852947Y-104452100D01*
X172852947Y-104452100D02*
X172912470Y-104511623D01*
X172912470Y-104511623D02*
X172971994Y-104452100D01*
X172971994Y-104452100D02*
X172912470Y-104392576D01*
X172912470Y-104392576D02*
X172912470Y-104511623D01*
X171781518Y-104452100D02*
X171900566Y-104511623D01*
X171900566Y-104511623D02*
X172138661Y-104511623D01*
X172138661Y-104511623D02*
X172257709Y-104452100D01*
X172257709Y-104452100D02*
X172317232Y-104392576D01*
X172317232Y-104392576D02*
X172376756Y-104273528D01*
X172376756Y-104273528D02*
X172376756Y-103916385D01*
X172376756Y-103916385D02*
X172317232Y-103797338D01*
X172317232Y-103797338D02*
X172257709Y-103737814D01*
X172257709Y-103737814D02*
X172138661Y-103678290D01*
X172138661Y-103678290D02*
X171900566Y-103678290D01*
X171900566Y-103678290D02*
X171781518Y-103737814D01*
X171067232Y-104511623D02*
X171186280Y-104452100D01*
X171186280Y-104452100D02*
X171245803Y-104392576D01*
X171245803Y-104392576D02*
X171305327Y-104273528D01*
X171305327Y-104273528D02*
X171305327Y-103916385D01*
X171305327Y-103916385D02*
X171245803Y-103797338D01*
X171245803Y-103797338D02*
X171186280Y-103737814D01*
X171186280Y-103737814D02*
X171067232Y-103678290D01*
X171067232Y-103678290D02*
X170888661Y-103678290D01*
X170888661Y-103678290D02*
X170769613Y-103737814D01*
X170769613Y-103737814D02*
X170710089Y-103797338D01*
X170710089Y-103797338D02*
X170650565Y-103916385D01*
X170650565Y-103916385D02*
X170650565Y-104273528D01*
X170650565Y-104273528D02*
X170710089Y-104392576D01*
X170710089Y-104392576D02*
X170769613Y-104452100D01*
X170769613Y-104452100D02*
X170888661Y-104511623D01*
X170888661Y-104511623D02*
X171067232Y-104511623D01*
X170114851Y-104511623D02*
X170114851Y-103678290D01*
X170114851Y-103797338D02*
X170055328Y-103737814D01*
X170055328Y-103737814D02*
X169936280Y-103678290D01*
X169936280Y-103678290D02*
X169757709Y-103678290D01*
X169757709Y-103678290D02*
X169638661Y-103737814D01*
X169638661Y-103737814D02*
X169579137Y-103856861D01*
X169579137Y-103856861D02*
X169579137Y-104511623D01*
X169579137Y-103856861D02*
X169519613Y-103737814D01*
X169519613Y-103737814D02*
X169400566Y-103678290D01*
X169400566Y-103678290D02*
X169221994Y-103678290D01*
X169221994Y-103678290D02*
X169102947Y-103737814D01*
X169102947Y-103737814D02*
X169043423Y-103856861D01*
X169043423Y-103856861D02*
X169043423Y-104511623D01*
X167555327Y-103202100D02*
X168626756Y-104809242D01*
X166602946Y-104452100D02*
X166721994Y-104511623D01*
X166721994Y-104511623D02*
X166960089Y-104511623D01*
X166960089Y-104511623D02*
X167079137Y-104452100D01*
X167079137Y-104452100D02*
X167138660Y-104392576D01*
X167138660Y-104392576D02*
X167198184Y-104273528D01*
X167198184Y-104273528D02*
X167198184Y-103916385D01*
X167198184Y-103916385D02*
X167138660Y-103797338D01*
X167138660Y-103797338D02*
X167079137Y-103737814D01*
X167079137Y-103737814D02*
X166960089Y-103678290D01*
X166960089Y-103678290D02*
X166721994Y-103678290D01*
X166721994Y-103678290D02*
X166602946Y-103737814D01*
X166067231Y-104511623D02*
X166067231Y-103261623D01*
X165531517Y-104511623D02*
X165531517Y-103856861D01*
X165531517Y-103856861D02*
X165591041Y-103737814D01*
X165591041Y-103737814D02*
X165710089Y-103678290D01*
X165710089Y-103678290D02*
X165888660Y-103678290D01*
X165888660Y-103678290D02*
X166007708Y-103737814D01*
X166007708Y-103737814D02*
X166067231Y-103797338D01*
X164400565Y-104511623D02*
X164400565Y-103856861D01*
X164400565Y-103856861D02*
X164460089Y-103737814D01*
X164460089Y-103737814D02*
X164579137Y-103678290D01*
X164579137Y-103678290D02*
X164817232Y-103678290D01*
X164817232Y-103678290D02*
X164936279Y-103737814D01*
X164400565Y-104452100D02*
X164519613Y-104511623D01*
X164519613Y-104511623D02*
X164817232Y-104511623D01*
X164817232Y-104511623D02*
X164936279Y-104452100D01*
X164936279Y-104452100D02*
X164995803Y-104333052D01*
X164995803Y-104333052D02*
X164995803Y-104214004D01*
X164995803Y-104214004D02*
X164936279Y-104094957D01*
X164936279Y-104094957D02*
X164817232Y-104035433D01*
X164817232Y-104035433D02*
X164519613Y-104035433D01*
X164519613Y-104035433D02*
X164400565Y-103975909D01*
X163269613Y-104511623D02*
X163269613Y-103261623D01*
X163269613Y-104452100D02*
X163388661Y-104511623D01*
X163388661Y-104511623D02*
X163626756Y-104511623D01*
X163626756Y-104511623D02*
X163745804Y-104452100D01*
X163745804Y-104452100D02*
X163805327Y-104392576D01*
X163805327Y-104392576D02*
X163864851Y-104273528D01*
X163864851Y-104273528D02*
X163864851Y-103916385D01*
X163864851Y-103916385D02*
X163805327Y-103797338D01*
X163805327Y-103797338D02*
X163745804Y-103737814D01*
X163745804Y-103737814D02*
X163626756Y-103678290D01*
X163626756Y-103678290D02*
X163388661Y-103678290D01*
X163388661Y-103678290D02*
X163269613Y-103737814D01*
X162674375Y-104511623D02*
X162674375Y-103678290D01*
X162674375Y-103916385D02*
X162614852Y-103797338D01*
X162614852Y-103797338D02*
X162555328Y-103737814D01*
X162555328Y-103737814D02*
X162436280Y-103678290D01*
X162436280Y-103678290D02*
X162317233Y-103678290D01*
X161007708Y-103202100D02*
X162079137Y-104809242D01*
X160591041Y-104511623D02*
X160591041Y-103261623D01*
X160591041Y-103261623D02*
X160114851Y-103261623D01*
X160114851Y-103261623D02*
X159995803Y-103321147D01*
X159995803Y-103321147D02*
X159936280Y-103380671D01*
X159936280Y-103380671D02*
X159876756Y-103499719D01*
X159876756Y-103499719D02*
X159876756Y-103678290D01*
X159876756Y-103678290D02*
X159936280Y-103797338D01*
X159936280Y-103797338D02*
X159995803Y-103856861D01*
X159995803Y-103856861D02*
X160114851Y-103916385D01*
X160114851Y-103916385D02*
X160591041Y-103916385D01*
X158626756Y-104392576D02*
X158686280Y-104452100D01*
X158686280Y-104452100D02*
X158864851Y-104511623D01*
X158864851Y-104511623D02*
X158983899Y-104511623D01*
X158983899Y-104511623D02*
X159162470Y-104452100D01*
X159162470Y-104452100D02*
X159281518Y-104333052D01*
X159281518Y-104333052D02*
X159341041Y-104214004D01*
X159341041Y-104214004D02*
X159400565Y-103975909D01*
X159400565Y-103975909D02*
X159400565Y-103797338D01*
X159400565Y-103797338D02*
X159341041Y-103559242D01*
X159341041Y-103559242D02*
X159281518Y-103440195D01*
X159281518Y-103440195D02*
X159162470Y-103321147D01*
X159162470Y-103321147D02*
X158983899Y-103261623D01*
X158983899Y-103261623D02*
X158864851Y-103261623D01*
X158864851Y-103261623D02*
X158686280Y-103321147D01*
X158686280Y-103321147D02*
X158626756Y-103380671D01*
X158091041Y-104511623D02*
X158091041Y-103261623D01*
X157495803Y-104035433D02*
X156543423Y-104035433D01*
X156126756Y-103261623D02*
X155710089Y-104511623D01*
X155710089Y-104511623D02*
X155293423Y-103261623D01*
X154698184Y-104511623D02*
X154817232Y-104452100D01*
X154817232Y-104452100D02*
X154876755Y-104392576D01*
X154876755Y-104392576D02*
X154936279Y-104273528D01*
X154936279Y-104273528D02*
X154936279Y-103916385D01*
X154936279Y-103916385D02*
X154876755Y-103797338D01*
X154876755Y-103797338D02*
X154817232Y-103737814D01*
X154817232Y-103737814D02*
X154698184Y-103678290D01*
X154698184Y-103678290D02*
X154519613Y-103678290D01*
X154519613Y-103678290D02*
X154400565Y-103737814D01*
X154400565Y-103737814D02*
X154341041Y-103797338D01*
X154341041Y-103797338D02*
X154281517Y-103916385D01*
X154281517Y-103916385D02*
X154281517Y-104273528D01*
X154281517Y-104273528D02*
X154341041Y-104392576D01*
X154341041Y-104392576D02*
X154400565Y-104452100D01*
X154400565Y-104452100D02*
X154519613Y-104511623D01*
X154519613Y-104511623D02*
X154698184Y-104511623D01*
X153567232Y-104511623D02*
X153686280Y-104452100D01*
X153686280Y-104452100D02*
X153745803Y-104333052D01*
X153745803Y-104333052D02*
X153745803Y-103261623D01*
X153269613Y-103678290D02*
X152793422Y-103678290D01*
X153091041Y-103261623D02*
X153091041Y-104333052D01*
X153091041Y-104333052D02*
X153031518Y-104452100D01*
X153031518Y-104452100D02*
X152912470Y-104511623D01*
X152912470Y-104511623D02*
X152793422Y-104511623D01*
X151841041Y-104511623D02*
X151841041Y-103856861D01*
X151841041Y-103856861D02*
X151900565Y-103737814D01*
X151900565Y-103737814D02*
X152019613Y-103678290D01*
X152019613Y-103678290D02*
X152257708Y-103678290D01*
X152257708Y-103678290D02*
X152376755Y-103737814D01*
X151841041Y-104452100D02*
X151960089Y-104511623D01*
X151960089Y-104511623D02*
X152257708Y-104511623D01*
X152257708Y-104511623D02*
X152376755Y-104452100D01*
X152376755Y-104452100D02*
X152436279Y-104333052D01*
X152436279Y-104333052D02*
X152436279Y-104214004D01*
X152436279Y-104214004D02*
X152376755Y-104094957D01*
X152376755Y-104094957D02*
X152257708Y-104035433D01*
X152257708Y-104035433D02*
X151960089Y-104035433D01*
X151960089Y-104035433D02*
X151841041Y-103975909D01*
X150710089Y-103678290D02*
X150710089Y-104690195D01*
X150710089Y-104690195D02*
X150769613Y-104809242D01*
X150769613Y-104809242D02*
X150829137Y-104868766D01*
X150829137Y-104868766D02*
X150948184Y-104928290D01*
X150948184Y-104928290D02*
X151126756Y-104928290D01*
X151126756Y-104928290D02*
X151245803Y-104868766D01*
X150710089Y-104452100D02*
X150829137Y-104511623D01*
X150829137Y-104511623D02*
X151067232Y-104511623D01*
X151067232Y-104511623D02*
X151186280Y-104452100D01*
X151186280Y-104452100D02*
X151245803Y-104392576D01*
X151245803Y-104392576D02*
X151305327Y-104273528D01*
X151305327Y-104273528D02*
X151305327Y-103916385D01*
X151305327Y-103916385D02*
X151245803Y-103797338D01*
X151245803Y-103797338D02*
X151186280Y-103737814D01*
X151186280Y-103737814D02*
X151067232Y-103678290D01*
X151067232Y-103678290D02*
X150829137Y-103678290D01*
X150829137Y-103678290D02*
X150710089Y-103737814D01*
X149638661Y-104452100D02*
X149757709Y-104511623D01*
X149757709Y-104511623D02*
X149995804Y-104511623D01*
X149995804Y-104511623D02*
X150114851Y-104452100D01*
X150114851Y-104452100D02*
X150174375Y-104333052D01*
X150174375Y-104333052D02*
X150174375Y-103856861D01*
X150174375Y-103856861D02*
X150114851Y-103737814D01*
X150114851Y-103737814D02*
X149995804Y-103678290D01*
X149995804Y-103678290D02*
X149757709Y-103678290D01*
X149757709Y-103678290D02*
X149638661Y-103737814D01*
X149638661Y-103737814D02*
X149579137Y-103856861D01*
X149579137Y-103856861D02*
X149579137Y-103975909D01*
X149579137Y-103975909D02*
X150174375Y-104094957D01*
X149043422Y-104035433D02*
X148091042Y-104035433D01*
X147079137Y-103856861D02*
X146900565Y-103916385D01*
X146900565Y-103916385D02*
X146841042Y-103975909D01*
X146841042Y-103975909D02*
X146781518Y-104094957D01*
X146781518Y-104094957D02*
X146781518Y-104273528D01*
X146781518Y-104273528D02*
X146841042Y-104392576D01*
X146841042Y-104392576D02*
X146900565Y-104452100D01*
X146900565Y-104452100D02*
X147019613Y-104511623D01*
X147019613Y-104511623D02*
X147495803Y-104511623D01*
X147495803Y-104511623D02*
X147495803Y-103261623D01*
X147495803Y-103261623D02*
X147079137Y-103261623D01*
X147079137Y-103261623D02*
X146960089Y-103321147D01*
X146960089Y-103321147D02*
X146900565Y-103380671D01*
X146900565Y-103380671D02*
X146841042Y-103499719D01*
X146841042Y-103499719D02*
X146841042Y-103618766D01*
X146841042Y-103618766D02*
X146900565Y-103737814D01*
X146900565Y-103737814D02*
X146960089Y-103797338D01*
X146960089Y-103797338D02*
X147079137Y-103856861D01*
X147079137Y-103856861D02*
X147495803Y-103856861D01*
X146067232Y-104511623D02*
X146186280Y-104452100D01*
X146186280Y-104452100D02*
X146245803Y-104333052D01*
X146245803Y-104333052D02*
X146245803Y-103261623D01*
X145055327Y-104511623D02*
X145055327Y-103856861D01*
X145055327Y-103856861D02*
X145114851Y-103737814D01*
X145114851Y-103737814D02*
X145233899Y-103678290D01*
X145233899Y-103678290D02*
X145471994Y-103678290D01*
X145471994Y-103678290D02*
X145591041Y-103737814D01*
X145055327Y-104452100D02*
X145174375Y-104511623D01*
X145174375Y-104511623D02*
X145471994Y-104511623D01*
X145471994Y-104511623D02*
X145591041Y-104452100D01*
X145591041Y-104452100D02*
X145650565Y-104333052D01*
X145650565Y-104333052D02*
X145650565Y-104214004D01*
X145650565Y-104214004D02*
X145591041Y-104094957D01*
X145591041Y-104094957D02*
X145471994Y-104035433D01*
X145471994Y-104035433D02*
X145174375Y-104035433D01*
X145174375Y-104035433D02*
X145055327Y-103975909D01*
X144519613Y-104452100D02*
X144400566Y-104511623D01*
X144400566Y-104511623D02*
X144162470Y-104511623D01*
X144162470Y-104511623D02*
X144043423Y-104452100D01*
X144043423Y-104452100D02*
X143983899Y-104333052D01*
X143983899Y-104333052D02*
X143983899Y-104273528D01*
X143983899Y-104273528D02*
X144043423Y-104154480D01*
X144043423Y-104154480D02*
X144162470Y-104094957D01*
X144162470Y-104094957D02*
X144341042Y-104094957D01*
X144341042Y-104094957D02*
X144460089Y-104035433D01*
X144460089Y-104035433D02*
X144519613Y-103916385D01*
X144519613Y-103916385D02*
X144519613Y-103856861D01*
X144519613Y-103856861D02*
X144460089Y-103737814D01*
X144460089Y-103737814D02*
X144341042Y-103678290D01*
X144341042Y-103678290D02*
X144162470Y-103678290D01*
X144162470Y-103678290D02*
X144043423Y-103737814D01*
X143626756Y-103678290D02*
X143150565Y-103678290D01*
X143448184Y-103261623D02*
X143448184Y-104333052D01*
X143448184Y-104333052D02*
X143388661Y-104452100D01*
X143388661Y-104452100D02*
X143269613Y-104511623D01*
X143269613Y-104511623D02*
X143150565Y-104511623D01*
X142257708Y-104452100D02*
X142376756Y-104511623D01*
X142376756Y-104511623D02*
X142614851Y-104511623D01*
X142614851Y-104511623D02*
X142733898Y-104452100D01*
X142733898Y-104452100D02*
X142793422Y-104333052D01*
X142793422Y-104333052D02*
X142793422Y-103856861D01*
X142793422Y-103856861D02*
X142733898Y-103737814D01*
X142733898Y-103737814D02*
X142614851Y-103678290D01*
X142614851Y-103678290D02*
X142376756Y-103678290D01*
X142376756Y-103678290D02*
X142257708Y-103737814D01*
X142257708Y-103737814D02*
X142198184Y-103856861D01*
X142198184Y-103856861D02*
X142198184Y-103975909D01*
X142198184Y-103975909D02*
X142793422Y-104094957D01*
X141662469Y-104511623D02*
X141662469Y-103678290D01*
X141662469Y-103916385D02*
X141602946Y-103797338D01*
X141602946Y-103797338D02*
X141543422Y-103737814D01*
X141543422Y-103737814D02*
X141424374Y-103678290D01*
X141424374Y-103678290D02*
X141305327Y-103678290D01*
D11*
X185239523Y-99550390D02*
X185315713Y-99512295D01*
X185315713Y-99512295D02*
X185429999Y-99512295D01*
X185429999Y-99512295D02*
X185544285Y-99550390D01*
X185544285Y-99550390D02*
X185620475Y-99626580D01*
X185620475Y-99626580D02*
X185658570Y-99702771D01*
X185658570Y-99702771D02*
X185696666Y-99855152D01*
X185696666Y-99855152D02*
X185696666Y-99969438D01*
X185696666Y-99969438D02*
X185658570Y-100121819D01*
X185658570Y-100121819D02*
X185620475Y-100198009D01*
X185620475Y-100198009D02*
X185544285Y-100274200D01*
X185544285Y-100274200D02*
X185429999Y-100312295D01*
X185429999Y-100312295D02*
X185353808Y-100312295D01*
X185353808Y-100312295D02*
X185239523Y-100274200D01*
X185239523Y-100274200D02*
X185201427Y-100236104D01*
X185201427Y-100236104D02*
X185201427Y-99969438D01*
X185201427Y-99969438D02*
X185353808Y-99969438D01*
X184858570Y-100312295D02*
X184858570Y-99512295D01*
X184858570Y-99512295D02*
X184401427Y-100312295D01*
X184401427Y-100312295D02*
X184401427Y-99512295D01*
X184020475Y-100312295D02*
X184020475Y-99512295D01*
X184020475Y-99512295D02*
X183829999Y-99512295D01*
X183829999Y-99512295D02*
X183715713Y-99550390D01*
X183715713Y-99550390D02*
X183639523Y-99626580D01*
X183639523Y-99626580D02*
X183601428Y-99702771D01*
X183601428Y-99702771D02*
X183563332Y-99855152D01*
X183563332Y-99855152D02*
X183563332Y-99969438D01*
X183563332Y-99969438D02*
X183601428Y-100121819D01*
X183601428Y-100121819D02*
X183639523Y-100198009D01*
X183639523Y-100198009D02*
X183715713Y-100274200D01*
X183715713Y-100274200D02*
X183829999Y-100312295D01*
X183829999Y-100312295D02*
X184020475Y-100312295D01*
X182749999Y-99937533D02*
X182140476Y-99937533D01*
X182445237Y-100242295D02*
X182445237Y-99632771D01*
X181835714Y-99442295D02*
X181340476Y-99442295D01*
X181340476Y-99442295D02*
X181607142Y-99747057D01*
X181607142Y-99747057D02*
X181492857Y-99747057D01*
X181492857Y-99747057D02*
X181416666Y-99785152D01*
X181416666Y-99785152D02*
X181378571Y-99823247D01*
X181378571Y-99823247D02*
X181340476Y-99899438D01*
X181340476Y-99899438D02*
X181340476Y-100089914D01*
X181340476Y-100089914D02*
X181378571Y-100166104D01*
X181378571Y-100166104D02*
X181416666Y-100204200D01*
X181416666Y-100204200D02*
X181492857Y-100242295D01*
X181492857Y-100242295D02*
X181721428Y-100242295D01*
X181721428Y-100242295D02*
X181797619Y-100204200D01*
X181797619Y-100204200D02*
X181835714Y-100166104D01*
X180997618Y-100166104D02*
X180959523Y-100204200D01*
X180959523Y-100204200D02*
X180997618Y-100242295D01*
X180997618Y-100242295D02*
X181035714Y-100204200D01*
X181035714Y-100204200D02*
X180997618Y-100166104D01*
X180997618Y-100166104D02*
X180997618Y-100242295D01*
X180692857Y-99442295D02*
X180197619Y-99442295D01*
X180197619Y-99442295D02*
X180464285Y-99747057D01*
X180464285Y-99747057D02*
X180350000Y-99747057D01*
X180350000Y-99747057D02*
X180273809Y-99785152D01*
X180273809Y-99785152D02*
X180235714Y-99823247D01*
X180235714Y-99823247D02*
X180197619Y-99899438D01*
X180197619Y-99899438D02*
X180197619Y-100089914D01*
X180197619Y-100089914D02*
X180235714Y-100166104D01*
X180235714Y-100166104D02*
X180273809Y-100204200D01*
X180273809Y-100204200D02*
X180350000Y-100242295D01*
X180350000Y-100242295D02*
X180578571Y-100242295D01*
X180578571Y-100242295D02*
X180654762Y-100204200D01*
X180654762Y-100204200D02*
X180692857Y-100166104D01*
X179969047Y-99442295D02*
X179702380Y-100242295D01*
X179702380Y-100242295D02*
X179435714Y-99442295D01*
%TO.C,REF\u002A\u002A*%
D12*
X129586501Y-102776476D02*
X129667167Y-102806440D01*
X129700714Y-102828954D01*
X129734687Y-102861212D01*
X129758919Y-102902246D01*
X129775001Y-102958108D01*
X129784521Y-103034851D01*
X129789068Y-103138525D01*
X129790231Y-103275184D01*
X129790003Y-103345805D01*
X129788860Y-103442308D01*
X129786919Y-103519323D01*
X129784365Y-103570319D01*
X129781381Y-103588769D01*
X129761962Y-103582667D01*
X129722766Y-103566095D01*
X129721589Y-103565558D01*
X129701235Y-103554903D01*
X129687546Y-103540282D01*
X129679199Y-103514673D01*
X129674874Y-103471054D01*
X129673248Y-103402403D01*
X129673000Y-103301698D01*
X129672500Y-103237813D01*
X129667164Y-103117751D01*
X129654945Y-103029809D01*
X129634552Y-102969375D01*
X129604695Y-102931836D01*
X129564082Y-102912581D01*
X129558448Y-102911239D01*
X129482378Y-102910191D01*
X129423052Y-102944271D01*
X129382077Y-103012598D01*
X129374770Y-103032351D01*
X129358114Y-103076066D01*
X129349679Y-103096155D01*
X129332356Y-103093387D01*
X129294525Y-103078365D01*
X129259240Y-103053556D01*
X129243154Y-103006670D01*
X129247952Y-102973087D01*
X129277431Y-102904967D01*
X129325098Y-102841134D01*
X129380839Y-102796988D01*
X129404193Y-102786782D01*
X129492619Y-102769718D01*
X129586501Y-102776476D01*
G36*
X129586501Y-102776476D02*
G01*
X129667167Y-102806440D01*
X129700714Y-102828954D01*
X129734687Y-102861212D01*
X129758919Y-102902246D01*
X129775001Y-102958108D01*
X129784521Y-103034851D01*
X129789068Y-103138525D01*
X129790231Y-103275184D01*
X129790003Y-103345805D01*
X129788860Y-103442308D01*
X129786919Y-103519323D01*
X129784365Y-103570319D01*
X129781381Y-103588769D01*
X129761962Y-103582667D01*
X129722766Y-103566095D01*
X129721589Y-103565558D01*
X129701235Y-103554903D01*
X129687546Y-103540282D01*
X129679199Y-103514673D01*
X129674874Y-103471054D01*
X129673248Y-103402403D01*
X129673000Y-103301698D01*
X129672500Y-103237813D01*
X129667164Y-103117751D01*
X129654945Y-103029809D01*
X129634552Y-102969375D01*
X129604695Y-102931836D01*
X129564082Y-102912581D01*
X129558448Y-102911239D01*
X129482378Y-102910191D01*
X129423052Y-102944271D01*
X129382077Y-103012598D01*
X129374770Y-103032351D01*
X129358114Y-103076066D01*
X129349679Y-103096155D01*
X129332356Y-103093387D01*
X129294525Y-103078365D01*
X129259240Y-103053556D01*
X129243154Y-103006670D01*
X129247952Y-102973087D01*
X129277431Y-102904967D01*
X129325098Y-102841134D01*
X129380839Y-102796988D01*
X129404193Y-102786782D01*
X129492619Y-102769718D01*
X129586501Y-102776476D01*
G37*
X134901372Y-102731684D02*
X134992629Y-102774569D01*
X135067416Y-102848729D01*
X135082917Y-102871944D01*
X135095774Y-102898256D01*
X135104893Y-102931420D01*
X135111102Y-102977881D01*
X135115233Y-103044082D01*
X135118116Y-103136468D01*
X135120579Y-103261485D01*
X135126697Y-103608278D01*
X135075303Y-103588738D01*
X135028246Y-103570787D01*
X134993015Y-103553511D01*
X134970017Y-103531242D01*
X134956655Y-103497165D01*
X134950328Y-103444463D01*
X134948437Y-103366323D01*
X134948385Y-103255928D01*
X134948117Y-103167935D01*
X134946521Y-103083502D01*
X134942712Y-103025834D01*
X134935820Y-102987988D01*
X134924975Y-102963024D01*
X134909308Y-102944000D01*
X134870792Y-102917153D01*
X134806091Y-102907034D01*
X134742081Y-102932606D01*
X134737856Y-102935880D01*
X134724689Y-102951007D01*
X134714975Y-102975268D01*
X134707903Y-103014650D01*
X134702656Y-103075141D01*
X134698421Y-103162729D01*
X134694385Y-103283402D01*
X134684615Y-103606515D01*
X134518539Y-103532065D01*
X134518539Y-103237062D01*
X134518883Y-103156919D01*
X134521847Y-103045431D01*
X134529351Y-102962421D01*
X134543190Y-102901199D01*
X134565155Y-102855075D01*
X134597039Y-102817358D01*
X134640633Y-102781358D01*
X134703336Y-102745089D01*
X134802117Y-102721412D01*
X134901372Y-102731684D01*
G36*
X134901372Y-102731684D02*
G01*
X134992629Y-102774569D01*
X135067416Y-102848729D01*
X135082917Y-102871944D01*
X135095774Y-102898256D01*
X135104893Y-102931420D01*
X135111102Y-102977881D01*
X135115233Y-103044082D01*
X135118116Y-103136468D01*
X135120579Y-103261485D01*
X135126697Y-103608278D01*
X135075303Y-103588738D01*
X135028246Y-103570787D01*
X134993015Y-103553511D01*
X134970017Y-103531242D01*
X134956655Y-103497165D01*
X134950328Y-103444463D01*
X134948437Y-103366323D01*
X134948385Y-103255928D01*
X134948117Y-103167935D01*
X134946521Y-103083502D01*
X134942712Y-103025834D01*
X134935820Y-102987988D01*
X134924975Y-102963024D01*
X134909308Y-102944000D01*
X134870792Y-102917153D01*
X134806091Y-102907034D01*
X134742081Y-102932606D01*
X134737856Y-102935880D01*
X134724689Y-102951007D01*
X134714975Y-102975268D01*
X134707903Y-103014650D01*
X134702656Y-103075141D01*
X134698421Y-103162729D01*
X134694385Y-103283402D01*
X134684615Y-103606515D01*
X134518539Y-103532065D01*
X134518539Y-103237062D01*
X134518883Y-103156919D01*
X134521847Y-103045431D01*
X134529351Y-102962421D01*
X134543190Y-102901199D01*
X134565155Y-102855075D01*
X134597039Y-102817358D01*
X134640633Y-102781358D01*
X134703336Y-102745089D01*
X134802117Y-102721412D01*
X134901372Y-102731684D01*
G37*
X132446892Y-102797167D02*
X132453060Y-102800581D01*
X132503447Y-102839692D01*
X132548498Y-102889975D01*
X132556355Y-102901339D01*
X132571376Y-102927860D01*
X132582107Y-102959336D01*
X132589486Y-103002591D01*
X132594452Y-103064449D01*
X132597942Y-103151733D01*
X132600893Y-103271269D01*
X132601311Y-103291478D01*
X132602654Y-103422499D01*
X132600761Y-103515296D01*
X132595605Y-103570507D01*
X132587158Y-103588769D01*
X132561594Y-103583301D01*
X132518166Y-103566733D01*
X132507940Y-103561888D01*
X132491967Y-103550920D01*
X132480954Y-103532890D01*
X132473750Y-103501396D01*
X132469208Y-103450036D01*
X132466180Y-103372410D01*
X132463516Y-103262115D01*
X132462785Y-103229875D01*
X132459965Y-103128050D01*
X132456304Y-103056788D01*
X132450694Y-103009332D01*
X132442029Y-102978925D01*
X132429202Y-102958810D01*
X132411105Y-102942229D01*
X132357525Y-102913161D01*
X132291612Y-102907564D01*
X132232635Y-102929807D01*
X132190203Y-102975859D01*
X132173923Y-103041692D01*
X132173470Y-103059587D01*
X132164578Y-103091982D01*
X132138325Y-103096925D01*
X132086919Y-103077633D01*
X132075013Y-103071446D01*
X132042835Y-103035058D01*
X132042198Y-102980954D01*
X132072856Y-102906128D01*
X132100978Y-102865350D01*
X132172883Y-102807421D01*
X132261638Y-102774670D01*
X132356542Y-102770212D01*
X132446892Y-102797167D01*
G36*
X132446892Y-102797167D02*
G01*
X132453060Y-102800581D01*
X132503447Y-102839692D01*
X132548498Y-102889975D01*
X132556355Y-102901339D01*
X132571376Y-102927860D01*
X132582107Y-102959336D01*
X132589486Y-103002591D01*
X132594452Y-103064449D01*
X132597942Y-103151733D01*
X132600893Y-103271269D01*
X132601311Y-103291478D01*
X132602654Y-103422499D01*
X132600761Y-103515296D01*
X132595605Y-103570507D01*
X132587158Y-103588769D01*
X132561594Y-103583301D01*
X132518166Y-103566733D01*
X132507940Y-103561888D01*
X132491967Y-103550920D01*
X132480954Y-103532890D01*
X132473750Y-103501396D01*
X132469208Y-103450036D01*
X132466180Y-103372410D01*
X132463516Y-103262115D01*
X132462785Y-103229875D01*
X132459965Y-103128050D01*
X132456304Y-103056788D01*
X132450694Y-103009332D01*
X132442029Y-102978925D01*
X132429202Y-102958810D01*
X132411105Y-102942229D01*
X132357525Y-102913161D01*
X132291612Y-102907564D01*
X132232635Y-102929807D01*
X132190203Y-102975859D01*
X132173923Y-103041692D01*
X132173470Y-103059587D01*
X132164578Y-103091982D01*
X132138325Y-103096925D01*
X132086919Y-103077633D01*
X132075013Y-103071446D01*
X132042835Y-103035058D01*
X132042198Y-102980954D01*
X132072856Y-102906128D01*
X132100978Y-102865350D01*
X132172883Y-102807421D01*
X132261638Y-102774670D01*
X132356542Y-102770212D01*
X132446892Y-102797167D01*
G37*
X133951923Y-102531806D02*
X133951923Y-103066455D01*
X133951660Y-103205094D01*
X133950958Y-103329805D01*
X133949883Y-103435557D01*
X133948500Y-103517322D01*
X133946874Y-103570069D01*
X133945070Y-103588769D01*
X133944364Y-103588706D01*
X133920387Y-103581912D01*
X133876685Y-103567320D01*
X133815154Y-103545870D01*
X133815154Y-103270617D01*
X133814763Y-103162466D01*
X133812946Y-103084026D01*
X133808767Y-103030647D01*
X133801286Y-102995256D01*
X133789567Y-102970779D01*
X133772671Y-102950144D01*
X133761152Y-102939170D01*
X133698864Y-102908775D01*
X133630211Y-102911466D01*
X133567298Y-102947406D01*
X133558139Y-102956325D01*
X133543471Y-102974844D01*
X133533433Y-102999326D01*
X133527151Y-103036393D01*
X133523748Y-103092667D01*
X133522349Y-103174771D01*
X133522077Y-103289329D01*
X133521947Y-103347430D01*
X133521099Y-103442993D01*
X133519594Y-103519526D01*
X133517585Y-103570345D01*
X133515223Y-103588769D01*
X133514518Y-103588706D01*
X133490541Y-103581912D01*
X133446839Y-103567320D01*
X133385308Y-103545870D01*
X133385338Y-103269358D01*
X133385384Y-103244742D01*
X133387970Y-103116419D01*
X133395913Y-103019384D01*
X133411155Y-102947057D01*
X133435636Y-102892855D01*
X133471298Y-102850198D01*
X133520082Y-102812505D01*
X133567661Y-102788910D01*
X133643732Y-102770672D01*
X133718556Y-102769636D01*
X133776077Y-102787378D01*
X133780402Y-102789829D01*
X133793738Y-102789566D01*
X133802851Y-102769039D01*
X133809428Y-102721980D01*
X133815154Y-102642120D01*
X133824923Y-102478236D01*
X133951923Y-102531806D01*
G36*
X133951923Y-102531806D02*
G01*
X133951923Y-103066455D01*
X133951660Y-103205094D01*
X133950958Y-103329805D01*
X133949883Y-103435557D01*
X133948500Y-103517322D01*
X133946874Y-103570069D01*
X133945070Y-103588769D01*
X133944364Y-103588706D01*
X133920387Y-103581912D01*
X133876685Y-103567320D01*
X133815154Y-103545870D01*
X133815154Y-103270617D01*
X133814763Y-103162466D01*
X133812946Y-103084026D01*
X133808767Y-103030647D01*
X133801286Y-102995256D01*
X133789567Y-102970779D01*
X133772671Y-102950144D01*
X133761152Y-102939170D01*
X133698864Y-102908775D01*
X133630211Y-102911466D01*
X133567298Y-102947406D01*
X133558139Y-102956325D01*
X133543471Y-102974844D01*
X133533433Y-102999326D01*
X133527151Y-103036393D01*
X133523748Y-103092667D01*
X133522349Y-103174771D01*
X133522077Y-103289329D01*
X133521947Y-103347430D01*
X133521099Y-103442993D01*
X133519594Y-103519526D01*
X133517585Y-103570345D01*
X133515223Y-103588769D01*
X133514518Y-103588706D01*
X133490541Y-103581912D01*
X133446839Y-103567320D01*
X133385308Y-103545870D01*
X133385338Y-103269358D01*
X133385384Y-103244742D01*
X133387970Y-103116419D01*
X133395913Y-103019384D01*
X133411155Y-102947057D01*
X133435636Y-102892855D01*
X133471298Y-102850198D01*
X133520082Y-102812505D01*
X133567661Y-102788910D01*
X133643732Y-102770672D01*
X133718556Y-102769636D01*
X133776077Y-102787378D01*
X133780402Y-102789829D01*
X133793738Y-102789566D01*
X133802851Y-102769039D01*
X133809428Y-102721980D01*
X133815154Y-102642120D01*
X133824923Y-102478236D01*
X133951923Y-102531806D01*
G37*
X131162998Y-102774034D02*
X131205850Y-102790829D01*
X131255615Y-102813503D01*
X131255615Y-103468533D01*
X131193785Y-103530363D01*
X131179662Y-103544228D01*
X131140536Y-103575046D01*
X131101078Y-103585028D01*
X131042362Y-103580433D01*
X131018456Y-103577462D01*
X130956801Y-103571176D01*
X130913692Y-103568672D01*
X130900905Y-103569055D01*
X130848446Y-103573200D01*
X130785022Y-103580433D01*
X130764730Y-103582918D01*
X130713610Y-103583895D01*
X130676207Y-103568462D01*
X130633599Y-103530363D01*
X130571769Y-103468533D01*
X130571769Y-103118343D01*
X130572251Y-103014857D01*
X130573753Y-102916192D01*
X130576089Y-102838068D01*
X130579071Y-102786662D01*
X130582509Y-102768154D01*
X130583230Y-102768204D01*
X130608203Y-102777413D01*
X130650399Y-102797707D01*
X130707549Y-102827261D01*
X130712928Y-103134746D01*
X130718308Y-103442231D01*
X130835539Y-103442231D01*
X130840885Y-103105192D01*
X130842579Y-103013574D01*
X130845005Y-102915649D01*
X130847634Y-102837906D01*
X130850246Y-102786642D01*
X130852623Y-102768154D01*
X130853306Y-102768219D01*
X130876996Y-102775020D01*
X130920546Y-102789604D01*
X130982077Y-102811054D01*
X130982376Y-103107104D01*
X130982676Y-103158532D01*
X130984754Y-103258466D01*
X130988470Y-103341925D01*
X130993430Y-103401377D01*
X130999240Y-103429287D01*
X131020024Y-103444214D01*
X131062440Y-103448825D01*
X131109077Y-103442231D01*
X131114423Y-103105192D01*
X131116336Y-103019546D01*
X131120303Y-102918172D01*
X131125491Y-102838655D01*
X131131499Y-102786736D01*
X131137927Y-102768154D01*
X131162998Y-102774034D01*
G36*
X131162998Y-102774034D02*
G01*
X131205850Y-102790829D01*
X131255615Y-102813503D01*
X131255615Y-103468533D01*
X131193785Y-103530363D01*
X131179662Y-103544228D01*
X131140536Y-103575046D01*
X131101078Y-103585028D01*
X131042362Y-103580433D01*
X131018456Y-103577462D01*
X130956801Y-103571176D01*
X130913692Y-103568672D01*
X130900905Y-103569055D01*
X130848446Y-103573200D01*
X130785022Y-103580433D01*
X130764730Y-103582918D01*
X130713610Y-103583895D01*
X130676207Y-103568462D01*
X130633599Y-103530363D01*
X130571769Y-103468533D01*
X130571769Y-103118343D01*
X130572251Y-103014857D01*
X130573753Y-102916192D01*
X130576089Y-102838068D01*
X130579071Y-102786662D01*
X130582509Y-102768154D01*
X130583230Y-102768204D01*
X130608203Y-102777413D01*
X130650399Y-102797707D01*
X130707549Y-102827261D01*
X130712928Y-103134746D01*
X130718308Y-103442231D01*
X130835539Y-103442231D01*
X130840885Y-103105192D01*
X130842579Y-103013574D01*
X130845005Y-102915649D01*
X130847634Y-102837906D01*
X130850246Y-102786642D01*
X130852623Y-102768154D01*
X130853306Y-102768219D01*
X130876996Y-102775020D01*
X130920546Y-102789604D01*
X130982077Y-102811054D01*
X130982376Y-103107104D01*
X130982676Y-103158532D01*
X130984754Y-103258466D01*
X130988470Y-103341925D01*
X130993430Y-103401377D01*
X130999240Y-103429287D01*
X131020024Y-103444214D01*
X131062440Y-103448825D01*
X131109077Y-103442231D01*
X131114423Y-103105192D01*
X131116336Y-103019546D01*
X131120303Y-102918172D01*
X131125491Y-102838655D01*
X131131499Y-102786736D01*
X131137927Y-102768154D01*
X131162998Y-102774034D01*
G37*
X137371154Y-103158923D02*
X137371135Y-103180105D01*
X137370076Y-103274584D01*
X137366436Y-103340414D01*
X137358892Y-103386394D01*
X137346122Y-103421321D01*
X137326803Y-103453995D01*
X137322050Y-103460775D01*
X137271759Y-103514231D01*
X137214457Y-103554547D01*
X137185032Y-103567629D01*
X137079299Y-103589450D01*
X136974734Y-103575336D01*
X136878368Y-103527105D01*
X136797235Y-103446579D01*
X136790385Y-103435791D01*
X136768097Y-103373153D01*
X136753079Y-103285935D01*
X136745792Y-103185210D01*
X136746611Y-103092037D01*
X136943796Y-103092037D01*
X136945349Y-103221114D01*
X136945974Y-103229420D01*
X136955077Y-103300643D01*
X136971288Y-103345809D01*
X136998660Y-103376752D01*
X137044553Y-103405737D01*
X137089942Y-103407261D01*
X137136692Y-103373846D01*
X137144824Y-103365053D01*
X137160754Y-103338741D01*
X137170159Y-103300520D01*
X137174632Y-103241349D01*
X137175769Y-103152182D01*
X137173822Y-103068664D01*
X137164105Y-102989095D01*
X137144047Y-102938808D01*
X137111240Y-102912513D01*
X137063280Y-102904923D01*
X137045016Y-102906432D01*
X136993848Y-102934107D01*
X136960035Y-102996172D01*
X136943796Y-103092037D01*
X136746611Y-103092037D01*
X136746699Y-103082052D01*
X136756262Y-102987533D01*
X136774943Y-102912727D01*
X136798951Y-102862905D01*
X136866536Y-102785409D01*
X136958114Y-102737256D01*
X137070213Y-102720703D01*
X137100151Y-102721599D01*
X137188315Y-102739929D01*
X137260733Y-102786104D01*
X137327192Y-102865648D01*
X137331147Y-102871548D01*
X137349040Y-102903288D01*
X137360678Y-102939163D01*
X137367371Y-102987906D01*
X137370426Y-103058249D01*
X137371106Y-103152182D01*
X137371154Y-103158923D01*
G36*
X137371154Y-103158923D02*
G01*
X137371135Y-103180105D01*
X137370076Y-103274584D01*
X137366436Y-103340414D01*
X137358892Y-103386394D01*
X137346122Y-103421321D01*
X137326803Y-103453995D01*
X137322050Y-103460775D01*
X137271759Y-103514231D01*
X137214457Y-103554547D01*
X137185032Y-103567629D01*
X137079299Y-103589450D01*
X136974734Y-103575336D01*
X136878368Y-103527105D01*
X136797235Y-103446579D01*
X136790385Y-103435791D01*
X136768097Y-103373153D01*
X136753079Y-103285935D01*
X136745792Y-103185210D01*
X136746611Y-103092037D01*
X136943796Y-103092037D01*
X136945349Y-103221114D01*
X136945974Y-103229420D01*
X136955077Y-103300643D01*
X136971288Y-103345809D01*
X136998660Y-103376752D01*
X137044553Y-103405737D01*
X137089942Y-103407261D01*
X137136692Y-103373846D01*
X137144824Y-103365053D01*
X137160754Y-103338741D01*
X137170159Y-103300520D01*
X137174632Y-103241349D01*
X137175769Y-103152182D01*
X137173822Y-103068664D01*
X137164105Y-102989095D01*
X137144047Y-102938808D01*
X137111240Y-102912513D01*
X137063280Y-102904923D01*
X137045016Y-102906432D01*
X136993848Y-102934107D01*
X136960035Y-102996172D01*
X136943796Y-103092037D01*
X136746611Y-103092037D01*
X136746699Y-103082052D01*
X136756262Y-102987533D01*
X136774943Y-102912727D01*
X136798951Y-102862905D01*
X136866536Y-102785409D01*
X136958114Y-102737256D01*
X137070213Y-102720703D01*
X137100151Y-102721599D01*
X137188315Y-102739929D01*
X137260733Y-102786104D01*
X137327192Y-102865648D01*
X137331147Y-102871548D01*
X137349040Y-102903288D01*
X137360678Y-102939163D01*
X137367371Y-102987906D01*
X137370426Y-103058249D01*
X137371106Y-103152182D01*
X137371154Y-103158923D01*
G37*
X129125794Y-103182376D02*
X129125413Y-103234449D01*
X129120641Y-103337047D01*
X129108150Y-103412126D01*
X129085121Y-103467748D01*
X129048732Y-103511975D01*
X128996162Y-103552869D01*
X128962714Y-103571466D01*
X128909098Y-103583991D01*
X128833780Y-103583003D01*
X128791672Y-103579035D01*
X128740879Y-103566920D01*
X128700280Y-103540585D01*
X128653049Y-103491514D01*
X128646738Y-103484346D01*
X128604277Y-103429189D01*
X128584018Y-103381150D01*
X128578846Y-103324184D01*
X128578846Y-103240471D01*
X128637346Y-103262552D01*
X128679994Y-103288364D01*
X128717064Y-103348928D01*
X128724803Y-103368320D01*
X128768074Y-103423235D01*
X128826976Y-103450879D01*
X128891111Y-103448393D01*
X128950077Y-103412923D01*
X128970342Y-103390805D01*
X128988720Y-103357436D01*
X128982971Y-103327117D01*
X128949887Y-103295913D01*
X128886261Y-103259887D01*
X128788885Y-103215103D01*
X128588615Y-103127445D01*
X128583301Y-103040607D01*
X128585299Y-102985296D01*
X128715783Y-102985296D01*
X128725688Y-103019538D01*
X128770756Y-103056096D01*
X128852557Y-103097692D01*
X128866092Y-103103718D01*
X128930818Y-103131753D01*
X128979247Y-103151472D01*
X129001751Y-103158923D01*
X129005161Y-103153438D01*
X129006529Y-103119948D01*
X129001651Y-103066116D01*
X128989364Y-103013473D01*
X128951041Y-102947151D01*
X128895720Y-102909780D01*
X128829640Y-102904721D01*
X128759040Y-102935339D01*
X128739474Y-102950648D01*
X128715783Y-102985296D01*
X128585299Y-102985296D01*
X128585647Y-102975663D01*
X128615186Y-102893590D01*
X128652472Y-102848361D01*
X128729776Y-102797838D01*
X128821478Y-102772316D01*
X128916274Y-102774336D01*
X129002859Y-102806440D01*
X129021920Y-102818767D01*
X129065640Y-102856912D01*
X129095540Y-102905167D01*
X129113968Y-102970710D01*
X129123270Y-103060720D01*
X129124499Y-103119948D01*
X129125794Y-103182376D01*
G36*
X129125794Y-103182376D02*
G01*
X129125413Y-103234449D01*
X129120641Y-103337047D01*
X129108150Y-103412126D01*
X129085121Y-103467748D01*
X129048732Y-103511975D01*
X128996162Y-103552869D01*
X128962714Y-103571466D01*
X128909098Y-103583991D01*
X128833780Y-103583003D01*
X128791672Y-103579035D01*
X128740879Y-103566920D01*
X128700280Y-103540585D01*
X128653049Y-103491514D01*
X128646738Y-103484346D01*
X128604277Y-103429189D01*
X128584018Y-103381150D01*
X128578846Y-103324184D01*
X128578846Y-103240471D01*
X128637346Y-103262552D01*
X128679994Y-103288364D01*
X128717064Y-103348928D01*
X128724803Y-103368320D01*
X128768074Y-103423235D01*
X128826976Y-103450879D01*
X128891111Y-103448393D01*
X128950077Y-103412923D01*
X128970342Y-103390805D01*
X128988720Y-103357436D01*
X128982971Y-103327117D01*
X128949887Y-103295913D01*
X128886261Y-103259887D01*
X128788885Y-103215103D01*
X128588615Y-103127445D01*
X128583301Y-103040607D01*
X128585299Y-102985296D01*
X128715783Y-102985296D01*
X128725688Y-103019538D01*
X128770756Y-103056096D01*
X128852557Y-103097692D01*
X128866092Y-103103718D01*
X128930818Y-103131753D01*
X128979247Y-103151472D01*
X129001751Y-103158923D01*
X129005161Y-103153438D01*
X129006529Y-103119948D01*
X129001651Y-103066116D01*
X128989364Y-103013473D01*
X128951041Y-102947151D01*
X128895720Y-102909780D01*
X128829640Y-102904721D01*
X128759040Y-102935339D01*
X128739474Y-102950648D01*
X128715783Y-102985296D01*
X128585299Y-102985296D01*
X128585647Y-102975663D01*
X128615186Y-102893590D01*
X128652472Y-102848361D01*
X128729776Y-102797838D01*
X128821478Y-102772316D01*
X128916274Y-102774336D01*
X129002859Y-102806440D01*
X129021920Y-102818767D01*
X129065640Y-102856912D01*
X129095540Y-102905167D01*
X129113968Y-102970710D01*
X129123270Y-103060720D01*
X129124499Y-103119948D01*
X129125794Y-103182376D01*
G37*
X131939401Y-103178462D02*
X131937839Y-103254652D01*
X131926810Y-103358507D01*
X131902814Y-103436333D01*
X131863043Y-103495760D01*
X131804688Y-103544418D01*
X131749100Y-103572546D01*
X131655751Y-103588199D01*
X131562530Y-103571084D01*
X131478272Y-103523388D01*
X131411818Y-103447294D01*
X131403793Y-103433262D01*
X131393196Y-103408679D01*
X131385335Y-103377309D01*
X131379807Y-103333769D01*
X131376206Y-103272678D01*
X131374128Y-103188655D01*
X131374064Y-103181200D01*
X131509615Y-103181200D01*
X131510077Y-103252316D01*
X131512999Y-103316641D01*
X131520221Y-103358166D01*
X131533561Y-103386067D01*
X131554836Y-103409517D01*
X131559821Y-103414025D01*
X131623863Y-103447295D01*
X131691625Y-103443890D01*
X131754734Y-103404042D01*
X131773526Y-103383398D01*
X131789254Y-103356029D01*
X131798039Y-103318192D01*
X131801859Y-103260355D01*
X131802692Y-103172986D01*
X131802281Y-103106319D01*
X131799434Y-103041245D01*
X131792256Y-102999251D01*
X131778889Y-102971063D01*
X131757472Y-102947406D01*
X131744890Y-102936753D01*
X131679699Y-102908057D01*
X131611400Y-102912575D01*
X131552098Y-102950144D01*
X131539333Y-102965040D01*
X131523764Y-102993089D01*
X131514762Y-103032258D01*
X131510617Y-103091858D01*
X131509615Y-103181200D01*
X131374064Y-103181200D01*
X131373167Y-103076320D01*
X131372919Y-102930289D01*
X131372846Y-102476963D01*
X131436346Y-102503564D01*
X131453136Y-102510845D01*
X131479859Y-102527287D01*
X131495156Y-102552187D01*
X131503563Y-102595732D01*
X131509615Y-102668106D01*
X131515144Y-102733089D01*
X131522450Y-102775750D01*
X131532918Y-102791670D01*
X131548692Y-102787400D01*
X131588890Y-102772397D01*
X131660728Y-102768678D01*
X131738010Y-102782572D01*
X131804688Y-102812505D01*
X131841371Y-102840211D01*
X131888472Y-102894269D01*
X131918638Y-102963577D01*
X131934678Y-103055765D01*
X131939191Y-103172986D01*
X131939401Y-103178462D01*
G36*
X131939401Y-103178462D02*
G01*
X131937839Y-103254652D01*
X131926810Y-103358507D01*
X131902814Y-103436333D01*
X131863043Y-103495760D01*
X131804688Y-103544418D01*
X131749100Y-103572546D01*
X131655751Y-103588199D01*
X131562530Y-103571084D01*
X131478272Y-103523388D01*
X131411818Y-103447294D01*
X131403793Y-103433262D01*
X131393196Y-103408679D01*
X131385335Y-103377309D01*
X131379807Y-103333769D01*
X131376206Y-103272678D01*
X131374128Y-103188655D01*
X131374064Y-103181200D01*
X131509615Y-103181200D01*
X131510077Y-103252316D01*
X131512999Y-103316641D01*
X131520221Y-103358166D01*
X131533561Y-103386067D01*
X131554836Y-103409517D01*
X131559821Y-103414025D01*
X131623863Y-103447295D01*
X131691625Y-103443890D01*
X131754734Y-103404042D01*
X131773526Y-103383398D01*
X131789254Y-103356029D01*
X131798039Y-103318192D01*
X131801859Y-103260355D01*
X131802692Y-103172986D01*
X131802281Y-103106319D01*
X131799434Y-103041245D01*
X131792256Y-102999251D01*
X131778889Y-102971063D01*
X131757472Y-102947406D01*
X131744890Y-102936753D01*
X131679699Y-102908057D01*
X131611400Y-102912575D01*
X131552098Y-102950144D01*
X131539333Y-102965040D01*
X131523764Y-102993089D01*
X131514762Y-103032258D01*
X131510617Y-103091858D01*
X131509615Y-103181200D01*
X131374064Y-103181200D01*
X131373167Y-103076320D01*
X131372919Y-102930289D01*
X131372846Y-102476963D01*
X131436346Y-102503564D01*
X131453136Y-102510845D01*
X131479859Y-102527287D01*
X131495156Y-102552187D01*
X131503563Y-102595732D01*
X131509615Y-102668106D01*
X131515144Y-102733089D01*
X131522450Y-102775750D01*
X131532918Y-102791670D01*
X131548692Y-102787400D01*
X131588890Y-102772397D01*
X131660728Y-102768678D01*
X131738010Y-102782572D01*
X131804688Y-102812505D01*
X131841371Y-102840211D01*
X131888472Y-102894269D01*
X131918638Y-102963577D01*
X131934678Y-103055765D01*
X131939191Y-103172986D01*
X131939401Y-103178462D01*
G37*
X135885787Y-103103536D02*
X135879574Y-103251643D01*
X135876066Y-103283021D01*
X135849927Y-103394705D01*
X135802694Y-103479642D01*
X135730862Y-103544741D01*
X135726802Y-103547428D01*
X135635487Y-103585634D01*
X135540144Y-103589034D01*
X135448274Y-103559939D01*
X135367379Y-103500660D01*
X135304962Y-103413510D01*
X135303914Y-103411409D01*
X135283173Y-103357289D01*
X135267980Y-103295781D01*
X135259921Y-103238039D01*
X135260582Y-103195215D01*
X135271548Y-103178462D01*
X135281290Y-103179480D01*
X135327877Y-103198009D01*
X135380682Y-103232081D01*
X135425603Y-103271522D01*
X135448535Y-103306155D01*
X135472373Y-103353133D01*
X135521230Y-103395862D01*
X135577963Y-103412923D01*
X135598758Y-103407990D01*
X135639804Y-103383157D01*
X135675557Y-103348685D01*
X135690846Y-103317411D01*
X135690842Y-103317295D01*
X135673495Y-103302933D01*
X135627247Y-103277025D01*
X135559067Y-103243210D01*
X135475923Y-103205129D01*
X135475466Y-103204927D01*
X135385138Y-103164709D01*
X135324592Y-103135733D01*
X135287888Y-103113474D01*
X135269086Y-103093407D01*
X135262246Y-103071009D01*
X135261429Y-103041756D01*
X135267113Y-102986363D01*
X135460000Y-102986363D01*
X135479911Y-103003777D01*
X135529521Y-103029872D01*
X135530976Y-103030610D01*
X135589506Y-103058483D01*
X135641868Y-103080719D01*
X135675086Y-103090126D01*
X135688410Y-103077552D01*
X135690846Y-103034468D01*
X135680724Y-102980847D01*
X135645631Y-102932119D01*
X135594823Y-102906856D01*
X135538181Y-102909406D01*
X135485584Y-102944120D01*
X135464910Y-102968107D01*
X135460000Y-102986363D01*
X135267113Y-102986363D01*
X135268622Y-102971654D01*
X135304184Y-102876412D01*
X135363714Y-102801567D01*
X135440746Y-102749745D01*
X135528815Y-102723573D01*
X135621454Y-102725676D01*
X135712198Y-102758681D01*
X135794579Y-102825215D01*
X135840222Y-102891055D01*
X135873008Y-102985036D01*
X135878339Y-103034468D01*
X135885787Y-103103536D01*
G36*
X135885787Y-103103536D02*
G01*
X135879574Y-103251643D01*
X135876066Y-103283021D01*
X135849927Y-103394705D01*
X135802694Y-103479642D01*
X135730862Y-103544741D01*
X135726802Y-103547428D01*
X135635487Y-103585634D01*
X135540144Y-103589034D01*
X135448274Y-103559939D01*
X135367379Y-103500660D01*
X135304962Y-103413510D01*
X135303914Y-103411409D01*
X135283173Y-103357289D01*
X135267980Y-103295781D01*
X135259921Y-103238039D01*
X135260582Y-103195215D01*
X135271548Y-103178462D01*
X135281290Y-103179480D01*
X135327877Y-103198009D01*
X135380682Y-103232081D01*
X135425603Y-103271522D01*
X135448535Y-103306155D01*
X135472373Y-103353133D01*
X135521230Y-103395862D01*
X135577963Y-103412923D01*
X135598758Y-103407990D01*
X135639804Y-103383157D01*
X135675557Y-103348685D01*
X135690846Y-103317411D01*
X135690842Y-103317295D01*
X135673495Y-103302933D01*
X135627247Y-103277025D01*
X135559067Y-103243210D01*
X135475923Y-103205129D01*
X135475466Y-103204927D01*
X135385138Y-103164709D01*
X135324592Y-103135733D01*
X135287888Y-103113474D01*
X135269086Y-103093407D01*
X135262246Y-103071009D01*
X135261429Y-103041756D01*
X135267113Y-102986363D01*
X135460000Y-102986363D01*
X135479911Y-103003777D01*
X135529521Y-103029872D01*
X135530976Y-103030610D01*
X135589506Y-103058483D01*
X135641868Y-103080719D01*
X135675086Y-103090126D01*
X135688410Y-103077552D01*
X135690846Y-103034468D01*
X135680724Y-102980847D01*
X135645631Y-102932119D01*
X135594823Y-102906856D01*
X135538181Y-102909406D01*
X135485584Y-102944120D01*
X135464910Y-102968107D01*
X135460000Y-102986363D01*
X135267113Y-102986363D01*
X135268622Y-102971654D01*
X135304184Y-102876412D01*
X135363714Y-102801567D01*
X135440746Y-102749745D01*
X135528815Y-102723573D01*
X135621454Y-102725676D01*
X135712198Y-102758681D01*
X135794579Y-102825215D01*
X135840222Y-102891055D01*
X135873008Y-102985036D01*
X135878339Y-103034468D01*
X135885787Y-103103536D01*
G37*
X133095458Y-102789228D02*
X133162622Y-102828389D01*
X133192169Y-102858902D01*
X133248948Y-102950110D01*
X133268077Y-103049548D01*
X133268077Y-103117960D01*
X133205191Y-103091518D01*
X133161700Y-103064837D01*
X133127426Y-103009446D01*
X133123907Y-102998024D01*
X133086028Y-102939838D01*
X133028936Y-102908407D01*
X132963383Y-102907058D01*
X132900117Y-102939116D01*
X132890672Y-102947383D01*
X132859087Y-102983311D01*
X132853871Y-103014635D01*
X132877765Y-103045391D01*
X132933510Y-103079617D01*
X133023846Y-103121350D01*
X133029956Y-103123993D01*
X133130241Y-103170755D01*
X133198735Y-103212181D01*
X133240899Y-103253542D01*
X133262193Y-103300111D01*
X133268077Y-103357160D01*
X133260366Y-103420408D01*
X133221430Y-103501364D01*
X133152932Y-103559522D01*
X133103388Y-103576983D01*
X133033469Y-103586537D01*
X132965575Y-103584496D01*
X132917093Y-103570082D01*
X132911943Y-103566493D01*
X132898267Y-103541416D01*
X132907757Y-103497218D01*
X132924246Y-103462527D01*
X132950687Y-103448084D01*
X133000834Y-103448803D01*
X133070453Y-103444660D01*
X133115943Y-103416054D01*
X133131308Y-103363104D01*
X133131294Y-103361582D01*
X133121983Y-103330845D01*
X133090311Y-103302643D01*
X133028731Y-103270136D01*
X132944986Y-103230998D01*
X132889518Y-103209706D01*
X132857497Y-103211079D01*
X132842534Y-103239203D01*
X132838242Y-103298170D01*
X132838231Y-103392068D01*
X132837752Y-103450031D01*
X132835556Y-103521612D01*
X132831986Y-103570606D01*
X132827491Y-103588769D01*
X132826290Y-103588646D01*
X132800319Y-103578802D01*
X132757305Y-103558028D01*
X132697859Y-103527287D01*
X132704923Y-103250298D01*
X132705414Y-103231928D01*
X132711025Y-103102992D01*
X132720938Y-103005814D01*
X132737175Y-102933925D01*
X132761759Y-102880852D01*
X132796715Y-102840127D01*
X132844064Y-102805279D01*
X132844940Y-102804733D01*
X132921499Y-102776303D01*
X133010044Y-102771500D01*
X133095458Y-102789228D01*
G36*
X133095458Y-102789228D02*
G01*
X133162622Y-102828389D01*
X133192169Y-102858902D01*
X133248948Y-102950110D01*
X133268077Y-103049548D01*
X133268077Y-103117960D01*
X133205191Y-103091518D01*
X133161700Y-103064837D01*
X133127426Y-103009446D01*
X133123907Y-102998024D01*
X133086028Y-102939838D01*
X133028936Y-102908407D01*
X132963383Y-102907058D01*
X132900117Y-102939116D01*
X132890672Y-102947383D01*
X132859087Y-102983311D01*
X132853871Y-103014635D01*
X132877765Y-103045391D01*
X132933510Y-103079617D01*
X133023846Y-103121350D01*
X133029956Y-103123993D01*
X133130241Y-103170755D01*
X133198735Y-103212181D01*
X133240899Y-103253542D01*
X133262193Y-103300111D01*
X133268077Y-103357160D01*
X133260366Y-103420408D01*
X133221430Y-103501364D01*
X133152932Y-103559522D01*
X133103388Y-103576983D01*
X133033469Y-103586537D01*
X132965575Y-103584496D01*
X132917093Y-103570082D01*
X132911943Y-103566493D01*
X132898267Y-103541416D01*
X132907757Y-103497218D01*
X132924246Y-103462527D01*
X132950687Y-103448084D01*
X133000834Y-103448803D01*
X133070453Y-103444660D01*
X133115943Y-103416054D01*
X133131308Y-103363104D01*
X133131294Y-103361582D01*
X133121983Y-103330845D01*
X133090311Y-103302643D01*
X133028731Y-103270136D01*
X132944986Y-103230998D01*
X132889518Y-103209706D01*
X132857497Y-103211079D01*
X132842534Y-103239203D01*
X132838242Y-103298170D01*
X132838231Y-103392068D01*
X132837752Y-103450031D01*
X132835556Y-103521612D01*
X132831986Y-103570606D01*
X132827491Y-103588769D01*
X132826290Y-103588646D01*
X132800319Y-103578802D01*
X132757305Y-103558028D01*
X132697859Y-103527287D01*
X132704923Y-103250298D01*
X132705414Y-103231928D01*
X132711025Y-103102992D01*
X132720938Y-103005814D01*
X132737175Y-102933925D01*
X132761759Y-102880852D01*
X132796715Y-102840127D01*
X132844064Y-102805279D01*
X132844940Y-102804733D01*
X132921499Y-102776303D01*
X133010044Y-102771500D01*
X133095458Y-102789228D01*
G37*
X136622828Y-103248205D02*
X136624763Y-103398269D01*
X136625300Y-103441802D01*
X136627019Y-103587344D01*
X136627365Y-103698711D01*
X136625277Y-103779804D01*
X136619698Y-103834522D01*
X136609567Y-103866761D01*
X136593826Y-103880422D01*
X136571417Y-103879403D01*
X136541280Y-103867603D01*
X136502355Y-103848920D01*
X136494038Y-103844933D01*
X136459402Y-103825419D01*
X136441314Y-103802202D01*
X136434392Y-103763492D01*
X136433256Y-103697497D01*
X136433205Y-103579000D01*
X136311141Y-103579000D01*
X136236055Y-103575712D01*
X136177015Y-103562377D01*
X136127986Y-103535423D01*
X136124330Y-103532788D01*
X136074581Y-103488286D01*
X136039959Y-103434523D01*
X136018123Y-103364154D01*
X136006737Y-103269830D01*
X136003959Y-103163271D01*
X136198846Y-103163271D01*
X136198880Y-103181131D01*
X136200735Y-103261748D01*
X136206693Y-103314447D01*
X136218506Y-103348668D01*
X136237923Y-103373846D01*
X136239133Y-103375049D01*
X136286858Y-103407628D01*
X136333110Y-103404417D01*
X136385350Y-103364965D01*
X136398128Y-103351482D01*
X136416949Y-103323837D01*
X136427562Y-103287880D01*
X136432252Y-103233364D01*
X136433308Y-103150042D01*
X136432394Y-103099598D01*
X136422477Y-103007857D01*
X136399842Y-102947752D01*
X136362238Y-102914900D01*
X136307416Y-102904923D01*
X136284317Y-102907050D01*
X136244350Y-102928147D01*
X136217926Y-102975161D01*
X136203330Y-103052175D01*
X136198846Y-103163271D01*
X136003959Y-103163271D01*
X136003462Y-103144206D01*
X136004187Y-103052536D01*
X136007490Y-102983098D01*
X136014828Y-102934945D01*
X136027655Y-102898866D01*
X136047423Y-102865648D01*
X136065569Y-102840261D01*
X136131461Y-102771727D01*
X136206114Y-102734505D01*
X136299904Y-102722722D01*
X136407240Y-102734467D01*
X136500031Y-102776595D01*
X136573421Y-102850898D01*
X136578954Y-102858764D01*
X136591857Y-102879668D01*
X136601742Y-102903555D01*
X136609093Y-102935582D01*
X136614394Y-102980905D01*
X136618127Y-103044679D01*
X136620778Y-103132060D01*
X136621096Y-103150042D01*
X136622828Y-103248205D01*
G36*
X136622828Y-103248205D02*
G01*
X136624763Y-103398269D01*
X136625300Y-103441802D01*
X136627019Y-103587344D01*
X136627365Y-103698711D01*
X136625277Y-103779804D01*
X136619698Y-103834522D01*
X136609567Y-103866761D01*
X136593826Y-103880422D01*
X136571417Y-103879403D01*
X136541280Y-103867603D01*
X136502355Y-103848920D01*
X136494038Y-103844933D01*
X136459402Y-103825419D01*
X136441314Y-103802202D01*
X136434392Y-103763492D01*
X136433256Y-103697497D01*
X136433205Y-103579000D01*
X136311141Y-103579000D01*
X136236055Y-103575712D01*
X136177015Y-103562377D01*
X136127986Y-103535423D01*
X136124330Y-103532788D01*
X136074581Y-103488286D01*
X136039959Y-103434523D01*
X136018123Y-103364154D01*
X136006737Y-103269830D01*
X136003959Y-103163271D01*
X136198846Y-103163271D01*
X136198880Y-103181131D01*
X136200735Y-103261748D01*
X136206693Y-103314447D01*
X136218506Y-103348668D01*
X136237923Y-103373846D01*
X136239133Y-103375049D01*
X136286858Y-103407628D01*
X136333110Y-103404417D01*
X136385350Y-103364965D01*
X136398128Y-103351482D01*
X136416949Y-103323837D01*
X136427562Y-103287880D01*
X136432252Y-103233364D01*
X136433308Y-103150042D01*
X136432394Y-103099598D01*
X136422477Y-103007857D01*
X136399842Y-102947752D01*
X136362238Y-102914900D01*
X136307416Y-102904923D01*
X136284317Y-102907050D01*
X136244350Y-102928147D01*
X136217926Y-102975161D01*
X136203330Y-103052175D01*
X136198846Y-103163271D01*
X136003959Y-103163271D01*
X136003462Y-103144206D01*
X136004187Y-103052536D01*
X136007490Y-102983098D01*
X136014828Y-102934945D01*
X136027655Y-102898866D01*
X136047423Y-102865648D01*
X136065569Y-102840261D01*
X136131461Y-102771727D01*
X136206114Y-102734505D01*
X136299904Y-102722722D01*
X136407240Y-102734467D01*
X136500031Y-102776595D01*
X136573421Y-102850898D01*
X136578954Y-102858764D01*
X136591857Y-102879668D01*
X136601742Y-102903555D01*
X136609093Y-102935582D01*
X136614394Y-102980905D01*
X136618127Y-103044679D01*
X136620778Y-103132060D01*
X136621096Y-103150042D01*
X136622828Y-103248205D01*
G37*
X130238936Y-102769911D02*
X130280807Y-102780547D01*
X130319791Y-102807062D01*
X130369965Y-102856420D01*
X130402232Y-102891279D01*
X130435844Y-102936534D01*
X130451003Y-102978951D01*
X130454539Y-103032768D01*
X130454539Y-103120850D01*
X130394470Y-103089787D01*
X130346867Y-103051936D01*
X130314261Y-103000950D01*
X130308661Y-102987088D01*
X130265992Y-102933358D01*
X130206707Y-102906417D01*
X130142061Y-102909039D01*
X130083308Y-102944000D01*
X130058450Y-102972394D01*
X130043970Y-103008718D01*
X130059470Y-103041046D01*
X130107667Y-103073565D01*
X130191274Y-103110461D01*
X130203962Y-103115557D01*
X130280078Y-103148907D01*
X130345396Y-103181793D01*
X130386953Y-103207769D01*
X130428576Y-103254167D01*
X130456247Y-103328211D01*
X130453310Y-103407670D01*
X130420571Y-103482868D01*
X130358841Y-103544131D01*
X130308858Y-103570210D01*
X130212303Y-103588470D01*
X130158647Y-103586007D01*
X130108976Y-103572687D01*
X130089919Y-103544739D01*
X130097045Y-103498710D01*
X130099118Y-103492624D01*
X130115556Y-103460349D01*
X130142926Y-103448133D01*
X130195068Y-103448950D01*
X130231884Y-103450061D01*
X130274961Y-103440528D01*
X130304475Y-103412026D01*
X130321286Y-103376935D01*
X130323161Y-103340175D01*
X130323074Y-103339961D01*
X130301279Y-103320098D01*
X130254632Y-103291192D01*
X130194278Y-103258886D01*
X130131360Y-103228823D01*
X130077023Y-103206646D01*
X130042410Y-103198000D01*
X130037260Y-103206467D01*
X130030778Y-103246309D01*
X130026339Y-103311371D01*
X130024692Y-103393385D01*
X130024309Y-103450153D01*
X130022505Y-103521648D01*
X130019558Y-103570610D01*
X130015843Y-103588769D01*
X129996424Y-103582667D01*
X129957227Y-103566095D01*
X129907462Y-103543420D01*
X129907462Y-103252509D01*
X129907780Y-103177940D01*
X129910789Y-103064701D01*
X129918454Y-102980692D01*
X129932562Y-102919520D01*
X129954899Y-102874795D01*
X129987253Y-102840124D01*
X130031410Y-102809117D01*
X130087667Y-102783528D01*
X130191540Y-102768154D01*
X130238936Y-102769911D01*
G36*
X130238936Y-102769911D02*
G01*
X130280807Y-102780547D01*
X130319791Y-102807062D01*
X130369965Y-102856420D01*
X130402232Y-102891279D01*
X130435844Y-102936534D01*
X130451003Y-102978951D01*
X130454539Y-103032768D01*
X130454539Y-103120850D01*
X130394470Y-103089787D01*
X130346867Y-103051936D01*
X130314261Y-103000950D01*
X130308661Y-102987088D01*
X130265992Y-102933358D01*
X130206707Y-102906417D01*
X130142061Y-102909039D01*
X130083308Y-102944000D01*
X130058450Y-102972394D01*
X130043970Y-103008718D01*
X130059470Y-103041046D01*
X130107667Y-103073565D01*
X130191274Y-103110461D01*
X130203962Y-103115557D01*
X130280078Y-103148907D01*
X130345396Y-103181793D01*
X130386953Y-103207769D01*
X130428576Y-103254167D01*
X130456247Y-103328211D01*
X130453310Y-103407670D01*
X130420571Y-103482868D01*
X130358841Y-103544131D01*
X130308858Y-103570210D01*
X130212303Y-103588470D01*
X130158647Y-103586007D01*
X130108976Y-103572687D01*
X130089919Y-103544739D01*
X130097045Y-103498710D01*
X130099118Y-103492624D01*
X130115556Y-103460349D01*
X130142926Y-103448133D01*
X130195068Y-103448950D01*
X130231884Y-103450061D01*
X130274961Y-103440528D01*
X130304475Y-103412026D01*
X130321286Y-103376935D01*
X130323161Y-103340175D01*
X130323074Y-103339961D01*
X130301279Y-103320098D01*
X130254632Y-103291192D01*
X130194278Y-103258886D01*
X130131360Y-103228823D01*
X130077023Y-103206646D01*
X130042410Y-103198000D01*
X130037260Y-103206467D01*
X130030778Y-103246309D01*
X130026339Y-103311371D01*
X130024692Y-103393385D01*
X130024309Y-103450153D01*
X130022505Y-103521648D01*
X130019558Y-103570610D01*
X130015843Y-103588769D01*
X129996424Y-103582667D01*
X129957227Y-103566095D01*
X129907462Y-103543420D01*
X129907462Y-103252509D01*
X129907780Y-103177940D01*
X129910789Y-103064701D01*
X129918454Y-102980692D01*
X129932562Y-102919520D01*
X129954899Y-102874795D01*
X129987253Y-102840124D01*
X130031410Y-102809117D01*
X130087667Y-102783528D01*
X130191540Y-102768154D01*
X130238936Y-102769911D01*
G37*
X132992575Y-96437693D02*
X133128371Y-96437807D01*
X133230576Y-96438472D01*
X133304122Y-96440182D01*
X133353942Y-96443429D01*
X133384967Y-96448706D01*
X133402129Y-96456507D01*
X133410361Y-96467325D01*
X133414594Y-96481654D01*
X133414716Y-96482168D01*
X133421672Y-96515851D01*
X133434320Y-96580917D01*
X133451360Y-96670542D01*
X133471496Y-96777904D01*
X133493429Y-96896178D01*
X133495218Y-96905856D01*
X133517083Y-97020650D01*
X133537430Y-97121480D01*
X133554934Y-97202217D01*
X133568271Y-97256734D01*
X133576116Y-97278901D01*
X133576158Y-97278936D01*
X133600884Y-97291200D01*
X133651631Y-97311576D01*
X133717462Y-97335674D01*
X133721169Y-97336983D01*
X133805331Y-97368791D01*
X133903230Y-97408685D01*
X133994435Y-97448353D01*
X134144407Y-97516420D01*
X134476499Y-97289639D01*
X134499889Y-97273688D01*
X134600080Y-97205890D01*
X134689480Y-97146208D01*
X134762745Y-97098156D01*
X134814527Y-97065250D01*
X134839480Y-97051004D01*
X134856577Y-97054270D01*
X134895395Y-97079571D01*
X134955385Y-97129675D01*
X135038210Y-97205989D01*
X135145535Y-97309922D01*
X135155139Y-97319382D01*
X135240302Y-97404145D01*
X135315949Y-97480937D01*
X135377449Y-97544947D01*
X135420173Y-97591361D01*
X135439489Y-97615369D01*
X135439552Y-97615485D01*
X135442006Y-97633763D01*
X135432956Y-97663411D01*
X135410119Y-97708486D01*
X135371213Y-97773044D01*
X135313954Y-97861140D01*
X135236059Y-97976830D01*
X135222785Y-97996357D01*
X135155652Y-98095278D01*
X135096410Y-98182848D01*
X135048588Y-98253831D01*
X135015715Y-98302991D01*
X135001318Y-98325095D01*
X135000232Y-98329777D01*
X135007044Y-98364710D01*
X135027450Y-98421753D01*
X135058123Y-98491172D01*
X135099808Y-98581959D01*
X135146352Y-98689686D01*
X135185877Y-98787192D01*
X135195676Y-98812430D01*
X135221340Y-98876870D01*
X135240193Y-98921763D01*
X135248710Y-98938616D01*
X135258111Y-98939875D01*
X135300363Y-98947159D01*
X135369521Y-98959739D01*
X135458387Y-98976246D01*
X135559768Y-98995312D01*
X135666467Y-99015569D01*
X135771288Y-99035647D01*
X135867036Y-99054179D01*
X135946516Y-99069795D01*
X136002530Y-99081127D01*
X136027885Y-99086807D01*
X136032088Y-99088408D01*
X136042334Y-99097045D01*
X136049957Y-99115433D01*
X136055338Y-99148460D01*
X136058859Y-99201013D01*
X136060901Y-99277979D01*
X136061847Y-99384246D01*
X136062077Y-99524701D01*
X136062077Y-99951845D01*
X135959500Y-99972091D01*
X135947092Y-99974518D01*
X135881199Y-99987088D01*
X135790084Y-100004170D01*
X135684104Y-100023829D01*
X135573615Y-100044132D01*
X135530105Y-100052299D01*
X135432882Y-100072167D01*
X135351858Y-100090954D01*
X135294477Y-100106859D01*
X135268187Y-100118079D01*
X135256273Y-100136411D01*
X135234583Y-100184916D01*
X135212395Y-100247692D01*
X135204585Y-100271200D01*
X135175835Y-100348366D01*
X135138752Y-100439694D01*
X135099375Y-100530093D01*
X135078315Y-100577310D01*
X135048311Y-100647837D01*
X135027692Y-100700655D01*
X135020026Y-100726912D01*
X135020452Y-100728894D01*
X135034993Y-100756751D01*
X135067783Y-100810510D01*
X135115493Y-100884963D01*
X135174798Y-100974897D01*
X135242369Y-101075104D01*
X135464713Y-101401416D01*
X135172601Y-101694016D01*
X135144349Y-101722171D01*
X135057961Y-101806449D01*
X134980756Y-101879128D01*
X134917258Y-101936112D01*
X134871990Y-101973307D01*
X134849474Y-101986616D01*
X134825023Y-101976490D01*
X134773819Y-101947421D01*
X134701747Y-101902896D01*
X134614460Y-101846411D01*
X134517612Y-101781462D01*
X134422486Y-101717314D01*
X134336669Y-101660827D01*
X134266652Y-101616184D01*
X134217876Y-101586855D01*
X134195783Y-101576308D01*
X134194488Y-101576404D01*
X134165139Y-101586802D01*
X134113093Y-101611012D01*
X134048708Y-101644249D01*
X134048032Y-101644613D01*
X133962521Y-101687441D01*
X133903926Y-101708365D01*
X133867571Y-101708423D01*
X133848775Y-101688654D01*
X133840819Y-101669195D01*
X133819347Y-101617080D01*
X133786273Y-101536964D01*
X133743356Y-101433107D01*
X133692356Y-101309767D01*
X133635033Y-101171201D01*
X133573146Y-101021670D01*
X133517052Y-100885636D01*
X133459977Y-100746050D01*
X133409479Y-100621315D01*
X133367254Y-100515672D01*
X133334995Y-100433365D01*
X133314397Y-100378635D01*
X133307154Y-100355726D01*
X133320986Y-100334718D01*
X133359412Y-100299642D01*
X133413807Y-100258887D01*
X133544395Y-100152267D01*
X133661260Y-100016025D01*
X133746780Y-99866118D01*
X133800431Y-99706971D01*
X133821684Y-99543012D01*
X133810014Y-99378667D01*
X133764894Y-99218361D01*
X133685797Y-99066520D01*
X133572197Y-98927572D01*
X133512965Y-98873460D01*
X133371054Y-98777782D01*
X133219206Y-98715405D01*
X133061861Y-98684844D01*
X132903456Y-98684615D01*
X132748429Y-98713232D01*
X132601220Y-98769210D01*
X132466266Y-98851064D01*
X132348005Y-98957309D01*
X132250877Y-99086459D01*
X132179318Y-99237031D01*
X132137769Y-99407539D01*
X132130143Y-99489722D01*
X132140634Y-99667775D01*
X132187882Y-99836704D01*
X132270489Y-99993522D01*
X132387059Y-100135245D01*
X132536193Y-100258887D01*
X132588561Y-100297982D01*
X132627832Y-100333443D01*
X132642846Y-100355692D01*
X132636859Y-100375088D01*
X132617432Y-100427059D01*
X132586194Y-100507002D01*
X132544839Y-100610673D01*
X132495061Y-100733832D01*
X132438553Y-100872234D01*
X132377009Y-101021637D01*
X132321008Y-101157020D01*
X132263184Y-101296852D01*
X132211500Y-101421872D01*
X132167718Y-101527822D01*
X132133597Y-101610441D01*
X132110898Y-101665472D01*
X132101380Y-101688654D01*
X132101269Y-101688928D01*
X132082228Y-101708503D01*
X132045694Y-101708279D01*
X131986954Y-101687210D01*
X131901292Y-101644249D01*
X131894549Y-101640631D01*
X131830938Y-101608087D01*
X131780707Y-101585050D01*
X131754218Y-101576308D01*
X131732506Y-101586639D01*
X131683984Y-101615788D01*
X131614163Y-101660287D01*
X131528484Y-101716668D01*
X131432388Y-101781462D01*
X131337706Y-101844984D01*
X131250132Y-101901705D01*
X131177642Y-101946547D01*
X131125889Y-101976016D01*
X131100526Y-101986616D01*
X131096206Y-101985270D01*
X131066092Y-101964056D01*
X131014640Y-101920237D01*
X130946375Y-101857909D01*
X130865820Y-101781170D01*
X130777500Y-101694116D01*
X130485488Y-101401617D01*
X130940360Y-100732525D01*
X130871208Y-100582916D01*
X130871003Y-100582473D01*
X130829477Y-100487101D01*
X130787044Y-100380896D01*
X130752858Y-100286769D01*
X130747684Y-100271588D01*
X130721601Y-100201109D01*
X130698081Y-100146342D01*
X130681677Y-100118079D01*
X130674996Y-100114088D01*
X130634892Y-100100697D01*
X130566795Y-100083373D01*
X130478145Y-100063917D01*
X130376385Y-100044132D01*
X130345904Y-100038551D01*
X130235628Y-100018233D01*
X130132731Y-99999095D01*
X130047569Y-99983070D01*
X129990500Y-99972091D01*
X129887923Y-99951845D01*
X129887923Y-99524701D01*
X129887946Y-99472180D01*
X129888379Y-99344047D01*
X129889659Y-99248420D01*
X129892168Y-99180411D01*
X129896286Y-99135133D01*
X129902395Y-99107697D01*
X129910878Y-99093218D01*
X129922115Y-99086807D01*
X129932994Y-99084209D01*
X129977347Y-99075022D01*
X130048106Y-99060991D01*
X130138074Y-99043486D01*
X130240056Y-99023874D01*
X130346857Y-99003525D01*
X130451281Y-98983807D01*
X130546132Y-98966089D01*
X130624214Y-98951738D01*
X130678332Y-98942124D01*
X130701291Y-98938616D01*
X130702842Y-98936497D01*
X130715325Y-98909006D01*
X130736927Y-98856406D01*
X130764123Y-98787192D01*
X130801866Y-98693937D01*
X130848328Y-98586159D01*
X130891878Y-98491172D01*
X130901858Y-98469851D01*
X130929862Y-98403086D01*
X130946641Y-98351590D01*
X130948854Y-98325095D01*
X130947713Y-98323218D01*
X130929584Y-98295565D01*
X130893644Y-98241849D01*
X130843418Y-98167303D01*
X130782430Y-98077162D01*
X130714205Y-97976657D01*
X130637330Y-97862470D01*
X130579663Y-97773770D01*
X130540426Y-97708721D01*
X130517350Y-97663295D01*
X130508166Y-97633463D01*
X130510604Y-97615195D01*
X130511424Y-97613825D01*
X130533477Y-97587205D01*
X130578436Y-97538697D01*
X130641673Y-97473108D01*
X130718559Y-97395247D01*
X130804465Y-97309922D01*
X130893579Y-97223334D01*
X130980872Y-97141947D01*
X131045018Y-97087035D01*
X131087679Y-97057190D01*
X131110521Y-97051004D01*
X131113505Y-97052394D01*
X131144936Y-97071127D01*
X131201997Y-97107733D01*
X131279343Y-97158697D01*
X131371626Y-97220504D01*
X131473502Y-97289639D01*
X131805593Y-97516420D01*
X131955566Y-97448353D01*
X131959923Y-97446381D01*
X132052000Y-97406491D01*
X132149683Y-97366818D01*
X132232539Y-97335674D01*
X132232905Y-97335545D01*
X132298685Y-97311456D01*
X132349323Y-97291110D01*
X132373884Y-97278901D01*
X132374282Y-97278458D01*
X132382619Y-97253456D01*
X132396341Y-97196598D01*
X132414123Y-97114014D01*
X132434641Y-97011831D01*
X132456571Y-96896178D01*
X132457336Y-96892033D01*
X132479229Y-96774019D01*
X132499281Y-96667151D01*
X132516192Y-96578252D01*
X132528667Y-96514145D01*
X132535406Y-96481654D01*
X132535837Y-96479853D01*
X132540273Y-96465944D01*
X132549263Y-96455489D01*
X132567737Y-96447996D01*
X132600628Y-96442972D01*
X132652868Y-96439922D01*
X132729388Y-96438355D01*
X132835122Y-96437776D01*
X132975000Y-96437692D01*
X132992575Y-96437693D01*
G36*
X132992575Y-96437693D02*
G01*
X133128371Y-96437807D01*
X133230576Y-96438472D01*
X133304122Y-96440182D01*
X133353942Y-96443429D01*
X133384967Y-96448706D01*
X133402129Y-96456507D01*
X133410361Y-96467325D01*
X133414594Y-96481654D01*
X133414716Y-96482168D01*
X133421672Y-96515851D01*
X133434320Y-96580917D01*
X133451360Y-96670542D01*
X133471496Y-96777904D01*
X133493429Y-96896178D01*
X133495218Y-96905856D01*
X133517083Y-97020650D01*
X133537430Y-97121480D01*
X133554934Y-97202217D01*
X133568271Y-97256734D01*
X133576116Y-97278901D01*
X133576158Y-97278936D01*
X133600884Y-97291200D01*
X133651631Y-97311576D01*
X133717462Y-97335674D01*
X133721169Y-97336983D01*
X133805331Y-97368791D01*
X133903230Y-97408685D01*
X133994435Y-97448353D01*
X134144407Y-97516420D01*
X134476499Y-97289639D01*
X134499889Y-97273688D01*
X134600080Y-97205890D01*
X134689480Y-97146208D01*
X134762745Y-97098156D01*
X134814527Y-97065250D01*
X134839480Y-97051004D01*
X134856577Y-97054270D01*
X134895395Y-97079571D01*
X134955385Y-97129675D01*
X135038210Y-97205989D01*
X135145535Y-97309922D01*
X135155139Y-97319382D01*
X135240302Y-97404145D01*
X135315949Y-97480937D01*
X135377449Y-97544947D01*
X135420173Y-97591361D01*
X135439489Y-97615369D01*
X135439552Y-97615485D01*
X135442006Y-97633763D01*
X135432956Y-97663411D01*
X135410119Y-97708486D01*
X135371213Y-97773044D01*
X135313954Y-97861140D01*
X135236059Y-97976830D01*
X135222785Y-97996357D01*
X135155652Y-98095278D01*
X135096410Y-98182848D01*
X135048588Y-98253831D01*
X135015715Y-98302991D01*
X135001318Y-98325095D01*
X135000232Y-98329777D01*
X135007044Y-98364710D01*
X135027450Y-98421753D01*
X135058123Y-98491172D01*
X135099808Y-98581959D01*
X135146352Y-98689686D01*
X135185877Y-98787192D01*
X135195676Y-98812430D01*
X135221340Y-98876870D01*
X135240193Y-98921763D01*
X135248710Y-98938616D01*
X135258111Y-98939875D01*
X135300363Y-98947159D01*
X135369521Y-98959739D01*
X135458387Y-98976246D01*
X135559768Y-98995312D01*
X135666467Y-99015569D01*
X135771288Y-99035647D01*
X135867036Y-99054179D01*
X135946516Y-99069795D01*
X136002530Y-99081127D01*
X136027885Y-99086807D01*
X136032088Y-99088408D01*
X136042334Y-99097045D01*
X136049957Y-99115433D01*
X136055338Y-99148460D01*
X136058859Y-99201013D01*
X136060901Y-99277979D01*
X136061847Y-99384246D01*
X136062077Y-99524701D01*
X136062077Y-99951845D01*
X135959500Y-99972091D01*
X135947092Y-99974518D01*
X135881199Y-99987088D01*
X135790084Y-100004170D01*
X135684104Y-100023829D01*
X135573615Y-100044132D01*
X135530105Y-100052299D01*
X135432882Y-100072167D01*
X135351858Y-100090954D01*
X135294477Y-100106859D01*
X135268187Y-100118079D01*
X135256273Y-100136411D01*
X135234583Y-100184916D01*
X135212395Y-100247692D01*
X135204585Y-100271200D01*
X135175835Y-100348366D01*
X135138752Y-100439694D01*
X135099375Y-100530093D01*
X135078315Y-100577310D01*
X135048311Y-100647837D01*
X135027692Y-100700655D01*
X135020026Y-100726912D01*
X135020452Y-100728894D01*
X135034993Y-100756751D01*
X135067783Y-100810510D01*
X135115493Y-100884963D01*
X135174798Y-100974897D01*
X135242369Y-101075104D01*
X135464713Y-101401416D01*
X135172601Y-101694016D01*
X135144349Y-101722171D01*
X135057961Y-101806449D01*
X134980756Y-101879128D01*
X134917258Y-101936112D01*
X134871990Y-101973307D01*
X134849474Y-101986616D01*
X134825023Y-101976490D01*
X134773819Y-101947421D01*
X134701747Y-101902896D01*
X134614460Y-101846411D01*
X134517612Y-101781462D01*
X134422486Y-101717314D01*
X134336669Y-101660827D01*
X134266652Y-101616184D01*
X134217876Y-101586855D01*
X134195783Y-101576308D01*
X134194488Y-101576404D01*
X134165139Y-101586802D01*
X134113093Y-101611012D01*
X134048708Y-101644249D01*
X134048032Y-101644613D01*
X133962521Y-101687441D01*
X133903926Y-101708365D01*
X133867571Y-101708423D01*
X133848775Y-101688654D01*
X133840819Y-101669195D01*
X133819347Y-101617080D01*
X133786273Y-101536964D01*
X133743356Y-101433107D01*
X133692356Y-101309767D01*
X133635033Y-101171201D01*
X133573146Y-101021670D01*
X133517052Y-100885636D01*
X133459977Y-100746050D01*
X133409479Y-100621315D01*
X133367254Y-100515672D01*
X133334995Y-100433365D01*
X133314397Y-100378635D01*
X133307154Y-100355726D01*
X133320986Y-100334718D01*
X133359412Y-100299642D01*
X133413807Y-100258887D01*
X133544395Y-100152267D01*
X133661260Y-100016025D01*
X133746780Y-99866118D01*
X133800431Y-99706971D01*
X133821684Y-99543012D01*
X133810014Y-99378667D01*
X133764894Y-99218361D01*
X133685797Y-99066520D01*
X133572197Y-98927572D01*
X133512965Y-98873460D01*
X133371054Y-98777782D01*
X133219206Y-98715405D01*
X133061861Y-98684844D01*
X132903456Y-98684615D01*
X132748429Y-98713232D01*
X132601220Y-98769210D01*
X132466266Y-98851064D01*
X132348005Y-98957309D01*
X132250877Y-99086459D01*
X132179318Y-99237031D01*
X132137769Y-99407539D01*
X132130143Y-99489722D01*
X132140634Y-99667775D01*
X132187882Y-99836704D01*
X132270489Y-99993522D01*
X132387059Y-100135245D01*
X132536193Y-100258887D01*
X132588561Y-100297982D01*
X132627832Y-100333443D01*
X132642846Y-100355692D01*
X132636859Y-100375088D01*
X132617432Y-100427059D01*
X132586194Y-100507002D01*
X132544839Y-100610673D01*
X132495061Y-100733832D01*
X132438553Y-100872234D01*
X132377009Y-101021637D01*
X132321008Y-101157020D01*
X132263184Y-101296852D01*
X132211500Y-101421872D01*
X132167718Y-101527822D01*
X132133597Y-101610441D01*
X132110898Y-101665472D01*
X132101380Y-101688654D01*
X132101269Y-101688928D01*
X132082228Y-101708503D01*
X132045694Y-101708279D01*
X131986954Y-101687210D01*
X131901292Y-101644249D01*
X131894549Y-101640631D01*
X131830938Y-101608087D01*
X131780707Y-101585050D01*
X131754218Y-101576308D01*
X131732506Y-101586639D01*
X131683984Y-101615788D01*
X131614163Y-101660287D01*
X131528484Y-101716668D01*
X131432388Y-101781462D01*
X131337706Y-101844984D01*
X131250132Y-101901705D01*
X131177642Y-101946547D01*
X131125889Y-101976016D01*
X131100526Y-101986616D01*
X131096206Y-101985270D01*
X131066092Y-101964056D01*
X131014640Y-101920237D01*
X130946375Y-101857909D01*
X130865820Y-101781170D01*
X130777500Y-101694116D01*
X130485488Y-101401617D01*
X130940360Y-100732525D01*
X130871208Y-100582916D01*
X130871003Y-100582473D01*
X130829477Y-100487101D01*
X130787044Y-100380896D01*
X130752858Y-100286769D01*
X130747684Y-100271588D01*
X130721601Y-100201109D01*
X130698081Y-100146342D01*
X130681677Y-100118079D01*
X130674996Y-100114088D01*
X130634892Y-100100697D01*
X130566795Y-100083373D01*
X130478145Y-100063917D01*
X130376385Y-100044132D01*
X130345904Y-100038551D01*
X130235628Y-100018233D01*
X130132731Y-99999095D01*
X130047569Y-99983070D01*
X129990500Y-99972091D01*
X129887923Y-99951845D01*
X129887923Y-99524701D01*
X129887946Y-99472180D01*
X129888379Y-99344047D01*
X129889659Y-99248420D01*
X129892168Y-99180411D01*
X129896286Y-99135133D01*
X129902395Y-99107697D01*
X129910878Y-99093218D01*
X129922115Y-99086807D01*
X129932994Y-99084209D01*
X129977347Y-99075022D01*
X130048106Y-99060991D01*
X130138074Y-99043486D01*
X130240056Y-99023874D01*
X130346857Y-99003525D01*
X130451281Y-98983807D01*
X130546132Y-98966089D01*
X130624214Y-98951738D01*
X130678332Y-98942124D01*
X130701291Y-98938616D01*
X130702842Y-98936497D01*
X130715325Y-98909006D01*
X130736927Y-98856406D01*
X130764123Y-98787192D01*
X130801866Y-98693937D01*
X130848328Y-98586159D01*
X130891878Y-98491172D01*
X130901858Y-98469851D01*
X130929862Y-98403086D01*
X130946641Y-98351590D01*
X130948854Y-98325095D01*
X130947713Y-98323218D01*
X130929584Y-98295565D01*
X130893644Y-98241849D01*
X130843418Y-98167303D01*
X130782430Y-98077162D01*
X130714205Y-97976657D01*
X130637330Y-97862470D01*
X130579663Y-97773770D01*
X130540426Y-97708721D01*
X130517350Y-97663295D01*
X130508166Y-97633463D01*
X130510604Y-97615195D01*
X130511424Y-97613825D01*
X130533477Y-97587205D01*
X130578436Y-97538697D01*
X130641673Y-97473108D01*
X130718559Y-97395247D01*
X130804465Y-97309922D01*
X130893579Y-97223334D01*
X130980872Y-97141947D01*
X131045018Y-97087035D01*
X131087679Y-97057190D01*
X131110521Y-97051004D01*
X131113505Y-97052394D01*
X131144936Y-97071127D01*
X131201997Y-97107733D01*
X131279343Y-97158697D01*
X131371626Y-97220504D01*
X131473502Y-97289639D01*
X131805593Y-97516420D01*
X131955566Y-97448353D01*
X131959923Y-97446381D01*
X132052000Y-97406491D01*
X132149683Y-97366818D01*
X132232539Y-97335674D01*
X132232905Y-97335545D01*
X132298685Y-97311456D01*
X132349323Y-97291110D01*
X132373884Y-97278901D01*
X132374282Y-97278458D01*
X132382619Y-97253456D01*
X132396341Y-97196598D01*
X132414123Y-97114014D01*
X132434641Y-97011831D01*
X132456571Y-96896178D01*
X132457336Y-96892033D01*
X132479229Y-96774019D01*
X132499281Y-96667151D01*
X132516192Y-96578252D01*
X132528667Y-96514145D01*
X132535406Y-96481654D01*
X132535837Y-96479853D01*
X132540273Y-96465944D01*
X132549263Y-96455489D01*
X132567737Y-96447996D01*
X132600628Y-96442972D01*
X132652868Y-96439922D01*
X132729388Y-96438355D01*
X132835122Y-96437776D01*
X132975000Y-96437692D01*
X132992575Y-96437693D01*
G37*
%TD*%
M02*
