%TF.GenerationSoftware,KiCad,Pcbnew,7.0.7*%
%TF.CreationDate,2023-11-02T08:25:27-05:00*%
%TF.ProjectId,PCI_Blaster,5043495f-426c-4617-9374-65722e6b6963,rev?*%
%TF.SameCoordinates,Original*%
%TF.FileFunction,Soldermask,Bot*%
%TF.FilePolarity,Negative*%
%FSLAX46Y46*%
G04 Gerber Fmt 4.6, Leading zero omitted, Abs format (unit mm)*
G04 Created by KiCad (PCBNEW 7.0.7) date 2023-11-02 08:25:27*
%MOMM*%
%LPD*%
G01*
G04 APERTURE LIST*
%ADD10R,2.200000X2.200000*%
%ADD11O,2.200000X2.200000*%
%ADD12R,1.700000X1.700000*%
%ADD13R,1.020000X4.570000*%
%ADD14R,0.510000X0.760000*%
%ADD15R,1.800000X1.800000*%
%ADD16C,1.800000*%
%ADD17C,1.600000*%
%ADD18O,1.600000X1.600000*%
G04 APERTURE END LIST*
D10*
%TO.C,D2*%
X117465000Y-101625000D03*
D11*
X125085000Y-101625000D03*
%TD*%
D12*
%TO.C,TP2*%
X184525000Y-101845000D03*
%TD*%
D13*
%TO.C,J1*%
X115365000Y-108730000D03*
D14*
X115365000Y-111390000D03*
D13*
X116635000Y-108730000D03*
D14*
X116635000Y-111390000D03*
D13*
X117895000Y-108730000D03*
D14*
X117895000Y-111390000D03*
D13*
X119175000Y-108730000D03*
D14*
X119175000Y-111390000D03*
D13*
X120445000Y-108730000D03*
D14*
X120445000Y-111390000D03*
D13*
X121715000Y-108730000D03*
D14*
X121715000Y-111390000D03*
D13*
X122985000Y-108730000D03*
D14*
X122985000Y-111390000D03*
D13*
X124255000Y-108730000D03*
D14*
X124255000Y-111390000D03*
D13*
X125525000Y-108730000D03*
D14*
X125525000Y-111390000D03*
D13*
X126795000Y-108730000D03*
D14*
X126795000Y-111390000D03*
D13*
X128065000Y-108730000D03*
D14*
X128065000Y-111390000D03*
D13*
X129325000Y-108730000D03*
D14*
X129325000Y-111390000D03*
D13*
X130605000Y-108730000D03*
D14*
X130605000Y-111390000D03*
D13*
X131875000Y-108730000D03*
D14*
X131875000Y-111390000D03*
D13*
X133145000Y-108730000D03*
D14*
X133145000Y-111390000D03*
D13*
X134415000Y-108730000D03*
D14*
X134415000Y-111390000D03*
D13*
X135685000Y-108730000D03*
D14*
X135685000Y-111390000D03*
D13*
X136955000Y-108730000D03*
D14*
X136955000Y-111390000D03*
D13*
X138215000Y-108730000D03*
D14*
X138215000Y-111390000D03*
D13*
X139495000Y-108730000D03*
D14*
X139495000Y-111390000D03*
D13*
X140755000Y-108730000D03*
D14*
X140755000Y-111390000D03*
D13*
X142035000Y-108730000D03*
D14*
X142035000Y-111390000D03*
D13*
X143305000Y-108730000D03*
D14*
X143305000Y-111390000D03*
D13*
X144575000Y-108730000D03*
D14*
X144575000Y-111390000D03*
D13*
X145845000Y-108730000D03*
D14*
X145845000Y-111390000D03*
D13*
X147115000Y-108730000D03*
D14*
X147115000Y-111390000D03*
D13*
X148385000Y-108730000D03*
D14*
X148385000Y-111390000D03*
D13*
X149655000Y-108730000D03*
D14*
X149655000Y-111390000D03*
D13*
X150925000Y-108730000D03*
D14*
X150925000Y-111390000D03*
D13*
X152195000Y-108730000D03*
D14*
X152195000Y-111390000D03*
D13*
X153465000Y-108730000D03*
D14*
X153465000Y-111390000D03*
D13*
X154735000Y-108730000D03*
D14*
X154735000Y-111390000D03*
D13*
X156005000Y-108730000D03*
D14*
X156005000Y-111390000D03*
D13*
X157275000Y-108730000D03*
D14*
X157275000Y-111390000D03*
D13*
X158545000Y-108730000D03*
D14*
X158545000Y-111390000D03*
D13*
X159815000Y-108730000D03*
D14*
X159815000Y-111390000D03*
D13*
X161085000Y-108730000D03*
D14*
X161085000Y-111390000D03*
D13*
X162355000Y-108730000D03*
D14*
X162355000Y-111390000D03*
D13*
X163625000Y-108730000D03*
D14*
X163625000Y-111390000D03*
D13*
X164895000Y-108730000D03*
D14*
X164895000Y-111390000D03*
D13*
X166165000Y-108730000D03*
D14*
X166165000Y-111390000D03*
D13*
X167435000Y-108730000D03*
D14*
X167435000Y-111390000D03*
D13*
X168705000Y-108730000D03*
D14*
X168705000Y-111390000D03*
D13*
X169975000Y-108730000D03*
D14*
X169975000Y-111390000D03*
D13*
X171245000Y-108730000D03*
D14*
X171245000Y-111390000D03*
D13*
X172515000Y-108730000D03*
D14*
X172515000Y-111390000D03*
D13*
X173785000Y-108730000D03*
D14*
X173785000Y-111390000D03*
D13*
X175055000Y-108730000D03*
D14*
X175055000Y-111390000D03*
D13*
X176325000Y-108730000D03*
D14*
X176325000Y-111390000D03*
D13*
X180135000Y-108730000D03*
D14*
X180135000Y-111390000D03*
D13*
X181405000Y-108730000D03*
D14*
X181405000Y-111390000D03*
D13*
X182675000Y-108730000D03*
D14*
X182675000Y-111390000D03*
D13*
X183945000Y-108730000D03*
D14*
X183945000Y-111390000D03*
D13*
X185215000Y-108730000D03*
D14*
X185215000Y-111390000D03*
D13*
X186485000Y-108730000D03*
D14*
X186485000Y-111390000D03*
D13*
X187755000Y-108730000D03*
D14*
X187755000Y-111390000D03*
D13*
X189025000Y-108730000D03*
D14*
X189025000Y-111390000D03*
D13*
X190295000Y-108730000D03*
D14*
X190295000Y-111390000D03*
D13*
X191565000Y-108730000D03*
D14*
X191565000Y-111390000D03*
D13*
X192825000Y-108730000D03*
D14*
X192825000Y-111390000D03*
%TD*%
D15*
%TO.C,+3.3V*%
X188790000Y-100250000D03*
D16*
X191330000Y-100250000D03*
%TD*%
D17*
%TO.C,R1*%
X175590000Y-98500000D03*
D18*
X185750000Y-98500000D03*
%TD*%
D17*
%TO.C,C1*%
X138050000Y-101460000D03*
D18*
X128050000Y-101460000D03*
%TD*%
D10*
%TO.C,D1*%
X117465000Y-97375000D03*
D11*
X125085000Y-97375000D03*
%TD*%
D17*
%TO.C,C2*%
X138050000Y-97300000D03*
D18*
X128050000Y-97300000D03*
%TD*%
D12*
%TO.C,TP1*%
X180875000Y-101805000D03*
%TD*%
M02*
