%TF.GenerationSoftware,KiCad,Pcbnew,7.0.7*%
%TF.CreationDate,2023-11-02T08:25:27-05:00*%
%TF.ProjectId,PCI_Blaster,5043495f-426c-4617-9374-65722e6b6963,rev?*%
%TF.SameCoordinates,Original*%
%TF.FileFunction,Legend,Top*%
%TF.FilePolarity,Positive*%
%FSLAX46Y46*%
G04 Gerber Fmt 4.6, Leading zero omitted, Abs format (unit mm)*
G04 Created by KiCad (PCBNEW 7.0.7) date 2023-11-02 08:25:27*
%MOMM*%
%LPD*%
G01*
G04 APERTURE LIST*
%ADD10C,0.125000*%
%ADD11C,0.300000*%
%ADD12C,0.200000*%
%ADD13C,0.150000*%
%ADD14C,0.120000*%
G04 APERTURE END LIST*
D10*
X119353333Y-104249595D02*
X119353333Y-103449595D01*
X119353333Y-103449595D02*
X119543809Y-103449595D01*
X119543809Y-103449595D02*
X119658095Y-103487690D01*
X119658095Y-103487690D02*
X119734285Y-103563880D01*
X119734285Y-103563880D02*
X119772380Y-103640071D01*
X119772380Y-103640071D02*
X119810476Y-103792452D01*
X119810476Y-103792452D02*
X119810476Y-103906738D01*
X119810476Y-103906738D02*
X119772380Y-104059119D01*
X119772380Y-104059119D02*
X119734285Y-104135309D01*
X119734285Y-104135309D02*
X119658095Y-104211500D01*
X119658095Y-104211500D02*
X119543809Y-104249595D01*
X119543809Y-104249595D02*
X119353333Y-104249595D01*
X120572380Y-104249595D02*
X120115237Y-104249595D01*
X120343809Y-104249595D02*
X120343809Y-103449595D01*
X120343809Y-103449595D02*
X120267618Y-103563880D01*
X120267618Y-103563880D02*
X120191428Y-103640071D01*
X120191428Y-103640071D02*
X120115237Y-103678166D01*
X120953333Y-104211500D02*
X120953333Y-104249595D01*
X120953333Y-104249595D02*
X120915238Y-104325785D01*
X120915238Y-104325785D02*
X120877142Y-104363880D01*
X121905714Y-104249595D02*
X121905714Y-103449595D01*
X121905714Y-103449595D02*
X122096190Y-103449595D01*
X122096190Y-103449595D02*
X122210476Y-103487690D01*
X122210476Y-103487690D02*
X122286666Y-103563880D01*
X122286666Y-103563880D02*
X122324761Y-103640071D01*
X122324761Y-103640071D02*
X122362857Y-103792452D01*
X122362857Y-103792452D02*
X122362857Y-103906738D01*
X122362857Y-103906738D02*
X122324761Y-104059119D01*
X122324761Y-104059119D02*
X122286666Y-104135309D01*
X122286666Y-104135309D02*
X122210476Y-104211500D01*
X122210476Y-104211500D02*
X122096190Y-104249595D01*
X122096190Y-104249595D02*
X121905714Y-104249595D01*
X122667618Y-103525785D02*
X122705714Y-103487690D01*
X122705714Y-103487690D02*
X122781904Y-103449595D01*
X122781904Y-103449595D02*
X122972380Y-103449595D01*
X122972380Y-103449595D02*
X123048571Y-103487690D01*
X123048571Y-103487690D02*
X123086666Y-103525785D01*
X123086666Y-103525785D02*
X123124761Y-103601976D01*
X123124761Y-103601976D02*
X123124761Y-103678166D01*
X123124761Y-103678166D02*
X123086666Y-103792452D01*
X123086666Y-103792452D02*
X122629523Y-104249595D01*
X122629523Y-104249595D02*
X123124761Y-104249595D01*
X119505713Y-105537595D02*
X119048570Y-105537595D01*
X119277142Y-105537595D02*
X119277142Y-104737595D01*
X119277142Y-104737595D02*
X119200951Y-104851880D01*
X119200951Y-104851880D02*
X119124761Y-104928071D01*
X119124761Y-104928071D02*
X119048570Y-104966166D01*
X119848571Y-105537595D02*
X119848571Y-104737595D01*
X119848571Y-104737595D02*
X120305714Y-105537595D01*
X120305714Y-105537595D02*
X120305714Y-104737595D01*
X121029523Y-105004261D02*
X121029523Y-105537595D01*
X120839047Y-104699500D02*
X120648570Y-105270928D01*
X120648570Y-105270928D02*
X121143809Y-105270928D01*
X121600952Y-104737595D02*
X121677142Y-104737595D01*
X121677142Y-104737595D02*
X121753333Y-104775690D01*
X121753333Y-104775690D02*
X121791428Y-104813785D01*
X121791428Y-104813785D02*
X121829523Y-104889976D01*
X121829523Y-104889976D02*
X121867618Y-105042357D01*
X121867618Y-105042357D02*
X121867618Y-105232833D01*
X121867618Y-105232833D02*
X121829523Y-105385214D01*
X121829523Y-105385214D02*
X121791428Y-105461404D01*
X121791428Y-105461404D02*
X121753333Y-105499500D01*
X121753333Y-105499500D02*
X121677142Y-105537595D01*
X121677142Y-105537595D02*
X121600952Y-105537595D01*
X121600952Y-105537595D02*
X121524761Y-105499500D01*
X121524761Y-105499500D02*
X121486666Y-105461404D01*
X121486666Y-105461404D02*
X121448571Y-105385214D01*
X121448571Y-105385214D02*
X121410475Y-105232833D01*
X121410475Y-105232833D02*
X121410475Y-105042357D01*
X121410475Y-105042357D02*
X121448571Y-104889976D01*
X121448571Y-104889976D02*
X121486666Y-104813785D01*
X121486666Y-104813785D02*
X121524761Y-104775690D01*
X121524761Y-104775690D02*
X121600952Y-104737595D01*
X122362857Y-104737595D02*
X122439047Y-104737595D01*
X122439047Y-104737595D02*
X122515238Y-104775690D01*
X122515238Y-104775690D02*
X122553333Y-104813785D01*
X122553333Y-104813785D02*
X122591428Y-104889976D01*
X122591428Y-104889976D02*
X122629523Y-105042357D01*
X122629523Y-105042357D02*
X122629523Y-105232833D01*
X122629523Y-105232833D02*
X122591428Y-105385214D01*
X122591428Y-105385214D02*
X122553333Y-105461404D01*
X122553333Y-105461404D02*
X122515238Y-105499500D01*
X122515238Y-105499500D02*
X122439047Y-105537595D01*
X122439047Y-105537595D02*
X122362857Y-105537595D01*
X122362857Y-105537595D02*
X122286666Y-105499500D01*
X122286666Y-105499500D02*
X122248571Y-105461404D01*
X122248571Y-105461404D02*
X122210476Y-105385214D01*
X122210476Y-105385214D02*
X122172380Y-105232833D01*
X122172380Y-105232833D02*
X122172380Y-105042357D01*
X122172380Y-105042357D02*
X122210476Y-104889976D01*
X122210476Y-104889976D02*
X122248571Y-104813785D01*
X122248571Y-104813785D02*
X122286666Y-104775690D01*
X122286666Y-104775690D02*
X122362857Y-104737595D01*
X123353333Y-104737595D02*
X122972381Y-104737595D01*
X122972381Y-104737595D02*
X122934285Y-105118547D01*
X122934285Y-105118547D02*
X122972381Y-105080452D01*
X122972381Y-105080452D02*
X123048571Y-105042357D01*
X123048571Y-105042357D02*
X123239047Y-105042357D01*
X123239047Y-105042357D02*
X123315238Y-105080452D01*
X123315238Y-105080452D02*
X123353333Y-105118547D01*
X123353333Y-105118547D02*
X123391428Y-105194738D01*
X123391428Y-105194738D02*
X123391428Y-105385214D01*
X123391428Y-105385214D02*
X123353333Y-105461404D01*
X123353333Y-105461404D02*
X123315238Y-105499500D01*
X123315238Y-105499500D02*
X123239047Y-105537595D01*
X123239047Y-105537595D02*
X123048571Y-105537595D01*
X123048571Y-105537595D02*
X122972381Y-105499500D01*
X122972381Y-105499500D02*
X122934285Y-105461404D01*
D11*
X136248558Y-99427733D02*
X137772368Y-99427733D01*
X137010463Y-100189638D02*
X137010463Y-98665828D01*
D12*
X187630326Y-90102780D02*
X187630326Y-91102780D01*
X187630326Y-91102780D02*
X187249374Y-91102780D01*
X187249374Y-91102780D02*
X187154136Y-91055161D01*
X187154136Y-91055161D02*
X187106517Y-91007542D01*
X187106517Y-91007542D02*
X187058898Y-90912304D01*
X187058898Y-90912304D02*
X187058898Y-90769447D01*
X187058898Y-90769447D02*
X187106517Y-90674209D01*
X187106517Y-90674209D02*
X187154136Y-90626590D01*
X187154136Y-90626590D02*
X187249374Y-90578971D01*
X187249374Y-90578971D02*
X187630326Y-90578971D01*
X186630326Y-91102780D02*
X186630326Y-90293257D01*
X186630326Y-90293257D02*
X186582707Y-90198019D01*
X186582707Y-90198019D02*
X186535088Y-90150400D01*
X186535088Y-90150400D02*
X186439850Y-90102780D01*
X186439850Y-90102780D02*
X186249374Y-90102780D01*
X186249374Y-90102780D02*
X186154136Y-90150400D01*
X186154136Y-90150400D02*
X186106517Y-90198019D01*
X186106517Y-90198019D02*
X186058898Y-90293257D01*
X186058898Y-90293257D02*
X186058898Y-91102780D01*
X185106517Y-90102780D02*
X185582707Y-90102780D01*
X185582707Y-90102780D02*
X185582707Y-91102780D01*
X184296993Y-90102780D02*
X184773183Y-90102780D01*
X184773183Y-90102780D02*
X184773183Y-91102780D01*
X123630326Y-90102780D02*
X123630326Y-91102780D01*
X123630326Y-91102780D02*
X123249374Y-91102780D01*
X123249374Y-91102780D02*
X123154136Y-91055161D01*
X123154136Y-91055161D02*
X123106517Y-91007542D01*
X123106517Y-91007542D02*
X123058898Y-90912304D01*
X123058898Y-90912304D02*
X123058898Y-90769447D01*
X123058898Y-90769447D02*
X123106517Y-90674209D01*
X123106517Y-90674209D02*
X123154136Y-90626590D01*
X123154136Y-90626590D02*
X123249374Y-90578971D01*
X123249374Y-90578971D02*
X123630326Y-90578971D01*
X122630326Y-91102780D02*
X122630326Y-90293257D01*
X122630326Y-90293257D02*
X122582707Y-90198019D01*
X122582707Y-90198019D02*
X122535088Y-90150400D01*
X122535088Y-90150400D02*
X122439850Y-90102780D01*
X122439850Y-90102780D02*
X122249374Y-90102780D01*
X122249374Y-90102780D02*
X122154136Y-90150400D01*
X122154136Y-90150400D02*
X122106517Y-90198019D01*
X122106517Y-90198019D02*
X122058898Y-90293257D01*
X122058898Y-90293257D02*
X122058898Y-91102780D01*
X121106517Y-90102780D02*
X121582707Y-90102780D01*
X121582707Y-90102780D02*
X121582707Y-91102780D01*
X120296993Y-90102780D02*
X120773183Y-90102780D01*
X120773183Y-90102780D02*
X120773183Y-91102780D01*
D13*
X158720112Y-95696009D02*
X158862969Y-95743628D01*
X158862969Y-95743628D02*
X158910588Y-95791247D01*
X158910588Y-95791247D02*
X158958207Y-95886485D01*
X158958207Y-95886485D02*
X158958207Y-96029342D01*
X158958207Y-96029342D02*
X158910588Y-96124580D01*
X158910588Y-96124580D02*
X158862969Y-96172200D01*
X158862969Y-96172200D02*
X158767731Y-96219819D01*
X158767731Y-96219819D02*
X158386779Y-96219819D01*
X158386779Y-96219819D02*
X158386779Y-95219819D01*
X158386779Y-95219819D02*
X158720112Y-95219819D01*
X158720112Y-95219819D02*
X158815350Y-95267438D01*
X158815350Y-95267438D02*
X158862969Y-95315057D01*
X158862969Y-95315057D02*
X158910588Y-95410295D01*
X158910588Y-95410295D02*
X158910588Y-95505533D01*
X158910588Y-95505533D02*
X158862969Y-95600771D01*
X158862969Y-95600771D02*
X158815350Y-95648390D01*
X158815350Y-95648390D02*
X158720112Y-95696009D01*
X158720112Y-95696009D02*
X158386779Y-95696009D01*
X159529636Y-96219819D02*
X159434398Y-96172200D01*
X159434398Y-96172200D02*
X159386779Y-96124580D01*
X159386779Y-96124580D02*
X159339160Y-96029342D01*
X159339160Y-96029342D02*
X159339160Y-95743628D01*
X159339160Y-95743628D02*
X159386779Y-95648390D01*
X159386779Y-95648390D02*
X159434398Y-95600771D01*
X159434398Y-95600771D02*
X159529636Y-95553152D01*
X159529636Y-95553152D02*
X159672493Y-95553152D01*
X159672493Y-95553152D02*
X159767731Y-95600771D01*
X159767731Y-95600771D02*
X159815350Y-95648390D01*
X159815350Y-95648390D02*
X159862969Y-95743628D01*
X159862969Y-95743628D02*
X159862969Y-96029342D01*
X159862969Y-96029342D02*
X159815350Y-96124580D01*
X159815350Y-96124580D02*
X159767731Y-96172200D01*
X159767731Y-96172200D02*
X159672493Y-96219819D01*
X159672493Y-96219819D02*
X159529636Y-96219819D01*
X160148684Y-95553152D02*
X160529636Y-95553152D01*
X160291541Y-95219819D02*
X160291541Y-96076961D01*
X160291541Y-96076961D02*
X160339160Y-96172200D01*
X160339160Y-96172200D02*
X160434398Y-96219819D01*
X160434398Y-96219819D02*
X160529636Y-96219819D01*
X160720113Y-95553152D02*
X161101065Y-95553152D01*
X160862970Y-95219819D02*
X160862970Y-96076961D01*
X160862970Y-96076961D02*
X160910589Y-96172200D01*
X160910589Y-96172200D02*
X161005827Y-96219819D01*
X161005827Y-96219819D02*
X161101065Y-96219819D01*
X161577256Y-96219819D02*
X161482018Y-96172200D01*
X161482018Y-96172200D02*
X161434399Y-96124580D01*
X161434399Y-96124580D02*
X161386780Y-96029342D01*
X161386780Y-96029342D02*
X161386780Y-95743628D01*
X161386780Y-95743628D02*
X161434399Y-95648390D01*
X161434399Y-95648390D02*
X161482018Y-95600771D01*
X161482018Y-95600771D02*
X161577256Y-95553152D01*
X161577256Y-95553152D02*
X161720113Y-95553152D01*
X161720113Y-95553152D02*
X161815351Y-95600771D01*
X161815351Y-95600771D02*
X161862970Y-95648390D01*
X161862970Y-95648390D02*
X161910589Y-95743628D01*
X161910589Y-95743628D02*
X161910589Y-96029342D01*
X161910589Y-96029342D02*
X161862970Y-96124580D01*
X161862970Y-96124580D02*
X161815351Y-96172200D01*
X161815351Y-96172200D02*
X161720113Y-96219819D01*
X161720113Y-96219819D02*
X161577256Y-96219819D01*
X162339161Y-96219819D02*
X162339161Y-95553152D01*
X162339161Y-95648390D02*
X162386780Y-95600771D01*
X162386780Y-95600771D02*
X162482018Y-95553152D01*
X162482018Y-95553152D02*
X162624875Y-95553152D01*
X162624875Y-95553152D02*
X162720113Y-95600771D01*
X162720113Y-95600771D02*
X162767732Y-95696009D01*
X162767732Y-95696009D02*
X162767732Y-96219819D01*
X162767732Y-95696009D02*
X162815351Y-95600771D01*
X162815351Y-95600771D02*
X162910589Y-95553152D01*
X162910589Y-95553152D02*
X163053446Y-95553152D01*
X163053446Y-95553152D02*
X163148685Y-95600771D01*
X163148685Y-95600771D02*
X163196304Y-95696009D01*
X163196304Y-95696009D02*
X163196304Y-96219819D01*
X164720113Y-96600771D02*
X164672494Y-96553152D01*
X164672494Y-96553152D02*
X164577256Y-96410295D01*
X164577256Y-96410295D02*
X164529637Y-96315057D01*
X164529637Y-96315057D02*
X164482018Y-96172200D01*
X164482018Y-96172200D02*
X164434399Y-95934104D01*
X164434399Y-95934104D02*
X164434399Y-95743628D01*
X164434399Y-95743628D02*
X164482018Y-95505533D01*
X164482018Y-95505533D02*
X164529637Y-95362676D01*
X164529637Y-95362676D02*
X164577256Y-95267438D01*
X164577256Y-95267438D02*
X164672494Y-95124580D01*
X164672494Y-95124580D02*
X164720113Y-95076961D01*
X165672494Y-96124580D02*
X165624875Y-96172200D01*
X165624875Y-96172200D02*
X165482018Y-96219819D01*
X165482018Y-96219819D02*
X165386780Y-96219819D01*
X165386780Y-96219819D02*
X165243923Y-96172200D01*
X165243923Y-96172200D02*
X165148685Y-96076961D01*
X165148685Y-96076961D02*
X165101066Y-95981723D01*
X165101066Y-95981723D02*
X165053447Y-95791247D01*
X165053447Y-95791247D02*
X165053447Y-95648390D01*
X165053447Y-95648390D02*
X165101066Y-95457914D01*
X165101066Y-95457914D02*
X165148685Y-95362676D01*
X165148685Y-95362676D02*
X165243923Y-95267438D01*
X165243923Y-95267438D02*
X165386780Y-95219819D01*
X165386780Y-95219819D02*
X165482018Y-95219819D01*
X165482018Y-95219819D02*
X165624875Y-95267438D01*
X165624875Y-95267438D02*
X165672494Y-95315057D01*
X166243923Y-96219819D02*
X166148685Y-96172200D01*
X166148685Y-96172200D02*
X166101066Y-96124580D01*
X166101066Y-96124580D02*
X166053447Y-96029342D01*
X166053447Y-96029342D02*
X166053447Y-95743628D01*
X166053447Y-95743628D02*
X166101066Y-95648390D01*
X166101066Y-95648390D02*
X166148685Y-95600771D01*
X166148685Y-95600771D02*
X166243923Y-95553152D01*
X166243923Y-95553152D02*
X166386780Y-95553152D01*
X166386780Y-95553152D02*
X166482018Y-95600771D01*
X166482018Y-95600771D02*
X166529637Y-95648390D01*
X166529637Y-95648390D02*
X166577256Y-95743628D01*
X166577256Y-95743628D02*
X166577256Y-96029342D01*
X166577256Y-96029342D02*
X166529637Y-96124580D01*
X166529637Y-96124580D02*
X166482018Y-96172200D01*
X166482018Y-96172200D02*
X166386780Y-96219819D01*
X166386780Y-96219819D02*
X166243923Y-96219819D01*
X167005828Y-96219819D02*
X167005828Y-95553152D01*
X167005828Y-95648390D02*
X167053447Y-95600771D01*
X167053447Y-95600771D02*
X167148685Y-95553152D01*
X167148685Y-95553152D02*
X167291542Y-95553152D01*
X167291542Y-95553152D02*
X167386780Y-95600771D01*
X167386780Y-95600771D02*
X167434399Y-95696009D01*
X167434399Y-95696009D02*
X167434399Y-96219819D01*
X167434399Y-95696009D02*
X167482018Y-95600771D01*
X167482018Y-95600771D02*
X167577256Y-95553152D01*
X167577256Y-95553152D02*
X167720113Y-95553152D01*
X167720113Y-95553152D02*
X167815352Y-95600771D01*
X167815352Y-95600771D02*
X167862971Y-95696009D01*
X167862971Y-95696009D02*
X167862971Y-96219819D01*
X168339161Y-95553152D02*
X168339161Y-96553152D01*
X168339161Y-95600771D02*
X168434399Y-95553152D01*
X168434399Y-95553152D02*
X168624875Y-95553152D01*
X168624875Y-95553152D02*
X168720113Y-95600771D01*
X168720113Y-95600771D02*
X168767732Y-95648390D01*
X168767732Y-95648390D02*
X168815351Y-95743628D01*
X168815351Y-95743628D02*
X168815351Y-96029342D01*
X168815351Y-96029342D02*
X168767732Y-96124580D01*
X168767732Y-96124580D02*
X168720113Y-96172200D01*
X168720113Y-96172200D02*
X168624875Y-96219819D01*
X168624875Y-96219819D02*
X168434399Y-96219819D01*
X168434399Y-96219819D02*
X168339161Y-96172200D01*
X169386780Y-96219819D02*
X169291542Y-96172200D01*
X169291542Y-96172200D02*
X169243923Y-96124580D01*
X169243923Y-96124580D02*
X169196304Y-96029342D01*
X169196304Y-96029342D02*
X169196304Y-95743628D01*
X169196304Y-95743628D02*
X169243923Y-95648390D01*
X169243923Y-95648390D02*
X169291542Y-95600771D01*
X169291542Y-95600771D02*
X169386780Y-95553152D01*
X169386780Y-95553152D02*
X169529637Y-95553152D01*
X169529637Y-95553152D02*
X169624875Y-95600771D01*
X169624875Y-95600771D02*
X169672494Y-95648390D01*
X169672494Y-95648390D02*
X169720113Y-95743628D01*
X169720113Y-95743628D02*
X169720113Y-96029342D01*
X169720113Y-96029342D02*
X169672494Y-96124580D01*
X169672494Y-96124580D02*
X169624875Y-96172200D01*
X169624875Y-96172200D02*
X169529637Y-96219819D01*
X169529637Y-96219819D02*
X169386780Y-96219819D01*
X170148685Y-95553152D02*
X170148685Y-96219819D01*
X170148685Y-95648390D02*
X170196304Y-95600771D01*
X170196304Y-95600771D02*
X170291542Y-95553152D01*
X170291542Y-95553152D02*
X170434399Y-95553152D01*
X170434399Y-95553152D02*
X170529637Y-95600771D01*
X170529637Y-95600771D02*
X170577256Y-95696009D01*
X170577256Y-95696009D02*
X170577256Y-96219819D01*
X171434399Y-96172200D02*
X171339161Y-96219819D01*
X171339161Y-96219819D02*
X171148685Y-96219819D01*
X171148685Y-96219819D02*
X171053447Y-96172200D01*
X171053447Y-96172200D02*
X171005828Y-96076961D01*
X171005828Y-96076961D02*
X171005828Y-95696009D01*
X171005828Y-95696009D02*
X171053447Y-95600771D01*
X171053447Y-95600771D02*
X171148685Y-95553152D01*
X171148685Y-95553152D02*
X171339161Y-95553152D01*
X171339161Y-95553152D02*
X171434399Y-95600771D01*
X171434399Y-95600771D02*
X171482018Y-95696009D01*
X171482018Y-95696009D02*
X171482018Y-95791247D01*
X171482018Y-95791247D02*
X171005828Y-95886485D01*
X171910590Y-95553152D02*
X171910590Y-96219819D01*
X171910590Y-95648390D02*
X171958209Y-95600771D01*
X171958209Y-95600771D02*
X172053447Y-95553152D01*
X172053447Y-95553152D02*
X172196304Y-95553152D01*
X172196304Y-95553152D02*
X172291542Y-95600771D01*
X172291542Y-95600771D02*
X172339161Y-95696009D01*
X172339161Y-95696009D02*
X172339161Y-96219819D01*
X172672495Y-95553152D02*
X173053447Y-95553152D01*
X172815352Y-95219819D02*
X172815352Y-96076961D01*
X172815352Y-96076961D02*
X172862971Y-96172200D01*
X172862971Y-96172200D02*
X172958209Y-96219819D01*
X172958209Y-96219819D02*
X173053447Y-96219819D01*
X174101067Y-96172200D02*
X174243924Y-96219819D01*
X174243924Y-96219819D02*
X174482019Y-96219819D01*
X174482019Y-96219819D02*
X174577257Y-96172200D01*
X174577257Y-96172200D02*
X174624876Y-96124580D01*
X174624876Y-96124580D02*
X174672495Y-96029342D01*
X174672495Y-96029342D02*
X174672495Y-95934104D01*
X174672495Y-95934104D02*
X174624876Y-95838866D01*
X174624876Y-95838866D02*
X174577257Y-95791247D01*
X174577257Y-95791247D02*
X174482019Y-95743628D01*
X174482019Y-95743628D02*
X174291543Y-95696009D01*
X174291543Y-95696009D02*
X174196305Y-95648390D01*
X174196305Y-95648390D02*
X174148686Y-95600771D01*
X174148686Y-95600771D02*
X174101067Y-95505533D01*
X174101067Y-95505533D02*
X174101067Y-95410295D01*
X174101067Y-95410295D02*
X174148686Y-95315057D01*
X174148686Y-95315057D02*
X174196305Y-95267438D01*
X174196305Y-95267438D02*
X174291543Y-95219819D01*
X174291543Y-95219819D02*
X174529638Y-95219819D01*
X174529638Y-95219819D02*
X174672495Y-95267438D01*
X175101067Y-96219819D02*
X175101067Y-95553152D01*
X175101067Y-95219819D02*
X175053448Y-95267438D01*
X175053448Y-95267438D02*
X175101067Y-95315057D01*
X175101067Y-95315057D02*
X175148686Y-95267438D01*
X175148686Y-95267438D02*
X175101067Y-95219819D01*
X175101067Y-95219819D02*
X175101067Y-95315057D01*
X176005828Y-96219819D02*
X176005828Y-95219819D01*
X176005828Y-96172200D02*
X175910590Y-96219819D01*
X175910590Y-96219819D02*
X175720114Y-96219819D01*
X175720114Y-96219819D02*
X175624876Y-96172200D01*
X175624876Y-96172200D02*
X175577257Y-96124580D01*
X175577257Y-96124580D02*
X175529638Y-96029342D01*
X175529638Y-96029342D02*
X175529638Y-95743628D01*
X175529638Y-95743628D02*
X175577257Y-95648390D01*
X175577257Y-95648390D02*
X175624876Y-95600771D01*
X175624876Y-95600771D02*
X175720114Y-95553152D01*
X175720114Y-95553152D02*
X175910590Y-95553152D01*
X175910590Y-95553152D02*
X176005828Y-95600771D01*
X176862971Y-96172200D02*
X176767733Y-96219819D01*
X176767733Y-96219819D02*
X176577257Y-96219819D01*
X176577257Y-96219819D02*
X176482019Y-96172200D01*
X176482019Y-96172200D02*
X176434400Y-96076961D01*
X176434400Y-96076961D02*
X176434400Y-95696009D01*
X176434400Y-95696009D02*
X176482019Y-95600771D01*
X176482019Y-95600771D02*
X176577257Y-95553152D01*
X176577257Y-95553152D02*
X176767733Y-95553152D01*
X176767733Y-95553152D02*
X176862971Y-95600771D01*
X176862971Y-95600771D02*
X176910590Y-95696009D01*
X176910590Y-95696009D02*
X176910590Y-95791247D01*
X176910590Y-95791247D02*
X176434400Y-95886485D01*
X177243924Y-96600771D02*
X177291543Y-96553152D01*
X177291543Y-96553152D02*
X177386781Y-96410295D01*
X177386781Y-96410295D02*
X177434400Y-96315057D01*
X177434400Y-96315057D02*
X177482019Y-96172200D01*
X177482019Y-96172200D02*
X177529638Y-95934104D01*
X177529638Y-95934104D02*
X177529638Y-95743628D01*
X177529638Y-95743628D02*
X177482019Y-95505533D01*
X177482019Y-95505533D02*
X177434400Y-95362676D01*
X177434400Y-95362676D02*
X177386781Y-95267438D01*
X177386781Y-95267438D02*
X177291543Y-95124580D01*
X177291543Y-95124580D02*
X177243924Y-95076961D01*
D10*
X131490476Y-104103404D02*
X131452380Y-104141500D01*
X131452380Y-104141500D02*
X131338095Y-104179595D01*
X131338095Y-104179595D02*
X131261904Y-104179595D01*
X131261904Y-104179595D02*
X131147618Y-104141500D01*
X131147618Y-104141500D02*
X131071428Y-104065309D01*
X131071428Y-104065309D02*
X131033333Y-103989119D01*
X131033333Y-103989119D02*
X130995237Y-103836738D01*
X130995237Y-103836738D02*
X130995237Y-103722452D01*
X130995237Y-103722452D02*
X131033333Y-103570071D01*
X131033333Y-103570071D02*
X131071428Y-103493880D01*
X131071428Y-103493880D02*
X131147618Y-103417690D01*
X131147618Y-103417690D02*
X131261904Y-103379595D01*
X131261904Y-103379595D02*
X131338095Y-103379595D01*
X131338095Y-103379595D02*
X131452380Y-103417690D01*
X131452380Y-103417690D02*
X131490476Y-103455785D01*
X132252380Y-104179595D02*
X131795237Y-104179595D01*
X132023809Y-104179595D02*
X132023809Y-103379595D01*
X132023809Y-103379595D02*
X131947618Y-103493880D01*
X131947618Y-103493880D02*
X131871428Y-103570071D01*
X131871428Y-103570071D02*
X131795237Y-103608166D01*
X132633333Y-104141500D02*
X132633333Y-104179595D01*
X132633333Y-104179595D02*
X132595238Y-104255785D01*
X132595238Y-104255785D02*
X132557142Y-104293880D01*
X134042857Y-104103404D02*
X134004761Y-104141500D01*
X134004761Y-104141500D02*
X133890476Y-104179595D01*
X133890476Y-104179595D02*
X133814285Y-104179595D01*
X133814285Y-104179595D02*
X133699999Y-104141500D01*
X133699999Y-104141500D02*
X133623809Y-104065309D01*
X133623809Y-104065309D02*
X133585714Y-103989119D01*
X133585714Y-103989119D02*
X133547618Y-103836738D01*
X133547618Y-103836738D02*
X133547618Y-103722452D01*
X133547618Y-103722452D02*
X133585714Y-103570071D01*
X133585714Y-103570071D02*
X133623809Y-103493880D01*
X133623809Y-103493880D02*
X133699999Y-103417690D01*
X133699999Y-103417690D02*
X133814285Y-103379595D01*
X133814285Y-103379595D02*
X133890476Y-103379595D01*
X133890476Y-103379595D02*
X134004761Y-103417690D01*
X134004761Y-103417690D02*
X134042857Y-103455785D01*
X134347618Y-103455785D02*
X134385714Y-103417690D01*
X134385714Y-103417690D02*
X134461904Y-103379595D01*
X134461904Y-103379595D02*
X134652380Y-103379595D01*
X134652380Y-103379595D02*
X134728571Y-103417690D01*
X134728571Y-103417690D02*
X134766666Y-103455785D01*
X134766666Y-103455785D02*
X134804761Y-103531976D01*
X134804761Y-103531976D02*
X134804761Y-103608166D01*
X134804761Y-103608166D02*
X134766666Y-103722452D01*
X134766666Y-103722452D02*
X134309523Y-104179595D01*
X134309523Y-104179595D02*
X134804761Y-104179595D01*
X130442856Y-105467595D02*
X129985713Y-105467595D01*
X130214285Y-105467595D02*
X130214285Y-104667595D01*
X130214285Y-104667595D02*
X130138094Y-104781880D01*
X130138094Y-104781880D02*
X130061904Y-104858071D01*
X130061904Y-104858071D02*
X129985713Y-104896166D01*
X130938095Y-104667595D02*
X131014285Y-104667595D01*
X131014285Y-104667595D02*
X131090476Y-104705690D01*
X131090476Y-104705690D02*
X131128571Y-104743785D01*
X131128571Y-104743785D02*
X131166666Y-104819976D01*
X131166666Y-104819976D02*
X131204761Y-104972357D01*
X131204761Y-104972357D02*
X131204761Y-105162833D01*
X131204761Y-105162833D02*
X131166666Y-105315214D01*
X131166666Y-105315214D02*
X131128571Y-105391404D01*
X131128571Y-105391404D02*
X131090476Y-105429500D01*
X131090476Y-105429500D02*
X131014285Y-105467595D01*
X131014285Y-105467595D02*
X130938095Y-105467595D01*
X130938095Y-105467595D02*
X130861904Y-105429500D01*
X130861904Y-105429500D02*
X130823809Y-105391404D01*
X130823809Y-105391404D02*
X130785714Y-105315214D01*
X130785714Y-105315214D02*
X130747618Y-105162833D01*
X130747618Y-105162833D02*
X130747618Y-104972357D01*
X130747618Y-104972357D02*
X130785714Y-104819976D01*
X130785714Y-104819976D02*
X130823809Y-104743785D01*
X130823809Y-104743785D02*
X130861904Y-104705690D01*
X130861904Y-104705690D02*
X130938095Y-104667595D01*
X131890476Y-104934261D02*
X131890476Y-105467595D01*
X131547619Y-104934261D02*
X131547619Y-105353309D01*
X131547619Y-105353309D02*
X131585714Y-105429500D01*
X131585714Y-105429500D02*
X131661904Y-105467595D01*
X131661904Y-105467595D02*
X131776190Y-105467595D01*
X131776190Y-105467595D02*
X131852381Y-105429500D01*
X131852381Y-105429500D02*
X131890476Y-105391404D01*
X132538095Y-105048547D02*
X132271429Y-105048547D01*
X132271429Y-105467595D02*
X132271429Y-104667595D01*
X132271429Y-104667595D02*
X132652381Y-104667595D01*
X132995238Y-105429500D02*
X132995238Y-105467595D01*
X132995238Y-105467595D02*
X132957143Y-105543785D01*
X132957143Y-105543785D02*
X132919047Y-105581880D01*
X134366666Y-105467595D02*
X133909523Y-105467595D01*
X134138095Y-105467595D02*
X134138095Y-104667595D01*
X134138095Y-104667595D02*
X134061904Y-104781880D01*
X134061904Y-104781880D02*
X133985714Y-104858071D01*
X133985714Y-104858071D02*
X133909523Y-104896166D01*
X135052381Y-104667595D02*
X134900000Y-104667595D01*
X134900000Y-104667595D02*
X134823809Y-104705690D01*
X134823809Y-104705690D02*
X134785714Y-104743785D01*
X134785714Y-104743785D02*
X134709524Y-104858071D01*
X134709524Y-104858071D02*
X134671428Y-105010452D01*
X134671428Y-105010452D02*
X134671428Y-105315214D01*
X134671428Y-105315214D02*
X134709524Y-105391404D01*
X134709524Y-105391404D02*
X134747619Y-105429500D01*
X134747619Y-105429500D02*
X134823809Y-105467595D01*
X134823809Y-105467595D02*
X134976190Y-105467595D01*
X134976190Y-105467595D02*
X135052381Y-105429500D01*
X135052381Y-105429500D02*
X135090476Y-105391404D01*
X135090476Y-105391404D02*
X135128571Y-105315214D01*
X135128571Y-105315214D02*
X135128571Y-105124738D01*
X135128571Y-105124738D02*
X135090476Y-105048547D01*
X135090476Y-105048547D02*
X135052381Y-105010452D01*
X135052381Y-105010452D02*
X134976190Y-104972357D01*
X134976190Y-104972357D02*
X134823809Y-104972357D01*
X134823809Y-104972357D02*
X134747619Y-105010452D01*
X134747619Y-105010452D02*
X134709524Y-105048547D01*
X134709524Y-105048547D02*
X134671428Y-105124738D01*
X135357143Y-104667595D02*
X135623810Y-105467595D01*
X135623810Y-105467595D02*
X135890476Y-104667595D01*
D12*
X154555387Y-101348171D02*
X154507768Y-101300552D01*
X154507768Y-101300552D02*
X154412530Y-101157695D01*
X154412530Y-101157695D02*
X154364911Y-101062457D01*
X154364911Y-101062457D02*
X154317292Y-100919600D01*
X154317292Y-100919600D02*
X154269673Y-100681504D01*
X154269673Y-100681504D02*
X154269673Y-100491028D01*
X154269673Y-100491028D02*
X154317292Y-100252933D01*
X154317292Y-100252933D02*
X154364911Y-100110076D01*
X154364911Y-100110076D02*
X154412530Y-100014838D01*
X154412530Y-100014838D02*
X154507768Y-99871980D01*
X154507768Y-99871980D02*
X154555387Y-99824361D01*
X155507768Y-100871980D02*
X155460149Y-100919600D01*
X155460149Y-100919600D02*
X155317292Y-100967219D01*
X155317292Y-100967219D02*
X155222054Y-100967219D01*
X155222054Y-100967219D02*
X155079197Y-100919600D01*
X155079197Y-100919600D02*
X154983959Y-100824361D01*
X154983959Y-100824361D02*
X154936340Y-100729123D01*
X154936340Y-100729123D02*
X154888721Y-100538647D01*
X154888721Y-100538647D02*
X154888721Y-100395790D01*
X154888721Y-100395790D02*
X154936340Y-100205314D01*
X154936340Y-100205314D02*
X154983959Y-100110076D01*
X154983959Y-100110076D02*
X155079197Y-100014838D01*
X155079197Y-100014838D02*
X155222054Y-99967219D01*
X155222054Y-99967219D02*
X155317292Y-99967219D01*
X155317292Y-99967219D02*
X155460149Y-100014838D01*
X155460149Y-100014838D02*
X155507768Y-100062457D01*
X156079197Y-100967219D02*
X155983959Y-100919600D01*
X155983959Y-100919600D02*
X155936340Y-100871980D01*
X155936340Y-100871980D02*
X155888721Y-100776742D01*
X155888721Y-100776742D02*
X155888721Y-100491028D01*
X155888721Y-100491028D02*
X155936340Y-100395790D01*
X155936340Y-100395790D02*
X155983959Y-100348171D01*
X155983959Y-100348171D02*
X156079197Y-100300552D01*
X156079197Y-100300552D02*
X156222054Y-100300552D01*
X156222054Y-100300552D02*
X156317292Y-100348171D01*
X156317292Y-100348171D02*
X156364911Y-100395790D01*
X156364911Y-100395790D02*
X156412530Y-100491028D01*
X156412530Y-100491028D02*
X156412530Y-100776742D01*
X156412530Y-100776742D02*
X156364911Y-100871980D01*
X156364911Y-100871980D02*
X156317292Y-100919600D01*
X156317292Y-100919600D02*
X156222054Y-100967219D01*
X156222054Y-100967219D02*
X156079197Y-100967219D01*
X156841102Y-100300552D02*
X156841102Y-101300552D01*
X156841102Y-100348171D02*
X156936340Y-100300552D01*
X156936340Y-100300552D02*
X157126816Y-100300552D01*
X157126816Y-100300552D02*
X157222054Y-100348171D01*
X157222054Y-100348171D02*
X157269673Y-100395790D01*
X157269673Y-100395790D02*
X157317292Y-100491028D01*
X157317292Y-100491028D02*
X157317292Y-100776742D01*
X157317292Y-100776742D02*
X157269673Y-100871980D01*
X157269673Y-100871980D02*
X157222054Y-100919600D01*
X157222054Y-100919600D02*
X157126816Y-100967219D01*
X157126816Y-100967219D02*
X156936340Y-100967219D01*
X156936340Y-100967219D02*
X156841102Y-100919600D01*
X157745864Y-100300552D02*
X157745864Y-101300552D01*
X157745864Y-100348171D02*
X157841102Y-100300552D01*
X157841102Y-100300552D02*
X158031578Y-100300552D01*
X158031578Y-100300552D02*
X158126816Y-100348171D01*
X158126816Y-100348171D02*
X158174435Y-100395790D01*
X158174435Y-100395790D02*
X158222054Y-100491028D01*
X158222054Y-100491028D02*
X158222054Y-100776742D01*
X158222054Y-100776742D02*
X158174435Y-100871980D01*
X158174435Y-100871980D02*
X158126816Y-100919600D01*
X158126816Y-100919600D02*
X158031578Y-100967219D01*
X158031578Y-100967219D02*
X157841102Y-100967219D01*
X157841102Y-100967219D02*
X157745864Y-100919600D01*
X159031578Y-100919600D02*
X158936340Y-100967219D01*
X158936340Y-100967219D02*
X158745864Y-100967219D01*
X158745864Y-100967219D02*
X158650626Y-100919600D01*
X158650626Y-100919600D02*
X158603007Y-100824361D01*
X158603007Y-100824361D02*
X158603007Y-100443409D01*
X158603007Y-100443409D02*
X158650626Y-100348171D01*
X158650626Y-100348171D02*
X158745864Y-100300552D01*
X158745864Y-100300552D02*
X158936340Y-100300552D01*
X158936340Y-100300552D02*
X159031578Y-100348171D01*
X159031578Y-100348171D02*
X159079197Y-100443409D01*
X159079197Y-100443409D02*
X159079197Y-100538647D01*
X159079197Y-100538647D02*
X158603007Y-100633885D01*
X159507769Y-100967219D02*
X159507769Y-100300552D01*
X159507769Y-100491028D02*
X159555388Y-100395790D01*
X159555388Y-100395790D02*
X159603007Y-100348171D01*
X159603007Y-100348171D02*
X159698245Y-100300552D01*
X159698245Y-100300552D02*
X159793483Y-100300552D01*
X160888722Y-100967219D02*
X160888722Y-99967219D01*
X160888722Y-99967219D02*
X161269674Y-99967219D01*
X161269674Y-99967219D02*
X161364912Y-100014838D01*
X161364912Y-100014838D02*
X161412531Y-100062457D01*
X161412531Y-100062457D02*
X161460150Y-100157695D01*
X161460150Y-100157695D02*
X161460150Y-100300552D01*
X161460150Y-100300552D02*
X161412531Y-100395790D01*
X161412531Y-100395790D02*
X161364912Y-100443409D01*
X161364912Y-100443409D02*
X161269674Y-100491028D01*
X161269674Y-100491028D02*
X160888722Y-100491028D01*
X162317293Y-100967219D02*
X162317293Y-100443409D01*
X162317293Y-100443409D02*
X162269674Y-100348171D01*
X162269674Y-100348171D02*
X162174436Y-100300552D01*
X162174436Y-100300552D02*
X161983960Y-100300552D01*
X161983960Y-100300552D02*
X161888722Y-100348171D01*
X162317293Y-100919600D02*
X162222055Y-100967219D01*
X162222055Y-100967219D02*
X161983960Y-100967219D01*
X161983960Y-100967219D02*
X161888722Y-100919600D01*
X161888722Y-100919600D02*
X161841103Y-100824361D01*
X161841103Y-100824361D02*
X161841103Y-100729123D01*
X161841103Y-100729123D02*
X161888722Y-100633885D01*
X161888722Y-100633885D02*
X161983960Y-100586266D01*
X161983960Y-100586266D02*
X162222055Y-100586266D01*
X162222055Y-100586266D02*
X162317293Y-100538647D01*
X163222055Y-100967219D02*
X163222055Y-99967219D01*
X163222055Y-100919600D02*
X163126817Y-100967219D01*
X163126817Y-100967219D02*
X162936341Y-100967219D01*
X162936341Y-100967219D02*
X162841103Y-100919600D01*
X162841103Y-100919600D02*
X162793484Y-100871980D01*
X162793484Y-100871980D02*
X162745865Y-100776742D01*
X162745865Y-100776742D02*
X162745865Y-100491028D01*
X162745865Y-100491028D02*
X162793484Y-100395790D01*
X162793484Y-100395790D02*
X162841103Y-100348171D01*
X162841103Y-100348171D02*
X162936341Y-100300552D01*
X162936341Y-100300552D02*
X163126817Y-100300552D01*
X163126817Y-100300552D02*
X163222055Y-100348171D01*
X164460151Y-100967219D02*
X164460151Y-99967219D01*
X164460151Y-100443409D02*
X165031579Y-100443409D01*
X165031579Y-100967219D02*
X165031579Y-99967219D01*
X165888722Y-100919600D02*
X165793484Y-100967219D01*
X165793484Y-100967219D02*
X165603008Y-100967219D01*
X165603008Y-100967219D02*
X165507770Y-100919600D01*
X165507770Y-100919600D02*
X165460151Y-100824361D01*
X165460151Y-100824361D02*
X165460151Y-100443409D01*
X165460151Y-100443409D02*
X165507770Y-100348171D01*
X165507770Y-100348171D02*
X165603008Y-100300552D01*
X165603008Y-100300552D02*
X165793484Y-100300552D01*
X165793484Y-100300552D02*
X165888722Y-100348171D01*
X165888722Y-100348171D02*
X165936341Y-100443409D01*
X165936341Y-100443409D02*
X165936341Y-100538647D01*
X165936341Y-100538647D02*
X165460151Y-100633885D01*
X166793484Y-100967219D02*
X166793484Y-100443409D01*
X166793484Y-100443409D02*
X166745865Y-100348171D01*
X166745865Y-100348171D02*
X166650627Y-100300552D01*
X166650627Y-100300552D02*
X166460151Y-100300552D01*
X166460151Y-100300552D02*
X166364913Y-100348171D01*
X166793484Y-100919600D02*
X166698246Y-100967219D01*
X166698246Y-100967219D02*
X166460151Y-100967219D01*
X166460151Y-100967219D02*
X166364913Y-100919600D01*
X166364913Y-100919600D02*
X166317294Y-100824361D01*
X166317294Y-100824361D02*
X166317294Y-100729123D01*
X166317294Y-100729123D02*
X166364913Y-100633885D01*
X166364913Y-100633885D02*
X166460151Y-100586266D01*
X166460151Y-100586266D02*
X166698246Y-100586266D01*
X166698246Y-100586266D02*
X166793484Y-100538647D01*
X167126818Y-100300552D02*
X167507770Y-100300552D01*
X167269675Y-99967219D02*
X167269675Y-100824361D01*
X167269675Y-100824361D02*
X167317294Y-100919600D01*
X167317294Y-100919600D02*
X167412532Y-100967219D01*
X167412532Y-100967219D02*
X167507770Y-100967219D01*
X167793485Y-100919600D02*
X167888723Y-100967219D01*
X167888723Y-100967219D02*
X168079199Y-100967219D01*
X168079199Y-100967219D02*
X168174437Y-100919600D01*
X168174437Y-100919600D02*
X168222056Y-100824361D01*
X168222056Y-100824361D02*
X168222056Y-100776742D01*
X168222056Y-100776742D02*
X168174437Y-100681504D01*
X168174437Y-100681504D02*
X168079199Y-100633885D01*
X168079199Y-100633885D02*
X167936342Y-100633885D01*
X167936342Y-100633885D02*
X167841104Y-100586266D01*
X167841104Y-100586266D02*
X167793485Y-100491028D01*
X167793485Y-100491028D02*
X167793485Y-100443409D01*
X167793485Y-100443409D02*
X167841104Y-100348171D01*
X167841104Y-100348171D02*
X167936342Y-100300552D01*
X167936342Y-100300552D02*
X168079199Y-100300552D01*
X168079199Y-100300552D02*
X168174437Y-100348171D01*
X168650628Y-100967219D02*
X168650628Y-100300552D01*
X168650628Y-99967219D02*
X168603009Y-100014838D01*
X168603009Y-100014838D02*
X168650628Y-100062457D01*
X168650628Y-100062457D02*
X168698247Y-100014838D01*
X168698247Y-100014838D02*
X168650628Y-99967219D01*
X168650628Y-99967219D02*
X168650628Y-100062457D01*
X169126818Y-100300552D02*
X169126818Y-100967219D01*
X169126818Y-100395790D02*
X169174437Y-100348171D01*
X169174437Y-100348171D02*
X169269675Y-100300552D01*
X169269675Y-100300552D02*
X169412532Y-100300552D01*
X169412532Y-100300552D02*
X169507770Y-100348171D01*
X169507770Y-100348171D02*
X169555389Y-100443409D01*
X169555389Y-100443409D02*
X169555389Y-100967219D01*
X170031580Y-100967219D02*
X170031580Y-99967219D01*
X170126818Y-100586266D02*
X170412532Y-100967219D01*
X170412532Y-100300552D02*
X170031580Y-100681504D01*
X171555390Y-100681504D02*
X172031580Y-100681504D01*
X171460152Y-100967219D02*
X171793485Y-99967219D01*
X171793485Y-99967219D02*
X172126818Y-100967219D01*
X172460152Y-100967219D02*
X172460152Y-100300552D01*
X172460152Y-100491028D02*
X172507771Y-100395790D01*
X172507771Y-100395790D02*
X172555390Y-100348171D01*
X172555390Y-100348171D02*
X172650628Y-100300552D01*
X172650628Y-100300552D02*
X172745866Y-100300552D01*
X173460152Y-100919600D02*
X173364914Y-100967219D01*
X173364914Y-100967219D02*
X173174438Y-100967219D01*
X173174438Y-100967219D02*
X173079200Y-100919600D01*
X173079200Y-100919600D02*
X173031581Y-100824361D01*
X173031581Y-100824361D02*
X173031581Y-100443409D01*
X173031581Y-100443409D02*
X173079200Y-100348171D01*
X173079200Y-100348171D02*
X173174438Y-100300552D01*
X173174438Y-100300552D02*
X173364914Y-100300552D01*
X173364914Y-100300552D02*
X173460152Y-100348171D01*
X173460152Y-100348171D02*
X173507771Y-100443409D01*
X173507771Y-100443409D02*
X173507771Y-100538647D01*
X173507771Y-100538647D02*
X173031581Y-100633885D01*
X174364914Y-100967219D02*
X174364914Y-100443409D01*
X174364914Y-100443409D02*
X174317295Y-100348171D01*
X174317295Y-100348171D02*
X174222057Y-100300552D01*
X174222057Y-100300552D02*
X174031581Y-100300552D01*
X174031581Y-100300552D02*
X173936343Y-100348171D01*
X174364914Y-100919600D02*
X174269676Y-100967219D01*
X174269676Y-100967219D02*
X174031581Y-100967219D01*
X174031581Y-100967219D02*
X173936343Y-100919600D01*
X173936343Y-100919600D02*
X173888724Y-100824361D01*
X173888724Y-100824361D02*
X173888724Y-100729123D01*
X173888724Y-100729123D02*
X173936343Y-100633885D01*
X173936343Y-100633885D02*
X174031581Y-100586266D01*
X174031581Y-100586266D02*
X174269676Y-100586266D01*
X174269676Y-100586266D02*
X174364914Y-100538647D01*
X174745867Y-101348171D02*
X174793486Y-101300552D01*
X174793486Y-101300552D02*
X174888724Y-101157695D01*
X174888724Y-101157695D02*
X174936343Y-101062457D01*
X174936343Y-101062457D02*
X174983962Y-100919600D01*
X174983962Y-100919600D02*
X175031581Y-100681504D01*
X175031581Y-100681504D02*
X175031581Y-100491028D01*
X175031581Y-100491028D02*
X174983962Y-100252933D01*
X174983962Y-100252933D02*
X174936343Y-100110076D01*
X174936343Y-100110076D02*
X174888724Y-100014838D01*
X174888724Y-100014838D02*
X174793486Y-99871980D01*
X174793486Y-99871980D02*
X174745867Y-99824361D01*
D13*
X188060000Y-96363866D02*
X188821905Y-96363866D01*
X188440952Y-96744819D02*
X188440952Y-95982914D01*
X189202857Y-95744819D02*
X189821904Y-95744819D01*
X189821904Y-95744819D02*
X189488571Y-96125771D01*
X189488571Y-96125771D02*
X189631428Y-96125771D01*
X189631428Y-96125771D02*
X189726666Y-96173390D01*
X189726666Y-96173390D02*
X189774285Y-96221009D01*
X189774285Y-96221009D02*
X189821904Y-96316247D01*
X189821904Y-96316247D02*
X189821904Y-96554342D01*
X189821904Y-96554342D02*
X189774285Y-96649580D01*
X189774285Y-96649580D02*
X189726666Y-96697200D01*
X189726666Y-96697200D02*
X189631428Y-96744819D01*
X189631428Y-96744819D02*
X189345714Y-96744819D01*
X189345714Y-96744819D02*
X189250476Y-96697200D01*
X189250476Y-96697200D02*
X189202857Y-96649580D01*
X190250476Y-96649580D02*
X190298095Y-96697200D01*
X190298095Y-96697200D02*
X190250476Y-96744819D01*
X190250476Y-96744819D02*
X190202857Y-96697200D01*
X190202857Y-96697200D02*
X190250476Y-96649580D01*
X190250476Y-96649580D02*
X190250476Y-96744819D01*
X190631428Y-95744819D02*
X191250475Y-95744819D01*
X191250475Y-95744819D02*
X190917142Y-96125771D01*
X190917142Y-96125771D02*
X191059999Y-96125771D01*
X191059999Y-96125771D02*
X191155237Y-96173390D01*
X191155237Y-96173390D02*
X191202856Y-96221009D01*
X191202856Y-96221009D02*
X191250475Y-96316247D01*
X191250475Y-96316247D02*
X191250475Y-96554342D01*
X191250475Y-96554342D02*
X191202856Y-96649580D01*
X191202856Y-96649580D02*
X191155237Y-96697200D01*
X191155237Y-96697200D02*
X191059999Y-96744819D01*
X191059999Y-96744819D02*
X190774285Y-96744819D01*
X190774285Y-96744819D02*
X190679047Y-96697200D01*
X190679047Y-96697200D02*
X190631428Y-96649580D01*
X191536190Y-95744819D02*
X191869523Y-96744819D01*
X191869523Y-96744819D02*
X192202856Y-95744819D01*
X180503333Y-96584819D02*
X180170000Y-96108628D01*
X179931905Y-96584819D02*
X179931905Y-95584819D01*
X179931905Y-95584819D02*
X180312857Y-95584819D01*
X180312857Y-95584819D02*
X180408095Y-95632438D01*
X180408095Y-95632438D02*
X180455714Y-95680057D01*
X180455714Y-95680057D02*
X180503333Y-95775295D01*
X180503333Y-95775295D02*
X180503333Y-95918152D01*
X180503333Y-95918152D02*
X180455714Y-96013390D01*
X180455714Y-96013390D02*
X180408095Y-96061009D01*
X180408095Y-96061009D02*
X180312857Y-96108628D01*
X180312857Y-96108628D02*
X179931905Y-96108628D01*
X181455714Y-96584819D02*
X180884286Y-96584819D01*
X181170000Y-96584819D02*
X181170000Y-95584819D01*
X181170000Y-95584819D02*
X181074762Y-95727676D01*
X181074762Y-95727676D02*
X180979524Y-95822914D01*
X180979524Y-95822914D02*
X180884286Y-95870533D01*
X141290000Y-95624104D02*
X141766190Y-95624104D01*
X141194762Y-95909819D02*
X141528095Y-94909819D01*
X141528095Y-94909819D02*
X141861428Y-95909819D01*
X142194762Y-95909819D02*
X142194762Y-94909819D01*
X142194762Y-94909819D02*
X142528095Y-95624104D01*
X142528095Y-95624104D02*
X142861428Y-94909819D01*
X142861428Y-94909819D02*
X142861428Y-95909819D01*
X143290000Y-95862200D02*
X143432857Y-95909819D01*
X143432857Y-95909819D02*
X143670952Y-95909819D01*
X143670952Y-95909819D02*
X143766190Y-95862200D01*
X143766190Y-95862200D02*
X143813809Y-95814580D01*
X143813809Y-95814580D02*
X143861428Y-95719342D01*
X143861428Y-95719342D02*
X143861428Y-95624104D01*
X143861428Y-95624104D02*
X143813809Y-95528866D01*
X143813809Y-95528866D02*
X143766190Y-95481247D01*
X143766190Y-95481247D02*
X143670952Y-95433628D01*
X143670952Y-95433628D02*
X143480476Y-95386009D01*
X143480476Y-95386009D02*
X143385238Y-95338390D01*
X143385238Y-95338390D02*
X143337619Y-95290771D01*
X143337619Y-95290771D02*
X143290000Y-95195533D01*
X143290000Y-95195533D02*
X143290000Y-95100295D01*
X143290000Y-95100295D02*
X143337619Y-95005057D01*
X143337619Y-95005057D02*
X143385238Y-94957438D01*
X143385238Y-94957438D02*
X143480476Y-94909819D01*
X143480476Y-94909819D02*
X143718571Y-94909819D01*
X143718571Y-94909819D02*
X143861428Y-94957438D01*
X144813809Y-95909819D02*
X144242381Y-95909819D01*
X144528095Y-95909819D02*
X144528095Y-94909819D01*
X144528095Y-94909819D02*
X144432857Y-95052676D01*
X144432857Y-95052676D02*
X144337619Y-95147914D01*
X144337619Y-95147914D02*
X144242381Y-95195533D01*
X145766190Y-95909819D02*
X145194762Y-95909819D01*
X145480476Y-95909819D02*
X145480476Y-94909819D01*
X145480476Y-94909819D02*
X145385238Y-95052676D01*
X145385238Y-95052676D02*
X145290000Y-95147914D01*
X145290000Y-95147914D02*
X145194762Y-95195533D01*
X146718571Y-95909819D02*
X146147143Y-95909819D01*
X146432857Y-95909819D02*
X146432857Y-94909819D01*
X146432857Y-94909819D02*
X146337619Y-95052676D01*
X146337619Y-95052676D02*
X146242381Y-95147914D01*
X146242381Y-95147914D02*
X146147143Y-95195533D01*
X147051905Y-94909819D02*
X147718571Y-94909819D01*
X147718571Y-94909819D02*
X147290000Y-95909819D01*
X148670952Y-95814580D02*
X148623333Y-95862200D01*
X148623333Y-95862200D02*
X148480476Y-95909819D01*
X148480476Y-95909819D02*
X148385238Y-95909819D01*
X148385238Y-95909819D02*
X148242381Y-95862200D01*
X148242381Y-95862200D02*
X148147143Y-95766961D01*
X148147143Y-95766961D02*
X148099524Y-95671723D01*
X148099524Y-95671723D02*
X148051905Y-95481247D01*
X148051905Y-95481247D02*
X148051905Y-95338390D01*
X148051905Y-95338390D02*
X148099524Y-95147914D01*
X148099524Y-95147914D02*
X148147143Y-95052676D01*
X148147143Y-95052676D02*
X148242381Y-94957438D01*
X148242381Y-94957438D02*
X148385238Y-94909819D01*
X148385238Y-94909819D02*
X148480476Y-94909819D01*
X148480476Y-94909819D02*
X148623333Y-94957438D01*
X148623333Y-94957438D02*
X148670952Y-95005057D01*
X149099524Y-95909819D02*
X149099524Y-94909819D01*
X149099524Y-94909819D02*
X149337619Y-94909819D01*
X149337619Y-94909819D02*
X149480476Y-94957438D01*
X149480476Y-94957438D02*
X149575714Y-95052676D01*
X149575714Y-95052676D02*
X149623333Y-95147914D01*
X149623333Y-95147914D02*
X149670952Y-95338390D01*
X149670952Y-95338390D02*
X149670952Y-95481247D01*
X149670952Y-95481247D02*
X149623333Y-95671723D01*
X149623333Y-95671723D02*
X149575714Y-95766961D01*
X149575714Y-95766961D02*
X149480476Y-95862200D01*
X149480476Y-95862200D02*
X149337619Y-95909819D01*
X149337619Y-95909819D02*
X149099524Y-95909819D01*
X150099524Y-95528866D02*
X150861429Y-95528866D01*
X151242381Y-94909819D02*
X151861428Y-94909819D01*
X151861428Y-94909819D02*
X151528095Y-95290771D01*
X151528095Y-95290771D02*
X151670952Y-95290771D01*
X151670952Y-95290771D02*
X151766190Y-95338390D01*
X151766190Y-95338390D02*
X151813809Y-95386009D01*
X151813809Y-95386009D02*
X151861428Y-95481247D01*
X151861428Y-95481247D02*
X151861428Y-95719342D01*
X151861428Y-95719342D02*
X151813809Y-95814580D01*
X151813809Y-95814580D02*
X151766190Y-95862200D01*
X151766190Y-95862200D02*
X151670952Y-95909819D01*
X151670952Y-95909819D02*
X151385238Y-95909819D01*
X151385238Y-95909819D02*
X151290000Y-95862200D01*
X151290000Y-95862200D02*
X151242381Y-95814580D01*
X152290000Y-95814580D02*
X152337619Y-95862200D01*
X152337619Y-95862200D02*
X152290000Y-95909819D01*
X152290000Y-95909819D02*
X152242381Y-95862200D01*
X152242381Y-95862200D02*
X152290000Y-95814580D01*
X152290000Y-95814580D02*
X152290000Y-95909819D01*
X152670952Y-94909819D02*
X153289999Y-94909819D01*
X153289999Y-94909819D02*
X152956666Y-95290771D01*
X152956666Y-95290771D02*
X153099523Y-95290771D01*
X153099523Y-95290771D02*
X153194761Y-95338390D01*
X153194761Y-95338390D02*
X153242380Y-95386009D01*
X153242380Y-95386009D02*
X153289999Y-95481247D01*
X153289999Y-95481247D02*
X153289999Y-95719342D01*
X153289999Y-95719342D02*
X153242380Y-95814580D01*
X153242380Y-95814580D02*
X153194761Y-95862200D01*
X153194761Y-95862200D02*
X153099523Y-95909819D01*
X153099523Y-95909819D02*
X152813809Y-95909819D01*
X152813809Y-95909819D02*
X152718571Y-95862200D01*
X152718571Y-95862200D02*
X152670952Y-95814580D01*
D14*
%TO.C,D2*%
X118555000Y-100155000D02*
X123995000Y-100155000D01*
X118555000Y-100285000D02*
X118555000Y-100155000D01*
X118555000Y-102965000D02*
X118555000Y-103095000D01*
X118555000Y-103095000D02*
X123995000Y-103095000D01*
X119335000Y-100155000D02*
X119335000Y-103095000D01*
X119455000Y-100155000D02*
X119455000Y-103095000D01*
X119575000Y-100155000D02*
X119575000Y-103095000D01*
X123995000Y-100155000D02*
X123995000Y-100285000D01*
X123995000Y-103095000D02*
X123995000Y-102965000D01*
%TO.C,TP2*%
X183195000Y-103055000D02*
X183195000Y-103175000D01*
X183195000Y-103175000D02*
X185855000Y-103175000D01*
X184525000Y-100515000D02*
X185855000Y-100515000D01*
X185855000Y-100515000D02*
X185855000Y-101845000D01*
X185855000Y-103055000D02*
X185855000Y-103175000D01*
%TO.C,J1*%
X113825000Y-105180000D02*
X114425000Y-105180000D01*
X114425000Y-105180000D02*
X114375000Y-113430000D01*
X177375000Y-105230000D02*
X179025000Y-105230000D01*
X177375000Y-113430000D02*
X177375000Y-105230000D01*
X179025000Y-105230000D02*
X179075000Y-113430000D01*
X193775000Y-105180000D02*
X194075000Y-105180000D01*
X193775000Y-113430000D02*
X193775000Y-105180000D01*
%TO.C,+3.3V*%
X187500000Y-98705000D02*
X187500000Y-101795000D01*
X193049999Y-100250462D02*
G75*
G03*
X187500001Y-98705170I-2989999J462D01*
G01*
X187500000Y-101794830D02*
G75*
G03*
X193050000Y-100249538I2560000J1544830D01*
G01*
X192560000Y-100250000D02*
G75*
G03*
X192560000Y-100250000I-2500000J0D01*
G01*
%TO.C,R1*%
X176630000Y-98500000D02*
X177400000Y-98500000D01*
X177400000Y-97130000D02*
X177400000Y-99870000D01*
X177400000Y-99870000D02*
X183940000Y-99870000D01*
X183940000Y-97130000D02*
X177400000Y-97130000D01*
X183940000Y-99870000D02*
X183940000Y-97130000D01*
X184710000Y-98500000D02*
X183940000Y-98500000D01*
%TO.C,C1*%
X137010000Y-101460000D02*
X135720000Y-101460000D01*
X135720000Y-103130000D02*
X135720000Y-99790000D01*
X135720000Y-99790000D02*
X130380000Y-99790000D01*
X130380000Y-103130000D02*
X135720000Y-103130000D01*
X130380000Y-99790000D02*
X130380000Y-103130000D01*
X129090000Y-101460000D02*
X130380000Y-101460000D01*
%TO.C,D1*%
X118555000Y-95905000D02*
X123995000Y-95905000D01*
X118555000Y-96035000D02*
X118555000Y-95905000D01*
X118555000Y-98715000D02*
X118555000Y-98845000D01*
X118555000Y-98845000D02*
X123995000Y-98845000D01*
X119335000Y-95905000D02*
X119335000Y-98845000D01*
X119455000Y-95905000D02*
X119455000Y-98845000D01*
X119575000Y-95905000D02*
X119575000Y-98845000D01*
X123995000Y-95905000D02*
X123995000Y-96035000D01*
X123995000Y-98845000D02*
X123995000Y-98715000D01*
%TO.C,C2*%
X137010000Y-97300000D02*
X135720000Y-97300000D01*
X135720000Y-98970000D02*
X135720000Y-95630000D01*
X135720000Y-95630000D02*
X130380000Y-95630000D01*
X130380000Y-98970000D02*
X135720000Y-98970000D01*
X130380000Y-95630000D02*
X130380000Y-98970000D01*
X129090000Y-97300000D02*
X130380000Y-97300000D01*
%TO.C,AMS1117CD-3.3*%
X143980000Y-96505000D02*
X143980000Y-96775000D01*
X143980000Y-96775000D02*
X141150000Y-96775000D01*
X143980000Y-103135000D02*
X142880000Y-103135000D01*
X143980000Y-103405000D02*
X143980000Y-103135000D01*
X150400000Y-96505000D02*
X143980000Y-96505000D01*
X150400000Y-103405000D02*
X143980000Y-103405000D01*
%TO.C,TP1*%
X179545000Y-103015000D02*
X179545000Y-103135000D01*
X179545000Y-103135000D02*
X182205000Y-103135000D01*
X180875000Y-100475000D02*
X182205000Y-100475000D01*
X182205000Y-100475000D02*
X182205000Y-101805000D01*
X182205000Y-103015000D02*
X182205000Y-103135000D01*
%TD*%
M02*
